<svg id="svg" version="1.1" xmlns="http://www.w3.org/2000/svg" xmlns:xlink="http://www.w3.org/1999/xlink" width="400" height="400" viewBox="0, 0, 400,400"><g id="svgg"><path id="path0" d="M117.000 41.463 C 99.229 43.683,85.394 54.792,79.735 71.385 C 77.540 77.818,77.600 75.791,77.600 143.521 C 77.600 202.473,77.559 206.186,76.903 206.969 C 76.234 207.766,76.246 207.765,77.203 206.943 C 78.921 205.467,83.003 203.582,91.800 200.202 C 97.578 197.982,97.640 197.935,96.613 196.576 C 96.290 196.149,96.020 195.395,96.013 194.900 C 96.002 194.124,95.787 194.000,94.456 194.000 L 92.912 194.000 92.672 191.700 L 92.433 189.400 94.416 187.387 C 95.507 186.281,96.400 185.237,96.400 185.068 C 96.400 184.634,92.812 181.273,91.525 180.501 C 85.968 177.171,88.198 168.137,94.868 166.957 C 95.601 166.828,96.963 166.379,97.896 165.961 C 98.828 165.542,100.131 165.200,100.790 165.200 C 101.852 165.200,102.125 164.930,103.187 162.826 C 108.449 152.402,129.452 155.902,135.433 168.200 C 137.568 172.590,137.152 182.347,134.767 183.821 C 134.580 183.936,134.961 185.018,135.613 186.224 C 137.117 189.003,137.122 190.178,135.639 191.564 C 135.000 192.160,134.247 193.448,133.965 194.424 C 133.683 195.401,133.215 196.555,132.926 196.989 C 132.637 197.423,132.397 198.233,132.394 198.789 C 132.385 200.179,132.001 200.670,130.387 201.352 L 129.000 201.938 132.487 203.545 C 140.980 207.458,143.159 210.962,143.841 221.800 C 144.179 227.164,144.298 227.600,145.427 227.600 C 146.580 227.600,146.853 227.083,147.975 222.776 C 148.970 218.957,150.228 216.000,150.857 216.000 C 151.125 216.000,151.920 215.370,152.626 214.600 C 154.473 212.583,158.000 213.300,158.000 215.693 C 158.000 215.984,158.289 216.635,158.643 217.139 L 159.285 218.057 159.893 217.188 C 160.349 216.537,160.772 216.374,161.582 216.536 C 162.789 216.778,166.791 212.788,166.809 211.327 C 166.843 208.532,169.382 205.961,176.775 201.237 C 181.009 198.532,181.830 197.482,180.539 196.425 C 180.119 196.081,179.474 195.366,179.105 194.836 C 178.735 194.304,177.949 193.820,177.352 193.756 C 175.258 193.533,174.453 191.567,174.417 186.582 C 174.401 184.282,174.321 184.090,172.764 182.615 C 170.648 180.610,170.400 179.871,170.400 175.574 L 170.400 172.000 169.157 172.000 C 168.127 172.000,167.965 171.880,168.212 171.300 C 168.376 170.915,168.646 169.700,168.814 168.600 C 171.282 152.354,194.003 144.002,202.713 156.139 C 207.439 162.726,208.102 164.989,208.915 177.314 C 209.131 180.576,208.755 180.455,219.054 180.576 C 240.027 180.823,245.467 186.072,244.572 205.200 C 244.381 209.270,244.248 214.220,244.275 216.200 C 244.357 222.214,247.271 243.348,248.072 243.740 C 248.142 243.775,248.755 244.191,249.434 244.665 C 251.076 245.812,257.951 249.242,261.200 250.536 C 264.539 251.866,268.306 252.950,283.000 256.809 C 285.420 257.444,289.650 258.581,292.400 259.335 C 295.150 260.089,299.200 261.194,301.400 261.791 C 303.600 262.389,306.429 263.220,307.687 263.639 C 308.945 264.057,310.038 264.400,310.115 264.400 C 310.192 264.400,310.167 260.845,310.059 256.500 C 309.951 252.155,309.872 247.880,309.884 247.000 C 309.982 239.918,310.091 204.071,310.017 203.600 C 309.965 203.270,309.931 202.100,309.941 201.000 C 309.988 195.951,310.034 155.963,309.994 154.600 C 309.975 153.940,309.966 145.660,309.975 136.200 C 309.984 126.740,309.989 118.640,309.986 118.200 C 309.984 117.760,310.042 111.460,310.115 104.200 C 310.188 96.940,310.116 90.280,309.956 89.400 C 309.796 88.520,309.557 86.090,309.425 84.000 C 308.113 63.191,294.859 47.412,274.200 42.065 C 271.969 41.488,121.419 40.911,117.000 41.463 M175.381 158.100 L 173.800 159.800 175.500 158.219 C 176.435 157.349,177.200 156.584,177.200 156.519 C 177.200 156.216,176.852 156.519,175.381 158.100 M95.505 168.283 C 96.002 168.379,96.722 168.375,97.105 168.275 C 97.487 168.175,97.080 168.096,96.200 168.101 C 95.320 168.105,95.007 168.187,95.505 168.283 M207.340 172.800 C 207.340 174.670,207.409 175.435,207.493 174.500 C 207.577 173.565,207.577 172.035,207.493 171.100 C 207.409 170.165,207.340 170.930,207.340 172.800 M216.700 181.895 C 217.855 181.976,219.745 181.976,220.900 181.895 C 222.055 181.814,221.110 181.748,218.800 181.748 C 216.490 181.748,215.545 181.814,216.700 181.895 M99.795 196.408 C 99.638 196.662,99.170 196.781,98.754 196.672 C 98.339 196.564,98.100 196.638,98.223 196.837 C 98.346 197.037,98.662 197.197,98.924 197.194 C 99.627 197.185,100.616 196.482,100.328 196.195 C 100.192 196.059,99.952 196.154,99.795 196.408 M131.190 197.681 C 131.084 198.716,131.145 199.415,131.326 199.234 C 131.507 199.053,131.593 198.207,131.519 197.353 L 131.383 195.800 131.190 197.681 M126.300 200.682 C 126.795 200.778,127.605 200.778,128.100 200.682 C 128.595 200.587,128.190 200.509,127.200 200.509 C 126.210 200.509,125.805 200.587,126.300 200.682 M219.000 209.600 C 218.602 210.040,218.416 210.400,218.587 210.400 C 218.758 210.400,218.654 210.715,218.356 211.100 C 217.917 211.667,217.984 211.654,218.709 211.036 C 219.202 210.615,219.515 210.182,219.406 210.073 C 219.296 209.963,219.407 209.632,219.652 209.337 C 220.356 208.489,219.804 208.712,219.000 209.600 M216.636 212.360 C 216.222 212.818,216.107 213.219,216.346 213.367 C 216.758 213.621,217.320 212.977,217.453 212.100 C 217.555 211.431,217.445 211.466,216.636 212.360 M214.996 215.207 C 214.858 215.430,214.603 215.526,214.431 215.419 C 214.258 215.312,213.685 215.714,213.158 216.312 L 212.200 217.400 213.230 216.496 C 213.796 215.999,214.355 215.689,214.473 215.806 C 214.590 215.923,214.914 215.745,215.192 215.410 C 215.470 215.074,215.597 214.800,215.473 214.800 C 215.349 214.800,215.134 214.983,214.996 215.207 M151.815 217.224 C 152.096 217.679,153.200 217.727,153.200 217.285 C 153.200 217.112,152.836 216.943,152.391 216.909 C 151.947 216.876,151.687 217.018,151.815 217.224 M242.893 218.000 C 242.893 218.770,242.975 219.085,243.076 218.700 C 243.176 218.315,243.176 217.685,243.076 217.300 C 242.975 216.915,242.893 217.230,242.893 218.000 M150.753 217.876 C 150.727 218.054,150.736 218.364,150.774 218.563 C 150.811 218.763,150.662 219.038,150.442 219.174 C 150.222 219.310,150.175 219.636,150.338 219.899 C 150.529 220.209,150.791 219.959,151.081 219.190 C 151.344 218.495,151.378 217.910,151.165 217.778 C 150.964 217.654,150.779 217.698,150.753 217.876 M162.040 219.700 C 162.018 220.305,162.144 220.800,162.320 220.800 C 162.785 220.800,163.602 219.910,163.588 219.420 C 163.581 219.189,163.365 219.360,163.109 219.800 C 162.657 220.574,162.633 220.568,162.361 219.600 L 162.080 218.600 162.040 219.700 M157.308 223.171 C 156.487 224.159,156.236 224.695,156.619 224.638 C 156.951 224.590,157.199 224.409,157.172 224.238 C 157.144 224.066,157.623 223.402,158.236 222.763 C 158.848 222.123,159.181 221.603,158.975 221.607 C 158.769 221.611,158.019 222.315,157.308 223.171 M142.893 226.400 C 142.893 227.170,142.975 227.485,143.076 227.100 C 143.176 226.715,143.176 226.085,143.076 225.700 C 142.975 225.315,142.893 225.630,142.893 226.400 M154.423 226.922 L 153.445 228.200 154.452 227.296 C 155.006 226.799,155.591 226.524,155.751 226.684 C 155.911 226.844,155.924 226.666,155.778 226.288 C 155.458 225.453,155.596 225.388,154.423 226.922 M99.444 228.329 C 99.315 228.538,99.477 228.932,99.804 229.204 C 100.132 229.476,100.403 229.541,100.406 229.349 C 100.409 229.157,100.587 229.270,100.800 229.600 C 101.013 229.930,101.191 230.003,101.194 229.762 C 101.203 229.105,99.717 227.887,99.444 228.329 M202.905 233.087 C 203.514 233.179,204.414 233.177,204.905 233.082 C 205.397 232.987,204.900 232.911,203.800 232.914 C 202.700 232.917,202.297 232.995,202.905 233.087 M184.100 233.476 C 184.485 233.576,185.115 233.576,185.500 233.476 C 185.885 233.375,185.570 233.293,184.800 233.293 C 184.030 233.293,183.715 233.375,184.100 233.476 M158.432 237.020 C 158.463 238.582,158.468 238.587,158.877 237.465 C 159.170 236.660,159.161 236.201,158.845 235.885 C 158.518 235.558,158.408 235.860,158.432 237.020 M77.640 240.730 L 77.600 245.661 78.784 244.730 C 80.131 243.672,80.125 243.471,78.617 238.740 L 77.679 235.800 77.640 240.730 M125.705 241.087 C 126.314 241.179,127.214 241.177,127.705 241.082 C 128.197 240.987,127.700 240.911,126.600 240.914 C 125.500 240.917,125.097 240.995,125.705 241.087 M138.905 241.487 C 139.514 241.579,140.414 241.577,140.905 241.482 C 141.397 241.387,140.900 241.311,139.800 241.314 C 138.700 241.317,138.297 241.395,138.905 241.487 M133.907 241.890 C 134.626 241.979,135.706 241.977,136.307 241.886 C 136.908 241.795,136.320 241.722,135.000 241.724 C 133.680 241.726,133.188 241.801,133.907 241.890 M156.697 243.766 C 156.125 244.966,156.118 245.160,156.643 245.361 C 156.995 245.496,157.136 245.421,156.986 245.178 C 156.846 244.951,156.899 244.548,157.103 244.282 C 157.674 243.544,158.013 242.400,157.662 242.400 C 157.489 242.400,157.055 243.015,156.697 243.766 M174.100 245.476 C 174.485 245.576,175.115 245.576,175.500 245.476 C 175.885 245.375,175.570 245.293,174.800 245.293 C 174.030 245.293,173.715 245.375,174.100 245.476 M173.900 247.082 C 174.395 247.178,175.205 247.178,175.700 247.082 C 176.195 246.987,175.790 246.909,174.800 246.909 C 173.810 246.909,173.405 246.987,173.900 247.082 M165.600 248.953 C 165.600 249.317,167.159 249.472,167.656 249.157 C 168.026 248.923,167.784 248.810,166.900 248.806 C 166.185 248.803,165.600 248.869,165.600 248.953 M171.776 250.827 C 171.350 251.297,171.262 251.600,171.551 251.600 C 171.812 251.600,172.124 251.341,172.246 251.025 C 172.367 250.709,172.721 250.548,173.033 250.668 C 173.345 250.788,173.600 250.796,173.600 250.686 C 173.600 250.071,172.374 250.166,171.776 250.827 M166.812 250.800 C 166.812 251.130,166.987 251.670,167.200 252.000 C 167.545 252.533,167.588 252.533,167.588 252.000 C 167.588 251.670,167.413 251.130,167.200 250.800 C 166.855 250.267,166.812 250.267,166.812 250.800 M182.600 250.800 C 182.464 251.020,182.408 251.214,182.476 251.231 C 183.793 251.557,184.017 251.503,183.573 250.968 C 183.013 250.293,182.923 250.277,182.600 250.800 M187.900 250.831 C 187.515 251.056,187.200 251.119,187.200 250.971 C 187.200 250.823,186.932 250.924,186.604 251.196 C 186.277 251.468,186.115 251.862,186.244 252.071 C 186.377 252.287,186.803 252.159,187.224 251.779 C 187.661 251.383,188.345 251.187,188.884 251.303 C 189.388 251.411,190.250 251.361,190.800 251.190 L 191.800 250.880 190.733 250.840 C 190.146 250.818,189.426 250.715,189.133 250.611 C 188.840 250.507,188.285 250.606,187.900 250.831 M174.705 251.594 C 173.443 251.990,171.768 252.694,170.982 253.157 C 169.413 254.083,168.339 254.210,167.203 253.602 C 166.608 253.283,166.218 253.444,165.260 254.402 C 164.594 255.068,163.635 255.600,163.100 255.600 C 162.572 255.600,161.703 256.068,161.170 256.640 C 158.980 258.987,154.726 260.421,152.802 259.461 C 151.514 258.818,150.800 259.362,150.800 260.986 C 150.800 261.959,149.978 262.076,147.790 261.412 C 145.384 260.682,145.088 260.665,145.289 261.266 C 145.374 261.522,146.694 262.047,148.222 262.432 C 149.750 262.817,153.610 263.783,156.800 264.578 C 162.591 266.022,169.137 267.802,173.942 269.240 C 175.340 269.658,177.295 270.000,178.286 270.000 L 180.087 270.000 179.834 265.700 C 179.694 263.335,179.745 259.878,179.948 258.017 C 180.298 254.798,180.270 254.566,179.358 253.224 C 178.831 252.449,178.400 251.586,178.400 251.307 C 178.400 250.644,177.507 250.714,174.705 251.594 M169.100 251.887 C 168.495 251.978,168.000 252.221,168.000 252.427 C 168.000 252.959,168.838 252.864,170.000 252.200 C 171.025 251.614,170.987 251.601,169.100 251.887 M72.134 262.800 C 72.134 264.450,72.205 265.125,72.291 264.300 C 72.378 263.475,72.378 262.125,72.291 261.300 C 72.205 260.475,72.134 261.150,72.134 262.800 M70.934 263.200 C 70.934 264.850,71.005 265.525,71.091 264.700 C 71.178 263.875,71.178 262.525,71.091 261.700 C 71.005 260.875,70.934 261.550,70.934 263.200 M180.893 265.600 C 180.893 266.370,180.975 266.685,181.076 266.300 C 181.176 265.915,181.176 265.285,181.076 264.900 C 180.975 264.515,180.893 264.830,180.893 265.600 M311.600 265.000 C 312.150 265.314,312.780 265.572,313.000 265.572 C 313.220 265.572,312.950 265.314,312.400 265.000 C 311.850 264.686,311.220 264.428,311.000 264.428 C 310.780 264.428,311.050 264.686,311.600 265.000 M133.232 269.033 C 133.214 269.272,133.308 269.574,133.439 269.706 C 133.778 270.044,134.800 269.595,134.800 269.108 C 134.800 268.862,134.580 268.885,134.239 269.168 C 133.808 269.525,133.630 269.513,133.470 269.117 C 133.356 268.833,133.249 268.795,133.232 269.033 M129.701 277.400 C 129.705 278.280,129.787 278.593,129.883 278.095 C 129.979 277.598,129.975 276.878,129.875 276.495 C 129.775 276.113,129.696 276.520,129.701 277.400 M117.266 276.750 C 116.839 277.021,116.864 277.139,117.387 277.340 C 117.805 277.500,117.943 277.432,117.771 277.153 C 117.588 276.857,117.809 276.802,118.450 276.983 C 119.183 277.191,119.263 277.156,118.800 276.832 C 118.075 276.325,117.949 276.318,117.266 276.750 M122.344 278.843 C 121.898 279.126,121.908 279.195,122.400 279.227 C 122.730 279.249,123.397 279.311,123.881 279.365 C 124.366 279.419,124.684 279.336,124.588 279.180 C 124.285 278.690,122.912 278.483,122.344 278.843 M126.628 280.355 C 126.503 280.557,126.941 280.910,127.600 281.140 C 128.260 281.370,128.800 281.456,128.800 281.330 C 128.800 281.205,129.115 281.339,129.500 281.629 C 130.149 282.118,130.153 282.105,129.559 281.451 C 129.206 281.064,128.666 280.708,128.359 280.662 C 128.052 280.616,127.587 280.445,127.328 280.282 C 127.068 280.120,126.753 280.152,126.628 280.355 M103.855 292.911 C 103.393 293.248,103.252 293.671,103.440 294.159 C 103.703 294.845,103.775 294.830,104.453 293.949 C 105.615 292.437,105.286 291.864,103.855 292.911 M264.538 294.698 C 265.641 298.719,265.581 298.787,259.583 300.368 L 255.000 301.576 252.353 304.484 L 249.706 307.392 248.553 306.807 C 246.261 305.644,242.599 303.022,241.177 301.527 C 239.800 300.080,239.594 300.000,237.262 300.000 L 234.800 300.000 234.800 297.973 L 234.800 295.946 233.667 296.752 C 231.586 298.234,228.252 299.258,223.605 299.842 C 221.072 300.160,218.730 300.466,218.400 300.522 C 217.130 300.735,216.800 301.288,216.800 303.200 C 216.800 305.700,216.453 305.872,214.681 304.249 L 213.239 302.927 213.119 304.761 L 213.000 306.595 209.600 308.047 C 206.516 309.364,202.387 310.678,198.254 311.658 C 196.468 312.082,195.200 311.797,195.200 310.973 C 195.200 310.257,194.150 310.263,190.800 311.000 C 185.451 312.177,177.931 311.357,176.701 309.464 C 175.179 307.121,175.615 304.563,177.787 303.086 L 179.216 302.116 176.908 301.866 C 175.639 301.729,172.657 300.983,170.283 300.208 C 167.908 299.434,165.883 298.800,165.783 298.800 C 165.382 298.800,165.641 299.992,166.429 301.773 C 167.438 304.054,167.036 304.800,164.800 304.800 C 161.185 304.800,159.137 302.886,158.022 298.465 L 157.350 295.803 155.575 295.554 C 154.599 295.418,152.777 295.181,151.527 295.028 L 149.255 294.749 146.618 299.934 C 142.512 308.009,139.603 309.422,129.200 308.390 C 121.858 307.662,119.265 305.634,117.733 299.424 C 117.376 297.981,116.952 296.800,116.789 296.800 C 116.022 296.800,115.276 298.901,115.080 301.613 C 114.870 304.516,114.503 305.985,113.495 307.954 C 112.455 309.986,103.212 313.171,100.001 312.605 C 97.497 312.163,97.200 311.986,97.200 310.941 C 97.200 310.061,97.064 309.962,96.100 310.147 C 95.495 310.263,94.190 310.478,93.200 310.627 C 92.210 310.775,89.690 311.581,87.600 312.417 C 84.860 313.514,82.908 314.015,80.600 314.212 L 77.400 314.485 77.652 321.742 C 78.159 336.300,82.250 345.755,92.018 354.944 C 94.908 357.662,101.484 362.400,102.368 362.400 C 102.574 362.400,103.018 362.676,103.355 363.012 C 104.255 363.912,108.620 366.000,109.601 366.000 C 110.066 366.000,110.336 366.180,110.200 366.400 C 110.064 366.620,110.323 366.800,110.776 366.800 C 111.229 366.800,111.600 366.950,111.600 367.133 C 111.600 367.317,111.825 367.482,112.100 367.501 C 112.375 367.519,114.400 367.946,116.600 368.450 L 120.600 369.364 194.600 369.509 C 268.712 369.655,274.828 369.566,278.000 368.302 C 278.550 368.083,279.388 367.853,279.863 367.791 C 281.425 367.587,283.751 366.710,287.148 365.043 C 291.753 362.783,291.993 362.637,293.750 361.024 C 294.603 360.241,295.427 359.600,295.583 359.600 C 295.958 359.600,301.902 353.213,302.517 352.149 C 302.783 351.690,303.530 350.524,304.178 349.557 C 304.826 348.591,305.778 346.720,306.294 345.400 C 306.809 344.080,307.394 342.703,307.594 342.339 C 308.047 341.515,309.145 337.318,309.670 334.400 C 309.888 333.190,310.023 330.400,309.971 328.200 C 309.863 323.622,309.861 324.017,310.031 313.400 L 310.159 305.400 314.179 305.178 L 318.200 304.957 312.889 304.878 C 302.697 304.728,293.347 303.344,285.400 300.810 C 284.080 300.389,280.030 299.123,276.400 297.998 C 272.770 296.872,268.573 295.511,267.073 294.974 C 264.620 294.095,264.364 294.067,264.538 294.698 M101.846 302.762 C 100.114 306.266,100.138 306.000,101.551 306.000 C 103.197 306.000,104.740 302.600,103.858 300.916 L 103.292 299.836 101.846 302.762 M384.800 300.125 C 384.800 300.194,385.385 300.779,386.100 301.425 L 387.400 302.600 386.225 301.300 C 385.130 300.088,384.800 299.816,384.800 300.125 M178.512 300.695 C 179.564 300.777,181.184 300.776,182.112 300.692 C 183.040 300.608,182.180 300.541,180.200 300.542 C 178.220 300.543,177.460 300.612,178.512 300.695 M302.100 303.076 C 302.485 303.176,303.115 303.176,303.500 303.076 C 303.885 302.975,303.570 302.893,302.800 302.893 C 302.030 302.893,301.715 302.975,302.100 303.076 M306.305 303.483 C 306.802 303.579,307.522 303.575,307.905 303.475 C 308.287 303.375,307.880 303.296,307.000 303.301 C 306.120 303.305,305.807 303.387,306.305 303.483 M120.800 303.725 C 120.800 303.794,121.385 304.379,122.100 305.025 L 123.400 306.200 122.225 304.900 C 121.130 303.688,120.800 303.416,120.800 303.725 M314.505 303.887 C 315.114 303.979,316.014 303.977,316.505 303.882 C 316.997 303.787,316.500 303.711,315.400 303.714 C 314.300 303.717,313.897 303.795,314.505 303.887 M333.500 304.282 C 333.995 304.378,334.805 304.378,335.300 304.282 C 335.795 304.187,335.390 304.109,334.400 304.109 C 333.410 304.109,333.005 304.187,333.500 304.282 M340.300 304.682 C 340.795 304.778,341.605 304.778,342.100 304.682 C 342.595 304.587,342.190 304.509,341.200 304.509 C 340.210 304.509,339.805 304.587,340.300 304.682 M352.400 304.800 L 346.600 305.034 352.276 305.117 C 355.722 305.167,358.050 305.043,358.200 304.800 C 358.336 304.580,358.392 304.437,358.324 304.483 C 358.256 304.529,355.590 304.672,352.400 304.800 M319.300 305.076 C 319.685 305.176,320.315 305.176,320.700 305.076 C 321.085 304.975,320.770 304.893,320.000 304.893 C 319.230 304.893,318.915 304.975,319.300 305.076 M328.700 305.493 C 329.635 305.577,331.165 305.577,332.100 305.493 C 333.035 305.409,332.270 305.340,330.400 305.340 C 328.530 305.340,327.765 305.409,328.700 305.493 M176.800 306.576 C 176.800 307.113,176.947 307.644,177.128 307.755 C 177.308 307.867,177.377 307.427,177.282 306.779 C 177.072 305.349,176.800 305.235,176.800 306.576 M70.975 307.300 L 69.800 308.600 71.100 307.425 C 72.312 306.330,72.584 306.000,72.275 306.000 C 72.206 306.000,71.621 306.585,70.975 307.300 M352.300 306.293 C 353.235 306.377,354.765 306.377,355.700 306.293 C 356.635 306.209,355.870 306.140,354.000 306.140 C 352.130 306.140,351.365 306.209,352.300 306.293 M102.000 307.200 C 100.616 307.491,100.614 307.495,101.800 307.541 C 102.460 307.567,103.270 307.413,103.600 307.200 C 104.266 306.770,104.045 306.770,102.000 307.200 M131.891 307.489 C 132.601 307.577,133.861 307.579,134.691 307.492 C 135.521 307.405,134.940 307.333,133.400 307.331 C 131.860 307.329,131.181 307.400,131.891 307.489 M100.105 311.487 C 100.714 311.579,101.614 311.577,102.105 311.482 C 102.597 311.387,102.100 311.311,101.000 311.314 C 99.900 311.317,99.497 311.395,100.105 311.487 M79.105 313.083 C 79.602 313.179,80.322 313.175,80.705 313.075 C 81.087 312.975,80.680 312.896,79.800 312.901 C 78.920 312.905,78.607 312.987,79.105 313.083 M73.700 313.487 C 74.305 313.578,75.295 313.578,75.900 313.487 C 76.505 313.395,76.010 313.320,74.800 313.320 C 73.590 313.320,73.095 313.395,73.700 313.487 " stroke="none" fill="#a91a1b" fill-rule="evenodd"></path><path id="path1" d="M183.800 151.403 C 175.846 154.294,169.961 161.048,168.814 168.600 C 168.646 169.700,168.376 170.915,168.212 171.300 C 167.965 171.880,168.127 172.000,169.157 172.000 L 170.400 172.000 170.400 175.574 C 170.400 179.871,170.648 180.610,172.764 182.615 C 174.321 184.090,174.401 184.282,174.417 186.582 C 174.453 191.567,175.258 193.533,177.352 193.756 C 177.949 193.820,178.735 194.304,179.105 194.836 C 179.474 195.366,180.119 196.081,180.539 196.425 C 181.830 197.482,181.009 198.532,176.775 201.237 C 169.382 205.961,166.843 208.532,166.809 211.327 C 166.791 212.788,162.789 216.778,161.582 216.536 C 160.772 216.374,160.349 216.537,159.893 217.188 L 159.285 218.057 158.643 217.139 C 158.289 216.635,158.000 215.984,158.000 215.693 C 158.000 213.300,154.473 212.583,152.626 214.600 C 151.920 215.370,151.125 216.000,150.857 216.000 C 150.228 216.000,148.970 218.957,147.975 222.776 C 146.853 227.083,146.580 227.600,145.427 227.600 C 144.298 227.600,144.179 227.164,143.841 221.800 C 143.159 210.962,140.980 207.458,132.487 203.545 L 129.000 201.938 130.387 201.352 C 132.001 200.670,132.385 200.179,132.394 198.789 C 132.397 198.233,132.637 197.423,132.926 196.989 C 133.215 196.555,133.683 195.401,133.965 194.424 C 134.247 193.448,135.000 192.160,135.639 191.564 C 137.122 190.178,137.117 189.003,135.613 186.224 C 134.961 185.018,134.580 183.936,134.767 183.821 C 137.152 182.347,137.568 172.590,135.433 168.200 C 129.452 155.902,108.449 152.402,103.187 162.826 C 102.125 164.930,101.852 165.200,100.790 165.200 C 100.131 165.200,98.828 165.542,97.896 165.961 C 96.963 166.379,95.601 166.828,94.868 166.957 C 88.198 168.137,85.968 177.171,91.525 180.501 C 92.812 181.273,96.400 184.634,96.400 185.068 C 96.400 185.237,95.507 186.281,94.416 187.387 L 92.433 189.400 92.672 191.700 L 92.912 194.000 94.456 194.000 C 95.787 194.000,96.002 194.124,96.013 194.900 C 96.020 195.395,96.290 196.149,96.613 196.576 C 97.640 197.935,97.578 197.982,91.800 200.202 C 69.543 208.754,67.499 212.138,74.763 228.400 C 76.286 231.810,78.092 236.588,78.776 239.018 L 80.020 243.436 78.273 245.259 C 77.312 246.262,75.963 248.066,75.276 249.268 C 74.588 250.470,73.632 251.801,73.152 252.227 C 70.516 254.562,69.485 257.602,70.602 259.746 C 70.987 260.483,71.203 262.051,71.208 264.146 C 71.218 268.445,71.786 272.181,73.063 276.369 L 74.110 279.800 73.433 284.400 C 73.061 286.930,72.527 290.483,72.247 292.295 L 71.737 295.591 73.669 297.219 C 75.748 298.972,76.124 300.273,74.987 301.776 C 74.664 302.204,74.400 303.149,74.400 303.876 C 74.400 304.604,74.239 305.200,74.043 305.200 C 73.847 305.200,72.747 306.044,71.600 307.076 C 69.152 309.277,68.835 312.082,70.848 313.726 C 72.697 315.234,82.403 314.514,87.420 312.496 C 89.609 311.616,92.210 310.775,93.200 310.627 C 94.190 310.478,95.495 310.263,96.100 310.147 C 97.064 309.962,97.200 310.061,97.200 310.941 C 97.200 314.267,111.617 311.624,113.495 307.954 C 114.503 305.985,114.870 304.516,115.080 301.613 C 115.276 298.901,116.022 296.800,116.789 296.800 C 116.952 296.800,117.376 297.981,117.733 299.424 C 119.265 305.634,121.858 307.662,129.200 308.390 C 139.603 309.422,142.512 308.009,146.618 299.934 L 149.255 294.749 151.527 295.028 C 152.777 295.181,154.599 295.418,155.575 295.554 L 157.350 295.803 158.022 298.465 C 159.137 302.886,161.185 304.800,164.800 304.800 C 167.036 304.800,167.438 304.054,166.429 301.773 C 165.641 299.992,165.382 298.800,165.783 298.800 C 165.883 298.800,167.908 299.434,170.283 300.208 C 172.657 300.983,175.639 301.729,176.908 301.866 L 179.216 302.116 177.787 303.086 C 175.615 304.563,175.179 307.121,176.701 309.464 C 177.931 311.357,185.451 312.177,190.800 311.000 C 194.150 310.263,195.200 310.257,195.200 310.973 C 195.200 311.797,196.468 312.082,198.254 311.658 C 202.387 310.678,206.516 309.364,209.600 308.047 L 213.000 306.595 213.119 304.761 L 213.239 302.927 214.681 304.249 C 216.453 305.872,216.800 305.700,216.800 303.200 C 216.800 301.288,217.130 300.735,218.400 300.522 C 218.730 300.466,221.072 300.160,223.605 299.842 C 228.252 299.258,231.586 298.234,233.667 296.752 L 234.800 295.946 234.800 297.973 L 234.800 300.000 237.262 300.000 C 239.594 300.000,239.800 300.080,241.177 301.527 C 242.599 303.022,246.261 305.644,248.553 306.807 L 249.706 307.392 252.353 304.484 L 255.000 301.576 259.583 300.368 C 265.581 298.787,265.641 298.719,264.538 294.698 C 264.364 294.067,264.620 294.095,267.073 294.974 C 268.573 295.511,272.770 296.872,276.400 297.998 C 280.030 299.123,284.080 300.389,285.400 300.810 C 294.468 303.702,302.127 304.640,319.600 305.002 C 326.090 305.136,333.830 305.409,336.800 305.608 C 343.311 306.045,357.540 306.178,358.458 305.810 C 359.747 305.294,364.725 306.321,367.917 307.763 C 371.630 309.439,371.870 309.455,377.042 308.391 C 390.286 305.666,390.669 304.388,380.445 297.022 C 374.329 292.616,370.603 289.341,370.589 288.361 C 370.552 285.717,361.852 281.934,335.200 272.976 C 322.330 268.650,310.540 264.664,309.000 264.118 C 307.460 263.573,304.220 262.583,301.800 261.918 C 299.380 261.254,295.150 260.093,292.400 259.338 C 289.650 258.582,285.420 257.444,283.000 256.809 C 268.306 252.950,264.539 251.866,261.200 250.536 C 257.951 249.242,251.076 245.812,249.434 244.665 C 248.755 244.191,248.142 243.775,248.072 243.740 C 247.271 243.348,244.357 222.214,244.275 216.200 C 244.248 214.220,244.381 209.270,244.572 205.200 C 245.467 186.072,240.027 180.823,219.054 180.576 C 208.755 180.455,209.131 180.576,208.915 177.314 C 208.102 164.989,207.439 162.726,202.713 156.139 C 199.088 151.088,190.549 148.950,183.800 151.403 M194.080 152.040 C 198.367 152.929,201.264 155.378,204.026 160.449 C 207.056 166.010,207.246 166.724,207.570 173.762 C 207.961 182.254,207.893 182.182,215.161 181.804 C 239.117 180.557,246.020 187.834,243.240 211.407 C 242.695 216.024,244.748 236.295,246.420 242.809 C 246.853 244.496,249.883 246.648,255.704 249.404 C 262.031 252.399,267.224 253.982,291.800 260.406 C 302.100 263.098,302.971 263.372,332.400 273.179 C 360.576 282.568,369.131 286.152,368.949 288.490 C 368.897 289.162,373.552 293.315,377.800 296.386 C 388.610 304.201,388.662 304.364,381.002 306.393 C 374.100 308.220,371.503 308.370,368.970 307.086 C 365.413 305.284,358.784 303.855,358.220 304.768 C 357.848 305.369,351.333 305.310,339.800 304.602 C 334.520 304.278,326.960 304.004,323.000 303.994 C 300.966 303.936,292.995 302.455,266.653 293.522 C 260.410 291.406,260.655 291.415,259.599 293.251 C 259.286 293.795,259.498 293.945,260.892 294.168 C 266.685 295.095,263.761 298.918,256.564 299.829 C 254.655 300.070,254.379 300.259,252.164 302.833 C 250.864 304.343,249.550 305.584,249.245 305.590 C 248.314 305.607,242.150 301.247,241.695 300.249 C 241.247 299.266,239.831 298.800,237.293 298.800 L 235.885 298.800 236.145 296.000 C 236.446 292.770,236.407 292.739,234.367 294.583 C 231.468 297.201,230.086 297.653,220.692 299.058 L 215.983 299.763 215.738 301.297 C 215.452 303.086,214.848 303.083,214.000 301.288 C 213.095 299.371,210.976 299.381,211.361 301.300 C 212.336 306.165,212.565 305.916,204.660 308.589 C 198.671 310.614,196.526 310.841,196.186 309.486 C 195.959 308.582,195.808 308.507,194.865 308.829 C 182.227 313.131,170.463 307.982,181.092 302.800 C 185.589 300.607,185.622 300.485,181.645 300.715 C 177.840 300.935,174.388 300.377,169.383 298.733 C 164.645 297.177,162.683 298.377,164.987 301.424 C 166.743 303.745,163.934 304.571,161.512 302.445 C 160.289 301.371,159.803 300.303,158.485 295.800 C 158.097 294.474,157.716 294.368,151.548 293.867 L 148.496 293.618 145.997 298.509 C 141.841 306.640,140.744 307.387,133.000 307.355 C 122.746 307.313,119.117 304.605,118.507 296.542 C 118.241 293.023,118.186 293.007,115.910 295.771 C 114.173 297.882,114.116 298.039,113.879 301.404 C 113.594 305.439,112.723 307.548,111.000 308.377 C 105.681 310.936,100.252 312.227,98.849 311.267 C 98.055 310.724,99.828 307.643,101.081 307.387 C 101.586 307.284,102.405 307.114,102.900 307.009 C 103.566 306.867,104.069 306.152,104.834 304.262 L 105.868 301.707 105.043 300.574 C 103.750 298.799,103.964 296.891,105.749 294.301 C 107.232 292.147,107.526 290.019,106.266 290.554 C 106.010 290.663,104.875 291.040,103.746 291.391 L 101.691 292.030 102.036 293.515 C 102.832 296.942,102.277 299.911,100.234 303.146 C 99.573 304.193,99.200 305.354,99.200 306.364 C 99.200 308.125,97.674 308.848,92.360 309.604 C 91.129 309.779,89.359 310.311,88.428 310.786 C 84.167 312.960,72.933 314.287,71.428 312.795 C 69.496 310.879,71.143 307.515,74.743 306.023 C 75.695 305.629,75.815 305.390,75.672 304.168 C 75.561 303.212,75.732 302.518,76.208 301.991 C 77.421 300.651,76.766 298.492,74.562 296.562 L 72.691 294.924 73.130 292.962 C 73.371 291.883,73.933 288.480,74.378 285.400 L 75.188 279.800 73.978 275.800 C 73.070 272.800,72.664 270.400,72.355 266.200 C 72.129 263.120,71.753 259.941,71.520 259.136 C 70.945 257.151,71.345 255.863,73.152 253.876 C 73.991 252.954,75.358 251.120,76.190 249.800 C 77.022 248.480,78.512 246.653,79.500 245.739 L 81.298 244.078 80.608 240.978 C 79.819 237.431,78.556 233.908,76.529 229.600 C 70.795 217.415,70.556 214.198,75.064 209.923 C 76.759 208.316,82.499 205.147,86.800 203.444 C 95.110 200.154,99.414 198.289,99.694 197.855 C 100.181 197.101,100.041 196.864,99.234 197.075 C 98.384 197.298,97.629 196.222,97.216 194.200 C 97.005 193.162,96.774 192.983,95.509 192.877 C 93.011 192.668,93.171 190.480,95.900 187.530 C 97.930 185.335,98.606 183.600,97.431 183.600 C 96.656 183.600,94.400 181.658,94.400 180.991 C 94.400 180.696,93.995 180.331,93.500 180.181 C 87.325 178.308,88.888 168.920,95.506 168.137 C 96.658 168.000,97.600 167.748,97.600 167.575 C 97.600 167.067,100.318 166.320,101.176 166.592 C 101.930 166.832,104.400 164.167,104.400 163.113 C 104.400 160.691,108.992 158.280,114.000 158.075 C 123.268 157.694,131.068 161.821,134.403 168.872 C 136.244 172.762,136.203 179.353,134.321 182.194 L 133.042 184.125 134.321 186.434 C 135.950 189.376,135.967 190.331,134.400 190.922 C 133.444 191.283,133.200 191.613,133.200 192.544 C 133.200 193.186,132.929 193.912,132.597 194.156 C 132.250 194.411,131.867 195.621,131.697 197.000 C 131.251 200.607,128.984 201.533,123.865 200.200 C 119.606 199.091,119.774 199.677,124.200 201.372 C 136.909 206.238,139.569 208.081,141.158 213.121 C 141.823 215.230,143.200 224.834,143.200 227.362 C 143.200 229.770,147.507 229.243,148.141 226.757 C 150.218 218.609,151.100 216.523,152.275 216.973 C 152.596 217.097,153.029 216.627,153.391 215.760 C 153.888 214.570,154.154 214.365,155.060 214.473 C 156.487 214.641,156.714 215.437,155.329 215.416 C 154.499 215.404,154.191 215.633,154.008 216.400 C 153.840 217.101,153.456 217.437,152.723 217.523 C 151.489 217.668,151.168 218.329,149.760 223.629 C 146.947 234.217,147.201 233.521,145.996 233.941 C 144.441 234.484,144.198 235.627,145.170 237.825 C 146.165 240.074,146.830 239.979,147.021 237.561 C 147.228 234.938,147.828 233.659,149.218 232.883 C 149.958 232.471,150.532 231.769,150.669 231.111 C 150.794 230.512,151.279 229.664,151.748 229.226 C 154.173 226.962,155.550 225.501,157.000 223.652 C 159.146 220.915,159.518 221.054,157.665 223.900 C 156.842 225.165,155.553 227.435,154.801 228.945 C 154.050 230.455,153.030 231.955,152.536 232.278 C 151.601 232.891,149.602 236.497,149.598 237.579 C 149.589 239.924,148.782 241.142,146.797 241.801 C 144.802 242.464,142.499 242.289,143.647 241.562 C 144.030 241.320,143.805 241.210,142.913 241.206 C 142.000 241.202,141.685 241.356,141.831 241.736 C 141.944 242.030,141.310 243.618,140.422 245.264 C 139.534 246.909,138.113 250.265,137.263 252.720 C 136.412 255.175,135.639 257.106,135.544 257.011 C 135.449 256.916,134.960 258.225,134.457 259.919 C 133.954 261.614,132.918 264.800,132.154 267.000 C 130.174 272.701,130.020 273.421,130.010 277.076 C 129.995 281.919,131.124 281.641,134.381 276.000 C 138.406 269.027,139.437 266.027,137.300 267.507 C 135.365 268.847,134.929 269.019,135.700 268.137 C 136.085 267.697,136.400 266.744,136.400 266.020 C 136.400 265.296,137.300 261.832,138.400 258.322 C 139.500 254.812,140.400 251.684,140.400 251.370 C 140.400 251.057,140.580 250.800,140.800 250.800 C 141.020 250.800,141.200 251.179,141.200 251.642 C 141.200 252.407,141.307 252.370,142.360 251.242 C 143.053 250.501,143.920 250.000,144.508 250.000 C 146.277 250.000,153.775 247.563,154.753 246.670 C 155.277 246.191,156.221 244.720,156.852 243.400 C 157.483 242.080,157.998 241.360,157.997 241.800 C 157.996 242.240,157.726 243.116,157.398 243.746 C 157.069 244.376,156.800 244.958,156.800 245.040 C 156.800 245.972,164.678 248.790,167.300 248.796 C 168.345 248.798,169.200 248.980,169.200 249.200 C 169.200 249.420,168.949 249.600,168.643 249.600 C 168.060 249.600,167.600 250.431,167.600 251.485 C 167.600 251.983,167.935 252.061,169.300 251.883 C 170.997 251.660,170.998 251.661,169.883 252.251 C 167.975 253.262,165.958 251.696,167.216 250.181 C 167.610 249.706,167.551 249.600,166.893 249.600 C 166.296 249.600,166.024 249.948,165.836 250.951 C 165.512 252.677,163.925 254.400,162.659 254.400 C 162.083 254.400,161.128 254.950,160.340 255.736 C 159.603 256.471,157.920 257.479,156.600 257.977 L 154.200 258.882 152.721 258.041 C 150.841 256.973,150.998 256.923,150.235 258.830 C 149.482 260.712,149.040 260.722,144.569 258.959 C 141.589 257.784,141.600 257.784,141.600 258.936 C 141.600 259.543,141.947 260.030,142.589 260.322 C 143.133 260.570,143.685 261.201,143.817 261.724 C 144.036 262.597,144.707 262.834,151.928 264.588 C 159.966 266.540,167.337 268.479,170.200 269.394 C 173.106 270.322,179.556 271.662,180.486 271.530 C 181.502 271.386,181.471 271.862,180.966 264.166 C 180.781 261.345,180.844 259.864,181.178 259.241 C 181.543 258.560,181.545 258.216,181.188 257.786 C 180.823 257.346,180.908 256.920,181.578 255.835 L 182.436 254.447 181.622 254.012 C 180.673 253.504,179.600 251.598,179.600 250.420 C 179.600 249.860,179.340 249.600,178.779 249.600 C 177.421 249.600,172.426 250.835,172.181 251.231 C 172.055 251.434,171.752 251.600,171.507 251.600 C 171.261 251.600,171.444 251.192,171.912 250.694 C 172.501 250.067,172.652 249.608,172.403 249.204 C 171.916 248.417,172.630 248.014,174.526 248.006 C 176.531 247.998,177.600 247.387,177.600 246.250 C 177.600 245.008,176.149 244.400,173.181 244.400 C 169.218 244.400,170.487 241.906,176.797 237.292 C 180.742 234.407,182.000 233.206,182.000 232.325 C 182.000 231.263,180.473 231.405,178.664 232.634 C 177.162 233.654,177.140 233.657,176.925 232.834 C 176.686 231.921,175.619 231.748,174.367 232.418 C 173.789 232.727,173.374 232.687,172.771 232.265 C 171.879 231.640,169.650 231.928,168.594 232.805 C 168.273 233.072,167.722 233.179,167.370 233.044 C 167.018 232.909,165.710 233.095,164.465 233.457 C 161.685 234.266,159.199 234.448,159.203 233.843 C 159.204 233.599,159.754 231.330,160.425 228.800 C 161.096 226.270,161.758 222.940,161.896 221.400 C 162.075 219.411,162.224 218.890,162.412 219.600 C 162.651 220.506,162.777 220.376,163.758 218.200 C 164.352 216.880,165.528 215.080,166.369 214.200 C 167.404 213.119,167.975 212.100,168.132 211.058 C 168.551 208.270,169.167 207.693,177.826 201.987 C 181.774 199.384,183.696 197.365,182.617 196.951 C 182.277 196.821,182.000 196.470,182.000 196.171 C 182.000 195.873,181.642 195.436,181.204 195.202 C 180.766 194.968,180.123 194.225,179.775 193.552 C 179.273 192.580,178.955 192.375,178.236 192.555 C 176.467 192.999,176.010 192.125,175.746 187.800 L 175.502 183.800 173.651 181.886 L 171.800 179.972 171.667 175.186 C 171.546 170.866,171.462 170.400,170.802 170.400 C 169.632 170.400,170.007 167.079,171.550 163.782 C 175.655 155.010,184.977 150.151,194.080 152.040 M215.839 213.576 C 211.917 218.011,209.501 219.845,198.108 227.029 C 196.031 228.338,194.909 229.600,195.821 229.600 C 196.116 229.600,209.396 220.599,211.294 219.112 C 212.597 218.092,220.287 209.200,219.866 209.200 C 219.779 209.200,217.967 211.169,215.839 213.576 M155.836 217.000 C 155.974 217.550,156.230 218.000,156.404 218.000 C 156.771 218.000,157.600 220.204,157.600 221.179 C 157.600 221.542,156.976 222.460,156.213 223.219 C 155.450 223.979,154.814 224.780,154.799 225.000 C 154.753 225.718,153.304 227.180,152.238 227.586 C 151.306 227.940,150.490 229.205,149.842 231.300 C 149.587 232.124,148.400 232.250,148.400 231.453 C 148.400 231.152,148.940 229.267,149.600 227.265 C 150.260 225.262,150.800 223.290,150.800 222.883 C 150.800 220.768,152.061 218.400,153.188 218.400 C 154.104 218.400,154.342 218.188,154.540 217.200 C 154.832 215.741,155.494 215.638,155.836 217.000 M76.800 219.394 C 76.800 220.921,80.581 222.344,89.593 224.209 C 92.217 224.752,97.708 227.246,100.020 228.945 C 100.360 229.195,100.223 229.001,99.714 228.514 C 97.385 226.285,93.238 224.387,87.120 222.751 C 83.414 221.760,80.248 220.658,79.094 219.957 C 76.893 218.621,76.800 218.598,76.800 219.394 M161.371 221.100 C 160.899 223.766,159.566 229.334,158.785 231.903 C 158.367 233.280,157.842 235.856,157.620 237.629 C 156.722 244.795,155.113 246.575,147.831 248.459 C 145.428 249.081,143.133 249.694,142.731 249.822 C 141.703 250.148,141.814 249.336,142.989 247.940 C 143.534 247.293,144.165 246.073,144.392 245.228 C 144.869 243.457,145.257 243.079,147.252 242.437 C 149.178 241.817,149.849 240.972,150.166 238.767 C 150.474 236.618,151.712 234.141,152.974 233.149 C 153.465 232.763,154.571 231.041,155.433 229.323 C 156.294 227.606,157.646 225.210,158.437 224.000 C 159.227 222.790,160.177 221.305,160.546 220.700 C 161.459 219.207,161.686 219.317,161.371 221.100 M190.000 231.504 C 187.910 232.512,185.480 233.464,184.600 233.619 L 183.000 233.900 184.879 233.950 C 186.208 233.985,187.806 233.572,190.330 232.542 L 193.901 231.084 196.850 232.300 C 200.398 233.763,202.520 234.151,204.967 233.784 C 207.416 233.417,207.327 232.775,204.867 233.067 C 202.529 233.343,199.085 232.434,196.151 230.765 C 195.025 230.124,194.035 229.616,193.951 229.635 C 193.868 229.655,192.090 230.495,190.000 231.504 M103.600 231.551 C 103.600 231.730,103.975 232.216,104.434 232.631 C 104.893 233.046,105.914 234.289,106.703 235.393 C 109.094 238.737,110.041 239.600,111.321 239.600 C 111.965 239.600,113.417 239.889,114.546 240.243 C 115.676 240.596,117.230 241.077,118.000 241.312 C 119.834 241.870,122.910 241.817,124.393 241.203 C 125.102 240.909,126.260 240.815,127.287 240.967 C 128.229 241.107,131.070 241.289,133.600 241.372 L 138.200 241.523 133.600 241.115 C 129.065 240.711,126.712 240.663,121.600 240.866 C 118.687 240.982,115.193 240.320,113.887 239.406 C 113.411 239.073,112.350 238.800,111.530 238.800 C 110.389 238.800,109.868 238.562,109.319 237.787 C 105.553 232.481,103.600 230.351,103.600 231.551 M172.397 233.764 L 172.600 234.918 173.858 233.859 C 175.382 232.576,175.484 232.569,176.388 233.685 L 177.105 234.569 178.744 233.485 C 180.411 232.382,181.200 232.138,181.200 232.727 C 181.200 232.907,179.209 234.544,176.776 236.365 C 168.861 242.285,167.814 245.423,173.801 245.279 C 177.565 245.188,177.993 246.914,174.328 247.403 C 168.430 248.190,163.980 247.866,160.900 246.426 C 157.654 244.908,157.735 245.084,158.758 241.800 C 159.170 240.480,159.629 238.495,159.778 237.390 L 160.050 235.379 163.399 234.492 C 165.241 234.004,167.009 233.705,167.328 233.828 C 167.647 233.950,168.604 233.676,169.454 233.218 C 171.404 232.168,172.140 232.305,172.397 233.764 M146.400 236.224 C 146.400 237.337,146.244 237.951,146.000 237.800 C 145.312 237.375,145.545 234.400,146.267 234.400 C 146.340 234.400,146.400 235.221,146.400 236.224 M158.877 237.465 C 158.468 238.587,158.463 238.582,158.432 237.020 C 158.408 235.860,158.518 235.558,158.845 235.885 C 159.161 236.201,159.170 236.660,158.877 237.465 M221.922 243.316 C 209.415 254.084,210.671 253.645,197.110 251.977 C 188.287 250.892,188.189 251.178,196.897 252.600 C 209.522 254.663,210.703 254.417,218.319 248.133 C 220.941 245.970,223.742 243.685,224.543 243.056 C 226.033 241.885,226.456 240.800,225.422 240.800 C 225.103 240.800,223.528 241.932,221.922 243.316 M170.083 250.857 C 168.701 251.742,168.140 251.655,168.538 250.617 C 168.686 250.232,169.269 250.003,170.087 250.007 L 171.400 250.013 170.083 250.857 M182.600 250.988 C 183.260 251.529,183.949 251.978,184.131 251.986 C 184.313 251.994,183.927 251.550,183.273 251.000 C 182.619 250.450,181.930 250.001,181.742 250.002 C 181.554 250.003,181.940 250.447,182.600 250.988 M178.400 251.307 C 178.400 251.586,178.831 252.449,179.358 253.224 C 180.270 254.566,180.298 254.798,179.948 258.017 C 179.745 259.878,179.694 263.335,179.834 265.700 L 180.087 270.000 178.286 270.000 C 177.295 270.000,175.340 269.658,173.942 269.240 C 169.137 267.802,162.591 266.022,156.800 264.578 C 153.610 263.783,149.750 262.817,148.222 262.432 C 146.694 262.047,145.374 261.522,145.289 261.266 C 145.088 260.665,145.384 260.682,147.790 261.412 C 149.978 262.076,150.800 261.959,150.800 260.986 C 150.800 259.362,151.514 258.818,152.802 259.461 C 154.726 260.421,158.980 258.987,161.170 256.640 C 161.703 256.068,162.572 255.600,163.100 255.600 C 163.635 255.600,164.594 255.068,165.260 254.402 C 166.218 253.444,166.608 253.283,167.203 253.602 C 168.339 254.210,169.413 254.083,170.982 253.157 C 173.749 251.525,178.400 250.365,178.400 251.307 M94.800 259.617 C 94.800 259.847,95.499 260.972,96.354 262.117 C 97.209 263.263,99.023 265.949,100.384 268.086 C 103.067 272.297,104.617 273.607,106.832 273.538 C 107.584 273.514,109.820 274.127,111.800 274.900 C 113.780 275.673,115.850 276.438,116.400 276.601 C 116.950 276.765,117.580 277.032,117.800 277.196 C 118.450 277.680,122.434 278.899,122.653 278.681 C 122.763 278.570,122.167 278.258,121.327 277.986 C 120.487 277.715,117.205 276.437,114.033 275.148 C 110.862 273.858,107.474 272.729,106.506 272.639 C 104.242 272.427,103.710 271.911,100.740 267.039 C 96.771 260.528,94.800 258.066,94.800 259.617 M134.239 269.168 C 134.580 268.885,134.800 268.862,134.800 269.108 C 134.800 269.595,133.778 270.044,133.439 269.706 C 133.308 269.574,133.214 269.272,133.232 269.033 C 133.249 268.795,133.356 268.833,133.470 269.117 C 133.630 269.513,133.808 269.525,134.239 269.168 M124.600 279.814 C 125.260 280.117,126.070 280.358,126.400 280.352 C 126.730 280.345,126.370 280.097,125.600 279.800 C 123.774 279.097,123.055 279.107,124.600 279.814 M105.191 292.700 C 105.162 293.680,103.718 294.883,103.440 294.159 C 103.252 293.671,103.393 293.248,103.855 292.911 C 104.637 292.338,105.204 292.249,105.191 292.700 M103.563 303.998 C 102.815 305.737,102.550 306.000,101.551 306.000 C 100.138 306.000,100.114 306.266,101.846 302.762 L 103.292 299.836 103.858 300.916 C 104.365 301.885,104.335 302.203,103.563 303.998 " stroke="none" fill="#1d1313" fill-rule="evenodd"></path></g></svg>