<svg id="svg" version="1.1" xmlns="http://www.w3.org/2000/svg" xmlns:xlink="http://www.w3.org/1999/xlink" width="400" height="400" viewBox="0, 0, 400,400"><g id="svgg"><path id="path0" d="M328.959 38.562 C 328.841 38.871,328.807 39.726,328.883 40.462 C 329.006 41.635,329.047 41.566,329.215 39.900 C 329.411 37.952,329.339 37.574,328.959 38.562 M122.600 40.412 C 102.613 43.069,86.978 58.670,84.397 78.531 C 84.174 80.247,84.020 130.068,84.012 202.503 C 83.998 346.445,83.628 336.354,88.680 329.887 C 90.263 327.859,92.142 325.570,92.855 324.800 C 94.211 323.335,104.023 311.478,105.389 309.654 C 105.823 309.074,107.983 306.422,110.189 303.760 C 112.395 301.098,115.190 297.698,116.400 296.204 C 119.008 292.985,125.856 284.653,130.650 278.866 C 132.534 276.592,135.263 273.262,136.715 271.466 C 138.167 269.670,139.460 268.110,139.588 268.000 C 139.716 267.890,140.439 266.990,141.194 266.000 C 141.950 265.010,143.456 263.212,144.542 262.004 C 145.628 260.796,147.187 258.901,148.005 257.793 C 148.824 256.685,151.958 252.813,154.971 249.189 C 163.412 239.035,164.442 237.785,169.146 232.000 C 171.562 229.030,175.998 223.630,179.005 220.000 C 182.012 216.370,187.848 209.260,191.973 204.200 C 196.098 199.140,201.706 192.282,204.436 188.960 C 207.166 185.638,211.226 180.688,213.458 177.960 C 215.690 175.232,218.030 172.382,218.658 171.627 C 219.286 170.872,220.709 169.162,221.819 167.827 C 222.930 166.492,225.435 163.420,227.386 161.000 C 229.337 158.580,231.172 156.330,231.465 156.000 C 231.757 155.670,234.350 152.520,237.228 149.000 C 240.105 145.480,244.021 140.710,245.929 138.400 C 247.838 136.090,250.447 132.882,251.727 131.271 C 253.008 129.660,254.392 127.950,254.804 127.471 C 255.216 126.992,257.388 124.350,259.632 121.600 C 261.876 118.850,264.181 116.046,264.756 115.369 C 265.330 114.692,266.340 113.450,267.000 112.608 C 267.660 111.766,269.280 109.800,270.600 108.237 C 271.920 106.675,274.440 103.625,276.200 101.459 C 277.960 99.293,280.453 96.233,281.739 94.660 C 283.026 93.087,284.781 90.928,285.640 89.863 L 287.202 87.926 286.453 86.863 C 286.041 86.278,285.299 84.990,284.803 84.000 C 284.307 83.010,283.872 82.163,283.836 82.119 C 283.800 82.074,282.607 82.459,281.185 82.973 C 276.124 84.805,263.200 86.088,263.200 84.758 C 263.200 83.840,274.356 72.512,277.600 70.136 C 283.283 65.974,288.142 65.722,292.200 69.379 C 294.063 71.058,297.324 73.201,297.995 73.187 C 299.255 73.161,301.518 70.145,302.387 67.334 C 303.134 64.915,306.438 57.419,307.101 56.637 C 307.770 55.849,307.769 55.838,307.077 56.375 C 306.420 56.885,306.132 56.692,303.961 54.287 C 298.850 48.623,290.530 43.677,282.199 41.347 L 278.200 40.229 201.600 40.161 C 159.470 40.123,123.920 40.236,122.600 40.412 M317.300 68.812 C 315.961 69.351,316.211 69.624,317.600 69.140 C 318.260 68.910,318.800 68.649,318.800 68.561 C 318.800 68.324,318.313 68.405,317.300 68.812 M314.893 74.000 C 314.893 74.770,314.975 75.085,315.076 74.700 C 315.176 74.315,315.176 73.685,315.076 73.300 C 314.975 72.915,314.893 73.230,314.893 74.000 M312.131 76.200 C 312.133 77.740,312.205 78.321,312.292 77.491 C 312.379 76.661,312.377 75.401,312.289 74.691 C 312.200 73.981,312.129 74.660,312.131 76.200 M304.901 78.600 C 304.905 79.480,304.987 79.793,305.083 79.295 C 305.179 78.798,305.175 78.078,305.075 77.695 C 304.975 77.313,304.896 77.720,304.901 78.600 M314.645 80.479 C 314.010 88.206,307.869 96.257,299.347 100.535 C 297.003 101.712,296.929 101.676,295.194 98.515 L 294.270 96.830 297.035 93.910 C 299.617 91.183,302.000 87.291,302.000 85.802 C 302.000 84.781,301.653 85.154,295.579 92.690 C 292.427 96.600,289.737 99.890,289.603 100.000 C 289.468 100.110,288.827 100.918,288.179 101.796 C 287.530 102.674,284.120 106.905,280.600 111.198 C 277.080 115.491,272.400 121.234,270.200 123.960 C 268.000 126.686,265.072 130.286,263.693 131.958 C 262.314 133.631,260.345 136.080,259.318 137.400 C 258.291 138.720,256.617 140.790,255.600 142.000 C 254.582 143.210,252.224 146.090,250.360 148.400 C 241.866 158.925,238.022 163.665,235.220 167.069 C 233.559 169.087,230.940 172.308,229.400 174.228 C 227.860 176.148,225.160 179.471,223.400 181.611 C 217.285 189.050,208.594 199.711,207.564 201.036 C 206.995 201.770,205.975 203.051,205.297 203.885 C 204.619 204.718,200.714 209.540,196.619 214.600 C 192.523 219.660,186.704 226.850,183.686 230.577 C 174.145 242.363,169.517 248.094,165.403 253.220 C 163.205 255.959,161.293 258.290,161.154 258.400 C 161.014 258.510,157.953 262.271,154.350 266.757 C 143.199 280.642,142.023 282.105,140.814 283.574 C 140.169 284.358,138.334 286.620,136.736 288.600 C 135.138 290.580,133.724 292.290,133.594 292.400 C 133.464 292.510,132.827 293.320,132.179 294.200 C 131.530 295.080,130.772 296.041,130.494 296.335 C 130.216 296.629,129.497 297.529,128.896 298.335 C 128.296 299.141,127.703 299.890,127.578 300.000 C 127.454 300.110,124.753 303.440,121.576 307.400 C 118.399 311.360,115.620 314.799,115.400 315.042 C 114.754 315.756,107.500 324.644,103.846 329.200 C 96.588 338.247,93.945 341.485,92.110 343.579 C 91.059 344.778,90.405 345.634,90.655 345.483 C 90.926 345.319,91.806 346.136,92.832 347.504 C 96.758 352.739,102.174 357.530,107.506 360.486 C 108.877 361.246,109.864 362.016,109.700 362.198 C 109.535 362.379,109.704 362.419,110.074 362.286 C 110.454 362.150,111.176 362.380,111.725 362.812 C 112.598 363.499,116.490 365.406,118.600 366.181 C 119.040 366.343,120.300 366.627,121.400 366.813 C 122.500 366.999,124.263 367.338,125.318 367.567 C 126.608 367.847,152.429 367.975,204.284 367.961 L 281.333 367.940 284.967 367.011 C 301.781 362.713,313.563 349.976,316.058 333.400 C 316.875 327.972,316.860 89.641,316.043 82.600 C 315.358 76.702,315.001 76.160,314.645 80.479 M269.467 81.467 C 268.831 82.102,269.316 82.395,270.900 82.333 L 272.600 82.266 271.092 82.108 C 270.262 82.022,269.688 81.782,269.815 81.575 C 270.083 81.143,269.860 81.073,269.467 81.467 M304.909 84.000 C 304.909 84.990,304.987 85.395,305.082 84.900 C 305.178 84.405,305.178 83.595,305.082 83.100 C 304.987 82.605,304.909 83.010,304.909 84.000 " stroke="none" fill="#ad191a" fill-rule="evenodd"></path><path id="path1" d="M332.683 33.258 L 325.966 37.301 326.217 38.973 C 326.463 40.617,326.398 40.734,322.380 45.823 C 320.131 48.670,318.012 51.425,317.671 51.944 C 317.121 52.780,316.843 52.860,315.240 52.640 C 312.478 52.262,309.945 53.269,308.033 55.506 C 306.574 57.213,306.012 58.345,303.318 65.000 C 299.498 74.437,298.325 74.899,292.200 69.379 C 288.142 65.722,283.283 65.974,277.600 70.136 C 274.356 72.512,263.200 83.840,263.200 84.758 C 263.200 86.088,276.124 84.805,281.185 82.973 C 282.607 82.459,283.800 82.074,283.836 82.119 C 283.872 82.163,284.307 83.010,284.803 84.000 C 285.299 84.990,286.041 86.278,286.453 86.863 L 287.202 87.926 285.640 89.863 C 284.781 90.928,283.026 93.087,281.739 94.660 C 280.453 96.233,277.960 99.293,276.200 101.459 C 274.440 103.625,271.920 106.675,270.600 108.237 C 269.280 109.800,267.660 111.766,267.000 112.608 C 266.340 113.450,265.330 114.692,264.756 115.369 C 264.181 116.046,261.876 118.850,259.632 121.600 C 257.388 124.350,255.216 126.992,254.804 127.471 C 254.392 127.950,253.008 129.660,251.727 131.271 C 250.447 132.882,247.838 136.090,245.929 138.400 C 244.021 140.710,240.105 145.480,237.228 149.000 C 234.350 152.520,231.757 155.670,231.465 156.000 C 231.172 156.330,229.337 158.580,227.386 161.000 C 225.435 163.420,222.930 166.492,221.819 167.827 C 220.709 169.162,219.286 170.872,218.658 171.627 C 218.030 172.382,215.690 175.232,213.458 177.960 C 211.226 180.688,207.166 185.638,204.436 188.960 C 201.706 192.282,196.098 199.140,191.973 204.200 C 187.848 209.260,182.012 216.370,179.005 220.000 C 175.998 223.630,171.562 229.030,169.146 232.000 C 164.442 237.785,163.412 239.035,154.971 249.189 C 151.958 252.813,148.824 256.685,148.005 257.793 C 147.187 258.901,145.628 260.796,144.542 262.004 C 143.456 263.212,141.950 265.010,141.194 266.000 C 140.439 266.990,139.716 267.890,139.588 268.000 C 139.460 268.110,138.167 269.670,136.715 271.466 C 135.263 273.262,132.534 276.592,130.650 278.866 C 125.856 284.653,119.008 292.985,116.400 296.204 C 115.190 297.698,112.395 301.098,110.189 303.760 C 107.983 306.422,105.823 309.074,105.389 309.654 C 104.017 311.486,94.035 323.565,93.215 324.385 C 92.783 324.817,90.975 327.022,89.197 329.285 C 84.588 335.152,74.224 347.972,68.583 354.784 C 60.540 364.497,60.400 364.695,60.400 366.377 C 60.400 369.727,64.521 372.970,67.605 372.046 C 69.258 371.551,70.255 370.414,83.795 353.600 C 86.186 350.630,89.462 346.670,91.075 344.800 C 93.916 341.505,96.818 337.960,103.846 329.200 C 107.500 324.644,114.754 315.756,115.400 315.042 C 115.620 314.799,118.399 311.360,121.576 307.400 C 124.753 303.440,127.454 300.110,127.578 300.000 C 127.703 299.890,128.296 299.141,128.896 298.335 C 129.497 297.529,130.216 296.629,130.494 296.335 C 130.772 296.041,131.530 295.080,132.179 294.200 C 132.827 293.320,133.464 292.510,133.594 292.400 C 133.724 292.290,135.138 290.580,136.736 288.600 C 138.334 286.620,140.169 284.358,140.814 283.574 C 142.023 282.105,143.199 280.642,154.350 266.757 C 157.953 262.271,161.014 258.510,161.154 258.400 C 161.293 258.290,163.205 255.959,165.403 253.220 C 169.517 248.094,174.145 242.363,183.686 230.577 C 186.704 226.850,192.523 219.660,196.619 214.600 C 200.714 209.540,204.619 204.718,205.297 203.885 C 205.975 203.051,206.995 201.770,207.564 201.036 C 208.594 199.711,217.285 189.050,223.400 181.611 C 225.160 179.471,227.860 176.148,229.400 174.228 C 230.940 172.308,233.559 169.087,235.220 167.069 C 238.022 163.665,241.866 158.925,250.360 148.400 C 252.224 146.090,254.582 143.210,255.600 142.000 C 256.617 140.790,258.291 138.720,259.318 137.400 C 260.345 136.080,262.314 133.631,263.693 131.958 C 265.072 130.286,268.000 126.686,270.200 123.960 C 272.400 121.234,277.080 115.491,280.600 111.198 C 284.120 106.905,287.530 102.674,288.179 101.796 C 288.827 100.918,289.468 100.110,289.603 100.000 C 289.737 99.890,292.427 96.600,295.579 92.690 C 301.653 85.154,302.000 84.781,302.000 85.802 C 302.000 87.291,299.617 91.183,297.035 93.910 L 294.270 96.830 295.194 98.515 C 296.929 101.676,297.003 101.712,299.347 100.535 C 308.195 96.093,313.855 88.435,314.772 79.665 C 315.010 77.391,315.101 75.363,314.974 75.158 C 313.653 73.020,315.792 69.267,318.895 68.279 C 325.177 66.279,328.592 60.687,325.182 57.986 C 323.201 56.417,322.941 57.069,328.206 50.394 C 332.144 45.400,332.801 44.750,334.535 44.120 C 336.885 43.266,337.055 42.969,338.006 38.077 C 338.420 35.945,339.022 33.075,339.344 31.700 C 340.069 28.601,340.644 28.467,332.683 33.258 M335.990 35.100 C 335.982 35.716,335.706 37.146,334.986 40.313 C 334.846 40.926,334.139 41.516,332.826 42.113 C 330.226 43.295,318.681 57.600,320.327 57.600 C 321.114 57.600,324.000 60.236,324.000 60.954 C 324.000 62.329,320.747 65.005,317.807 66.046 C 313.345 67.628,312.407 69.125,312.402 74.671 C 312.394 85.690,307.917 93.173,298.461 97.973 C 296.225 99.109,295.932 98.786,297.750 97.190 C 302.986 92.593,305.706 85.795,304.931 79.246 L 304.692 77.229 303.847 78.315 C 303.382 78.912,302.701 79.760,302.334 80.200 C 301.074 81.708,290.198 95.088,280.400 107.184 C 268.447 121.940,265.422 125.670,254.441 139.200 C 249.710 145.030,243.940 152.149,241.619 155.020 C 230.317 169.004,216.408 186.165,210.816 193.028 C 207.397 197.223,201.720 204.223,198.200 208.582 C 191.956 216.315,184.130 225.969,179.865 231.200 C 178.699 232.630,173.449 239.110,168.198 245.600 C 162.947 252.090,155.936 260.730,152.619 264.800 C 149.302 268.870,145.150 273.974,143.394 276.142 C 139.371 281.107,131.584 290.722,111.600 315.402 C 102.910 326.133,93.640 337.560,91.000 340.795 C 88.360 344.030,83.680 349.788,80.600 353.590 C 67.118 370.236,67.868 369.390,66.478 369.526 C 63.263 369.839,62.039 366.711,64.300 363.961 C 65.125 362.957,66.430 361.351,67.200 360.392 C 68.946 358.217,83.735 340.242,85.155 338.569 C 85.730 337.893,86.740 336.642,87.400 335.791 C 88.060 334.940,91.653 330.544,95.383 326.022 C 99.114 321.500,103.344 316.347,104.783 314.572 C 109.540 308.702,112.520 305.065,117.213 299.400 C 119.764 296.320,123.849 291.346,126.289 288.346 C 128.729 285.346,131.082 282.466,131.518 281.946 C 134.267 278.666,150.057 259.402,151.473 257.601 C 151.732 257.270,152.917 255.830,154.105 254.400 C 156.892 251.045,168.811 236.532,173.192 231.160 C 175.057 228.872,179.401 223.580,182.844 219.400 C 186.288 215.220,191.607 208.740,194.665 205.000 C 197.723 201.260,202.809 195.050,205.969 191.200 C 209.128 187.350,212.300 183.480,213.017 182.600 C 213.735 181.720,217.959 176.590,222.405 171.200 C 226.851 165.810,231.503 160.140,232.744 158.600 C 233.984 157.060,239.143 150.760,244.208 144.600 C 249.273 138.440,255.691 130.610,258.470 127.200 C 264.424 119.895,275.546 106.325,282.731 97.600 C 285.539 94.190,288.522 90.549,289.359 89.509 L 290.882 87.617 289.741 86.657 C 289.113 86.129,287.988 84.431,287.240 82.884 C 285.396 79.070,284.765 78.776,281.305 80.120 C 277.108 81.751,269.200 83.050,269.200 82.109 C 269.200 81.475,276.456 74.279,278.960 72.430 C 284.416 68.399,287.262 68.513,292.474 72.971 C 294.220 74.465,297.165 76.000,298.284 76.000 C 300.652 76.000,304.569 70.650,306.191 65.200 C 308.629 57.009,311.999 53.851,316.481 55.555 C 317.502 55.943,317.673 55.809,320.077 52.729 C 321.465 50.950,323.994 47.764,325.697 45.648 C 328.448 42.230,328.794 41.613,328.797 40.129 C 328.800 38.514,328.876 38.416,331.100 37.159 C 332.365 36.445,333.829 35.532,334.354 35.130 C 335.550 34.215,336.003 34.206,335.990 35.100 " stroke="none" fill="#130b0b" fill-rule="evenodd"></path></g></svg>