<svg id="svg" version="1.1" xmlns="http://www.w3.org/2000/svg" xmlns:xlink="http://www.w3.org/1999/xlink" width="400" height="400" viewBox="0, 0, 400,400"><g id="svgg"><path id="path0" d="M122.800 33.265 C 106.789 36.677,94.179 48.153,89.546 63.528 C 87.665 69.770,87.565 71.792,87.687 101.196 L 87.800 128.593 91.732 116.796 C 96.185 103.438,97.922 98.928,101.016 92.697 L 103.182 88.333 102.304 86.667 C 101.637 85.402,101.415 84.261,101.383 81.938 C 101.357 79.979,101.127 78.538,100.747 77.938 C 95.736 70.035,101.351 60.676,110.486 61.707 C 111.429 61.813,114.689 61.729,117.731 61.519 C 124.425 61.058,124.568 61.101,131.171 65.615 C 137.886 70.205,142.756 74.175,149.800 80.800 C 159.100 89.548,161.813 91.946,168.439 97.268 C 180.580 107.022,187.126 113.102,188.022 115.457 C 188.212 115.958,189.050 116.719,189.884 117.149 C 192.023 118.251,193.816 120.269,194.723 122.594 C 195.341 124.177,195.830 124.754,197.100 125.394 C 205.717 129.740,205.640 141.535,196.975 144.535 C 195.794 144.944,195.179 145.511,194.411 146.900 C 193.090 149.287,192.166 150.269,190.107 151.476 C 188.761 152.264,188.320 152.811,187.964 154.132 C 187.063 157.480,183.480 163.383,175.144 175.256 C 172.111 179.576,169.094 183.986,168.439 185.056 C 166.166 188.773,160.000 199.249,160.000 199.396 C 160.000 199.552,158.293 202.181,154.155 208.400 C 151.657 212.154,148.347 216.481,146.005 219.055 C 145.104 220.045,144.800 220.766,144.800 221.917 C 144.800 224.773,143.717 227.420,141.739 229.398 L 139.895 231.242 140.747 232.036 C 144.958 235.960,144.032 244.143,138.991 247.543 C 136.617 249.145,136.638 248.688,138.567 256.729 C 139.376 260.100,140.193 263.970,140.382 265.329 C 141.102 270.507,144.199 284.581,146.031 291.000 C 148.192 298.573,149.598 304.613,150.453 310.000 C 151.426 316.124,151.600 316.394,154.576 316.413 C 155.897 316.421,157.295 316.767,158.600 317.409 C 159.719 317.959,161.315 318.394,162.222 318.396 C 163.781 318.400,165.373 319.212,168.400 321.550 C 168.996 322.010,170.303 322.404,171.634 322.525 L 173.867 322.728 174.372 320.664 C 175.493 316.083,177.434 310.205,180.274 302.800 C 184.171 292.637,185.499 288.623,189.209 275.800 C 191.429 268.127,193.601 261.907,195.274 258.424 C 196.691 255.476,196.831 254.942,196.382 254.224 C 194.474 251.170,195.701 245.138,198.824 242.216 L 200.811 240.358 199.368 238.879 C 195.030 234.430,195.236 227.592,199.826 223.757 L 201.479 222.375 201.732 212.887 C 201.961 204.301,202.268 200.958,203.577 192.800 C 204.780 185.299,205.603 177.772,206.005 170.600 C 206.548 160.908,207.749 149.966,208.672 146.306 C 209.334 143.678,209.332 143.590,208.549 142.706 C 206.506 140.397,206.200 139.520,206.200 135.982 C 206.200 133.358,206.368 132.308,206.924 131.459 C 207.602 130.425,207.608 130.247,207.008 128.675 C 206.625 127.675,206.389 125.948,206.422 124.398 C 206.453 122.969,206.348 120.670,206.190 119.289 C 205.777 115.689,206.488 113.495,208.804 111.222 C 216.842 103.331,224.069 98.896,243.351 90.020 C 251.159 86.425,260.937 81.376,265.600 78.530 C 273.398 73.770,282.913 69.626,287.994 68.778 C 289.201 68.576,290.694 68.038,291.311 67.581 C 294.082 65.533,299.579 65.713,302.672 67.953 C 303.843 68.802,304.536 69.023,305.622 68.897 C 307.350 68.695,311.186 69.759,312.524 70.812 C 313.274 71.402,314.055 71.564,315.852 71.504 C 317.144 71.461,318.600 71.565,319.088 71.736 C 319.949 72.037,319.958 72.012,319.391 70.923 C 319.069 70.305,318.804 69.483,318.802 69.095 C 318.801 68.707,318.441 67.094,318.002 65.510 C 313.643 49.779,301.804 37.995,286.002 33.659 L 282.200 32.616 204.400 32.536 C 127.649 32.457,126.549 32.467,122.800 33.265 M118.254 65.470 C 118.503 65.651,118.807 66.160,118.928 66.600 C 119.101 67.231,119.132 67.195,119.074 66.431 C 119.033 65.899,118.730 65.390,118.400 65.301 C 118.004 65.194,117.954 65.251,118.254 65.470 M105.416 69.032 C 104.016 71.168,104.382 74.892,105.808 73.024 C 106.133 72.596,106.402 71.696,106.405 71.024 C 106.408 70.351,106.519 69.395,106.652 68.900 C 106.978 67.683,106.249 67.761,105.416 69.032 M112.194 70.018 C 111.871 71.037,112.490 71.804,113.366 71.468 C 113.821 71.294,113.898 70.993,113.655 70.336 C 113.205 69.120,112.526 68.972,112.194 70.018 M302.488 70.613 C 303.086 71.243,303.647 71.677,303.735 71.579 C 303.823 71.480,303.333 70.965,302.647 70.434 L 301.400 69.469 302.488 70.613 M289.600 70.400 L 288.200 70.695 289.476 70.747 C 290.178 70.776,290.864 70.620,291.000 70.400 C 291.136 70.180,291.192 70.024,291.124 70.053 C 291.056 70.082,290.370 70.238,289.600 70.400 M295.700 71.875 C 295.402 71.989,295.200 72.797,295.200 73.875 C 295.200 75.220,294.895 76.137,294.008 77.450 C 292.753 79.310,293.194 80.800,295.000 80.800 C 295.330 80.800,295.719 80.802,295.865 80.804 C 296.011 80.806,296.187 79.818,296.256 78.609 C 296.334 77.245,296.775 75.634,297.417 74.365 C 297.987 73.241,298.397 72.274,298.327 72.216 C 297.996 71.945,296.144 71.704,295.700 71.875 M119.453 73.235 C 119.146 74.770,119.470 75.406,120.236 74.770 C 120.953 74.175,120.961 73.032,120.251 72.443 C 119.811 72.077,119.653 72.234,119.453 73.235 M305.700 72.676 C 306.085 72.776,306.715 72.776,307.100 72.676 C 307.485 72.575,307.170 72.493,306.400 72.493 C 305.630 72.493,305.315 72.575,305.700 72.676 M110.900 73.476 C 111.285 73.576,111.915 73.576,112.300 73.476 C 112.685 73.375,112.370 73.293,111.600 73.293 C 110.830 73.293,110.515 73.375,110.900 73.476 M315.700 73.476 C 316.085 73.576,316.715 73.576,317.100 73.476 C 317.485 73.375,317.170 73.293,316.400 73.293 C 315.630 73.293,315.315 73.375,315.700 73.476 M111.017 75.172 C 110.891 75.377,110.998 75.675,111.255 75.834 C 111.537 76.008,111.617 75.951,111.456 75.690 C 111.301 75.440,111.571 75.184,112.094 75.083 C 112.993 74.910,112.993 74.909,112.124 74.854 C 111.642 74.825,111.144 74.968,111.017 75.172 M304.909 76.400 C 304.909 77.390,304.987 77.795,305.082 77.300 C 305.178 76.805,305.178 75.995,305.082 75.500 C 304.987 75.005,304.909 75.410,304.909 76.400 M306.957 75.433 C 307.091 75.781,307.200 76.151,307.200 76.256 C 307.200 76.361,307.380 76.336,307.600 76.200 C 308.237 75.806,308.063 74.800,307.357 74.800 C 306.935 74.800,306.798 75.018,306.957 75.433 M315.700 75.076 C 316.085 75.176,316.715 75.176,317.100 75.076 C 317.485 74.975,317.170 74.893,316.400 74.893 C 315.630 74.893,315.315 74.975,315.700 75.076 M316.733 79.709 C 316.639 81.190,316.218 82.938,315.704 83.975 C 314.343 86.726,315.851 87.546,317.523 84.965 C 318.031 84.181,319.066 83.281,319.823 82.964 C 321.344 82.329,321.473 81.827,320.632 79.814 C 320.128 78.608,318.315 77.200,317.266 77.200 C 317.061 77.200,316.821 78.329,316.733 79.709 M123.513 79.500 C 122.398 80.653,121.998 81.462,121.779 83.000 C 121.282 86.500,118.971 89.619,115.607 91.331 C 114.841 91.721,114.457 92.706,113.329 97.173 C 111.562 104.172,108.574 112.661,105.366 119.800 C 104.523 121.675,102.483 126.702,101.226 130.000 C 99.000 135.840,98.010 138.671,95.979 145.000 C 93.787 151.827,90.923 159.384,89.344 162.507 C 88.145 164.878,88.505 165.782,90.905 166.428 C 100.235 168.940,102.214 181.152,93.981 185.410 C 93.343 185.740,92.743 186.561,92.416 187.550 C 92.125 188.433,91.327 189.834,90.643 190.665 L 89.400 192.174 89.384 203.987 C 89.376 210.484,89.226 218.950,89.051 222.800 C 88.807 228.186,88.878 231.152,89.358 235.662 C 90.384 245.313,90.548 249.903,90.028 254.417 C 89.354 260.266,88.073 268.877,87.383 272.200 C 86.762 275.187,86.673 276.444,87.200 274.800 C 87.376 274.250,87.538 283.282,87.560 294.871 C 87.602 317.025,87.774 319.857,89.438 325.744 C 92.267 335.754,100.970 347.161,109.200 351.645 C 109.970 352.065,110.870 352.582,111.200 352.795 C 113.706 354.411,118.061 356.796,119.300 357.232 C 120.125 357.523,120.800 357.860,120.800 357.980 C 120.800 358.101,121.445 358.235,122.233 358.279 C 123.022 358.322,123.912 358.561,124.212 358.810 C 124.774 359.276,126.874 359.665,132.812 360.401 C 135.130 360.689,159.637 360.789,209.212 360.712 L 282.200 360.600 287.345 359.481 C 294.284 357.971,298.424 356.155,303.490 352.398 C 307.635 349.324,314.400 341.650,314.400 340.022 C 314.400 339.790,314.560 339.600,314.755 339.600 C 314.951 339.600,315.227 338.983,315.368 338.229 C 315.510 337.475,315.799 336.800,316.012 336.729 C 316.936 336.421,319.783 327.039,319.355 325.713 C 319.171 325.144,319.207 325.116,319.530 325.572 C 319.806 325.960,319.949 307.878,319.977 269.372 C 320.000 238.147,320.084 211.925,320.164 211.100 C 320.245 210.275,320.164 209.600,319.985 209.600 C 319.806 209.600,320.591 208.673,321.730 207.540 C 323.716 205.563,323.724 205.546,321.939 207.112 C 320.916 208.010,319.352 208.962,318.465 209.228 C 316.776 209.734,316.445 210.219,315.625 213.400 C 315.398 214.280,314.161 216.620,312.877 218.600 C 311.592 220.580,308.234 225.980,305.414 230.600 C 302.594 235.220,299.258 240.620,298.001 242.600 C 295.524 246.501,287.662 259.207,286.120 261.800 C 285.597 262.680,284.366 264.660,283.384 266.200 C 281.890 268.545,280.294 271.144,276.274 277.782 C 276.013 278.212,274.881 280.012,273.757 281.782 C 272.634 283.552,270.671 286.710,269.396 288.800 C 267.069 292.612,264.413 296.924,261.633 301.400 C 260.625 303.023,259.599 304.103,258.462 304.735 C 257.537 305.250,256.345 306.312,255.812 307.096 C 252.865 311.434,244.402 312.141,240.947 308.339 C 238.252 305.373,238.053 299.215,240.562 296.442 C 240.913 296.054,241.200 295.250,241.200 294.656 C 241.200 293.113,242.138 291.070,244.142 288.250 C 245.099 286.903,248.003 282.740,250.594 279.000 C 253.185 275.260,255.461 272.140,255.653 272.067 C 255.844 271.993,256.000 271.767,256.000 271.563 C 256.000 271.360,257.133 269.620,258.517 267.697 C 259.901 265.774,262.591 261.950,264.493 259.200 C 266.396 256.450,269.034 252.670,270.355 250.800 C 271.676 248.930,275.023 244.122,277.793 240.115 C 280.563 236.108,283.015 232.714,283.242 232.574 C 283.470 232.433,283.778 232.016,283.928 231.647 C 284.078 231.277,285.550 229.045,287.200 226.686 C 301.026 206.919,301.863 205.788,303.482 204.701 L 305.152 203.580 304.923 200.855 C 304.584 196.810,306.081 193.224,308.895 191.338 C 309.853 190.697,309.998 190.337,309.999 188.597 C 310.001 184.869,311.458 181.899,314.194 180.048 C 315.522 179.150,315.600 178.972,315.602 176.848 C 315.606 173.084,316.210 171.649,318.864 169.099 C 320.468 167.558,321.198 166.567,321.076 166.099 C 320.938 165.574,320.881 165.624,320.846 166.300 C 320.821 166.795,320.620 167.200,320.400 167.200 C 319.880 167.200,319.880 165.722,320.400 165.400 C 320.620 165.264,320.797 164.758,320.794 164.276 C 320.790 163.712,320.678 163.573,320.480 163.885 C 320.310 164.152,320.158 163.432,320.141 162.285 C 320.124 161.138,319.816 157.500,319.457 154.200 C 319.098 150.900,318.625 142.530,318.405 135.600 C 318.186 128.670,317.826 121.650,317.605 120.000 C 316.703 113.269,315.994 105.211,315.744 98.835 L 315.478 92.083 314.039 91.850 C 313.248 91.722,311.935 91.163,311.121 90.609 C 309.900 89.776,309.168 89.599,306.921 89.596 C 304.224 89.592,300.518 88.362,299.825 87.241 C 299.675 86.998,298.606 86.800,297.449 86.800 C 294.488 86.800,291.637 85.851,289.752 84.237 L 288.139 82.857 286.370 83.877 C 283.005 85.816,275.783 89.432,271.400 91.373 C 262.315 95.395,256.032 98.611,243.400 105.702 C 240.062 107.576,232.359 111.294,227.400 113.427 L 226.200 113.942 226.283 117.625 C 226.329 119.650,226.580 122.259,226.840 123.423 C 227.242 125.218,227.208 125.924,226.615 128.070 C 225.858 130.808,225.851 130.933,226.228 134.806 C 226.578 138.409,225.955 140.416,223.781 142.684 L 222.000 144.543 221.989 148.372 C 221.976 153.005,221.580 157.070,220.195 166.800 C 218.292 180.164,218.072 182.104,217.415 191.400 C 216.448 205.074,215.755 211.018,214.361 217.600 L 213.104 223.531 213.987 224.465 C 215.294 225.850,216.288 227.981,216.602 230.074 C 216.823 231.547,217.149 232.122,218.187 232.865 C 223.981 237.014,223.925 246.159,218.083 249.852 C 216.748 250.696,216.075 251.525,215.221 253.378 C 213.932 256.176,212.333 257.918,210.042 259.021 C 208.587 259.722,208.402 259.980,208.189 261.600 C 207.860 264.107,205.089 273.263,202.922 279.000 C 198.793 289.934,196.630 296.236,194.821 302.600 C 194.133 305.020,193.219 308.170,192.791 309.600 C 192.362 311.030,191.746 313.100,191.422 314.200 C 187.475 327.572,181.030 340.000,178.043 340.000 C 177.633 340.000,177.053 340.295,176.755 340.655 C 174.151 343.791,166.027 343.324,162.830 339.853 C 162.048 339.004,161.498 338.800,159.990 338.800 C 158.763 338.800,157.472 338.456,156.238 337.800 C 155.204 337.250,153.769 336.800,153.050 336.800 C 149.798 336.800,144.970 333.695,144.177 331.093 C 144.028 330.602,143.673 329.930,143.389 329.600 C 142.520 328.590,140.765 325.120,139.949 322.800 C 136.563 313.164,136.137 311.539,133.554 298.400 C 131.711 289.029,129.537 279.092,128.433 275.000 C 123.580 257.012,122.652 252.257,122.907 246.686 L 123.105 242.372 122.053 241.820 C 115.130 238.192,115.581 226.590,122.761 223.616 C 123.780 223.194,123.980 222.831,124.351 220.723 C 125.296 215.358,128.882 212.097,134.073 211.883 L 136.090 211.800 137.447 209.107 C 139.946 204.145,145.417 195.338,149.690 189.400 C 153.829 183.648,160.509 173.364,163.590 168.000 C 167.216 161.690,171.879 154.291,173.865 151.697 L 176.395 148.394 175.597 146.297 C 174.203 142.628,174.763 139.135,177.262 135.914 L 178.416 134.427 177.076 132.673 C 174.935 129.868,174.331 126.318,175.363 122.600 C 175.538 121.969,174.973 121.315,172.692 119.505 C 169.508 116.979,168.793 116.342,161.800 109.816 C 151.418 100.127,151.006 99.767,142.800 93.203 C 134.514 86.575,128.353 81.248,126.259 78.900 C 125.221 77.736,125.216 77.737,123.513 79.500 M145.983 80.100 C 147.641 81.866,148.000 82.184,148.000 81.883 C 148.000 81.819,147.145 80.964,146.100 79.983 L 144.200 78.200 145.983 80.100 M108.500 80.276 C 108.885 80.376,109.515 80.376,109.900 80.276 C 110.285 80.175,109.970 80.093,109.200 80.093 C 108.430 80.093,108.115 80.175,108.500 80.276 M322.909 81.600 C 322.909 82.590,322.987 82.995,323.082 82.500 C 323.178 82.005,323.178 81.195,323.082 80.700 C 322.987 80.205,322.909 80.610,322.909 81.600 M326.514 81.800 C 326.517 82.900,326.595 83.303,326.687 82.695 C 326.779 82.086,326.777 81.186,326.682 80.695 C 326.587 80.203,326.511 80.700,326.514 81.800 M309.701 81.800 C 309.705 82.680,309.787 82.993,309.883 82.495 C 309.979 81.998,309.975 81.278,309.875 80.895 C 309.775 80.513,309.696 80.920,309.701 81.800 M320.772 81.724 C 320.745 82.569,320.731 82.571,320.400 81.800 C 319.927 80.699,319.927 80.308,320.400 80.600 C 320.620 80.736,320.787 81.242,320.772 81.724 M305.296 81.995 C 304.587 83.131,304.684 84.000,305.520 84.000 C 306.107 84.000,306.209 83.742,306.076 82.600 C 305.884 80.955,305.926 80.987,305.296 81.995 M111.200 82.000 C 110.257 82.302,110.251 82.323,111.086 82.360 C 111.573 82.382,112.629 82.977,113.432 83.682 C 114.834 84.913,114.913 84.934,115.446 84.205 C 116.909 82.204,114.488 80.947,111.200 82.000 M107.052 82.412 C 107.325 82.685,107.791 82.694,108.432 82.438 C 109.342 82.074,109.317 82.049,108.020 82.025 C 107.073 82.008,106.769 82.129,107.052 82.412 M298.400 82.333 C 298.400 82.614,297.641 82.828,296.500 82.870 L 294.600 82.940 296.354 83.096 C 298.020 83.243,299.264 82.731,298.673 82.140 C 298.523 81.990,298.400 82.077,298.400 82.333 M319.570 85.500 L 318.600 86.600 319.800 85.600 C 320.460 85.050,321.075 84.555,321.167 84.500 C 321.258 84.445,321.155 84.400,320.936 84.400 C 320.718 84.400,320.103 84.895,319.570 85.500 M321.970 87.900 L 321.000 89.000 322.200 88.000 C 322.860 87.450,323.475 86.955,323.567 86.900 C 323.658 86.845,323.555 86.800,323.336 86.800 C 323.118 86.800,322.503 87.295,321.970 87.900 M152.400 98.525 C 152.400 98.594,152.985 99.179,153.700 99.825 L 155.000 101.000 153.825 99.700 C 152.730 98.488,152.400 98.216,152.400 98.525 M328.093 99.600 C 328.093 100.370,328.175 100.685,328.276 100.300 C 328.376 99.915,328.376 99.285,328.276 98.900 C 328.175 98.515,328.093 98.830,328.093 99.600 M328.528 108.000 C 328.528 109.430,328.601 110.015,328.689 109.300 C 328.778 108.585,328.778 107.415,328.689 106.700 C 328.601 105.985,328.528 106.570,328.528 108.000 M164.000 109.400 C 164.746 110.170,165.447 110.800,165.557 110.800 C 165.667 110.800,165.146 110.170,164.400 109.400 C 163.654 108.630,162.953 108.000,162.843 108.000 C 162.733 108.000,163.254 108.630,164.000 109.400 M213.578 109.500 L 212.200 111.000 213.700 109.622 C 215.096 108.338,215.384 108.000,215.078 108.000 C 215.012 108.000,214.337 108.675,213.578 109.500 M330.553 113.400 C 330.553 116.040,330.618 117.068,330.697 115.684 C 330.775 114.301,330.774 112.141,330.695 110.884 C 330.616 109.628,330.552 110.760,330.553 113.400 M182.200 111.600 C 183.059 112.480,183.852 113.200,183.962 113.200 C 184.072 113.200,183.459 112.480,182.600 111.600 C 181.741 110.720,180.948 110.000,180.838 110.000 C 180.728 110.000,181.341 110.720,182.200 111.600 M318.893 114.800 C 318.893 115.570,318.975 115.885,319.076 115.500 C 319.176 115.115,319.176 114.485,319.076 114.100 C 318.975 113.715,318.893 114.030,318.893 114.800 M328.944 119.200 C 328.944 121.290,329.012 122.145,329.094 121.100 C 329.176 120.055,329.176 118.345,329.094 117.300 C 329.012 116.255,328.944 117.110,328.944 119.200 M224.501 118.200 C 224.505 119.080,224.587 119.393,224.683 118.895 C 224.779 118.398,224.775 117.678,224.675 117.295 C 224.575 116.913,224.496 117.320,224.501 118.200 M216.105 119.087 C 216.714 119.179,217.614 119.177,218.105 119.082 C 218.597 118.987,218.100 118.911,217.000 118.914 C 215.900 118.917,215.497 118.995,216.105 119.087 M102.865 120.217 C 102.195 121.688,102.323 122.002,103.047 120.665 C 103.386 120.040,103.588 119.454,103.496 119.363 C 103.405 119.271,103.121 119.656,102.865 120.217 M215.000 121.271 C 213.809 121.936,213.771 122.011,214.412 122.416 C 215.867 123.336,219.670 122.449,218.794 121.393 C 218.218 120.698,216.145 120.632,215.000 121.271 M330.928 123.600 C 330.928 125.030,331.001 125.615,331.089 124.900 C 331.178 124.185,331.178 123.015,331.089 122.300 C 331.001 121.585,330.928 122.170,330.928 123.600 M187.600 124.758 C 186.192 125.788,184.530 126.001,182.547 125.404 C 180.636 124.829,180.400 124.926,180.400 126.287 C 180.400 128.802,183.570 131.984,184.176 130.076 C 184.520 128.990,187.614 126.012,188.673 125.746 C 189.234 125.605,189.600 125.214,189.600 124.757 C 189.600 123.810,188.894 123.810,187.600 124.758 M210.006 125.100 C 210.011 125.675,210.077 125.697,210.376 125.226 C 210.691 124.727,210.835 124.727,211.470 125.226 C 212.138 125.751,212.154 125.741,211.651 125.100 C 211.349 124.715,210.854 124.400,210.551 124.400 C 210.248 124.400,210.003 124.715,210.006 125.100 M329.301 126.600 C 329.305 127.480,329.387 127.793,329.483 127.295 C 329.579 126.798,329.575 126.078,329.475 125.695 C 329.375 125.313,329.296 125.720,329.301 126.600 M320.093 129.200 C 320.093 129.970,320.175 130.285,320.276 129.900 C 320.376 129.515,320.376 128.885,320.276 128.500 C 320.175 128.115,320.093 128.430,320.093 129.200 M215.500 129.482 C 215.995 129.578,216.805 129.578,217.300 129.482 C 217.795 129.387,217.390 129.309,216.400 129.309 C 215.410 129.309,215.005 129.387,215.500 129.482 M193.710 132.051 C 193.100 132.969,192.425 133.956,192.211 134.245 C 191.936 134.618,192.119 135.096,192.838 135.885 C 193.397 136.498,194.169 137.506,194.553 138.125 C 195.646 139.887,198.002 137.779,197.999 135.041 C 197.994 131.582,195.282 129.691,193.710 132.051 M211.606 135.890 C 211.616 138.260,212.028 138.638,213.967 138.057 C 215.658 137.550,218.490 137.974,219.007 138.811 C 219.466 139.555,219.917 139.190,220.577 137.541 C 221.396 135.493,221.095 135.165,218.800 135.607 C 216.732 136.005,214.290 135.736,212.700 134.934 L 211.600 134.379 211.606 135.890 M224.501 135.800 C 224.505 136.680,224.587 136.993,224.683 136.495 C 224.779 135.998,224.775 135.278,224.675 134.895 C 224.575 134.513,224.496 134.920,224.501 135.800 M181.612 139.387 C 180.981 140.059,180.623 141.023,180.490 142.408 L 180.294 144.442 182.247 144.372 C 185.200 144.266,185.446 144.322,186.716 145.391 L 187.893 146.381 188.647 145.540 C 189.385 144.715,189.385 144.689,188.632 144.249 C 187.074 143.338,184.926 141.200,184.183 139.820 C 183.278 138.139,182.852 138.068,181.612 139.387 M178.788 140.022 C 178.546 140.474,178.407 141.022,178.480 141.239 C 178.552 141.457,178.818 141.087,179.071 140.417 C 179.597 139.025,179.439 138.805,178.788 140.022 M320.534 142.400 C 320.534 144.050,320.605 144.725,320.691 143.900 C 320.778 143.075,320.778 141.725,320.691 140.900 C 320.605 140.075,320.534 140.750,320.534 142.400 M330.893 142.800 C 330.893 143.570,330.975 143.885,331.076 143.500 C 331.176 143.115,331.176 142.485,331.076 142.100 C 330.975 141.715,330.893 142.030,330.893 142.800 M332.901 144.600 C 332.905 145.480,332.987 145.793,333.083 145.295 C 333.179 144.798,333.175 144.078,333.075 143.695 C 332.975 143.313,332.896 143.720,332.901 144.600 M214.945 144.278 C 215.377 144.711,216.400 144.771,216.400 144.365 C 216.400 144.164,216.010 144.000,215.533 144.000 C 215.057 144.000,214.792 144.125,214.945 144.278 M331.301 147.000 C 331.305 147.880,331.387 148.193,331.483 147.695 C 331.579 147.198,331.575 146.478,331.475 146.095 C 331.375 145.713,331.296 146.120,331.301 147.000 M178.377 147.708 C 178.831 148.310,178.800 148.548,178.170 149.308 L 177.430 150.200 178.402 149.302 C 179.357 148.420,179.360 148.390,178.609 147.702 C 177.879 147.032,177.868 147.032,178.377 147.708 M333.301 148.600 C 333.305 149.480,333.387 149.793,333.483 149.295 C 333.579 148.798,333.575 148.078,333.475 147.695 C 333.375 147.313,333.296 147.720,333.301 148.600 M183.078 148.256 C 182.937 148.396,182.917 148.666,183.034 148.856 C 183.318 149.314,184.800 149.299,184.800 148.837 C 184.800 148.638,184.395 148.564,183.900 148.672 C 183.177 148.831,183.118 148.785,183.600 148.441 C 183.930 148.205,184.005 148.009,183.767 148.006 C 183.528 148.003,183.218 148.115,183.078 148.256 M320.909 150.800 C 320.909 151.790,320.987 152.195,321.082 151.700 C 321.178 151.205,321.178 150.395,321.082 149.900 C 320.987 149.405,320.909 149.810,320.909 150.800 M182.487 150.862 C 182.586 151.158,182.987 151.462,183.379 151.538 C 183.835 151.627,184.028 151.482,183.913 151.138 C 183.814 150.842,183.413 150.538,183.021 150.462 C 182.565 150.373,182.372 150.518,182.487 150.862 M331.742 157.400 C 331.741 159.380,331.808 160.240,331.892 159.312 C 331.976 158.384,331.977 156.764,331.895 155.712 C 331.812 154.660,331.743 155.420,331.742 157.400 M208.893 156.000 C 208.893 156.770,208.975 157.085,209.076 156.700 C 209.176 156.315,209.176 155.685,209.076 155.300 C 208.975 154.915,208.893 155.230,208.893 156.000 M184.678 156.605 C 184.312 157.372,184.095 158.000,184.196 158.000 C 184.470 158.000,185.684 155.551,185.501 155.368 C 185.414 155.281,185.044 155.838,184.678 156.605 M208.493 160.000 C 208.493 160.770,208.575 161.085,208.676 160.700 C 208.776 160.315,208.776 159.685,208.676 159.300 C 208.575 158.915,208.493 159.230,208.493 160.000 M330.846 169.038 C 330.821 169.499,331.205 170.219,331.700 170.638 C 332.593 171.394,332.595 171.393,331.941 170.600 C 331.579 170.160,331.195 169.440,331.088 169.000 C 330.900 168.231,330.891 168.232,330.846 169.038 M73.049 169.815 C 72.912 170.173,72.815 170.766,72.834 171.133 C 72.853 171.500,73.027 171.269,73.221 170.620 C 73.598 169.358,73.465 168.733,73.049 169.815 M70.901 172.200 C 70.905 173.080,70.987 173.393,71.083 172.895 C 71.179 172.398,71.175 171.678,71.075 171.295 C 70.975 170.913,70.896 171.320,70.901 172.200 M74.501 172.200 C 74.505 173.080,74.587 173.393,74.683 172.895 C 74.779 172.398,74.775 171.678,74.675 171.295 C 74.575 170.913,74.496 171.320,74.501 172.200 M91.600 173.551 C 91.600 173.964,91.343 174.918,91.028 175.670 C 90.503 176.929,90.525 177.146,91.301 178.373 L 92.146 179.707 92.873 178.809 C 93.834 177.622,93.793 175.807,92.767 174.147 C 91.815 172.605,91.600 172.496,91.600 173.551 M321.992 173.700 C 321.576 174.559,321.584 174.565,322.172 173.832 C 322.779 173.075,322.800 173.075,323.694 173.832 L 324.600 174.600 323.838 173.700 C 323.419 173.205,322.930 172.800,322.752 172.800 C 322.574 172.800,322.232 173.205,321.992 173.700 M76.412 173.326 C 76.388 173.978,77.240 175.200,77.714 175.194 C 78.049 175.190,78.065 175.096,77.766 174.894 C 77.527 174.732,77.127 174.240,76.878 173.800 C 76.628 173.360,76.419 173.147,76.412 173.326 M326.900 175.476 C 327.285 175.576,327.915 175.576,328.300 175.476 C 328.685 175.375,328.370 175.293,327.600 175.293 C 326.830 175.293,326.515 175.375,326.900 175.476 M206.901 181.400 C 206.905 182.280,206.987 182.593,207.083 182.095 C 207.179 181.598,207.175 180.878,207.075 180.495 C 206.975 180.113,206.896 180.520,206.901 181.400 M94.575 182.500 L 93.400 183.800 94.700 182.625 C 95.912 181.530,96.184 181.200,95.875 181.200 C 95.806 181.200,95.221 181.785,94.575 182.500 M332.575 184.100 L 331.400 185.400 332.700 184.225 C 333.415 183.579,334.000 182.994,334.000 182.925 C 334.000 182.616,333.670 182.888,332.575 184.100 M317.060 185.138 C 315.005 187.283,315.158 188.994,317.457 189.572 C 318.526 189.841,319.985 190.421,320.700 190.863 C 321.415 191.304,322.000 191.578,322.000 191.472 C 322.000 191.366,321.415 190.904,320.700 190.446 C 319.985 189.988,319.614 189.610,319.875 189.607 C 320.457 189.598,320.397 188.002,319.815 187.994 C 319.587 187.991,319.644 187.833,319.941 187.645 C 320.372 187.372,320.386 187.121,320.007 186.413 C 319.567 185.592,319.602 185.545,320.466 185.798 C 321.133 185.993,320.978 185.776,319.921 185.036 C 318.122 183.776,318.373 183.767,317.060 185.138 M328.509 188.400 C 328.509 189.390,328.587 189.795,328.682 189.300 C 328.778 188.805,328.778 187.995,328.682 187.500 C 328.587 187.005,328.509 187.410,328.509 188.400 M324.893 188.400 C 324.893 189.170,324.975 189.485,325.076 189.100 C 325.176 188.715,325.176 188.085,325.076 187.700 C 324.975 187.315,324.893 187.630,324.893 188.400 M326.893 188.400 C 326.893 189.170,326.975 189.485,327.076 189.100 C 327.176 188.715,327.176 188.085,327.076 187.700 C 326.975 187.315,326.893 187.630,326.893 188.400 M76.893 192.800 C 76.893 193.570,76.975 193.885,77.076 193.500 C 77.176 193.115,77.176 192.485,77.076 192.100 C 76.975 191.715,76.893 192.030,76.893 192.800 M215.320 194.000 C 215.320 195.210,215.395 195.705,215.487 195.100 C 215.578 194.495,215.578 193.505,215.487 192.900 C 215.395 192.295,215.320 192.790,215.320 194.000 M308.975 193.700 L 307.800 195.000 309.100 193.825 C 309.815 193.179,310.400 192.594,310.400 192.525 C 310.400 192.216,310.070 192.488,308.975 193.700 M74.963 199.200 C 74.963 202.830,75.023 204.315,75.098 202.500 C 75.172 200.685,75.172 197.715,75.098 195.900 C 75.023 194.085,74.963 195.570,74.963 199.200 M325.978 194.300 L 324.600 195.800 326.100 194.422 C 327.496 193.138,327.784 192.800,327.478 192.800 C 327.412 192.800,326.737 193.475,325.978 194.300 M311.196 196.900 C 309.748 199.275,310.088 200.644,312.371 201.626 C 313.456 202.092,314.654 202.817,315.033 203.237 C 316.001 204.306,316.853 204.190,318.278 202.798 C 320.232 200.887,320.284 198.400,318.370 198.400 C 317.391 198.400,315.676 197.631,314.162 196.514 C 312.526 195.306,312.137 195.357,311.196 196.900 M87.348 200.000 C 87.348 202.310,87.414 203.255,87.495 202.100 C 87.576 200.945,87.576 199.055,87.495 197.900 C 87.414 196.745,87.348 197.690,87.348 200.000 M323.320 199.600 C 323.320 200.810,323.395 201.305,323.487 200.700 C 323.578 200.095,323.578 199.105,323.487 198.500 C 323.395 197.895,323.320 198.390,323.320 199.600 M214.909 199.600 C 214.909 200.590,214.987 200.995,215.082 200.500 C 215.178 200.005,215.178 199.195,215.082 198.700 C 214.987 198.205,214.909 198.610,214.909 199.600 M325.301 199.400 C 325.305 200.280,325.387 200.593,325.483 200.095 C 325.579 199.598,325.575 198.878,325.475 198.495 C 325.375 198.113,325.296 198.520,325.301 199.400 M76.928 206.400 C 76.928 207.830,77.001 208.415,77.089 207.700 C 77.178 206.985,77.178 205.815,77.089 205.100 C 77.001 204.385,76.928 204.970,76.928 206.400 M87.362 213.000 C 87.362 216.520,87.424 217.906,87.498 216.081 C 87.572 214.256,87.572 211.376,87.497 209.681 C 87.422 207.986,87.361 209.480,87.362 213.000 M75.309 209.600 C 75.309 210.590,75.387 210.995,75.482 210.500 C 75.578 210.005,75.578 209.195,75.482 208.700 C 75.387 208.205,75.309 208.610,75.309 209.600 M77.301 211.800 C 77.305 212.680,77.387 212.993,77.483 212.495 C 77.579 211.998,77.575 211.278,77.475 210.895 C 77.375 210.513,77.296 210.920,77.301 211.800 M203.324 213.000 C 203.326 214.320,203.401 214.812,203.490 214.093 C 203.579 213.374,203.577 212.294,203.486 211.693 C 203.395 211.092,203.322 211.680,203.324 213.000 M144.175 218.100 L 143.000 219.400 144.300 218.225 C 145.512 217.130,145.784 216.800,145.475 216.800 C 145.406 216.800,144.821 217.385,144.175 218.100 M131.169 218.769 C 129.308 220.631,129.510 222.467,131.700 223.595 C 132.635 224.076,133.944 224.990,134.609 225.626 L 135.819 226.781 137.109 225.997 C 138.697 225.031,138.766 224.173,137.281 223.876 C 136.665 223.753,135.675 223.166,135.081 222.572 C 134.018 221.509,133.843 220.889,133.988 218.700 C 134.088 217.185,132.719 217.219,131.169 218.769 M203.320 219.600 C 203.320 220.810,203.395 221.305,203.487 220.700 C 203.578 220.095,203.578 219.105,203.487 218.500 C 203.395 217.895,203.320 218.390,203.320 219.600 M142.893 222.000 C 142.893 222.770,142.975 223.085,143.076 222.700 C 143.176 222.315,143.176 221.685,143.076 221.300 C 142.975 220.915,142.893 221.230,142.893 222.000 M86.958 227.400 C 86.958 230.480,87.021 231.687,87.097 230.082 C 87.173 228.478,87.173 225.958,87.096 224.482 C 87.019 223.007,86.957 224.320,86.958 227.400 M210.832 223.622 C 210.814 223.963,211.475 224.863,212.300 225.622 L 213.800 227.000 212.549 225.600 C 211.861 224.830,211.200 223.930,211.081 223.600 C 210.892 223.081,210.859 223.084,210.832 223.622 M78.493 227.200 C 78.493 227.970,78.575 228.285,78.676 227.900 C 78.776 227.515,78.776 226.885,78.676 226.500 C 78.575 226.115,78.493 226.430,78.493 227.200 M140.175 228.100 L 139.000 229.400 140.300 228.225 C 141.512 227.130,141.784 226.800,141.475 226.800 C 141.406 226.800,140.821 227.385,140.175 228.100 M76.934 230.800 C 76.934 232.450,77.005 233.125,77.091 232.300 C 77.178 231.475,77.178 230.125,77.091 229.300 C 77.005 228.475,76.934 229.150,76.934 230.800 M124.702 229.102 C 123.248 230.003,122.271 232.104,122.603 233.614 C 122.996 235.405,123.427 235.366,124.557 233.437 C 125.126 232.467,126.085 231.313,126.690 230.873 C 128.590 229.489,126.739 227.839,124.702 229.102 M202.483 228.915 C 201.346 230.327,201.770 234.116,203.161 234.976 C 203.405 235.127,204.405 234.594,205.383 233.793 C 206.361 232.991,208.011 232.031,209.050 231.660 C 211.060 230.941,211.405 230.545,210.824 229.626 C 210.516 229.139,210.361 229.135,209.804 229.597 C 208.717 230.499,205.456 230.338,204.071 229.315 C 203.159 228.642,202.780 228.546,202.483 228.915 M212.864 231.075 C 212.804 232.648,212.721 232.759,211.500 232.911 L 210.200 233.072 211.513 233.136 C 213.010 233.209,213.335 232.715,213.092 230.738 C 212.942 229.513,212.923 229.541,212.864 231.075 M126.975 233.300 L 125.800 234.600 127.100 233.425 C 128.312 232.330,128.584 232.000,128.275 232.000 C 128.206 232.000,127.621 232.585,126.975 233.300 M78.501 235.400 C 78.505 236.280,78.587 236.593,78.683 236.095 C 78.779 235.598,78.775 234.878,78.675 234.495 C 78.575 234.113,78.496 234.520,78.501 235.400 M129.862 235.531 C 129.498 235.934,129.200 236.480,129.200 236.746 C 129.200 237.442,130.666 236.597,131.205 235.591 C 131.766 234.542,130.797 234.499,129.862 235.531 M136.211 237.979 C 135.875 238.628,135.030 239.692,134.332 240.345 C 133.089 241.506,133.077 241.552,133.741 242.565 C 135.277 244.910,138.775 240.673,137.811 237.635 C 137.444 236.480,136.929 236.591,136.211 237.979 M132.975 238.900 L 131.800 240.200 133.100 239.025 C 134.312 237.930,134.584 237.600,134.275 237.600 C 134.206 237.600,133.621 238.185,132.975 238.900 M213.600 238.773 C 213.050 239.365,212.240 240.055,211.800 240.306 C 211.037 240.741,211.069 240.820,212.476 241.990 C 213.288 242.666,214.060 243.558,214.191 243.972 C 214.933 246.308,217.499 243.595,217.067 240.932 C 216.555 237.781,215.266 236.977,213.600 238.773 M205.646 240.700 C 205.611 241.393,205.807 241.589,206.500 241.554 C 207.138 241.521,207.203 241.455,206.725 241.329 C 206.353 241.231,205.969 240.847,205.871 240.475 C 205.745 239.997,205.679 240.062,205.646 240.700 M218.901 241.400 C 218.905 242.280,218.987 242.593,219.083 242.095 C 219.179 241.598,219.175 240.878,219.075 240.495 C 218.975 240.113,218.896 240.520,218.901 241.400 M76.109 243.200 C 76.109 244.190,76.187 244.595,76.282 244.100 C 76.378 243.605,76.378 242.795,76.282 242.300 C 76.187 241.805,76.109 242.210,76.109 243.200 M88.093 244.400 C 88.093 245.170,88.175 245.485,88.276 245.100 C 88.376 244.715,88.376 244.085,88.276 243.700 C 88.175 243.315,88.093 243.630,88.093 244.400 M201.864 246.958 C 200.375 249.231,200.548 251.614,202.179 251.302 C 203.529 251.044,205.716 251.846,206.796 252.996 C 207.808 254.073,208.820 253.858,209.599 252.402 C 209.966 251.716,209.776 251.500,208.033 250.617 C 206.942 250.064,205.370 248.799,204.540 247.806 C 202.790 245.713,202.699 245.684,201.864 246.958 M198.901 249.800 C 198.905 250.680,198.987 250.993,199.083 250.495 C 199.179 249.998,199.175 249.278,199.075 248.895 C 198.975 248.513,198.896 248.920,198.901 249.800 M210.094 254.412 C 209.375 255.065,208.937 255.600,209.119 255.600 C 209.301 255.600,209.968 255.060,210.600 254.400 C 212.070 252.865,211.786 252.872,210.094 254.412 M240.493 302.800 C 240.493 303.570,240.575 303.885,240.676 303.500 C 240.776 303.115,240.776 302.485,240.676 302.100 C 240.575 301.715,240.493 302.030,240.493 302.800 M246.505 309.087 C 247.114 309.179,248.014 309.177,248.505 309.082 C 248.997 308.987,248.500 308.911,247.400 308.914 C 246.300 308.917,245.897 308.995,246.505 309.087 M145.307 323.178 C 144.945 323.757,144.935 324.036,145.270 324.243 C 145.535 324.407,145.614 324.346,145.459 324.096 C 145.314 323.861,145.403 323.599,145.658 323.514 C 145.912 323.429,146.047 323.142,145.959 322.876 C 145.856 322.569,145.618 322.679,145.307 323.178 M169.700 324.276 C 170.085 324.376,170.715 324.376,171.100 324.276 C 171.485 324.175,171.170 324.093,170.400 324.093 C 169.630 324.093,169.315 324.175,169.700 324.276 M156.623 326.089 C 155.940 327.064,155.766 330.000,156.391 330.000 C 156.914 330.000,157.915 328.396,158.013 327.400 C 158.242 325.074,157.695 324.558,156.623 326.089 M168.914 328.600 C 168.917 329.700,168.995 330.103,169.087 329.495 C 169.179 328.886,169.177 327.986,169.082 327.495 C 168.987 327.003,168.911 327.500,168.914 328.600 M171.075 328.258 C 170.924 328.410,170.800 329.021,170.800 329.616 C 170.800 331.278,169.684 334.069,168.544 335.259 L 167.519 336.328 168.378 336.788 C 168.850 337.041,169.805 337.192,170.499 337.124 L 171.762 337.000 171.925 334.000 C 172.215 328.649,172.206 328.278,171.775 328.130 C 171.541 328.049,171.226 328.107,171.075 328.258 M146.400 331.325 C 146.400 331.394,146.985 331.979,147.700 332.625 L 149.000 333.800 147.825 332.500 C 146.730 331.288,146.400 331.016,146.400 331.325 M152.940 332.075 C 153.090 332.544,152.888 332.802,152.278 332.921 C 151.552 333.062,151.591 333.100,152.500 333.146 C 153.684 333.204,153.834 332.943,153.156 332.000 C 152.787 331.487,152.756 331.498,152.940 332.075 M178.571 333.600 C 178.571 334.040,178.713 334.400,178.886 334.400 C 179.059 334.400,179.200 334.040,179.200 333.600 C 179.200 333.160,179.059 332.800,178.886 332.800 C 178.713 332.800,178.571 333.160,178.571 333.600 M173.701 334.600 C 173.705 335.480,173.787 335.793,173.883 335.295 C 173.979 334.798,173.975 334.078,173.875 333.695 C 173.775 333.313,173.696 333.720,173.701 334.600 M169.505 341.083 C 170.002 341.179,170.722 341.175,171.105 341.075 C 171.487 340.975,171.080 340.896,170.200 340.901 C 169.320 340.905,169.007 340.987,169.505 341.083 " stroke="none" fill="#ad191a" fill-rule="evenodd"></path><path id="path1" d="M116.600 61.617 C 114.620 61.776,112.071 61.815,110.936 61.702 C 101.314 60.751,95.611 69.838,100.747 77.938 C 101.127 78.538,101.357 79.979,101.383 81.938 C 101.415 84.261,101.637 85.402,102.304 86.667 L 103.182 88.333 101.037 92.667 C 97.825 99.153,96.501 102.581,91.817 116.552 C 89.465 123.565,86.904 130.855,86.126 132.752 C 83.683 138.704,82.930 140.513,81.608 143.600 C 79.342 148.890,76.370 158.063,76.021 160.846 C 75.727 163.189,75.493 163.734,74.248 164.979 C 71.029 168.198,70.289 173.430,72.498 177.346 L 73.595 179.293 72.947 181.524 C 72.175 184.180,72.585 186.681,74.265 189.547 C 75.280 191.278,75.302 191.471,75.233 197.959 C 75.151 205.783,75.752 217.228,76.643 224.800 C 77.189 229.442,77.208 231.014,76.779 235.997 C 76.032 244.671,76.074 251.586,76.897 255.600 C 77.281 257.470,77.978 260.980,78.447 263.400 C 78.915 265.820,79.636 269.510,80.048 271.600 C 80.460 273.690,81.104 276.995,81.479 278.943 C 82.235 282.875,83.154 284.081,84.746 283.229 C 85.698 282.719,85.817 282.356,86.399 278.200 C 86.646 276.440,87.098 273.740,87.405 272.200 C 88.097 268.727,89.388 259.976,90.028 254.417 C 90.548 249.903,90.384 245.313,89.358 235.662 C 88.878 231.152,88.807 228.186,89.051 222.800 C 89.226 218.950,89.376 210.484,89.384 203.987 L 89.400 192.174 90.643 190.665 C 91.327 189.834,92.125 188.433,92.416 187.550 C 92.743 186.561,93.343 185.740,93.981 185.410 C 102.214 181.152,100.235 168.940,90.905 166.428 C 88.505 165.782,88.145 164.878,89.344 162.507 C 90.923 159.384,93.787 151.827,95.979 145.000 C 98.010 138.671,99.000 135.840,101.226 130.000 C 102.483 126.702,104.523 121.675,105.366 119.800 C 108.574 112.661,111.562 104.172,113.329 97.173 C 114.457 92.706,114.841 91.721,115.607 91.331 C 118.996 89.606,121.305 86.474,121.783 82.951 C 122.009 81.288,122.353 80.618,123.615 79.385 L 125.169 77.868 127.442 80.034 C 128.692 81.225,130.077 82.544,130.521 82.963 C 132.290 84.639,136.907 88.489,142.800 93.203 C 151.006 99.767,151.418 100.127,161.800 109.816 C 168.793 116.342,169.508 116.979,172.692 119.505 C 174.973 121.315,175.538 121.969,175.363 122.600 C 174.331 126.318,174.935 129.868,177.076 132.673 L 178.416 134.427 177.262 135.914 C 174.763 139.135,174.203 142.628,175.597 146.297 L 176.395 148.394 173.865 151.697 C 171.879 154.291,167.216 161.690,163.590 168.000 C 160.509 173.364,153.829 183.648,149.690 189.400 C 145.417 195.338,139.946 204.145,137.447 209.107 L 136.090 211.800 134.073 211.883 C 128.882 212.097,125.296 215.358,124.351 220.723 C 123.980 222.831,123.780 223.194,122.761 223.616 C 115.581 226.590,115.130 238.192,122.053 241.820 L 123.105 242.372 122.907 246.686 C 122.652 252.257,123.580 257.012,128.433 275.000 C 129.537 279.092,131.711 289.029,133.554 298.400 C 136.137 311.539,136.563 313.164,139.949 322.800 C 140.765 325.120,142.520 328.590,143.389 329.600 C 143.673 329.930,144.028 330.602,144.177 331.093 C 144.970 333.695,149.798 336.800,153.050 336.800 C 153.769 336.800,155.204 337.250,156.238 337.800 C 157.472 338.456,158.763 338.800,159.990 338.800 C 161.498 338.800,162.048 339.004,162.830 339.853 C 166.027 343.324,174.151 343.791,176.755 340.655 C 177.053 340.295,177.633 340.000,178.043 340.000 C 181.030 340.000,187.475 327.572,191.422 314.200 C 191.746 313.100,192.362 311.030,192.791 309.600 C 193.219 308.170,194.133 305.020,194.821 302.600 C 196.630 296.236,198.793 289.934,202.922 279.000 C 205.089 273.263,207.860 264.107,208.189 261.600 C 208.402 259.980,208.587 259.722,210.042 259.021 C 212.333 257.918,213.932 256.176,215.221 253.378 C 216.075 251.525,216.748 250.696,218.083 249.852 C 223.925 246.159,223.981 237.014,218.187 232.865 C 217.149 232.122,216.823 231.547,216.602 230.074 C 216.288 227.981,215.294 225.850,213.987 224.465 L 213.104 223.531 214.361 217.600 C 215.755 211.018,216.448 205.074,217.415 191.400 C 218.072 182.104,218.292 180.164,220.195 166.800 C 221.580 157.070,221.976 153.005,221.989 148.372 L 222.000 144.543 223.781 142.684 C 225.955 140.416,226.578 138.409,226.228 134.806 C 225.851 130.933,225.858 130.808,226.615 128.070 C 227.208 125.924,227.242 125.218,226.840 123.423 C 226.580 122.259,226.329 119.650,226.283 117.625 L 226.200 113.942 227.400 113.427 C 232.359 111.294,240.062 107.576,243.400 105.702 C 256.032 98.611,262.315 95.395,271.400 91.373 C 275.783 89.432,283.005 85.816,286.370 83.877 L 288.139 82.857 289.752 84.237 C 291.637 85.851,294.488 86.800,297.449 86.800 C 298.606 86.800,299.675 86.998,299.825 87.241 C 300.518 88.362,304.224 89.592,306.921 89.596 C 309.168 89.599,309.900 89.776,311.121 90.609 C 311.935 91.163,313.248 91.722,314.039 91.850 L 315.478 92.083 315.744 98.835 C 315.994 105.211,316.703 113.269,317.605 120.000 C 317.826 121.650,318.186 128.670,318.405 135.600 C 318.811 148.431,319.538 157.568,320.625 163.512 L 321.230 166.825 318.850 169.112 C 316.211 171.648,315.606 173.089,315.602 176.848 C 315.600 178.972,315.522 179.150,314.194 180.048 C 311.458 181.899,310.001 184.869,309.999 188.597 C 309.998 190.337,309.853 190.697,308.895 191.338 C 306.081 193.224,304.584 196.810,304.923 200.855 L 305.152 203.580 303.482 204.701 C 301.863 205.788,301.026 206.919,287.200 226.686 C 285.550 229.045,284.078 231.277,283.928 231.647 C 283.778 232.016,283.470 232.433,283.242 232.574 C 283.015 232.714,280.563 236.108,277.793 240.115 C 275.023 244.122,271.676 248.930,270.355 250.800 C 269.034 252.670,266.396 256.450,264.493 259.200 C 262.591 261.950,259.901 265.774,258.517 267.697 C 257.133 269.620,256.000 271.360,256.000 271.563 C 256.000 271.767,255.844 271.993,255.653 272.067 C 255.461 272.140,253.185 275.260,250.594 279.000 C 248.003 282.740,245.099 286.903,244.142 288.250 C 242.138 291.070,241.200 293.113,241.200 294.656 C 241.200 295.250,240.913 296.054,240.562 296.442 C 238.053 299.215,238.252 305.373,240.947 308.339 C 244.402 312.141,252.865 311.434,255.812 307.096 C 256.345 306.312,257.537 305.250,258.462 304.735 C 259.599 304.103,260.625 303.023,261.633 301.400 C 264.413 296.924,267.069 292.612,269.396 288.800 C 270.671 286.710,272.634 283.552,273.757 281.782 C 274.881 280.012,276.013 278.212,276.274 277.782 C 280.294 271.144,281.890 268.545,283.384 266.200 C 284.366 264.660,285.597 262.680,286.120 261.800 C 287.662 259.207,295.524 246.501,298.001 242.600 C 299.258 240.620,302.594 235.220,305.414 230.600 C 308.234 225.980,311.592 220.580,312.877 218.600 C 314.161 216.620,315.398 214.280,315.625 213.400 C 316.444 210.225,316.777 209.734,318.450 209.232 C 322.081 208.144,324.794 204.354,325.112 199.925 C 325.293 197.409,325.393 197.179,326.808 196.042 C 328.978 194.298,330.400 191.222,330.400 188.272 C 330.400 185.952,330.440 185.865,332.258 184.266 C 336.646 180.403,337.213 174.859,333.706 170.089 C 332.788 168.840,332.762 168.646,333.171 166.012 C 333.922 161.173,333.657 152.442,332.369 139.600 C 330.908 125.020,330.455 118.226,330.410 110.200 C 330.343 98.173,329.257 90.032,327.175 85.951 C 326.636 84.894,326.400 83.613,326.400 81.742 C 326.400 75.650,322.062 71.363,316.033 71.496 C 314.061 71.540,313.244 71.378,312.505 70.797 C 311.183 69.757,307.340 68.696,305.622 68.897 C 304.536 69.023,303.843 68.802,302.672 67.953 C 299.579 65.713,294.082 65.533,291.311 67.581 C 290.694 68.038,289.201 68.576,287.994 68.778 C 282.913 69.626,273.398 73.770,265.600 78.530 C 260.937 81.376,251.159 86.425,243.351 90.020 C 224.069 98.896,216.842 103.331,208.804 111.222 C 206.488 113.495,205.777 115.689,206.190 119.289 C 206.348 120.670,206.453 122.969,206.422 124.398 C 206.389 125.948,206.625 127.675,207.008 128.675 C 207.608 130.247,207.602 130.425,206.924 131.459 C 206.368 132.308,206.200 133.358,206.200 135.982 C 206.200 139.520,206.506 140.397,208.549 142.706 C 209.332 143.590,209.334 143.678,208.672 146.306 C 207.749 149.966,206.548 160.908,206.005 170.600 C 205.603 177.772,204.780 185.299,203.577 192.800 C 202.268 200.958,201.961 204.301,201.732 212.887 L 201.479 222.375 199.826 223.757 C 195.236 227.592,195.030 234.430,199.368 238.879 L 200.811 240.358 198.824 242.216 C 195.701 245.138,194.474 251.170,196.382 254.224 C 196.831 254.942,196.691 255.476,195.274 258.424 C 193.601 261.907,191.429 268.127,189.209 275.800 C 185.499 288.623,184.171 292.637,180.274 302.800 C 177.434 310.205,175.493 316.083,174.372 320.664 L 173.867 322.728 171.634 322.525 C 170.303 322.404,168.996 322.010,168.400 321.550 C 165.373 319.212,163.781 318.400,162.222 318.396 C 161.315 318.394,159.719 317.959,158.600 317.409 C 157.295 316.767,155.897 316.421,154.576 316.413 C 151.600 316.394,151.426 316.124,150.453 310.000 C 149.598 304.613,148.192 298.573,146.031 291.000 C 144.199 284.581,141.102 270.507,140.382 265.329 C 140.193 263.970,139.376 260.100,138.567 256.729 C 136.638 248.688,136.617 249.145,138.991 247.543 C 144.032 244.143,144.958 235.960,140.747 232.036 L 139.895 231.242 141.739 229.398 C 143.717 227.420,144.800 224.773,144.800 221.917 C 144.800 220.766,145.104 220.045,146.005 219.055 C 148.347 216.481,151.657 212.154,154.155 208.400 C 158.293 202.181,160.000 199.552,160.000 199.396 C 160.000 199.249,166.166 188.773,168.439 185.056 C 169.094 183.986,172.111 179.576,175.144 175.256 C 183.480 163.383,187.063 157.480,187.964 154.132 C 188.320 152.811,188.761 152.264,190.107 151.476 C 192.166 150.269,193.090 149.287,194.411 146.900 C 195.179 145.511,195.794 144.944,196.975 144.535 C 205.640 141.535,205.717 129.740,197.100 125.394 C 195.830 124.754,195.341 124.177,194.723 122.594 C 193.816 120.269,192.023 118.251,189.884 117.149 C 189.050 116.719,188.212 115.958,188.022 115.457 C 187.126 113.102,180.580 107.022,168.439 97.268 C 161.813 91.946,159.100 89.548,149.800 80.800 C 142.763 74.181,137.882 70.202,131.200 65.636 C 124.336 60.945,124.472 60.983,116.600 61.617 M124.490 63.646 C 127.337 65.099,132.595 68.670,136.882 72.064 C 141.433 75.668,142.478 76.594,150.600 84.225 C 156.987 90.226,160.734 93.476,167.176 98.600 C 178.449 107.568,183.122 111.824,185.800 115.560 C 186.900 117.095,187.970 118.362,188.178 118.375 C 190.080 118.499,193.600 123.031,193.600 125.355 C 193.600 126.139,193.861 126.391,194.900 126.610 C 203.744 128.473,203.759 141.432,194.920 143.374 C 193.979 143.580,193.589 143.929,193.407 144.726 C 192.981 146.589,191.071 148.890,189.048 149.977 C 187.224 150.957,187.025 151.224,186.028 154.013 C 184.581 158.065,180.702 164.279,171.303 177.600 C 168.587 181.450,163.063 190.288,159.678 196.200 C 155.787 202.996,149.559 212.137,145.924 216.389 C 143.114 219.678,143.026 219.845,142.987 221.989 C 142.918 225.763,140.932 228.620,137.458 229.938 L 135.606 230.642 137.684 232.021 C 143.894 236.142,142.317 245.562,135.121 247.338 C 134.070 247.598,134.057 247.638,134.595 248.926 C 135.426 250.914,137.382 259.355,138.785 267.000 C 140.334 275.445,142.116 283.702,143.430 288.521 C 146.383 299.355,147.211 302.679,148.184 307.600 C 148.771 310.570,149.353 314.183,149.478 315.629 L 149.704 318.258 152.952 318.229 C 155.657 318.205,156.442 318.351,157.647 319.100 C 158.443 319.595,159.703 320.001,160.447 320.002 C 162.835 320.006,164.766 320.799,166.504 322.488 C 168.060 324.001,168.385 324.140,170.442 324.184 C 171.806 324.213,173.090 324.498,173.721 324.911 C 174.982 325.738,174.911 325.847,176.136 321.186 C 177.829 314.745,178.558 312.611,184.192 297.600 C 185.719 293.531,187.820 287.150,189.129 282.600 C 192.778 269.921,193.986 266.127,195.773 261.739 C 196.324 260.385,197.293 258.399,197.927 257.324 C 199.077 255.373,199.078 255.368,198.354 254.018 C 195.887 249.418,198.274 242.794,202.755 241.810 C 204.648 241.394,204.415 240.067,202.214 238.732 C 196.822 235.461,196.684 227.765,201.955 224.277 L 203.447 223.290 203.280 218.545 C 203.092 213.176,204.081 200.425,205.200 193.800 C 205.609 191.380,206.139 187.690,206.379 185.600 C 206.618 183.510,206.994 180.450,207.213 178.800 C 207.433 177.150,207.875 171.390,208.194 166.000 C 208.768 156.337,209.864 148.021,210.981 144.854 C 211.544 143.259,211.534 143.214,210.317 141.917 C 207.844 139.280,207.197 134.886,208.833 131.833 C 209.630 130.348,209.637 130.213,209.004 128.809 C 208.568 127.841,208.360 126.395,208.397 124.570 C 208.427 123.047,208.331 120.603,208.182 119.140 C 207.738 114.771,208.196 113.975,214.000 109.012 C 220.485 103.468,229.981 98.034,244.748 91.418 C 250.820 88.697,256.185 85.954,263.400 81.881 C 276.250 74.627,283.775 71.256,288.600 70.592 C 289.700 70.440,291.230 69.898,292.000 69.386 C 294.907 67.454,298.908 67.613,301.737 69.772 C 303.309 70.973,303.661 71.077,305.542 70.896 C 307.907 70.669,310.353 71.436,312.119 72.960 C 313.109 73.815,313.406 73.879,314.708 73.519 C 320.018 72.053,325.231 76.875,324.697 82.759 C 324.543 84.456,324.637 85.266,325.033 85.662 C 327.303 87.932,328.125 94.039,329.008 115.192 C 329.539 127.937,330.449 139.930,331.003 141.508 C 331.562 143.102,331.992 158.350,331.629 163.761 L 331.230 169.723 332.408 171.210 C 335.761 175.444,334.300 181.649,329.365 184.132 C 328.133 184.752,328.130 184.760,328.541 186.765 C 329.280 190.371,326.392 196.000,323.805 196.000 C 323.320 196.000,323.257 196.432,323.461 198.384 C 323.938 202.940,321.028 207.009,316.723 207.807 C 315.514 208.031,315.200 208.290,314.992 209.236 C 314.853 209.871,314.572 210.494,314.369 210.619 C 314.166 210.745,314.000 211.296,314.000 211.843 C 314.000 213.209,310.744 218.850,302.596 231.600 C 302.104 232.370,299.494 236.600,296.795 241.000 C 294.096 245.400,291.489 249.630,291.000 250.400 C 290.512 251.170,288.618 254.230,286.791 257.200 C 284.964 260.170,282.644 263.905,281.635 265.500 C 280.626 267.096,279.392 269.076,278.894 269.900 C 278.034 271.324,267.821 287.882,263.720 294.499 C 259.295 301.640,258.577 302.605,257.096 303.399 C 256.274 303.840,255.164 304.802,254.629 305.539 C 249.606 312.459,237.593 307.765,240.966 300.200 C 241.162 299.760,241.340 299.220,241.361 299.000 C 241.383 298.780,241.760 298.068,242.200 297.418 C 242.640 296.768,243.011 295.582,243.024 294.782 C 243.050 293.228,243.943 291.569,247.211 287.000 C 248.312 285.460,249.716 283.480,250.331 282.600 C 250.946 281.720,253.780 277.670,256.628 273.600 C 259.476 269.530,262.114 265.750,262.490 265.200 C 262.866 264.650,263.686 263.480,264.313 262.600 C 265.754 260.577,275.577 246.538,276.488 245.200 C 276.862 244.650,278.065 242.940,279.161 241.400 C 280.256 239.860,282.342 236.890,283.795 234.800 C 299.262 212.560,303.692 206.400,304.221 206.400 C 305.466 206.400,307.644 203.630,307.140 202.687 C 305.375 199.389,307.965 192.954,311.511 191.828 C 312.125 191.633,312.206 191.219,312.082 188.901 C 311.896 185.400,312.979 183.186,315.815 181.269 L 317.784 179.937 317.656 177.169 C 317.480 173.351,319.968 168.837,322.273 168.794 C 323.451 168.772,323.614 168.117,323.027 165.770 C 322.701 164.467,322.074 160.610,321.633 157.200 C 320.856 151.195,320.679 148.094,320.179 131.662 C 320.049 127.405,319.778 122.455,319.577 120.662 C 319.375 118.868,318.929 114.970,318.585 112.000 C 318.241 109.030,317.868 102.910,317.756 98.400 L 317.552 90.200 316.476 90.123 C 314.264 89.965,312.968 89.553,311.407 88.511 C 309.974 87.556,309.485 87.452,306.891 87.556 C 304.064 87.668,300.448 86.241,299.925 84.806 C 299.856 84.618,299.005 84.611,298.033 84.791 C 295.251 85.305,292.589 84.336,290.386 82.009 L 288.573 80.093 287.630 80.856 C 285.948 82.218,280.007 85.277,270.606 89.621 C 259.608 94.704,255.400 96.806,249.236 100.299 C 238.578 106.338,229.137 110.988,224.673 112.398 C 223.487 112.772,223.208 113.028,223.426 113.540 C 224.566 116.214,224.850 117.562,224.628 119.252 C 224.482 120.367,224.614 121.983,224.960 123.310 C 225.583 125.705,225.395 127.296,224.220 129.565 C 223.543 130.870,223.543 131.032,224.220 133.265 C 225.396 137.150,223.310 142.502,220.175 143.645 C 219.897 143.746,219.836 144.771,219.997 146.600 C 220.351 150.599,219.798 156.984,217.988 169.800 C 215.927 184.390,216.073 183.038,215.594 192.000 C 215.048 202.222,213.887 211.688,212.341 218.525 L 211.091 224.050 212.325 225.325 C 213.912 226.964,214.867 229.275,214.867 231.476 C 214.867 233.078,214.984 233.278,216.333 233.970 C 222.685 237.228,222.099 246.832,215.400 249.254 C 214.303 249.651,213.998 249.982,213.991 250.780 C 213.967 253.584,210.890 257.165,207.950 257.811 C 206.569 258.114,206.634 257.960,206.069 262.262 C 205.635 265.568,203.050 273.582,198.605 285.400 C 196.220 291.741,193.266 300.726,192.030 305.400 C 187.719 321.699,180.914 337.383,177.817 338.160 C 177.269 338.298,176.161 338.857,175.355 339.404 C 171.517 342.009,166.940 341.554,163.940 338.270 C 162.953 337.189,162.508 337.013,160.618 336.955 C 159.114 336.909,157.865 336.569,156.601 335.863 C 155.592 335.299,154.514 334.935,154.205 335.054 C 152.146 335.844,147.201 332.951,145.929 330.213 C 145.517 329.326,144.825 328.150,144.392 327.600 C 141.286 323.657,137.415 310.127,134.009 291.313 C 132.883 285.094,131.850 280.536,130.176 274.400 C 125.065 255.672,123.588 246.612,125.167 243.662 C 125.808 242.463,125.327 241.706,122.963 240.194 C 116.549 236.091,118.012 226.418,125.324 224.583 C 126.205 224.362,126.293 224.171,126.117 222.860 C 125.418 217.650,130.209 213.090,135.700 213.738 C 137.036 213.896,137.602 213.820,137.606 213.481 C 137.613 212.912,140.379 207.431,142.796 203.200 C 144.578 200.079,147.584 195.497,151.368 190.135 C 155.397 184.426,160.267 177.051,162.419 173.400 C 163.587 171.420,164.935 169.170,165.414 168.400 C 165.894 167.630,167.234 165.380,168.391 163.400 C 170.771 159.327,175.396 152.349,176.600 151.016 C 179.026 148.329,178.924 148.722,177.749 146.621 C 175.768 143.075,176.578 138.882,179.790 136.062 C 180.581 135.368,181.402 134.800,181.614 134.800 C 182.422 134.800,181.919 134.163,180.349 133.200 C 177.186 131.259,175.701 126.085,177.377 122.845 C 177.757 122.110,177.918 121.363,177.734 121.185 C 177.550 121.008,176.392 120.083,175.159 119.131 C 172.162 116.816,167.823 112.979,163.251 108.600 C 161.184 106.620,159.292 104.819,159.046 104.598 C 153.188 99.317,149.624 96.298,143.000 91.004 C 138.600 87.489,132.703 82.376,129.896 79.644 C 127.088 76.911,124.734 74.749,124.665 74.838 C 124.596 74.927,124.160 75.631,123.697 76.402 C 123.235 77.173,122.163 78.241,121.317 78.776 C 119.948 79.642,119.795 79.897,119.935 81.095 C 120.326 84.446,118.031 88.128,114.643 89.583 L 113.000 90.289 112.061 94.644 C 110.980 99.664,107.783 109.252,104.875 116.200 C 99.564 128.887,98.504 131.655,95.531 140.599 C 91.392 153.049,89.417 158.321,87.533 161.952 L 86.000 164.903 87.300 166.418 C 88.015 167.251,88.870 167.949,89.200 167.968 C 97.694 168.479,100.241 180.180,92.700 184.047 C 91.875 184.470,91.200 185.090,91.200 185.424 C 91.200 186.500,89.569 189.269,88.179 190.552 L 86.828 191.800 87.262 194.800 C 87.555 196.822,87.613 203.470,87.441 215.200 C 87.235 229.237,87.303 233.798,87.792 238.800 C 88.880 249.939,88.555 254.266,84.963 276.400 C 83.894 282.989,84.082 283.306,81.628 270.777 C 80.531 265.180,79.448 259.790,79.221 258.800 C 77.950 253.256,77.716 243.055,78.626 232.800 C 78.772 231.159,78.254 223.472,77.163 211.062 C 76.933 208.456,76.785 202.784,76.833 198.457 L 76.920 190.590 75.667 188.595 C 74.116 186.123,73.913 182.697,75.178 180.336 C 75.939 178.916,75.940 178.870,75.204 178.204 C 71.767 175.093,72.292 168.212,76.168 165.572 C 77.399 164.733,77.596 164.381,77.604 163.000 C 77.625 159.520,80.252 150.784,83.376 143.800 C 87.249 135.145,90.376 126.953,93.989 116.000 C 97.722 104.684,100.163 98.507,103.282 92.477 L 105.623 87.955 104.804 86.914 C 103.424 85.160,102.680 81.931,103.206 79.978 C 103.602 78.507,103.563 78.209,102.874 77.455 C 97.395 71.454,102.111 63.024,110.552 63.731 C 112.103 63.862,114.101 63.785,114.991 63.561 C 116.019 63.302,117.204 63.287,118.239 63.519 C 119.454 63.792,120.057 63.747,120.611 63.343 C 121.640 62.590,122.561 62.662,124.490 63.646 M107.268 65.597 C 103.165 66.567,101.239 72.267,103.828 75.778 C 104.393 76.543,104.418 76.542,105.501 75.672 C 106.105 75.186,106.975 74.596,107.433 74.360 C 108.136 73.999,108.267 73.560,108.267 71.552 C 108.267 69.536,108.456 68.902,109.503 67.417 C 111.057 65.212,110.571 64.816,107.268 65.597 M115.200 65.408 C 115.200 65.522,115.694 66.377,116.297 67.308 C 117.258 68.790,117.396 69.400,117.408 72.223 C 117.420 75.035,117.548 75.607,118.411 76.701 L 119.400 77.955 120.689 76.877 C 122.950 74.988,123.435 73.100,122.066 71.514 C 120.322 69.494,118.800 67.086,118.800 66.350 C 118.800 65.985,118.515 65.576,118.167 65.443 C 117.394 65.146,115.200 65.120,115.200 65.408 M123.678 67.011 C 123.935 67.575,124.290 67.870,124.482 67.678 C 124.954 67.206,124.439 66.000,123.766 66.000 C 123.324 66.000,123.307 66.197,123.678 67.011 M111.180 68.233 C 110.693 69.021,110.208 70.433,110.102 71.372 L 109.910 73.078 111.855 73.329 C 112.925 73.467,114.205 73.695,114.700 73.836 C 116.074 74.229,116.004 70.625,114.595 68.392 C 113.332 66.391,112.347 66.345,111.180 68.233 M106.652 68.900 C 106.519 69.395,106.408 70.351,106.405 71.024 C 106.402 71.696,106.133 72.596,105.808 73.024 C 104.382 74.892,104.016 71.168,105.416 69.032 C 106.249 67.761,106.978 67.683,106.652 68.900 M113.655 70.336 C 113.898 70.993,113.821 71.294,113.366 71.468 C 112.490 71.804,111.871 71.037,112.194 70.018 C 112.526 68.972,113.205 69.120,113.655 70.336 M293.500 70.703 C 292.372 71.403,292.092 72.162,292.800 72.600 C 293.755 73.190,293.209 75.587,291.753 77.199 L 290.306 78.801 291.374 80.201 C 292.749 82.004,294.323 82.800,296.515 82.800 L 298.270 82.800 298.236 79.700 C 298.200 76.511,299.018 74.445,300.951 72.841 C 303.169 71.000,296.232 69.010,293.500 70.703 M298.327 72.216 C 298.397 72.274,297.987 73.241,297.417 74.365 C 296.775 75.634,296.334 77.245,296.256 78.609 C 296.187 79.818,296.011 80.806,295.865 80.804 C 295.719 80.802,295.330 80.800,295.000 80.800 C 293.194 80.800,292.753 79.310,294.008 77.450 C 294.895 76.137,295.200 75.220,295.200 73.875 C 295.200 72.797,295.402 71.989,295.700 71.875 C 296.144 71.704,297.996 71.945,298.327 72.216 M120.800 73.600 C 120.800 74.451,119.772 75.402,119.437 74.861 C 118.949 74.071,119.662 71.954,120.251 72.443 C 120.553 72.693,120.800 73.214,120.800 73.600 M304.699 73.034 C 304.571 73.163,304.653 73.807,304.883 74.465 C 305.723 76.875,304.792 79.933,302.429 82.524 L 301.404 83.649 302.402 84.423 C 305.916 87.150,308.236 86.545,308.061 82.947 C 307.908 79.817,308.723 77.275,310.342 75.838 C 311.520 74.791,311.438 74.538,309.616 73.608 C 308.132 72.851,305.222 72.511,304.699 73.034 M290.279 74.557 C 290.115 74.974,290.075 75.409,290.191 75.524 C 290.555 75.889,290.876 75.291,290.724 74.531 C 290.583 73.835,290.562 73.836,290.279 74.557 M301.231 75.621 C 299.942 77.400,299.540 81.125,300.600 81.466 C 301.915 81.888,303.807 76.214,302.895 74.584 C 302.544 73.957,302.348 74.079,301.231 75.621 M308.000 75.376 C 308.000 75.693,307.820 76.064,307.600 76.200 C 307.380 76.336,307.200 76.361,307.200 76.256 C 307.200 76.151,307.091 75.781,306.957 75.433 C 306.798 75.018,306.935 74.800,307.357 74.800 C 307.711 74.800,308.000 75.059,308.000 75.376 M111.600 76.000 C 112.094 76.924,113.294 77.050,113.959 76.249 C 114.321 75.813,114.227 75.647,113.508 75.454 C 111.683 74.965,111.131 75.123,111.600 76.000 M314.634 75.545 C 314.486 75.785,314.562 76.716,314.804 77.614 C 315.379 79.749,314.465 83.042,312.759 84.986 L 311.539 86.375 312.870 87.186 C 315.197 88.606,318.400 88.732,318.400 87.404 C 318.400 86.429,320.398 84.454,321.514 84.325 C 324.032 84.035,322.945 78.514,319.930 76.281 C 318.710 75.378,315.052 74.869,314.634 75.545 M107.144 76.792 C 105.932 77.809,106.636 78.385,109.100 78.394 C 110.992 78.401,111.112 78.206,110.023 76.900 C 109.098 75.792,108.369 75.765,107.144 76.792 M311.513 77.500 C 310.104 79.116,309.326 83.537,310.342 84.164 C 311.485 84.870,313.412 80.358,312.951 78.054 C 312.664 76.622,312.376 76.511,311.513 77.500 M115.475 77.458 C 114.953 77.980,115.202 78.400,116.033 78.400 C 116.499 78.400,116.797 78.190,116.708 77.925 C 116.513 77.340,115.846 77.088,115.475 77.458 M318.851 77.827 C 319.999 78.420,321.200 80.443,321.200 81.782 C 321.200 82.116,320.581 82.648,319.823 82.964 C 319.066 83.281,318.031 84.181,317.523 84.965 C 315.851 87.546,314.343 86.726,315.704 83.975 C 316.218 82.938,316.639 81.190,316.733 79.709 C 316.906 76.994,317.030 76.885,318.851 77.827 M105.035 80.603 C 104.468 82.861,106.319 86.818,107.333 85.516 C 109.118 83.221,113.148 84.312,113.187 87.100 C 113.203 88.205,113.363 88.212,115.033 87.180 C 116.900 86.026,118.000 84.072,118.000 81.911 L 118.000 80.116 115.225 79.883 C 113.699 79.755,111.784 79.835,110.969 80.059 C 109.646 80.425,107.840 80.319,105.946 79.766 C 105.498 79.635,105.212 79.898,105.035 80.603 M306.076 82.600 C 306.209 83.742,306.107 84.000,305.520 84.000 C 304.684 84.000,304.587 83.131,305.296 81.995 C 305.926 80.987,305.884 80.955,306.076 82.600 M114.500 81.857 C 116.133 82.127,116.429 82.861,115.446 84.205 C 114.913 84.934,114.834 84.913,113.432 83.682 C 112.629 82.977,111.573 82.382,111.086 82.360 C 110.251 82.323,110.257 82.302,111.200 82.000 C 112.524 81.576,112.744 81.566,114.500 81.857 M108.432 82.438 C 107.791 82.694,107.325 82.685,107.052 82.412 C 106.769 82.129,107.073 82.008,108.020 82.025 C 109.317 82.049,109.342 82.074,108.432 82.438 M322.010 88.190 C 321.188 89.064,321.157 89.209,321.745 89.434 C 322.581 89.755,323.600 88.940,323.600 87.951 C 323.600 86.935,323.121 87.007,322.010 88.190 M216.200 112.000 C 216.336 112.220,216.897 112.400,217.447 112.400 C 218.012 112.400,218.340 112.226,218.200 112.000 C 218.064 111.780,217.503 111.600,216.953 111.600 C 216.388 111.600,216.060 111.774,216.200 112.000 M211.584 113.616 C 209.023 116.177,208.817 120.936,211.349 119.018 C 214.453 116.668,218.564 116.523,221.900 118.646 C 223.012 119.353,223.187 117.702,222.241 115.436 C 221.489 113.636,221.245 113.544,219.005 114.219 C 216.259 115.045,215.033 114.945,213.650 113.781 L 212.439 112.761 211.584 113.616 M213.751 119.775 C 210.546 121.170,211.214 123.863,214.939 124.562 C 217.996 125.136,222.847 122.503,221.570 120.964 C 220.145 119.247,216.305 118.663,213.751 119.775 M183.500 119.876 C 182.633 120.102,182.612 120.555,183.429 121.371 C 184.242 122.185,184.528 122.164,185.377 121.225 C 186.523 119.959,185.632 119.319,183.500 119.876 M188.000 121.155 C 188.000 123.414,185.071 124.404,181.923 123.208 C 179.611 122.329,179.512 122.379,178.761 124.816 C 177.304 129.538,183.857 135.510,185.790 131.222 C 186.692 129.223,187.730 128.251,190.075 127.214 C 191.824 126.440,191.921 126.319,191.620 125.271 C 190.792 122.382,188.000 119.208,188.000 121.155 M218.794 121.393 C 219.367 122.083,217.965 122.805,216.074 122.794 C 215.004 122.788,213.654 122.190,214.012 121.881 C 215.346 120.728,218.017 120.456,218.794 121.393 M221.800 124.473 C 219.820 126.516,215.087 127.072,212.200 125.600 C 210.327 124.645,210.538 124.664,210.247 125.422 C 210.029 125.991,210.930 128.800,211.331 128.800 C 211.425 128.800,212.149 128.530,212.938 128.200 C 215.422 127.162,219.529 127.591,221.243 129.067 C 222.312 129.988,223.946 126.635,223.430 124.579 C 223.136 123.404,222.853 123.386,221.800 124.473 M189.600 124.757 C 189.600 125.214,189.234 125.605,188.673 125.746 C 187.614 126.012,184.520 128.990,184.176 130.076 C 183.570 131.984,180.400 128.802,180.400 126.287 C 180.400 124.926,180.636 124.829,182.547 125.404 C 184.530 126.001,186.192 125.788,187.600 124.758 C 188.894 123.810,189.600 123.810,189.600 124.757 M192.646 130.158 C 191.672 131.820,189.851 133.664,188.715 134.139 C 188.349 134.291,188.432 134.494,189.000 134.839 C 190.624 135.824,192.782 138.446,193.247 140.000 C 193.800 141.845,193.944 141.884,196.156 140.779 C 201.058 138.331,200.935 131.021,195.959 129.030 C 193.810 128.170,193.811 128.170,192.646 130.158 M189.298 129.841 C 187.851 130.974,186.901 132.400,187.592 132.400 C 187.823 132.400,188.665 131.802,189.463 131.070 C 191.272 129.412,191.136 128.400,189.298 129.841 M213.478 129.880 C 212.546 130.122,212.801 130.866,214.032 131.494 C 215.323 132.153,218.864 132.134,219.781 131.463 C 221.485 130.218,216.756 129.030,213.478 129.880 M197.220 132.526 C 198.246 134.209,198.205 135.980,197.100 137.610 C 195.908 139.370,195.390 139.474,194.553 138.125 C 194.169 137.506,193.397 136.498,192.838 135.885 C 192.119 135.096,191.936 134.618,192.211 134.245 C 192.425 133.956,193.100 132.969,193.710 132.051 C 194.990 130.129,195.828 130.242,197.220 132.526 M210.194 133.352 C 209.195 135.744,209.535 138.074,211.171 140.033 L 212.255 141.331 213.502 140.409 C 215.000 139.302,217.399 139.485,218.464 140.788 C 220.581 143.376,223.731 137.591,222.355 133.643 C 221.917 132.388,221.894 132.378,220.904 133.026 C 218.557 134.564,215.360 134.257,211.094 132.085 C 210.926 132.000,210.521 132.570,210.194 133.352 M215.400 135.721 C 216.280 135.849,217.810 135.797,218.800 135.607 C 221.095 135.165,221.396 135.493,220.577 137.541 C 219.917 139.190,219.466 139.555,219.007 138.811 C 218.490 137.974,215.658 137.550,213.967 138.057 C 212.028 138.638,211.616 138.260,211.606 135.890 L 211.600 134.379 212.700 134.934 C 213.305 135.239,214.520 135.593,215.400 135.721 M181.753 136.995 C 177.932 139.286,177.395 147.553,181.129 146.613 C 184.379 145.794,184.752 145.848,186.105 147.321 C 187.674 149.029,188.920 148.661,190.605 145.993 C 191.842 144.033,191.858 143.352,190.676 143.055 C 188.707 142.561,186.562 140.544,185.571 138.256 C 184.471 135.716,184.094 135.592,181.753 136.995 M187.238 137.499 C 187.774 138.911,188.707 139.932,190.136 140.670 C 191.586 141.420,191.814 141.174,191.044 139.685 C 189.740 137.164,186.376 135.232,187.238 137.499 M184.183 139.820 C 184.926 141.200,187.074 143.338,188.632 144.249 C 189.385 144.689,189.385 144.715,188.647 145.540 L 187.893 146.381 186.716 145.391 C 185.446 144.322,185.200 144.266,182.247 144.372 L 180.294 144.442 180.490 142.408 C 180.833 138.833,182.879 137.399,184.183 139.820 M215.164 142.031 C 214.753 142.291,214.899 142.389,215.700 142.394 C 216.894 142.401,217.110 142.204,216.264 141.880 C 215.969 141.767,215.474 141.835,215.164 142.031 M80.200 163.600 C 80.059 163.828,80.404 164.000,81.000 164.000 C 81.596 164.000,81.941 163.828,81.800 163.600 C 81.664 163.380,81.304 163.200,81.000 163.200 C 80.696 163.200,80.336 163.380,80.200 163.600 M77.097 167.234 C 76.070 167.832,74.800 170.554,74.800 172.158 C 74.800 175.040,76.777 178.090,77.969 177.047 C 78.316 176.743,78.984 176.378,79.452 176.235 C 80.002 176.068,80.396 175.521,80.561 174.695 C 80.948 172.759,82.632 170.489,84.612 169.233 C 86.298 168.164,86.349 168.078,85.660 167.455 C 84.737 166.619,84.541 166.631,83.309 167.600 C 81.903 168.706,78.400 168.375,78.400 167.136 C 78.400 166.696,77.964 166.729,77.097 167.234 M326.866 167.551 C 326.467 167.803,326.569 167.952,327.266 168.139 C 328.938 168.587,329.491 168.444,328.624 167.787 C 327.728 167.110,327.590 167.092,326.866 167.551 M79.700 169.892 C 80.455 170.109,80.614 170.808,80.048 171.420 C 79.855 171.629,79.486 172.459,79.229 173.265 C 78.679 174.987,77.649 175.555,76.911 174.545 C 75.700 172.890,76.842 168.798,78.342 169.419 C 78.704 169.568,79.315 169.781,79.700 169.892 M85.543 170.863 C 84.248 171.614,82.400 174.091,82.400 175.075 C 82.400 175.995,86.439 176.314,86.990 175.437 C 87.836 174.092,88.094 172.826,87.820 171.365 C 87.520 169.769,87.455 169.755,85.543 170.863 M89.598 172.300 C 89.596 173.565,89.326 175.116,88.998 175.746 C 88.231 177.216,88.244 177.774,89.065 178.451 C 89.431 178.753,90.069 179.765,90.484 180.700 C 91.351 182.657,91.502 182.707,92.996 181.531 C 96.483 178.789,96.069 173.246,92.209 170.984 C 89.791 169.567,89.600 169.664,89.598 172.300 M321.255 171.945 C 318.477 174.723,318.613 180.000,321.462 180.000 C 322.763 180.000,324.795 180.910,325.939 182.005 C 329.296 185.219,334.228 177.268,331.481 173.070 L 330.763 171.971 329.727 172.786 C 327.843 174.268,324.400 173.126,324.400 171.018 C 324.400 169.903,322.836 170.364,321.255 171.945 M86.000 173.400 C 86.000 173.730,85.708 174.000,85.351 174.000 C 84.820 174.000,84.792 173.891,85.200 173.400 C 85.474 173.070,85.766 172.800,85.849 172.800 C 85.932 172.800,86.000 173.070,86.000 173.400 M92.767 174.147 C 93.793 175.807,93.834 177.622,92.873 178.809 L 92.146 179.707 91.301 178.373 C 90.525 177.146,90.503 176.929,91.028 175.670 C 91.343 174.918,91.600 173.964,91.600 173.551 C 91.600 172.496,91.815 172.605,92.767 174.147 M323.622 173.426 C 324.677 174.698,326.467 175.304,328.469 175.066 C 330.827 174.787,331.366 175.814,330.210 178.379 C 329.100 180.839,328.051 181.146,325.700 179.699 C 324.623 179.037,323.170 178.369,322.471 178.216 C 320.987 177.890,320.709 176.109,321.810 173.980 C 322.502 172.643,322.877 172.529,323.622 173.426 M82.400 178.000 C 82.400 178.220,82.749 178.400,83.176 178.400 C 83.603 178.400,84.064 178.220,84.200 178.000 C 84.340 177.773,84.004 177.600,83.424 177.600 C 82.861 177.600,82.400 177.780,82.400 178.000 M85.100 179.720 C 83.115 180.504,84.306 182.102,87.393 182.798 C 89.211 183.208,89.420 182.799,88.407 180.814 C 87.542 179.119,87.041 178.953,85.100 179.720 M77.052 180.880 C 76.041 182.449,75.878 184.478,76.614 186.319 C 77.269 187.955,78.000 188.554,78.000 187.454 C 78.000 186.605,79.596 184.782,80.710 184.358 C 82.847 183.546,86.000 186.047,86.000 188.554 C 86.000 189.277,86.065 189.303,86.984 188.951 C 87.578 188.723,89.426 185.672,89.128 185.410 C 89.058 185.348,87.958 184.999,86.684 184.633 C 85.075 184.171,83.903 183.503,82.842 182.442 C 82.003 181.603,80.795 180.791,80.158 180.639 C 79.521 180.487,78.695 180.272,78.322 180.161 C 77.903 180.037,77.419 180.311,77.052 180.880 M79.600 182.800 C 79.600 183.182,78.363 183.696,78.093 183.427 C 77.988 183.321,78.007 182.960,78.135 182.624 C 78.366 182.022,79.600 182.170,79.600 182.800 M315.855 183.724 C 313.469 186.110,312.789 190.800,314.830 190.800 C 316.193 190.800,319.858 192.397,320.804 193.404 C 322.002 194.680,322.829 194.660,324.424 193.319 C 327.490 190.739,327.761 185.482,324.856 184.956 C 323.113 184.640,320.747 183.501,320.024 182.629 C 319.104 181.521,317.685 181.893,315.855 183.724 M319.915 184.991 C 320.739 185.537,322.040 186.102,322.807 186.248 C 325.278 186.718,325.844 187.993,324.626 190.349 C 323.544 192.441,323.038 192.577,321.223 191.262 C 320.322 190.610,318.669 189.856,317.548 189.588 L 315.512 189.099 315.741 187.687 C 315.924 186.558,317.688 184.000,318.283 184.000 C 318.357 184.000,319.091 184.446,319.915 184.991 M81.042 189.932 C 80.914 190.139,81.264 190.396,81.821 190.502 C 82.458 190.624,82.777 190.530,82.683 190.248 C 82.489 189.666,81.342 189.446,81.042 189.932 M311.565 194.112 C 309.998 195.168,308.416 197.736,308.407 199.240 C 308.396 200.870,309.213 202.800,309.913 202.800 C 311.060 202.800,313.958 204.437,314.208 205.227 C 314.786 207.048,318.471 205.799,320.408 203.126 C 322.169 200.695,322.076 196.803,320.257 196.798 C 318.475 196.793,316.291 195.899,314.823 194.573 C 313.019 192.944,313.250 192.976,311.565 194.112 M317.200 193.963 C 318.849 194.909,319.612 195.036,318.786 194.226 C 318.464 193.911,317.660 193.542,317.000 193.406 L 315.800 193.160 317.200 193.963 M314.162 196.514 C 315.676 197.631,317.391 198.400,318.370 198.400 C 320.284 198.400,320.232 200.887,318.278 202.798 C 316.853 204.190,316.001 204.306,315.033 203.237 C 314.654 202.817,313.456 202.092,312.371 201.626 C 310.088 200.644,309.748 199.275,311.196 196.900 C 312.137 195.357,312.526 195.306,314.162 196.514 M302.610 209.894 C 298.716 215.594,294.794 221.301,289.206 229.402 C 286.020 234.021,282.420 239.260,281.206 241.045 C 279.993 242.830,277.912 245.890,276.582 247.845 C 275.252 249.800,272.981 253.110,271.534 255.200 C 266.952 261.822,262.937 267.662,259.848 272.200 C 258.201 274.620,255.976 277.860,254.903 279.400 C 250.404 285.857,245.200 293.546,245.200 293.734 C 245.200 293.845,247.287 295.526,249.837 297.468 C 252.387 299.411,254.895 301.321,255.409 301.713 C 256.317 302.405,256.362 302.400,256.990 301.513 C 257.765 300.418,257.200 301.309,270.999 279.400 C 282.165 261.670,282.681 260.852,286.056 255.528 C 287.835 252.722,300.978 231.866,303.964 227.113 C 304.754 225.856,306.972 222.324,308.892 219.266 C 310.813 216.208,312.475 213.457,312.586 213.153 C 312.751 212.699,307.693 208.926,304.929 207.442 C 304.645 207.289,303.724 208.264,302.610 209.894 M131.169 216.510 C 127.482 218.994,126.722 223.481,129.768 224.786 C 130.740 225.203,132.273 226.210,133.173 227.023 C 135.782 229.380,138.684 228.413,140.444 224.600 C 141.516 222.278,141.442 222.138,139.165 222.171 C 135.889 222.218,135.023 220.547,136.226 216.500 C 136.618 215.181,133.130 215.188,131.169 216.510 M138.400 217.986 C 138.400 218.816,139.805 219.839,140.159 219.266 C 140.412 218.857,139.304 217.200,138.777 217.200 C 138.570 217.200,138.400 217.554,138.400 217.986 M133.988 218.700 C 133.843 220.889,134.018 221.509,135.081 222.572 C 135.675 223.166,136.665 223.753,137.281 223.876 C 138.766 224.173,138.697 225.031,137.109 225.997 L 135.819 226.781 134.609 225.626 C 133.944 224.990,132.635 224.076,131.700 223.595 C 129.510 222.467,129.308 220.631,131.169 218.769 C 132.719 217.219,134.088 217.185,133.988 218.700 M207.000 222.800 C 208.093 223.269,208.400 223.269,208.400 222.800 C 208.400 222.580,207.905 222.413,207.300 222.428 C 206.325 222.453,206.291 222.495,207.000 222.800 M202.522 226.200 C 199.188 228.535,199.134 233.791,202.416 236.552 C 204.042 237.920,204.279 237.886,205.851 236.049 C 207.280 234.380,210.170 232.800,211.796 232.800 C 213.527 232.800,212.991 228.453,211.063 226.852 C 210.583 226.454,210.285 226.552,209.455 227.381 C 207.695 229.142,204.000 228.341,204.000 226.200 C 204.000 225.441,203.605 225.441,202.522 226.200 M124.200 227.144 C 120.298 229.555,119.589 234.235,122.637 237.467 C 123.970 238.880,124.800 238.951,124.800 237.652 C 124.800 235.263,127.490 232.166,130.596 230.980 L 132.424 230.282 130.912 229.592 C 130.080 229.212,128.871 228.338,128.225 227.650 C 126.878 226.217,125.900 226.094,124.200 227.144 M127.033 229.236 C 127.779 230.061,127.775 230.082,126.690 230.873 C 126.085 231.313,125.126 232.467,124.557 233.437 C 123.427 235.366,122.996 235.405,122.603 233.614 C 122.271 232.104,123.248 230.003,124.702 229.102 C 126.099 228.236,126.129 228.238,127.033 229.236 M207.207 230.171 C 208.274 230.156,209.442 229.897,209.804 229.597 C 210.361 229.135,210.516 229.139,210.824 229.626 C 211.405 230.545,211.060 230.941,209.050 231.660 C 208.011 232.031,206.361 232.991,205.383 233.793 C 203.411 235.408,202.987 235.345,202.137 233.310 C 200.970 230.518,202.216 227.945,204.071 229.315 C 204.939 229.957,205.802 230.192,207.207 230.171 M130.600 233.065 C 127.204 234.855,125.054 239.600,127.640 239.600 C 130.079 239.600,133.307 236.619,133.811 233.900 C 134.134 232.155,132.923 231.840,130.600 233.065 M135.600 234.216 C 135.600 236.563,133.169 239.653,130.431 240.787 L 129.155 241.316 130.277 241.863 C 130.895 242.163,131.810 243.127,132.312 244.005 C 134.643 248.082,140.920 242.501,139.584 237.539 C 138.840 234.778,135.600 232.075,135.600 234.216 M131.205 235.591 C 130.666 236.597,129.200 237.442,129.200 236.746 C 129.200 236.063,130.418 234.800,131.076 234.800 C 131.502 234.800,131.531 234.981,131.205 235.591 M209.400 235.593 C 208.520 236.029,207.557 236.775,207.260 237.251 C 206.493 238.481,208.692 238.028,210.618 236.559 C 212.956 234.776,212.223 234.195,209.400 235.593 M213.368 236.346 C 212.446 237.908,209.855 239.513,207.745 239.829 C 205.473 240.170,205.502 240.980,207.807 241.560 C 209.919 242.092,212.669 244.395,213.467 246.300 C 214.733 249.326,218.800 245.432,218.800 241.193 C 218.800 237.240,214.897 233.758,213.368 236.346 M137.811 237.635 C 138.775 240.673,135.277 244.910,133.741 242.565 C 133.077 241.552,133.089 241.506,134.332 240.345 C 135.030 239.692,135.875 238.628,136.211 237.979 C 136.929 236.591,137.444 236.480,137.811 237.635 M216.209 238.558 C 217.314 240.245,217.396 242.188,216.428 243.754 C 215.512 245.236,214.620 245.323,214.191 243.972 C 214.060 243.558,213.288 242.666,212.476 241.990 C 211.069 240.820,211.037 240.741,211.800 240.306 C 212.240 240.055,213.050 239.365,213.600 238.773 C 214.868 237.406,215.425 237.360,216.209 238.558 M206.589 244.379 C 207.580 246.295,212.000 249.037,212.000 247.736 C 212.000 246.197,208.452 243.200,206.629 243.200 C 206.039 243.200,206.035 243.307,206.589 244.379 M201.576 244.681 C 199.371 246.537,198.650 249.422,199.680 252.272 C 200.196 253.697,200.615 253.849,202.126 253.161 C 203.349 252.604,205.426 253.580,206.082 255.019 C 207.046 257.136,211.294 254.615,211.979 251.520 C 212.354 249.825,212.230 249.600,210.917 249.600 C 208.666 249.600,204.400 246.026,204.400 244.140 C 204.400 243.249,202.947 243.528,201.576 244.681 M204.540 247.806 C 205.370 248.799,206.942 250.064,208.033 250.617 C 209.776 251.500,209.966 251.716,209.599 252.402 C 208.820 253.858,207.808 254.073,206.796 252.996 C 205.716 251.846,203.529 251.044,202.179 251.302 C 200.548 251.614,200.375 249.231,201.864 246.958 C 202.699 245.684,202.790 245.713,204.540 247.806 M202.026 257.831 C 202.554 258.468,203.200 258.586,203.200 258.047 C 203.200 257.852,202.830 257.596,202.377 257.478 C 201.702 257.302,201.639 257.365,202.026 257.831 M150.900 320.412 C 150.078 320.743,150.000 321.036,150.000 323.787 C 150.000 326.840,149.526 327.931,147.950 328.498 C 146.499 329.021,150.233 332.800,152.201 332.800 C 153.067 332.800,153.073 332.762,152.540 330.709 C 151.663 327.328,152.521 324.501,155.157 322.083 C 157.144 320.261,154.176 319.096,150.900 320.412 M161.430 323.500 C 162.625 326.850,161.867 329.871,159.130 332.667 L 157.498 334.334 158.939 334.732 C 161.492 335.437,161.893 335.089,162.067 332.016 C 162.232 329.102,163.668 326.286,165.246 325.785 C 166.447 325.404,166.129 324.499,164.340 323.203 C 161.871 321.414,160.727 321.531,161.430 323.500 M156.253 323.774 C 153.928 326.098,153.409 329.428,154.994 331.846 C 156.359 333.930,160.000 330.158,160.000 326.659 C 160.000 322.681,158.500 321.526,156.253 323.774 M147.488 323.733 C 147.042 324.866,147.115 325.445,147.638 324.922 C 147.878 324.682,148.008 324.151,147.926 323.742 C 147.782 323.026,147.766 323.026,147.488 323.733 M158.046 325.900 C 158.171 327.799,157.282 330.000,156.391 330.000 C 155.766 330.000,155.940 327.064,156.623 326.089 C 157.370 325.022,157.983 324.941,158.046 325.900 M169.163 326.300 C 169.143 326.465,169.155 327.355,169.192 328.277 C 169.278 330.485,168.088 333.089,166.256 334.697 C 164.471 336.265,164.900 337.473,167.632 338.566 C 170.524 339.723,174.761 338.737,174.169 337.044 C 173.761 335.879,173.749 333.494,174.135 330.313 L 174.461 327.625 173.130 326.814 C 171.841 326.028,169.238 325.691,169.163 326.300 M165.565 328.035 C 164.154 329.446,162.826 334.000,163.826 334.000 C 165.263 334.000,167.175 330.874,167.191 328.500 C 167.201 326.994,166.739 326.861,165.565 328.035 M172.144 329.638 C 172.113 330.387,172.014 332.350,171.925 334.000 L 171.762 337.000 170.499 337.124 C 169.805 337.192,168.850 337.041,168.378 336.788 L 167.519 336.328 168.544 335.259 C 169.684 334.069,170.800 331.278,170.800 329.616 C 170.800 329.021,170.924 328.410,171.075 328.258 C 171.670 327.663,172.197 328.344,172.144 329.638 M176.000 333.624 C 176.000 334.077,176.180 334.336,176.400 334.200 C 176.620 334.064,176.800 333.693,176.800 333.376 C 176.800 333.059,176.620 332.800,176.400 332.800 C 176.180 332.800,176.000 333.171,176.000 333.624 " stroke="none" fill="#130c0c" fill-rule="evenodd"></path></g></svg>