<svg id="f2461b32-68a3-4502-bc95-8a4b3833914b" data-name="Layer 1" xmlns="http://www.w3.org/2000/svg" viewBox="0 0 741.52 151.15"><defs><style>.eb173f50-7257-4dd2-98c8-14b0884a8c6d{fill:#fff;}</style></defs><path class="eb173f50-7257-4dd2-98c8-14b0884a8c6d" d="M0,35.13Q0,14.4,19.07,14.4q8.52,0,13.57,4.52t5,12.74v.53H27.82v-.46a8.65,8.65,0,0,0-2.3-6.33A8.74,8.74,0,0,0,19,23.07q-4.75,0-6.9,2.94T10,35.65V46.89q0,6.33,2.22,9.19C13.66,58,16,59,19.15,59q4.22,0,6.44-2.27a8.42,8.42,0,0,0,2.23-6.18v-.6h9.72v.53q0,8.37-5,12.85T18.92,67.77Q0,67.77,0,47Z"/><path class="eb173f50-7257-4dd2-98c8-14b0884a8c6d" d="M47.11,35.13Q47.11,14.4,66,14.4q8.67,0,13.72,4.86t5,15.87V47q0,11-5.17,15.86t-13.9,4.87Q47.1,67.77,47.11,47ZM74.92,46.89V35.65q0-6.63-2.18-9.61t-6.71-3c-3.17,0-5.45,1-6.86,2.9s-2.11,5.16-2.11,9.68V46.89c0,4.27.7,7.34,2.11,9.23S62.86,59,66,59q4.52,0,6.71-2.91T74.92,46.89Z"/><path class="eb173f50-7257-4dd2-98c8-14b0884a8c6d" d="M130.62,31.51q0,7.23-4.56,11.57t-12.47,4.33H104V67.16H94.14v-52h19.45q7.92,0,12.47,4.37T130.62,31.51Zm-9.87,0a7.83,7.83,0,0,0-2-5.77,7.59,7.59,0,0,0-5.61-2H104v15h9.12a7.84,7.84,0,0,0,5.57-1.88A6.93,6.93,0,0,0,120.75,31.51Z"/><path class="eb173f50-7257-4dd2-98c8-14b0884a8c6d" d="M144.57,57.06l-3.17,10.1H131l18.47-52h8.06l18.54,52H165.6l-3.17-10.1Zm8.89-28.19-6.26,20h12.59Z"/><path class="eb173f50-7257-4dd2-98c8-14b0884a8c6d" d="M238.11,67.16h-9.88v-22H211v22h-9.88v-52H211V36.56h17.26V15.15h9.88Z"/><path class="eb173f50-7257-4dd2-98c8-14b0884a8c6d" d="M258.76,36.63H278.5v8.6H258.76V58.57H281.9v8.59h-33v-52h33v8.59H258.76ZM276.09,0l-10.4,10h-8.07l8.15-10Z"/><path class="eb173f50-7257-4dd2-98c8-14b0884a8c6d" d="M300.74,46.06v21.1h-9.88v-52h19.75q7.62,0,12.14,4.18t4.52,11.35a15.23,15.23,0,0,1-2.37,8.67,13.77,13.77,0,0,1-6.82,5.2l11.3,22.61H318l-9.88-21.1Zm9.34-8.22A7.45,7.45,0,0,0,315.47,36a7,7,0,0,0,1.93-5.31,6.7,6.7,0,0,0-2-5.05,7.4,7.4,0,0,0-5.36-1.89h-9.34v14.1Z"/><path class="eb173f50-7257-4dd2-98c8-14b0884a8c6d" d="M335.79,35.13q0-20.73,18.92-20.73,8.67,0,13.72,4.86t5.05,15.87V47q0,11-5.17,15.86t-13.9,4.87q-18.63,0-18.62-20.73ZM363.6,46.89V35.65q0-6.63-2.18-9.61t-6.71-3c-3.17,0-5.46,1-6.86,2.9s-2.11,5.16-2.11,9.68V46.89c0,4.27.7,7.34,2.11,9.23S351.54,59,354.71,59q4.52,0,6.71-2.91T363.6,46.89Z"/><path class="eb173f50-7257-4dd2-98c8-14b0884a8c6d" d="M392.69,36.63h19.75v8.6H392.69V58.57h23.14v8.59h-33v-52h33v8.59H392.69Z"/><path class="eb173f50-7257-4dd2-98c8-14b0884a8c6d" d="M489.47,67.16H479.6V36.33l-9.87,20.81h-6.64l-10-21V67.16h-9.88v-52h9.88l13.34,28.72L479.6,15.15h9.87Z"/><path class="eb173f50-7257-4dd2-98c8-14b0884a8c6d" d="M509.67,57.06l-3.16,10.1H496.1l18.47-52h8.07l18.54,52H530.7l-3.16-10.1Zm8.9-28.19-6.26,20H524.9Z"/><path class="eb173f50-7257-4dd2-98c8-14b0884a8c6d" d="M557.68,46.06v21.1h-9.87v-52h19.75q7.61,0,12.13,4.18t4.53,11.35a15.16,15.16,0,0,1-2.38,8.67,13.68,13.68,0,0,1-6.82,5.2l11.31,22.61H575l-9.88-21.1ZM567,37.84A7.47,7.47,0,0,0,572.42,36a7,7,0,0,0,1.92-5.31,6.66,6.66,0,0,0-2-5.05A7.37,7.37,0,0,0,567,23.74h-9.35v14.1Z"/><path class="eb173f50-7257-4dd2-98c8-14b0884a8c6d" d="M592.73,35.13q0-20.73,19.07-20.73,8.52,0,13.57,4.52t5,12.74v.53h-9.87v-.46a8.65,8.65,0,0,0-2.3-6.33,8.73,8.73,0,0,0-6.52-2.33q-4.76,0-6.9,2.94t-2.15,9.64V46.89q0,6.33,2.23,9.19t7,2.87q4.22,0,6.44-2.27a8.38,8.38,0,0,0,2.23-6.18v-.6h9.72v.53q0,8.37-5,12.85t-13.65,4.49q-18.92,0-18.92-20.73Z"/><path class="eb173f50-7257-4dd2-98c8-14b0884a8c6d" d="M650.09,15.15v52h-9.87v-52Z"/><path class="eb173f50-7257-4dd2-98c8-14b0884a8c6d" d="M670.74,57.06l-3.16,10.1h-10.4l18.46-52h8.07l18.54,52H691.77l-3.16-10.1Zm8.9-28.19-6.26,20H686Z"/><path class="eb173f50-7257-4dd2-98c8-14b0884a8c6d" d="M718.76,15.15V58.57h22.76v8.59H708.88v-52Z"/><path class="eb173f50-7257-4dd2-98c8-14b0884a8c6d" d="M33.43,141.58H26.3V119.32l-7.14,15H14.37L7.13,119.15v22.43H0V104H7.13l9.64,20.74L26.3,104h7.13Z"/><path class="eb173f50-7257-4dd2-98c8-14b0884a8c6d" d="M49.38,134.29l-2.29,7.29H39.58L52.91,104h5.83l13.39,37.56H64.56l-2.28-7.29Zm6.42-20.36-4.52,14.42h9.09Z"/><path class="eb173f50-7257-4dd2-98c8-14b0884a8c6d" d="M85.41,126.34v15.24H78.28V104H92.54a12.43,12.43,0,0,1,8.77,3,10.6,10.6,0,0,1,3.26,8.19,11,11,0,0,1-1.71,6.26,9.88,9.88,0,0,1-4.93,3.76l8.17,16.33H97.88l-7.13-15.24Zm6.75-5.93a5.37,5.37,0,0,0,3.89-1.34,5.06,5.06,0,0,0,1.39-3.84A4.81,4.81,0,0,0,96,111.59a5.36,5.36,0,0,0-3.87-1.37H85.41v10.19Z"/><path class="eb173f50-7257-4dd2-98c8-14b0884a8c6d" d="M127.54,110.22v31.36h-7.18V110.22h-9.58V104h26.35v6.2Z"/><path class="eb173f50-7257-4dd2-98c8-14b0884a8c6d" d="M150.84,104v37.56h-7.13V104Z"/><path class="eb173f50-7257-4dd2-98c8-14b0884a8c6d" d="M167.12,134.29l-2.29,7.29h-7.51L170.66,104h5.82l13.4,37.56h-7.57L180,134.29Zm6.42-20.36L169,128.35h9.1Z"/><path class="eb173f50-7257-4dd2-98c8-14b0884a8c6d" d="M203.15,104v31.36H219.6v6.2H196V104Z"/><path class="eb173f50-7257-4dd2-98c8-14b0884a8c6d" d="M268.21,141.58h-7.13V125.69H248.61v15.89h-7.13V104h7.13v15.46h12.47V104h7.13Z"/><path class="eb173f50-7257-4dd2-98c8-14b0884a8c6d" d="M284.48,119.53h14.27v6.21H284.48v9.64H301.2v6.2H277.35V104H301.2v6.2H284.48Z"/><path class="eb173f50-7257-4dd2-98c8-14b0884a8c6d" d="M316.16,126.34v15.24H309V104h14.26a12.43,12.43,0,0,1,8.77,3,10.61,10.61,0,0,1,3.27,8.19,11,11,0,0,1-1.72,6.26,9.83,9.83,0,0,1-4.93,3.76l8.17,16.33h-8.22l-7.13-15.24Zm6.75-5.93a5.41,5.41,0,0,0,3.9-1.34,5.1,5.1,0,0,0,1.38-3.84,4.81,4.81,0,0,0-1.41-3.64,5.35,5.35,0,0,0-3.87-1.37h-6.75v10.19Z"/><path class="eb173f50-7257-4dd2-98c8-14b0884a8c6d" d="M342.84,118.45q0-15,13.66-15,6.27,0,9.91,3.52t3.65,11.46v8.6q0,8-3.73,11.46T356.28,142q-13.44,0-13.44-15Zm20.09,8.49v-8.11c0-3.2-.53-5.51-1.58-7a5.64,5.64,0,0,0-4.85-2.15q-3.44,0-4.95,2.1t-1.53,7v8.11c0,3.08.51,5.31,1.53,6.67s2.66,2,4.95,2a5.69,5.69,0,0,0,4.85-2.1C362.4,132.16,362.93,130,362.93,126.94Z"/><path class="eb173f50-7257-4dd2-98c8-14b0884a8c6d" d="M393.41,118.45q0-15,13.77-15,6.15,0,9.8,3.27t3.65,9.2v.38H413.5V116a5.81,5.81,0,0,0-6.37-6.27q-3.44,0-5,2.13c-1,1.41-1.55,3.74-1.55,7v8.11q0,4.58,1.61,6.64a6,6,0,0,0,5,2.07,6.23,6.23,0,0,0,4.65-1.63,6.11,6.11,0,0,0,1.61-4.47v-.43h7v.38q0,6-3.59,9.28T407.07,142q-13.67,0-13.66-15Z"/><path class="eb173f50-7257-4dd2-98c8-14b0884a8c6d" d="M431,135.79a12.68,12.68,0,0,1-1.74-6.62V104h7.13V129a6.91,6.91,0,0,0,1.69,5,6.09,6.09,0,0,0,4.63,1.77,6.16,6.16,0,0,0,4.65-1.77,6.83,6.83,0,0,0,1.72-5V104h7.18v25.15a12.52,12.52,0,0,1-1.77,6.62,12.09,12.09,0,0,1-4.84,4.51,15.65,15.65,0,0,1-13.83,0A11.91,11.91,0,0,1,431,135.79Z"/><path class="eb173f50-7257-4dd2-98c8-14b0884a8c6d" d="M491.78,115.83a11,11,0,0,1-3.3,8.36q-3.28,3.14-9,3.13h-6.91v14.26h-7.14V104h14.05q5.71,0,9,3.16A11.4,11.4,0,0,1,491.78,115.83Zm-7.14,0a5.64,5.64,0,0,0-1.44-4.16,5.49,5.49,0,0,0-4.06-1.45h-6.58v10.84h6.58a5.73,5.73,0,0,0,4-1.36A5,5,0,0,0,484.64,115.83Z"/><circle class="eb173f50-7257-4dd2-98c8-14b0884a8c6d" cx="525.99" cy="122.11" r="5.93"/><path class="eb173f50-7257-4dd2-98c8-14b0884a8c6d" d="M615.05,140.45l.06,2.34a14.74,14.74,0,0,1-.58,4.14,10.65,10.65,0,0,0-.39,2.82c0,.93-.33,1.4-1,1.4s-2.15-.67-4.44-2a28.35,28.35,0,0,1-6-4.64,39.86,39.86,0,0,1-5.18-6.9,49.46,49.46,0,0,1-4.21-8.52,108.21,108.21,0,0,1-3.4-11.63c-.17-.64-.43-1-.78-1q-.2,0-4,1.26a39.43,39.43,0,0,0-4.24,1.53c-.26.17-.47.82-.62,1.94a21.31,21.31,0,0,0-.23,2.33c0,.44.1.65.3.65a2.39,2.39,0,0,0,.94-.36c.43-.23,1.16-.57,2.2-1a7.86,7.86,0,0,1,1.94-.65c.61,0,.91.38.91,1.14a1.8,1.8,0,0,1-1.07,1.68,25.35,25.35,0,0,0-3.17,2.14,18,18,0,0,0-2.43,2,3.7,3.7,0,0,0-.52,1.55,12,12,0,0,0-.2,1.49.32.32,0,0,0,.36.36,26.33,26.33,0,0,0,3.76-1.39,18.19,18.19,0,0,0,3.66-1.72.69.69,0,0,1,.55-.32c.19,0,.43.28.71.84a3.38,3.38,0,0,1,.42,1.46,2,2,0,0,1-.71,1.32q-.72.72-6.22,3.24c-3.67,1.69-5.94,2.7-6.8,3.05s-2.48,1.11-4.83,2.3-3.7,1.9-4,2.14a1.88,1.88,0,0,1-1,.35c-.69,0-1.5-.53-2.43-1.58a4.63,4.63,0,0,1-1.39-2.37c0-.52.44-.85,1.33-1a18,18,0,0,0,3.08-.88,5.11,5.11,0,0,0,1.94-1,1.9,1.9,0,0,0,.2-1,14.73,14.73,0,0,0-1.24-6.35,2.4,2.4,0,0,1-.25-1.07c0-.37.38-.66,1.16-.88a9.93,9.93,0,0,1,2.59-.32c.95,0,1.43.28,1.43.84a3.44,3.44,0,0,1-.2.88,6,6,0,0,0-.19,1.72,13.8,13.8,0,0,0,.36,2.78c.23,1.13.57,1.69,1,1.69a10.58,10.58,0,0,0,1.39-.43,1.7,1.7,0,0,0,1.27-1.78q0-4.66-.2-7.68a27.24,27.24,0,0,0-.32-3.36.49.49,0,0,0-.49-.36,22.72,22.72,0,0,0-3.27,1.07,15.9,15.9,0,0,0-4,1.94,3.22,3.22,0,0,1-1.62.88c-.51,0-1.13-.72-1.84-2.14a8.13,8.13,0,0,1-1.07-3.24c0-.35.12-.56.35-.65a3.71,3.71,0,0,1,1.11-.13,4.81,4.81,0,0,0,1.39-.19q4.72-1.62,8.07-2.5a42.42,42.42,0,0,0,4.11-1.2,93.05,93.05,0,0,1,10.17-3.23c.91-.26,1.36-.56,1.36-.88a7.58,7.58,0,0,0-.32-1.65,36.9,36.9,0,0,1-1.07-6.22c-.15-2-.39-3.92-.71-5.93a19.62,19.62,0,0,0-.78-3.6,2.31,2.31,0,0,1-.29-1c0-.56.45-.92,1.36-1.07A14.53,14.53,0,0,1,589,91.8a1.8,1.8,0,0,1,1.36.42,2.37,2.37,0,0,1,.39,1.58l-.06,2.53a35.44,35.44,0,0,0,.45,5.77l.78,5.57a17.68,17.68,0,0,0,.61,3.08c.11.15.38.19.81.13a6.54,6.54,0,0,1,1-.1c.69,0,1.16.43,1.4,1.3a8.69,8.69,0,0,1,.35,1.71.78.78,0,0,1-.39.68,5.77,5.77,0,0,1-1.55.59.73.73,0,0,0-.71.77c0,.44.7,3.12,2.1,8.07a41.49,41.49,0,0,0,5.22,12,32.89,32.89,0,0,0,5.44,6.51c1.56,1.29,2.56,1.94,3,1.94a1,1,0,0,0,1-.55,17.35,17.35,0,0,0,.84-2.85,98.38,98.38,0,0,0,1.33-9.82c.13-1,.31-1.49.55-1.49s.69.9,1.36,2.69a13,13,0,0,1,1,4.05,23.31,23.31,0,0,1-.1,2.37Q615.05,139.75,615.05,140.45ZM583.36,104.5c.95,0,1.43,1,1.43,2.91,0,1.08-.75,1.9-2.24,2.46a21.58,21.58,0,0,1-4.27,1.17,27.91,27.91,0,0,0-4,.94,15.78,15.78,0,0,0-2.66,1,2.36,2.36,0,0,1-1,.39c-.19,0-.4-.4-.61-1.2s-.48-1.65-.78-2.56a7.64,7.64,0,0,1-.45-1.75c0-.25.45-.43,1.36-.51,2.11-.22,4.21-.53,6.28-.94a24.28,24.28,0,0,0,4.63-1.27A6.65,6.65,0,0,1,583.36,104.5Zm21,3.69c0,.86-.31,1.29-.91,1.29a8.57,8.57,0,0,1-2.14-.55,16.52,16.52,0,0,0-3.63-.74c-1.12-.09-1.68-1.36-1.68-3.82,0-2,.36-3,1.1-3a1.35,1.35,0,0,1,.87.49,9.22,9.22,0,0,0,1.59,1.14,16.12,16.12,0,0,1,2.59,2,13.49,13.49,0,0,1,1.85,1.91A2.27,2.27,0,0,1,604.36,108.19Z"/><path class="eb173f50-7257-4dd2-98c8-14b0884a8c6d" d="M655,99.05a15,15,0,0,0,.71-4.47c0-.78.34-1.16,1-1.16a9.69,9.69,0,0,1,3,.71c1.31.47,2,1.06,2,1.75a1.67,1.67,0,0,1-.68,1.2,4.4,4.4,0,0,0-1.1,2c-.28.91-.64,1.9-1.07,3a12.22,12.22,0,0,0-.65,1.82c0,.52.24.77.72.77.21,0,1.07-.14,2.56-.42a11.73,11.73,0,0,0,2.68-.68,1.8,1.8,0,0,1,.85-.26q.39,0,1.29,1.59a5.63,5.63,0,0,1,.91,2.24c0,.77-.45,1.16-1.36,1.16l-1.1-.06a15,15,0,0,0-4.25.65,35.74,35.74,0,0,1-3.72.9,2.25,2.25,0,0,0-1.88,1.23,7.82,7.82,0,0,1-1.78,2.73c-.59.47-.88.8-.88,1s.21.4.62.68a2.63,2.63,0,0,0,1.75.32c.75-.06,1.46-.1,2.1-.1a13,13,0,0,1,5.06,1,13.32,13.32,0,0,1,3,1.52,1.72,1.72,0,0,1,.64,1.36,1.62,1.62,0,0,1-.77,1.36,6,6,0,0,0-1.56,1.94,4.9,4.9,0,0,0-.77,2.08c0,.45.32.74,1,.87a26.57,26.57,0,0,0,4.14.2,27.12,27.12,0,0,0,4.73-.3,17.5,17.5,0,0,1,1.88-.29c.87,0,1.6.84,2.21,2.5a13.14,13.14,0,0,1,.9,4.37c0,.52-.19.78-.58.78a11.44,11.44,0,0,1-2.79-.84,39,39,0,0,0-4-1.33,17.27,17.27,0,0,0-4.47-.49,67.86,67.86,0,0,0-7.13.49,37.25,37.25,0,0,0-5.67.87,4.08,4.08,0,0,0-2,1.46,11.54,11.54,0,0,1-2.2,2.14,15,15,0,0,0-2.33,2.17,6.66,6.66,0,0,0-1.24,1.91,5.67,5.67,0,0,0-.29,1.88,2.54,2.54,0,0,1-2.07,2.85c-.91.37-1.94.85-3.11,1.46a10.91,10.91,0,0,1-5.25,1.29c-1.29,0-1.94-.25-1.94-.74s.45-1,1.36-1.59a56.18,56.18,0,0,0,4.79-3.63,24.9,24.9,0,0,0,4.51-4.34,5.36,5.36,0,0,0,1.06-2q0-.65-.84-.51a38.94,38.94,0,0,1-4,.64,19,19,0,0,0-5,1.1,11.85,11.85,0,0,1-3.27.91,3.62,3.62,0,0,0-2.34,1.17,1.06,1.06,0,0,1-.81.45c-.28,0-.65-.48-1.13-1.46a6.11,6.11,0,0,1-.71-1.84c0-.61.31-.91.94-.91a4.4,4.4,0,0,0,1.81-.39c.58-.26,1.76-.67,3.53-1.23l7.52-2.4c.56-.17.84-.39.84-.64a1.39,1.39,0,0,0-.19-.72q-3.24-6-3.24-7a2,2,0,0,1,.45-1.46,2.11,2.11,0,0,1,1.39-.51,29.67,29.67,0,0,0,4.12-.94,28,28,0,0,0,3.82-1.23,1.6,1.6,0,0,0,.65-1.53,2,2,0,0,0-.1-.64,2.28,2.28,0,0,1-.1-.59c0-.39.31-.6.91-.65a3.77,3.77,0,0,0,1.39-.29,1.3,1.3,0,0,0,.68-.64c.13-.29.35-.82.65-1.62a11.36,11.36,0,0,0,.46-1.33q0-.72-.75-.72A9,9,0,0,0,648,110c-1.08.35-1.56.89-1.43,1.62a5.14,5.14,0,0,1,.07.78,2.09,2.09,0,0,1-.62,1.72,1.93,1.93,0,0,1-1.17.48c-.36,0-.74-.29-1.13-.87a1.66,1.66,0,0,0-1.36-.88,8,8,0,0,0-2,.81,6.62,6.62,0,0,1-2.23.81,2.29,2.29,0,0,1-1.4-.71,21.4,21.4,0,0,0-2.43-1.75,1.11,1.11,0,0,1-.58-.91,1,1,0,0,1,.62-.84,54.61,54.61,0,0,1,5.34-1.68,1.14,1.14,0,0,0,.81-.55,1,1,0,0,0,.1-.81q-2.46-5.25-2.46-6.94c0-1.21.57-1.7,1.71-1.49a32.22,32.22,0,0,0,3.28.46c1,.08,1.55.6,1.55,1.55a3.83,3.83,0,0,1-.23,1.17,6.12,6.12,0,0,0-.22,1.81q0,3.18,1.23,3.18c.13,0,.84-.14,2.14-.42s2.4-.51,3.33-.68a4.14,4.14,0,0,0,1.79-.62,2.78,2.78,0,0,0,.64-1.2Zm-10,29.16a3,3,0,0,0,1.49-.59,2.85,2.85,0,0,0,1.1-2.23,23.63,23.63,0,0,0,.2-2.59c0-.63-.28-.94-.85-.94a5.58,5.58,0,0,0-2.33.78,2.33,2.33,0,0,0-1.49,2.07,9.27,9.27,0,0,0,.33,1.78c.21.89.46,1.39.74,1.52A1.93,1.93,0,0,0,645,128.21Zm8.75-2.14a8.44,8.44,0,0,0,1.49-.26c.73-.17,1.25-.86,1.55-2.07a13,13,0,0,0,.46-2.46q0-2-2.34-2a2.49,2.49,0,0,0-2,.71,4.92,4.92,0,0,0-.62,3,6.84,6.84,0,0,0,.29,2.69A1.32,1.32,0,0,0,653.73,126.07Zm.77,8.23a3.06,3.06,0,0,1,1,.26A52.64,52.64,0,0,0,662.6,137a19.17,19.17,0,0,1,4.64,1.62,3.38,3.38,0,0,1,1.45,1.81,7.55,7.55,0,0,1,.39,2.46,12.68,12.68,0,0,1-.58,3.37c-.39,1.36-.73,2-1,2a1.76,1.76,0,0,1-1.1-.64q-2.4-2.53-6-6t-5.9-5.25a1.42,1.42,0,0,1-.65-1C653.79,134.67,654,134.3,654.5,134.3Z"/><path class="eb173f50-7257-4dd2-98c8-14b0884a8c6d" d="M712.62,123.22a1.87,1.87,0,0,1-.52,1.2,1.75,1.75,0,0,1-1.42.61,6.11,6.11,0,0,1-1.62-.19l-1.36-.32c-.39,0-.61.44-.65,1.32s-.19,2.74-.45,5.54-.39,4.89-.39,6.22a31.64,31.64,0,0,0,.32,5.12l.52,2.85c0,.87-.41,1.3-1.23,1.3a4.06,4.06,0,0,1-2.43-.88,2.64,2.64,0,0,1-1.2-2.23,7.52,7.52,0,0,1,.23-1.62,21,21,0,0,0,.23-3.89c0-1.94,0-3.6.06-5l.06-4.6c0-.47-.06-.71-.19-.71s-.32.13-.58.39a65.29,65.29,0,0,1-5.61,5.31c-2.27,1.95-3.57,2.92-3.92,2.92a2,2,0,0,1-1.2-.59,1.56,1.56,0,0,1-.68-1.1,3.53,3.53,0,0,1,.3-1.26,3.79,3.79,0,0,1,.51-1,.65.65,0,0,1,.49-.25h.39c.6,0,1.76-.92,3.46-2.76a24.33,24.33,0,0,0,4.09-5.86,16.56,16.56,0,0,0,1.52-3.66c0-.37-.19-.55-.58-.55a9,9,0,0,0-6.22,2.72,2,2,0,0,1-1.2.65q-.5,0-.81-.78l-1-2.33a7.36,7.36,0,0,1-.65-2.85,3.56,3.56,0,0,1,.16-1.5,1.62,1.62,0,0,1,.94-.25,38.78,38.78,0,0,0,10.72-3,1.52,1.52,0,0,0,.81-1.3l-.06-4c0-2.59.08-5,.26-7.09a19,19,0,0,1,.48-3.7q.22-.48,1.2-.48a8.25,8.25,0,0,1,2.4.45c.95.31,1.42.66,1.42,1.07a1.83,1.83,0,0,1-.64,1.26,4.08,4.08,0,0,0-.91,2.27,39.68,39.68,0,0,0-.26,5.44c0,2.55,0,4,0,4.22s.21.39.55.39a9.36,9.36,0,0,0,1.2-.1,7.39,7.39,0,0,1,1.1-.1.79.79,0,0,1,.62.23,2,2,0,0,1,.19,1.13,3.82,3.82,0,0,1-1.23,3.18,18.81,18.81,0,0,1-1.68,1.23,1.18,1.18,0,0,0-.59.77,4.7,4.7,0,0,0-.13,1,1.48,1.48,0,0,0,.26.88,8.44,8.44,0,0,0,1.4,1.19,18.73,18.73,0,0,0,2.3,1.49A1.87,1.87,0,0,1,712.62,123.22Zm14.71,3a.66.66,0,0,0,.29.62c.2.1,1.71.43,4.54,1a44,44,0,0,0,6.44.87,2.81,2.81,0,0,1,1.75.55,4.33,4.33,0,0,1,.65,2.56,25.72,25.72,0,0,0,.33,3,9.57,9.57,0,0,1,.19,1.68,2.07,2.07,0,0,1-.49,1.33c-.32.41-.62.62-.9.62s-.75-.35-1.4-1a38.7,38.7,0,0,0-6.77-5.54q-4-2.62-4.76-2.63c-.22,0-.38.16-.49.46a22.89,22.89,0,0,0-.38,3.17c-.16,1.82-.23,3.6-.23,5.35a31.33,31.33,0,0,0,.19,4,16.53,16.53,0,0,1,.2,2,.82.82,0,0,1-.58.81,5.54,5.54,0,0,1-1.85.23,2.62,2.62,0,0,1-1.62-.33,1.85,1.85,0,0,1-.36-1.36l.07-2.72c0-1.12.06-2.6.06-4.43s0-3.76-.13-5.77a28.49,28.49,0,0,0-.22-3.27.34.34,0,0,0-.33-.26c-.15,0-.4.17-.74.51-1.34,1.39-2.72,2.7-4.15,4a35.33,35.33,0,0,0-3.21,3.11,2.85,2.85,0,0,1-1.88,1.23,10,10,0,0,1-2-.26c-.79-.17-1.19-.39-1.19-.65s.43-.71,1.29-1.36a45.66,45.66,0,0,0,6.87-6.8q4.61-5.25,4.6-6.22a1.21,1.21,0,0,1,.55-1,4.2,4.2,0,0,0,1.14-1.68,6.84,6.84,0,0,0,.58-1.59.26.26,0,0,0-.29-.29,12.76,12.76,0,0,0-2.21.74,10.18,10.18,0,0,0-2.85,1.56,2.75,2.75,0,0,1-1.71.81c-.83,0-1.56-.92-2.21-2.76a17.23,17.23,0,0,1-1-3.3.63.63,0,0,1,.52-.68,3.58,3.58,0,0,1,1.1-.1c.39,0,.67,0,.84,0a23.19,23.19,0,0,0,7-1.49c2.91-1,5.4-1.75,7.45-2.27a26.58,26.58,0,0,1,3.6-.78,1.14,1.14,0,0,1,.77.23,10.81,10.81,0,0,1,1.14,1.68,14.91,14.91,0,0,1,1.1,2.07,3.82,3.82,0,0,1,.22,1.3,1,1,0,0,1-.32.91,4.46,4.46,0,0,1-1.81.29,7.41,7.41,0,0,0-5.25,2.53q-2.54,2.52-2.53,4.08a2,2,0,0,0,.33,1.1,3.36,3.36,0,0,1,.32,1.68Z"/></svg>