<svg id="svg" version="1.1" xmlns="http://www.w3.org/2000/svg" xmlns:xlink="http://www.w3.org/1999/xlink" width="400" height="400" viewBox="0, 0, 400,400"><g id="svgg"><path id="path0" d="M311.578 23.500 L 310.200 25.000 311.700 23.622 C 312.525 22.863,313.200 22.188,313.200 22.122 C 313.200 21.816,312.862 22.104,311.578 23.500 M82.238 25.138 C 82.013 25.503,83.476 27.059,83.768 26.764 C 83.858 26.674,83.600 26.191,83.194 25.691 C 82.789 25.192,82.359 24.943,82.238 25.138 M316.637 26.200 C 316.276 26.750,316.121 27.203,316.291 27.206 C 316.461 27.209,316.330 27.387,316.000 27.600 C 315.623 27.844,315.581 27.990,315.886 27.994 C 316.370 28.000,317.286 26.653,317.445 25.700 C 317.569 24.960,317.367 25.085,316.637 26.200 M84.637 29.000 C 85.369 30.117,85.565 30.237,85.453 29.500 C 85.339 28.744,84.800 28.000,84.367 28.000 C 84.155 28.000,84.276 28.450,84.637 29.000 M314.935 28.900 C 314.477 29.633,314.413 30.439,314.833 30.180 C 315.437 29.806,316.073 28.400,315.638 28.400 C 315.423 28.400,315.107 28.625,314.935 28.900 M85.798 30.403 C 85.661 30.624,85.830 30.913,86.172 31.045 C 86.515 31.176,86.708 31.425,86.602 31.597 C 86.351 32.004,87.540 32.993,87.876 32.657 C 88.018 32.516,87.913 32.400,87.643 32.400 C 87.373 32.400,87.256 32.232,87.383 32.027 C 87.510 31.822,87.252 31.401,86.809 31.091 C 86.367 30.782,86.124 30.409,86.269 30.264 C 86.414 30.119,86.424 30.000,86.290 30.000 C 86.157 30.000,85.935 30.181,85.798 30.403 M312.834 31.759 C 312.579 32.067,312.297 32.742,312.208 33.259 L 312.047 34.200 312.708 33.246 C 313.699 31.816,313.803 30.591,312.834 31.759 M87.902 33.466 C 88.179 33.577,88.328 33.793,88.234 33.945 C 88.140 34.098,88.403 34.667,88.820 35.211 L 89.577 36.200 89.404 35.259 C 89.196 34.132,88.473 33.188,87.851 33.232 C 87.570 33.251,87.589 33.340,87.902 33.466 M310.648 34.983 C 310.297 35.519,310.167 36.056,310.361 36.176 C 310.554 36.295,311.000 35.954,311.352 35.417 C 311.703 34.881,311.833 34.344,311.639 34.224 C 311.446 34.105,311.000 34.446,310.648 34.983 M90.133 36.523 C 90.133 36.895,90.294 37.200,90.490 37.200 C 90.687 37.200,90.749 37.360,90.628 37.555 C 90.507 37.750,90.662 38.120,90.972 38.377 C 91.731 39.006,91.599 38.054,90.751 36.777 C 90.271 36.054,90.133 35.997,90.133 36.523 M308.769 37.700 C 308.427 38.820,308.518 39.200,309.028 38.777 C 309.338 38.520,309.493 38.150,309.372 37.955 C 309.165 37.620,308.836 37.481,308.769 37.700 M121.400 39.230 C 119.420 39.658,117.170 40.210,116.400 40.458 C 113.770 41.305,103.702 46.400,104.659 46.400 C 104.870 46.400,106.710 48.875,108.747 51.900 C 110.784 54.925,113.635 59.110,115.081 61.200 C 116.528 63.290,119.160 67.160,120.931 69.800 C 122.701 72.440,125.691 76.751,127.575 79.379 C 129.459 82.008,131.360 84.754,131.800 85.482 C 132.240 86.210,134.306 89.279,136.391 92.303 C 138.476 95.326,141.176 99.255,142.391 101.034 C 146.288 106.740,148.323 109.697,151.591 114.400 C 153.348 116.930,156.194 121.070,157.915 123.600 C 160.964 128.083,177.655 152.403,181.800 158.400 C 182.940 160.050,185.282 163.470,187.004 166.000 C 197.463 181.363,199.756 184.600,200.179 184.600 C 200.358 184.600,202.420 181.810,204.761 178.400 C 213.694 165.391,216.211 161.731,217.694 159.600 C 218.536 158.390,220.517 155.510,222.096 153.200 C 223.675 150.890,225.785 147.811,226.784 146.357 C 227.783 144.903,230.546 140.853,232.925 137.357 C 235.303 133.861,238.194 129.650,239.349 128.000 C 243.772 121.680,250.020 112.570,258.687 99.800 C 259.733 98.260,262.076 94.882,263.894 92.294 C 265.712 89.706,267.200 87.426,267.200 87.228 C 267.200 87.029,267.335 86.807,267.500 86.733 C 267.825 86.589,268.292 85.925,274.205 77.200 C 276.367 74.010,279.996 68.753,282.268 65.517 C 284.541 62.282,286.400 59.539,286.400 59.422 C 286.400 59.078,291.327 52.213,291.679 52.067 C 291.855 51.993,292.000 51.766,292.000 51.561 C 292.000 51.356,292.900 49.950,294.000 48.438 C 295.100 46.926,296.000 45.562,296.000 45.408 C 296.000 45.254,296.323 44.829,296.719 44.464 C 297.114 44.099,297.231 43.935,296.978 44.100 C 296.723 44.266,294.749 43.574,292.561 42.551 C 290.385 41.535,286.893 40.233,284.802 39.659 L 281.000 38.616 203.000 38.535 C 127.118 38.456,124.902 38.475,121.400 39.230 M92.608 40.464 C 92.704 40.979,93.139 41.693,93.574 42.050 C 94.010 42.408,94.239 42.842,94.083 43.014 C 93.927 43.187,94.025 43.199,94.300 43.041 C 94.575 42.882,94.823 42.943,94.850 43.176 C 94.877 43.409,94.923 43.780,94.950 44.000 C 94.978 44.220,95.150 44.415,95.333 44.433 C 96.098 44.510,95.957 44.039,94.864 42.869 C 94.227 42.186,93.817 41.503,93.953 41.350 C 94.089 41.197,93.944 41.220,93.632 41.401 C 93.215 41.644,93.129 41.563,93.308 41.095 C 93.443 40.745,93.300 40.249,92.992 39.994 C 92.534 39.613,92.464 39.699,92.608 40.464 M307.000 40.400 C 306.864 40.620,306.888 40.800,307.053 40.800 C 307.218 40.800,307.021 41.043,306.616 41.339 C 306.040 41.760,305.993 41.949,306.401 42.201 C 306.732 42.405,306.826 42.366,306.659 42.096 C 306.514 41.861,306.605 41.598,306.863 41.512 C 307.120 41.427,307.375 41.051,307.430 40.678 C 307.542 39.915,307.369 39.803,307.000 40.400 M304.430 44.164 C 304.109 44.550,304.094 44.811,304.381 44.988 C 304.611 45.131,304.814 45.192,304.831 45.124 C 305.219 43.555,305.124 43.328,304.430 44.164 M302.830 46.564 C 302.509 46.950,302.494 47.211,302.781 47.388 C 303.011 47.531,303.214 47.592,303.231 47.524 C 303.619 45.955,303.524 45.728,302.830 46.564 M100.640 52.335 C 100.513 52.541,100.661 52.918,100.969 53.174 C 101.300 53.449,101.623 53.486,101.760 53.265 C 101.887 53.059,101.739 52.682,101.431 52.426 C 101.100 52.151,100.777 52.114,100.640 52.335 M304.793 56.289 C 303.587 58.157,302.330 60.104,302.000 60.615 C 301.670 61.126,297.723 67.002,293.229 73.672 C 288.735 80.342,284.415 86.780,283.629 87.979 C 282.843 89.177,280.619 92.507,278.687 95.379 C 276.755 98.250,274.055 102.302,272.687 104.383 C 271.319 106.463,267.770 111.791,264.800 116.221 C 261.830 120.652,252.551 134.519,244.180 147.038 C 235.808 159.557,224.581 176.341,219.230 184.335 L 209.501 198.870 210.280 199.935 C 210.708 200.521,212.650 203.340,214.595 206.200 C 216.540 209.060,219.512 213.380,221.201 215.800 C 222.889 218.220,225.440 221.910,226.870 224.000 C 228.300 226.090,230.624 229.469,232.035 231.509 C 235.550 236.590,241.971 245.929,244.613 249.800 C 245.814 251.560,247.863 254.530,249.165 256.400 C 250.468 258.270,253.123 262.133,255.067 264.985 C 259.583 271.614,267.995 283.706,268.369 284.108 C 268.527 284.277,269.431 284.142,270.378 283.808 C 271.325 283.473,272.416 283.200,272.802 283.200 C 273.188 283.200,274.549 282.570,275.828 281.800 C 279.263 279.732,283.058 280.092,284.408 282.615 C 284.697 283.154,285.349 283.868,285.858 284.201 C 287.149 285.047,287.940 286.752,288.245 289.348 L 288.506 291.564 287.053 292.422 C 286.254 292.893,285.600 293.432,285.600 293.619 C 285.600 294.366,282.905 296.439,281.400 296.851 C 277.809 297.832,277.097 299.023,278.800 301.200 C 279.230 301.750,279.586 302.785,279.591 303.500 C 279.596 304.259,279.934 305.134,280.404 305.604 C 284.119 309.319,294.352 321.014,296.019 323.449 C 296.338 323.917,297.337 325.357,298.239 326.649 C 300.534 329.942,301.704 332.055,308.392 345.000 C 311.167 350.370,312.039 351.864,311.457 350.250 C 311.274 349.743,311.771 348.488,312.994 346.369 C 313.987 344.647,314.800 343.046,314.800 342.813 C 314.800 342.580,314.960 342.077,315.156 341.695 C 316.198 339.658,316.858 337.821,317.821 334.268 L 318.886 330.335 318.882 210.443 C 318.879 95.730,318.781 80.909,318.011 78.200 C 317.823 77.540,317.559 76.064,317.424 74.921 C 316.855 70.105,313.847 62.850,310.296 57.728 C 309.143 56.065,307.927 54.297,307.593 53.798 C 306.996 52.905,306.953 52.943,304.793 56.289 M296.835 55.358 C 296.458 55.812,296.467 55.919,296.878 55.859 C 297.430 55.778,297.787 55.253,297.490 54.957 C 297.393 54.860,297.098 55.041,296.835 55.358 M93.265 58.504 C 91.103 61.827,88.972 66.584,87.668 70.995 L 86.603 74.600 86.497 199.200 L 86.391 323.800 87.233 328.000 C 88.145 332.557,89.324 335.903,91.488 340.077 C 92.303 341.651,92.751 342.970,92.573 343.277 C 92.408 343.565,92.373 343.710,92.498 343.600 C 92.622 343.490,94.016 340.887,95.595 337.815 C 97.175 334.743,98.812 331.745,99.234 331.153 C 99.655 330.561,100.000 329.961,100.000 329.820 C 100.000 329.147,104.451 323.094,107.733 319.303 C 109.750 316.974,112.096 314.242,112.946 313.234 C 113.796 312.225,115.866 309.894,117.546 308.053 C 119.725 305.665,120.611 304.390,120.640 303.599 C 120.662 302.990,121.067 301.949,121.540 301.284 C 123.119 299.066,122.355 297.515,119.463 297.073 C 117.744 296.810,115.353 295.174,114.748 293.845 C 114.529 293.366,113.841 292.748,113.218 292.472 C 110.967 291.476,112.254 284.075,114.690 284.013 C 114.959 284.006,115.446 283.484,115.772 282.854 C 117.297 279.906,123.213 279.714,125.549 282.537 C 125.851 282.901,126.593 283.200,127.199 283.200 C 127.804 283.200,129.065 283.470,130.000 283.800 C 130.935 284.130,131.750 284.400,131.811 284.400 C 131.871 284.400,132.284 283.815,132.727 283.100 C 133.170 282.385,134.673 280.159,136.067 278.153 C 137.460 276.147,139.938 272.547,141.574 270.153 C 143.209 267.759,145.181 264.900,145.955 263.800 C 146.729 262.700,148.225 260.540,149.278 259.000 C 150.332 257.460,152.410 254.451,153.897 252.313 C 156.467 248.617,160.137 243.291,168.447 231.200 C 170.488 228.230,172.848 224.810,173.691 223.600 C 174.535 222.390,176.517 219.510,178.097 217.200 C 182.901 210.177,184.962 207.185,185.800 206.014 C 191.191 198.484,191.095 199.282,187.300 193.604 C 185.595 191.052,184.020 188.680,183.800 188.331 C 183.580 187.982,180.619 183.580,177.221 178.549 C 173.823 173.517,162.570 156.710,152.216 141.200 C 141.861 125.690,133.066 112.550,132.671 112.000 C 132.026 111.104,127.172 103.823,120.937 94.400 C 118.328 90.458,117.235 88.825,111.563 80.400 C 109.267 76.990,106.448 72.760,105.299 71.000 C 104.150 69.240,102.038 66.090,100.606 64.000 C 99.174 61.910,97.426 59.333,96.721 58.274 C 94.997 55.683,95.105 55.676,93.265 58.504 M294.176 59.239 C 293.830 59.799,294.702 60.000,295.148 59.462 C 295.480 59.063,295.438 58.933,294.976 58.933 C 294.640 58.933,294.280 59.071,294.176 59.239 M288.661 67.362 C 288.084 68.244,288.086 68.317,288.685 68.229 C 289.044 68.176,289.367 67.743,289.402 67.266 C 289.483 66.178,289.433 66.184,288.661 67.362 M199.684 213.700 C 199.323 214.136,167.379 262.091,154.454 281.600 C 151.903 285.450,148.949 289.828,147.888 291.329 L 145.960 294.059 147.380 295.631 C 148.161 296.495,148.800 297.456,148.800 297.767 C 148.800 298.077,149.703 298.887,150.806 299.566 C 155.825 302.654,155.420 309.209,149.941 313.571 C 147.602 315.434,147.287 315.498,145.891 314.400 C 145.331 313.960,144.666 313.600,144.411 313.600 C 142.858 313.600,140.054 311.833,139.026 310.207 C 137.319 307.506,135.677 307.486,134.034 310.145 C 133.557 310.917,132.775 311.605,132.297 311.674 C 131.818 311.743,131.200 312.250,130.924 312.800 C 130.647 313.350,129.063 316.590,127.403 320.000 C 124.703 325.546,123.038 328.757,119.974 334.325 C 118.730 336.586,113.991 342.745,109.000 348.588 C 102.896 355.734,102.143 356.658,103.037 355.900 C 104.138 354.967,104.088 354.953,106.923 356.906 C 108.285 357.844,110.120 358.968,111.000 359.404 C 111.880 359.840,113.139 360.557,113.798 360.998 C 115.880 362.391,117.570 363.200,118.399 363.200 C 118.839 363.200,119.200 363.336,119.200 363.503 C 119.200 363.868,121.040 364.456,125.683 365.575 L 129.167 366.414 206.683 366.300 L 284.200 366.186 287.495 365.300 C 291.424 364.244,294.972 362.796,298.074 360.984 C 300.006 359.855,300.420 359.742,300.823 360.228 C 301.084 360.542,301.481 360.800,301.704 360.800 C 301.928 360.800,300.923 359.585,299.471 358.100 C 298.019 356.615,296.419 354.843,295.915 354.163 C 295.412 353.482,293.982 351.772,292.737 350.363 C 283.343 339.725,281.278 336.637,274.298 322.800 C 270.149 314.575,268.550 311.767,267.961 311.670 C 267.527 311.599,266.717 310.853,266.161 310.012 C 264.605 307.662,262.587 307.617,261.637 309.911 C 261.103 311.200,258.510 313.028,256.653 313.425 C 255.964 313.573,255.078 314.032,254.684 314.447 C 253.184 316.026,248.544 313.394,247.667 310.464 C 247.408 309.601,246.927 308.672,246.598 308.398 C 244.660 306.790,246.340 301.537,249.386 299.681 C 250.362 299.087,251.382 298.079,251.653 297.443 C 251.923 296.806,252.569 295.827,253.087 295.268 C 254.267 293.995,254.332 294.184,251.087 289.400 C 249.595 287.200,241.094 274.420,232.195 261.000 C 223.297 247.580,215.698 236.150,215.309 235.600 C 214.634 234.646,208.639 225.630,207.800 224.307 C 206.498 222.254,200.316 213.200,200.217 213.200 C 200.152 213.200,199.912 213.425,199.684 213.700 M272.705 285.883 C 273.202 285.979,273.922 285.975,274.305 285.875 C 274.687 285.775,274.280 285.696,273.400 285.701 C 272.520 285.705,272.207 285.787,272.705 285.883 M269.680 290.480 C 269.416 290.744,269.221 291.329,269.246 291.780 C 269.292 292.583,269.297 292.584,269.489 291.800 C 269.598 291.360,269.869 290.775,270.092 290.500 C 270.610 289.862,270.312 289.848,269.680 290.480 M276.893 291.200 C 276.893 291.970,276.975 292.285,277.076 291.900 C 277.176 291.515,277.176 290.885,277.076 290.500 C 276.975 290.115,276.893 290.430,276.893 291.200 M146.927 300.200 C 146.982 300.743,147.328 301.021,148.004 301.066 C 148.839 301.120,148.858 301.100,148.125 300.941 C 147.643 300.836,147.158 300.447,147.048 300.075 C 146.902 299.589,146.869 299.624,146.927 300.200 M129.967 301.487 C 130.279 301.611,130.967 302.181,131.496 302.756 L 132.458 303.800 131.554 302.500 C 131.057 301.785,130.368 301.214,130.025 301.232 C 129.522 301.257,129.511 301.307,129.967 301.487 M276.345 302.095 C 276.644 302.477,276.781 303.071,276.649 303.416 C 276.511 303.776,276.577 303.938,276.805 303.797 C 277.416 303.419,277.273 302.556,276.500 301.949 C 275.867 301.452,275.852 301.466,276.345 302.095 M146.484 305.003 C 146.640 305.245,146.944 305.883,147.159 306.422 C 147.406 307.040,147.559 307.159,147.575 306.744 C 147.589 306.384,147.285 305.745,146.900 305.325 C 146.515 304.906,146.328 304.760,146.484 305.003 M149.400 310.650 C 148.681 311.262,148.534 311.505,149.033 311.257 C 149.766 310.893,151.141 309.576,150.749 309.614 C 150.667 309.622,150.060 310.088,149.400 310.650 M142.741 310.901 C 142.943 311.103,143.533 311.201,144.054 311.119 C 144.855 310.993,144.798 310.937,143.687 310.752 C 142.893 310.621,142.519 310.679,142.741 310.901 M85.733 360.634 C 85.733 360.946,85.817 361.116,85.919 361.014 C 86.022 360.912,86.442 361.008,86.853 361.228 C 87.912 361.795,87.781 361.411,86.667 360.680 C 85.884 360.168,85.733 360.160,85.733 360.634 M83.433 361.100 C 83.268 361.265,82.926 361.400,82.672 361.400 C 82.418 361.400,82.182 361.719,82.146 362.108 C 82.091 362.712,82.111 362.718,82.281 362.150 C 82.410 361.720,82.578 361.640,82.754 361.926 C 82.932 362.213,83.199 362.093,83.517 361.584 C 84.015 360.786,83.976 360.558,83.433 361.100 M302.093 362.400 C 302.093 363.170,302.175 363.485,302.276 363.100 C 302.376 362.715,302.376 362.085,302.276 361.700 C 302.175 361.315,302.093 361.630,302.093 362.400 M91.287 364.818 C 91.665 365.042,92.158 365.535,92.382 365.913 C 92.727 366.494,92.770 366.452,92.660 365.635 C 92.570 364.963,92.237 364.630,91.565 364.540 C 90.748 364.430,90.706 364.473,91.287 364.818 M325.200 369.325 C 325.200 369.394,325.785 369.979,326.500 370.625 L 327.800 371.800 326.625 370.500 C 325.530 369.288,325.200 369.016,325.200 369.325 M71.693 374.800 C 71.693 375.570,71.775 375.885,71.876 375.500 C 71.976 375.115,71.976 374.485,71.876 374.100 C 71.775 373.715,71.693 374.030,71.693 374.800 M76.938 377.817 C 76.808 378.157,76.813 378.547,76.951 378.684 C 77.088 378.821,77.200 378.614,77.200 378.224 C 77.200 377.747,77.404 377.593,77.821 377.753 C 78.177 377.889,78.337 377.822,78.197 377.595 C 77.833 377.007,77.207 377.117,76.938 377.817 " stroke="none" fill="#ad191a" fill-rule="evenodd"></path><path id="path1" d="M76.797 17.605 C 74.523 21.854,77.375 28.886,87.541 44.101 C 91.753 50.406,95.200 55.679,95.200 55.819 C 95.200 56.073,96.139 57.493,100.746 64.200 C 102.106 66.180,104.157 69.240,105.303 71.000 C 106.450 72.760,109.267 76.990,111.563 80.400 C 117.235 88.825,118.328 90.458,120.937 94.400 C 127.172 103.823,132.026 111.104,132.671 112.000 C 133.066 112.550,141.861 125.690,152.216 141.200 C 162.570 156.710,173.823 173.517,177.221 178.549 C 180.619 183.580,183.580 187.982,183.800 188.331 C 184.020 188.680,185.595 191.052,187.300 193.604 C 191.095 199.282,191.191 198.484,185.800 206.014 C 184.962 207.185,182.901 210.177,178.097 217.200 C 176.517 219.510,174.535 222.390,173.691 223.600 C 172.848 224.810,170.488 228.230,168.447 231.200 C 160.137 243.291,156.467 248.617,153.897 252.313 C 152.410 254.451,150.332 257.460,149.278 259.000 C 148.225 260.540,146.729 262.700,145.955 263.800 C 145.181 264.900,143.209 267.759,141.574 270.153 C 139.938 272.547,137.460 276.147,136.067 278.153 C 134.673 280.159,133.170 282.385,132.727 283.100 C 132.284 283.815,131.871 284.400,131.811 284.400 C 131.750 284.400,130.935 284.130,130.000 283.800 C 129.065 283.470,127.804 283.200,127.199 283.200 C 126.593 283.200,125.851 282.901,125.549 282.537 C 123.213 279.714,117.297 279.906,115.772 282.854 C 115.446 283.484,114.959 284.006,114.690 284.013 C 112.254 284.075,110.967 291.476,113.218 292.472 C 113.841 292.748,114.529 293.366,114.748 293.845 C 115.353 295.174,117.744 296.810,119.463 297.073 C 122.355 297.515,123.119 299.066,121.540 301.284 C 121.067 301.949,120.662 302.990,120.640 303.599 C 120.611 304.390,119.725 305.665,117.546 308.053 C 115.866 309.894,113.796 312.225,112.946 313.234 C 112.096 314.242,109.750 316.974,107.733 319.303 C 104.635 322.882,100.000 329.138,100.000 329.741 C 100.000 329.839,99.314 331.062,98.476 332.459 C 97.638 333.857,94.831 339.257,92.240 344.460 C 87.586 353.800,87.506 353.927,85.864 354.563 C 83.189 355.598,79.587 361.403,79.877 364.212 C 80.131 366.672,78.775 368.453,76.101 369.173 C 72.298 370.197,71.265 373.730,72.996 379.800 C 74.188 383.977,75.209 384.558,80.410 384.020 C 86.094 383.432,87.907 381.700,88.117 376.657 C 88.247 373.530,89.210 372.203,91.710 371.709 C 93.983 371.259,97.992 365.588,98.008 362.800 C 98.018 361.099,98.217 360.781,101.644 357.000 C 109.827 347.970,118.091 337.747,119.974 334.325 C 123.038 328.757,124.703 325.546,127.403 320.000 C 129.063 316.590,130.647 313.350,130.924 312.800 C 131.200 312.250,131.818 311.743,132.297 311.674 C 132.775 311.605,133.557 310.917,134.034 310.145 C 135.677 307.486,137.319 307.506,139.026 310.207 C 140.054 311.833,142.858 313.600,144.411 313.600 C 144.666 313.600,145.331 313.960,145.891 314.400 C 147.287 315.498,147.602 315.434,149.941 313.571 C 155.420 309.209,155.825 302.654,150.806 299.566 C 149.703 298.887,148.800 298.077,148.800 297.767 C 148.800 297.456,148.161 296.495,147.380 295.631 L 145.960 294.059 147.892 291.329 C 148.954 289.828,152.505 284.550,155.782 279.600 C 174.477 251.360,199.714 213.577,200.000 213.400 C 200.258 213.241,204.876 219.698,207.800 224.307 C 208.639 225.630,214.634 234.646,215.309 235.600 C 215.698 236.150,223.297 247.580,232.195 261.000 C 241.094 274.420,249.595 287.200,251.087 289.400 C 254.332 294.184,254.267 293.995,253.087 295.268 C 252.569 295.827,251.923 296.806,251.653 297.443 C 251.382 298.079,250.362 299.087,249.386 299.681 C 246.340 301.537,244.660 306.790,246.598 308.398 C 246.927 308.672,247.408 309.601,247.667 310.464 C 248.544 313.394,253.184 316.026,254.684 314.447 C 255.078 314.032,255.964 313.573,256.653 313.425 C 258.510 313.028,261.103 311.200,261.637 309.911 C 262.587 307.617,264.605 307.662,266.161 310.012 C 266.717 310.853,267.527 311.599,267.961 311.670 C 268.550 311.767,270.149 314.575,274.298 322.800 C 281.278 336.637,283.343 339.725,292.737 350.363 C 293.982 351.772,295.393 353.456,295.873 354.103 C 296.352 354.751,298.039 356.629,299.620 358.276 C 302.319 361.087,302.484 361.361,302.298 362.743 C 302.026 364.772,306.330 371.229,308.213 371.617 C 311.139 372.219,312.676 374.345,312.215 377.151 C 311.173 383.492,324.930 387.565,326.741 381.452 C 326.945 380.763,327.423 379.150,327.804 377.866 C 328.986 373.879,327.071 369.200,324.257 369.200 C 321.971 369.200,319.565 365.596,320.394 363.415 C 321.001 361.819,316.964 355.788,314.494 354.600 C 312.932 353.849,312.613 353.372,309.275 346.800 C 302.650 333.753,300.666 330.131,298.239 326.649 C 297.337 325.357,296.338 323.917,296.019 323.449 C 294.352 321.014,284.119 309.319,280.404 305.604 C 279.934 305.134,279.596 304.259,279.591 303.500 C 279.586 302.785,279.230 301.750,278.800 301.200 C 277.097 299.023,277.809 297.832,281.400 296.851 C 282.905 296.439,285.600 294.366,285.600 293.619 C 285.600 293.432,286.254 292.893,287.053 292.422 L 288.506 291.564 288.245 289.348 C 287.940 286.752,287.149 285.047,285.858 284.201 C 285.349 283.868,284.697 283.154,284.408 282.615 C 283.058 280.092,279.263 279.732,275.828 281.800 C 274.549 282.570,273.188 283.200,272.802 283.200 C 272.416 283.200,271.325 283.473,270.378 283.808 C 269.431 284.142,268.527 284.277,268.369 284.108 C 267.995 283.706,259.583 271.614,255.067 264.985 C 253.123 262.133,250.468 258.270,249.165 256.400 C 247.863 254.530,245.814 251.560,244.613 249.800 C 241.971 245.929,235.550 236.590,232.035 231.509 C 230.624 229.469,228.300 226.090,226.870 224.000 C 225.440 221.910,222.889 218.220,221.201 215.800 C 219.512 213.380,216.540 209.060,214.595 206.200 C 212.650 203.340,210.708 200.521,210.280 199.935 L 209.501 198.870 219.230 184.335 C 224.581 176.341,235.808 159.557,244.180 147.038 C 252.551 134.519,261.830 120.652,264.800 116.221 C 267.770 111.791,271.319 106.463,272.687 104.383 C 274.055 102.302,276.755 98.250,278.687 95.379 C 280.619 92.507,282.843 89.177,283.629 87.979 C 284.415 86.780,288.735 80.342,293.229 73.672 C 302.153 60.427,301.656 61.176,304.800 56.213 C 306.010 54.303,309.903 48.380,313.451 43.050 C 322.779 29.038,325.438 22.489,323.655 17.917 L 323.233 16.833 321.116 17.460 C 315.934 18.995,311.429 23.194,305.398 32.108 C 299.048 41.493,297.754 43.341,296.849 44.314 C 296.382 44.817,296.000 45.332,296.000 45.458 C 296.000 45.585,295.100 46.926,294.000 48.438 C 292.900 49.950,292.000 51.356,292.000 51.561 C 292.000 51.766,291.855 51.993,291.679 52.067 C 291.327 52.213,286.400 59.078,286.400 59.422 C 286.400 59.539,284.541 62.282,282.268 65.517 C 279.996 68.753,276.367 74.010,274.205 77.200 C 268.292 85.925,267.825 86.589,267.500 86.733 C 267.335 86.807,267.200 87.029,267.200 87.228 C 267.200 87.426,265.712 89.706,263.894 92.294 C 262.076 94.882,259.733 98.260,258.687 99.800 C 250.020 112.570,243.772 121.680,239.349 128.000 C 238.194 129.650,235.303 133.861,232.925 137.357 C 230.546 140.853,227.783 144.903,226.784 146.357 C 225.785 147.811,223.675 150.890,222.096 153.200 C 220.517 155.510,218.536 158.390,217.694 159.600 C 216.212 161.729,213.685 165.403,204.791 178.356 C 202.466 181.742,200.404 184.532,200.209 184.556 C 199.761 184.612,197.760 181.800,187.004 166.000 C 185.282 163.470,182.940 160.050,181.800 158.400 C 177.655 152.403,160.964 128.083,157.915 123.600 C 156.194 121.070,153.348 116.930,151.591 114.400 C 148.323 109.697,146.288 106.740,142.391 101.034 C 141.176 99.255,138.476 95.326,136.391 92.303 C 134.306 89.279,132.240 86.210,131.800 85.482 C 131.360 84.754,129.459 82.008,127.575 79.379 C 125.691 76.751,122.700 72.440,120.929 69.800 C 119.157 67.160,116.591 63.380,115.226 61.400 C 113.861 59.420,111.182 55.475,109.272 52.633 C 107.362 49.791,105.481 47.131,105.090 46.723 C 104.415 46.017,100.601 40.539,93.726 30.400 C 87.867 21.761,78.402 14.607,76.797 17.605 M81.200 20.226 C 84.712 22.069,88.581 26.331,94.179 34.524 C 96.312 37.646,99.050 41.640,100.263 43.400 C 101.476 45.160,105.005 50.290,108.104 54.800 C 111.204 59.310,114.668 64.350,115.802 66.000 C 116.937 67.650,119.021 70.689,120.433 72.754 C 121.845 74.818,123.633 77.428,124.408 78.554 C 125.182 79.679,127.362 82.850,129.252 85.600 C 131.143 88.350,134.053 92.580,135.720 95.000 C 137.387 97.420,140.284 101.650,142.158 104.400 C 144.032 107.150,146.823 111.200,148.360 113.400 C 149.896 115.600,153.242 120.460,155.794 124.200 C 163.035 134.809,169.745 144.570,174.218 151.000 C 175.136 152.320,177.360 155.560,179.160 158.200 C 182.008 162.375,184.513 166.023,193.037 178.400 C 198.395 186.179,205.095 195.931,207.741 199.800 C 209.396 202.220,212.115 206.180,213.783 208.600 C 215.451 211.020,218.106 214.890,219.684 217.200 C 221.261 219.510,223.496 222.750,224.650 224.400 C 225.803 226.050,228.839 230.460,231.396 234.200 C 233.954 237.940,237.169 242.620,238.542 244.600 C 239.915 246.580,242.885 250.900,245.142 254.200 C 247.399 257.500,250.609 262.180,252.275 264.600 C 258.732 273.978,260.375 276.370,263.775 281.335 L 267.290 286.469 266.660 287.935 C 266.314 288.741,265.836 290.165,265.600 291.100 C 265.043 293.298,264.915 293.260,262.925 290.295 C 262.004 288.923,258.987 284.470,256.220 280.400 C 253.454 276.330,249.418 270.390,247.252 267.200 C 245.086 264.010,241.410 258.610,239.083 255.200 C 236.756 251.790,232.779 245.940,230.246 242.200 C 226.088 236.062,222.814 231.247,214.467 219.000 C 212.968 216.800,209.359 211.490,206.446 207.200 C 203.534 202.910,199.313 196.700,197.066 193.400 C 194.819 190.100,190.476 183.710,187.416 179.200 C 184.355 174.690,180.799 169.470,179.514 167.600 C 178.229 165.730,174.922 160.870,172.165 156.800 C 165.927 147.589,158.582 136.787,153.398 129.200 C 151.218 126.010,148.077 121.397,146.418 118.949 C 140.859 110.749,133.197 99.464,128.256 92.200 C 125.563 88.240,121.403 82.120,119.012 78.600 C 116.620 75.080,113.487 70.490,112.048 68.400 C 110.610 66.310,108.075 62.600,106.416 60.157 C 104.757 57.713,101.641 53.123,99.492 49.957 C 95.865 44.614,93.489 41.366,94.269 42.815 C 94.616 43.459,97.833 48.265,105.103 59.000 C 107.487 62.520,113.015 70.710,117.388 77.200 C 128.630 93.886,135.441 103.979,140.601 111.600 C 143.059 115.230,147.919 122.430,151.402 127.600 C 158.443 138.053,167.433 151.390,175.400 163.200 C 178.294 167.490,183.693 175.500,187.399 181.000 C 191.104 186.500,196.146 193.970,198.604 197.600 C 201.061 201.230,206.402 209.150,210.473 215.200 C 214.544 221.250,219.643 228.810,221.804 232.000 C 223.965 235.190,228.701 242.210,232.328 247.600 C 239.430 258.153,248.108 271.025,256.733 283.800 C 259.703 288.200,262.466 292.232,262.872 292.761 C 263.860 294.046,263.837 294.054,259.824 293.745 L 256.328 293.476 241.627 271.438 C 217.368 235.071,104.674 66.209,93.178 49.000 C 80.245 29.640,78.400 26.167,78.400 21.171 C 78.400 18.958,78.633 18.879,81.200 20.226 M322.000 20.940 C 322.000 26.091,320.089 29.505,302.134 56.439 C 241.315 147.668,208.740 196.390,208.440 196.575 C 208.248 196.694,207.423 195.820,206.606 194.634 L 205.121 192.478 211.023 183.739 C 214.270 178.933,219.836 170.680,223.393 165.400 C 226.949 160.120,231.930 152.740,234.462 149.000 C 236.994 145.260,241.913 137.970,245.394 132.800 C 248.875 127.630,254.096 119.890,256.996 115.600 C 268.606 98.424,273.352 91.392,279.401 82.400 C 282.878 77.230,288.278 69.220,291.399 64.600 C 307.167 41.260,306.942 41.600,306.638 41.600 C 306.522 41.600,305.618 42.815,304.629 44.300 C 303.639 45.785,300.925 49.790,298.597 53.200 C 296.269 56.610,293.023 61.380,291.384 63.800 C 288.412 68.188,287.594 69.388,280.620 79.600 C 278.591 82.570,274.981 87.880,272.598 91.400 C 270.214 94.920,267.090 99.510,265.655 101.600 C 262.991 105.479,261.045 108.339,254.377 118.169 C 246.563 129.689,244.462 132.779,239.945 139.400 C 229.962 154.030,228.595 156.041,223.758 163.200 C 221.009 167.270,216.917 173.300,214.666 176.600 C 212.414 179.900,209.259 184.535,207.655 186.900 C 204.261 191.902,204.576 191.750,202.850 189.218 C 201.178 186.765,200.854 187.392,212.052 171.400 C 212.822 170.300,214.744 167.510,216.323 165.200 C 217.902 162.890,219.759 160.190,220.449 159.200 C 221.139 158.210,223.241 155.150,225.122 152.400 C 227.002 149.650,229.284 146.320,230.193 145.000 C 231.102 143.680,233.387 140.350,235.271 137.600 C 237.155 134.850,239.265 131.790,239.959 130.800 C 240.653 129.810,242.014 127.830,242.982 126.400 C 243.951 124.970,246.729 120.920,249.156 117.400 C 251.582 113.880,255.297 108.480,257.410 105.400 C 264.511 95.049,271.390 85.061,273.801 81.600 C 274.490 80.610,276.782 77.273,278.893 74.184 C 282.440 68.996,286.111 63.652,296.198 49.000 C 298.319 45.920,301.468 41.330,303.198 38.800 C 310.137 28.647,311.116 27.344,314.076 24.324 C 318.613 19.695,322.000 18.248,322.000 20.940 M313.639 31.024 C 313.177 31.807,312.980 32.336,313.202 32.199 C 313.636 31.931,314.934 29.600,314.650 29.600 C 314.556 29.600,314.101 30.241,313.639 31.024 M308.988 37.900 C 308.138 39.165,307.276 40.425,307.072 40.700 C 306.869 40.975,306.812 41.200,306.946 41.200 C 307.170 41.200,308.250 39.693,310.137 36.750 C 311.499 34.625,310.550 35.575,308.988 37.900 M92.042 39.568 C 92.960 40.906,93.787 42.000,93.879 42.000 C 94.074 42.000,93.847 41.614,92.295 39.310 C 91.670 38.381,90.981 37.512,90.766 37.379 C 90.550 37.245,91.125 38.231,92.042 39.568 M193.665 203.033 L 195.103 205.265 191.688 210.333 C 187.378 216.728,181.556 225.311,177.668 231.000 C 170.789 241.068,168.717 244.111,164.594 250.200 C 162.210 253.720,158.791 258.760,156.995 261.400 C 155.200 264.040,152.143 268.540,150.203 271.400 C 148.263 274.260,145.383 278.490,143.804 280.800 C 142.225 283.110,139.792 286.674,138.396 288.720 C 135.665 292.725,135.283 293.134,135.029 292.325 C 134.938 292.036,134.478 290.558,134.007 289.039 L 133.150 286.279 137.000 280.639 C 142.881 272.025,147.440 265.376,150.212 261.369 C 155.060 254.364,157.674 250.566,160.239 246.800 C 163.206 242.444,168.498 234.738,172.326 229.200 C 173.771 227.110,175.877 224.050,177.007 222.400 C 178.953 219.558,181.602 215.706,186.911 208.000 C 188.199 206.130,189.823 203.745,190.520 202.700 C 192.083 200.356,191.931 200.340,193.665 203.033 M198.205 209.862 L 198.885 211.124 171.411 252.306 L 143.936 293.487 140.508 293.750 C 138.623 293.895,137.024 293.958,136.956 293.889 C 136.840 293.773,140.172 288.769,153.528 269.000 C 156.501 264.600,162.263 256.050,166.333 250.000 C 170.403 243.950,175.383 236.570,177.399 233.600 C 179.415 230.630,184.369 223.288,188.406 217.286 L 195.747 206.371 196.636 207.486 C 197.125 208.098,197.831 209.168,198.205 209.862 M122.146 282.952 C 122.872 283.255,123.864 284.010,124.351 284.629 C 125.065 285.536,125.569 285.760,126.950 285.786 C 130.353 285.850,133.676 290.311,132.268 292.925 C 130.423 296.351,135.617 300.081,137.889 296.963 C 138.684 295.872,139.243 295.768,142.518 296.100 C 144.707 296.322,146.138 297.419,146.866 299.432 C 147.207 300.376,147.648 300.790,148.493 300.959 C 150.131 301.286,152.003 303.273,151.989 304.669 C 151.944 309.171,147.518 314.111,145.600 311.800 C 145.326 311.470,144.603 311.200,143.992 311.200 C 142.979 311.200,140.406 308.971,140.397 308.086 C 140.391 307.449,137.667 306.000,136.475 306.000 C 134.984 306.000,134.900 305.580,136.026 303.758 C 137.486 301.395,136.999 299.860,134.744 299.715 C 132.684 299.583,132.068 300.193,132.989 301.453 C 133.498 302.149,133.560 302.138,134.307 301.216 C 135.081 300.260,135.096 300.258,135.526 301.062 C 136.692 303.241,132.880 304.645,131.289 302.623 C 130.867 302.085,130.037 301.524,129.446 301.376 C 127.201 300.812,126.606 296.800,128.768 296.800 C 129.744 296.800,130.279 297.581,129.593 298.004 C 128.960 298.395,129.372 299.600,130.138 299.600 C 131.134 299.600,131.823 298.429,131.276 297.666 C 131.013 297.300,130.621 296.591,130.405 296.091 C 130.086 295.352,128.031 295.089,127.784 295.756 C 127.563 296.354,125.442 298.800,125.145 298.800 C 124.917 298.800,124.539 298.294,124.306 297.675 C 123.779 296.278,121.891 295.010,119.850 294.683 C 118.235 294.424,116.800 293.433,116.800 292.578 C 116.800 292.303,116.163 291.703,115.384 291.243 C 114.177 290.531,114.029 290.293,114.384 289.630 C 114.613 289.203,114.800 288.377,114.800 287.796 C 114.800 287.142,115.201 286.408,115.852 285.870 C 116.431 285.391,117.376 284.528,117.952 283.951 C 119.579 282.323,120.255 282.162,122.146 282.952 M280.749 282.800 C 280.905 282.800,281.828 283.520,282.800 284.400 C 283.772 285.280,284.696 286.000,284.852 286.000 C 285.009 286.000,285.241 286.540,285.368 287.200 C 285.496 287.860,285.702 288.929,285.827 289.576 C 286.021 290.584,285.882 290.841,284.855 291.372 C 284.196 291.712,283.541 292.355,283.400 292.800 C 283.111 293.710,281.265 294.800,280.012 294.800 C 278.734 294.800,276.000 296.695,276.000 297.581 C 276.000 299.064,275.091 298.948,273.636 297.279 C 271.966 295.364,270.000 294.622,270.000 295.908 C 270.000 296.345,269.730 296.926,269.400 297.200 C 269.070 297.474,268.800 297.924,268.800 298.200 C 268.800 299.147,269.927 299.758,270.617 299.186 C 271.045 298.831,271.106 298.546,270.817 298.257 C 270.099 297.539,270.361 296.800,271.332 296.800 C 273.764 296.800,273.422 300.199,270.879 301.306 C 270.285 301.565,269.404 302.187,268.919 302.688 C 267.022 304.652,263.118 303.027,264.816 300.981 C 265.299 300.399,265.417 300.426,266.053 301.269 C 266.848 302.321,267.786 301.860,267.532 300.542 C 267.418 299.951,267.006 299.793,265.512 299.765 C 263.043 299.720,262.580 301.034,264.175 303.561 C 265.534 305.713,265.476 306.000,263.678 306.000 C 262.091 306.000,260.301 307.338,258.684 309.733 C 258.290 310.316,257.480 310.896,256.884 311.023 C 256.288 311.149,255.322 311.511,254.738 311.826 C 253.482 312.505,252.937 312.543,252.283 311.996 C 252.017 311.773,251.327 311.237,250.748 310.804 C 246.907 307.931,248.154 300.811,252.500 300.801 C 252.885 300.801,253.200 300.602,253.200 300.360 C 253.200 296.755,260.427 294.101,262.499 296.946 C 264.219 299.307,268.859 297.275,268.249 294.428 C 267.530 291.069,267.520 290.751,268.105 290.084 C 268.435 289.708,268.820 289.023,268.960 288.563 C 269.466 286.895,271.110 285.818,273.259 285.747 C 274.877 285.693,275.394 285.496,275.910 284.740 C 276.896 283.295,278.800 282.302,279.933 282.641 C 280.226 282.728,280.593 282.800,280.749 282.800 M118.300 286.140 C 116.321 287.914,115.735 289.770,117.000 290.255 C 117.330 290.382,117.600 290.732,117.600 291.034 C 117.600 292.764,121.285 293.223,121.813 291.559 C 122.164 290.452,121.483 289.830,119.899 289.814 C 118.203 289.796,117.874 288.580,119.408 287.997 C 121.806 287.085,124.085 289.657,123.260 292.344 C 122.552 294.653,124.642 296.511,126.071 294.842 C 126.428 294.425,127.470 293.957,128.387 293.802 C 130.119 293.510,131.198 292.225,130.637 291.126 C 129.297 288.502,128.470 287.600,127.400 287.600 C 126.258 287.600,125.500 288.496,125.669 289.647 C 125.820 290.674,126.800 291.182,126.800 290.233 C 126.800 289.867,127.137 289.600,127.600 289.600 C 128.245 289.600,128.400 289.867,128.400 290.973 C 128.400 292.620,127.370 293.133,125.565 292.386 C 124.371 291.891,124.241 291.598,123.805 288.400 C 123.269 284.483,121.128 283.604,118.300 286.140 M278.101 285.014 C 277.235 285.621,276.656 287.168,276.198 290.103 C 275.920 291.879,274.513 293.015,273.047 292.648 C 271.956 292.374,271.468 291.445,271.825 290.321 C 272.086 289.499,273.473 289.502,273.300 290.324 C 273.150 291.038,274.277 290.898,274.557 290.167 C 275.662 287.289,272.196 286.656,270.634 289.450 C 269.016 292.346,269.334 293.343,272.038 293.851 C 272.787 293.992,273.807 294.477,274.305 294.928 L 275.210 295.749 276.305 294.918 C 277.406 294.083,277.442 293.919,276.965 291.897 C 276.241 288.821,280.207 286.197,281.612 288.823 C 282.092 289.719,281.532 290.159,280.377 289.793 C 278.779 289.285,277.825 290.968,279.029 292.171 C 280.240 293.383,284.000 290.871,284.000 288.850 C 284.000 286.721,279.677 283.910,278.101 285.014 M139.226 297.975 C 138.178 298.639,138.332 304.737,139.415 305.447 C 140.264 306.003,141.600 305.845,141.600 305.188 C 141.600 304.648,144.373 303.906,145.416 304.168 C 146.907 304.543,147.826 306.185,147.251 307.448 C 146.707 308.642,145.913 308.527,145.602 307.208 C 145.232 305.641,144.087 305.233,143.175 306.344 C 141.908 307.888,142.721 309.090,145.615 309.957 C 147.723 310.589,148.271 310.218,149.425 307.379 C 150.891 303.771,149.258 302.084,145.318 303.137 C 142.781 303.816,141.845 303.712,140.837 302.639 C 139.654 301.380,139.849 299.947,141.253 299.574 C 142.744 299.178,143.648 299.825,142.660 300.581 C 141.878 301.179,142.072 302.000,142.995 302.000 C 144.441 302.000,145.417 299.386,144.300 298.502 C 143.577 297.930,139.901 297.548,139.226 297.975 M258.400 297.866 C 255.718 298.289,255.600 298.367,255.600 299.728 C 255.600 301.668,256.629 302.475,257.998 301.610 C 258.511 301.285,258.482 301.148,257.798 300.643 C 257.221 300.217,257.121 299.931,257.435 299.612 C 257.976 299.062,259.977 299.735,260.047 300.490 C 260.237 302.527,259.081 303.735,257.208 303.458 C 252.052 302.695,251.832 302.700,250.900 303.581 C 249.969 304.461,249.740 305.559,250.352 306.220 C 250.545 306.429,250.914 307.261,251.172 308.068 C 252.176 311.212,257.600 310.638,257.600 307.387 C 257.600 305.410,255.215 305.111,254.861 307.043 C 254.544 308.774,252.800 308.512,252.800 306.733 C 252.800 304.226,256.212 303.350,258.730 305.211 C 260.830 306.764,261.841 305.622,261.751 301.801 C 261.656 297.805,261.317 297.407,258.400 297.866 M126.454 301.400 C 127.130 302.170,127.957 302.800,128.293 302.800 C 128.629 302.800,129.600 303.430,130.453 304.200 C 131.305 304.970,132.351 305.600,132.778 305.600 C 134.000 305.600,134.043 306.151,132.948 307.763 C 131.743 309.536,131.886 309.571,127.152 306.323 C 122.905 303.410,122.852 303.325,124.072 301.443 C 125.196 299.707,124.970 299.711,126.454 301.400 M277.189 303.061 C 277.200 303.516,269.169 309.205,268.530 309.195 C 268.007 309.187,266.347 306.410,266.610 305.984 C 266.740 305.773,267.210 305.600,267.654 305.600 C 268.098 305.600,269.007 305.054,269.674 304.387 C 270.341 303.720,271.484 302.925,272.213 302.621 C 272.941 302.316,273.855 301.582,274.244 300.990 L 274.949 299.913 276.064 301.256 C 276.677 301.995,277.183 302.808,277.189 303.061 M283.137 311.797 C 285.041 313.995,286.938 316.155,287.351 316.597 C 288.703 318.042,295.388 326.562,296.457 328.200 C 299.374 332.674,310.800 353.791,310.800 354.708 C 310.800 354.882,309.234 356.081,307.320 357.373 L 303.841 359.722 302.476 358.161 C 285.425 338.660,283.202 335.501,274.536 318.448 C 270.045 309.609,270.087 310.594,274.086 307.861 L 277.373 305.616 278.523 306.708 C 279.156 307.309,281.232 309.598,283.137 311.797 M126.500 308.034 C 130.260 310.495,130.296 309.507,126.153 317.745 C 123.043 323.931,122.080 325.758,119.487 330.400 C 116.298 336.109,109.571 344.752,98.324 357.590 L 96.449 359.731 93.024 357.405 C 88.938 354.630,89.018 355.384,92.164 349.222 C 100.850 332.208,106.798 323.140,115.581 313.523 C 115.922 313.150,117.550 311.318,119.200 309.451 C 122.758 305.426,122.572 305.462,126.500 308.034 M92.100 358.969 C 95.513 361.311,96.000 361.790,96.000 362.799 C 96.000 364.692,95.490 364.545,90.468 361.212 C 84.951 357.552,84.877 357.474,86.093 356.612 C 87.301 355.756,87.575 355.863,92.100 358.969 M314.026 356.414 C 315.413 357.156,314.866 357.810,310.259 360.917 C 304.644 364.704,304.571 364.734,304.232 363.386 C 303.883 361.994,304.187 361.671,308.750 358.590 C 312.891 355.794,312.878 355.799,314.026 356.414 M89.600 362.721 C 94.763 366.246,94.533 365.970,93.592 367.517 C 92.159 369.874,88.619 370.473,88.316 368.409 C 88.220 367.754,88.265 367.019,88.416 366.774 C 88.809 366.138,90.599 366.485,90.608 367.200 C 90.621 368.235,92.180 368.349,92.566 367.344 C 93.214 365.656,90.712 363.997,88.684 364.768 C 87.664 365.156,87.600 365.114,87.600 364.049 C 87.600 361.829,84.800 359.954,83.616 361.381 C 82.998 362.125,83.475 363.885,84.120 363.240 C 84.750 362.610,85.114 362.693,85.584 363.571 C 86.286 364.882,85.680 365.657,84.058 365.521 C 82.005 365.348,81.441 362.608,83.030 360.525 C 84.226 358.957,83.951 358.865,89.600 362.721 M317.173 360.362 C 318.005 361.531,318.199 363.016,317.742 364.721 C 317.400 365.998,314.667 365.867,314.481 364.565 C 314.320 363.442,315.399 362.535,316.152 363.160 C 316.842 363.732,317.326 361.886,316.661 361.221 C 315.416 359.976,312.800 361.876,312.800 364.025 C 312.800 365.073,312.682 365.235,312.100 364.986 C 309.774 363.991,307.406 365.035,307.677 366.937 C 307.845 368.115,309.419 368.335,309.710 367.221 C 310.067 365.857,312.002 366.094,311.994 367.500 C 311.979 370.226,308.636 370.401,306.835 367.770 C 305.658 366.051,305.470 366.278,311.400 362.243 C 316.532 358.751,316.121 358.885,317.173 360.362 M86.413 367.834 C 86.901 369.118,86.626 369.600,85.403 369.600 C 84.128 369.600,83.607 368.077,84.627 367.330 C 85.660 366.576,85.968 366.662,86.413 367.834 M315.324 367.171 C 316.803 367.734,316.365 369.600,314.753 369.600 C 313.569 369.600,313.277 368.906,313.843 367.433 C 314.128 366.689,314.078 366.697,315.324 367.171 M82.400 368.580 C 82.400 369.119,82.102 369.727,81.738 369.931 C 81.165 370.251,81.232 370.400,82.238 371.045 C 82.877 371.455,83.638 372.017,83.929 372.295 C 84.649 372.984,85.628 372.940,85.356 372.231 C 85.087 371.530,86.448 370.735,87.161 371.176 C 87.561 371.423,87.429 371.876,86.587 373.148 C 85.471 374.835,85.037 375.108,84.600 374.400 C 84.464 374.180,83.724 374.000,82.956 374.000 C 81.763 374.000,81.497 373.824,81.140 372.800 C 80.910 372.140,80.554 371.600,80.348 371.600 C 79.473 371.600,79.588 370.292,80.576 368.996 C 81.828 367.354,82.400 367.224,82.400 368.580 M319.906 369.199 C 320.800 370.518,320.802 370.547,320.046 371.368 C 319.625 371.826,319.215 372.560,319.135 373.000 C 319.027 373.595,318.580 373.855,317.395 374.014 C 316.518 374.132,315.581 374.363,315.314 374.529 C 314.665 374.931,312.570 371.670,313.123 371.117 C 313.683 370.557,315.321 371.508,315.044 372.231 C 314.721 373.072,315.765 372.922,316.591 372.009 C 316.985 371.575,317.439 371.300,317.600 371.400 C 317.761 371.500,318.200 371.242,318.576 370.827 C 319.223 370.112,319.215 370.059,318.429 369.809 C 317.549 369.530,317.450 369.257,317.849 368.216 C 318.194 367.317,318.840 367.626,319.906 369.199 M78.614 371.778 C 79.193 372.357,79.495 373.009,79.353 373.378 C 79.069 374.117,77.954 374.194,77.280 373.520 C 76.370 372.610,75.776 373.799,76.550 374.979 C 77.077 375.785,77.548 376.000,78.777 376.000 C 80.175 376.000,80.363 376.121,80.593 377.170 C 80.880 378.475,82.659 379.398,83.642 378.752 C 84.104 378.448,84.073 378.288,83.465 377.823 C 82.525 377.104,82.755 375.836,83.854 375.679 C 85.041 375.509,86.000 376.621,86.000 378.167 C 86.000 380.458,84.183 381.489,79.510 381.848 L 76.149 382.107 75.499 380.353 C 73.686 375.466,73.678 373.026,75.469 371.617 C 76.818 370.556,77.423 370.587,78.614 371.778 M324.414 371.407 C 326.347 372.407,326.509 376.212,324.790 380.222 L 323.980 382.113 320.718 381.841 C 318.924 381.692,316.875 381.294,316.165 380.957 C 313.681 379.778,313.417 376.362,315.764 375.773 C 317.572 375.320,318.513 377.256,316.755 377.814 C 316.021 378.047,315.986 378.157,316.486 378.658 C 317.350 379.522,319.136 378.703,319.659 377.202 C 320.002 376.218,320.301 376.000,321.308 376.000 C 322.717 376.000,324.000 375.018,324.000 373.938 C 324.000 373.146,323.405 372.944,323.000 373.600 C 322.679 374.119,321.319 374.117,320.998 373.596 C 320.450 372.711,321.637 371.162,323.120 370.827 C 323.186 370.812,323.768 371.073,324.414 371.407 M77.276 378.723 C 77.381 379.637,77.574 379.788,78.549 379.718 C 80.065 379.610,80.261 379.351,79.480 378.489 C 78.403 377.299,77.127 377.434,77.276 378.723 M320.859 378.454 C 320.415 379.166,320.415 379.364,320.863 379.647 C 322.137 380.455,323.162 379.686,323.195 377.900 C 323.207 377.223,321.353 377.662,320.859 378.454 " stroke="none" fill="#150e0e" fill-rule="evenodd"></path></g></svg>