<svg id="svg" version="1.1" xmlns="http://www.w3.org/2000/svg" xmlns:xlink="http://www.w3.org/1999/xlink" width="400" height="400" viewBox="0, 0, 400,400"><g id="svgg"><path id="path0" d="M125.239 33.243 C 108.604 36.748,96.099 48.621,91.325 65.442 L 90.201 69.400 90.095 172.587 L 89.988 275.774 88.694 277.179 C 87.872 278.071,88.222 277.857,89.657 276.591 C 90.898 275.496,91.933 274.397,91.957 274.149 C 91.981 273.901,92.264 273.479,92.587 273.211 C 92.910 272.943,93.818 271.366,94.606 269.707 C 95.393 268.048,96.814 265.680,97.763 264.445 C 98.711 263.210,100.019 261.120,100.669 259.800 C 101.509 258.092,102.348 257.065,103.578 256.237 C 104.530 255.598,105.394 254.743,105.500 254.337 C 105.607 253.932,106.027 253.600,106.434 253.600 C 107.076 253.600,110.000 249.765,110.000 248.924 C 110.000 248.780,110.257 248.379,110.572 248.031 C 111.117 247.428,113.793 242.758,115.919 238.700 C 116.466 237.655,117.065 236.800,117.251 236.800 C 117.718 236.800,120.000 232.197,120.000 231.255 C 120.000 230.763,119.629 230.394,118.971 230.228 C 117.704 229.910,116.468 227.335,116.125 224.300 C 115.797 221.389,115.056 220.089,113.495 219.684 L 112.200 219.348 112.337 215.774 C 112.413 213.808,112.634 211.390,112.830 210.400 C 114.451 202.181,115.009 200.942,118.902 196.924 L 121.689 194.048 120.890 192.924 C 119.038 190.320,118.134 181.860,119.373 178.737 C 122.936 169.753,135.519 171.899,135.625 181.508 C 135.647 183.450,135.712 183.647,136.051 182.800 C 137.329 179.602,141.195 156.259,141.198 151.719 C 141.200 148.843,141.704 147.494,143.044 146.776 C 143.858 146.341,144.001 145.962,144.007 144.232 C 144.011 143.115,144.278 136.440,144.600 129.400 C 144.922 122.360,145.472 109.670,145.820 101.200 C 146.530 83.980,146.404 84.560,149.348 84.938 C 151.642 85.233,151.593 84.714,150.800 100.200 C 150.395 108.120,149.949 117.930,149.809 122.000 C 149.670 126.070,149.387 131.920,149.182 135.000 C 148.515 144.987,148.619 146.968,149.845 147.624 C 152.356 148.968,152.231 152.574,149.577 155.400 L 148.449 156.600 147.796 177.200 C 146.626 214.151,146.604 215.919,147.305 216.705 C 148.948 218.546,149.055 222.973,147.497 224.683 C 146.719 225.536,146.716 225.614,147.385 227.025 C 147.766 227.827,147.993 228.922,147.891 229.459 C 147.743 230.234,147.955 230.563,148.928 231.066 C 150.328 231.790,151.401 230.965,151.816 228.849 C 151.929 228.272,152.466 226.945,153.011 225.900 C 154.297 223.430,154.267 222.676,152.862 222.146 C 149.750 220.971,150.568 211.779,153.995 209.404 C 155.430 208.409,155.518 208.241,155.122 207.262 C 154.692 206.197,154.612 198.022,155.020 196.737 C 155.356 195.678,158.401 194.400,160.591 194.400 C 165.210 194.400,167.995 197.864,167.173 202.585 C 166.596 205.898,166.661 205.953,169.197 204.328 L 171.271 203.000 171.084 195.364 C 170.961 190.342,171.044 187.466,171.325 186.964 C 171.754 186.198,172.281 169.894,172.400 153.707 L 172.460 145.614 174.047 145.139 C 177.021 144.248,177.163 144.908,176.600 157.000 C 175.686 176.600,175.532 186.062,176.114 186.724 C 177.620 188.436,181.464 197.481,181.858 200.240 C 182.121 202.081,181.822 202.801,179.535 205.836 C 178.217 207.585,178.000 208.164,178.000 209.936 C 178.000 211.879,177.940 212.000,176.986 212.000 C 175.919 212.000,174.133 212.971,173.318 213.994 C 172.614 214.877,172.044 217.980,171.633 223.160 L 171.271 227.720 172.443 228.960 C 173.087 229.642,174.106 231.503,174.707 233.096 C 175.308 234.688,175.913 235.993,176.051 235.996 C 176.452 236.003,178.363 231.953,178.792 230.189 C 179.007 229.303,179.907 227.378,180.791 225.911 C 182.562 222.975,182.863 221.076,181.659 220.431 C 179.996 219.541,179.813 212.095,181.333 207.196 C 182.510 203.404,183.315 202.003,184.323 201.994 C 185.929 201.979,186.170 201.371,185.261 199.627 C 184.040 197.285,183.991 190.227,185.185 188.710 C 187.214 186.130,192.369 185.200,196.282 186.707 C 197.548 187.195,198.417 187.349,198.500 187.101 C 198.718 186.447,198.036 180.698,197.610 179.600 C 196.722 177.309,197.350 166.798,198.522 164.325 C 199.772 161.686,199.808 160.917,198.996 154.083 C 198.664 151.288,198.132 145.940,197.813 142.200 C 196.787 130.139,195.628 117.882,195.209 114.636 C 194.296 107.577,194.667 106.000,197.237 106.000 C 199.079 106.000,198.996 105.697,199.783 115.406 C 200.122 119.583,200.669 125.790,201.000 129.200 C 201.331 132.610,201.875 138.820,202.210 143.000 C 203.324 156.888,203.816 160.733,204.589 161.588 C 205.600 162.705,206.113 165.847,205.558 167.528 C 205.226 168.532,205.225 170.214,205.553 173.944 C 205.797 176.725,206.189 181.340,206.423 184.200 C 206.829 189.160,206.913 189.493,208.234 191.417 C 210.121 194.166,210.650 196.158,209.827 197.415 C 209.310 198.203,209.196 199.835,209.180 206.686 C 209.168 211.259,209.008 216.968,208.822 219.373 L 208.486 223.745 210.099 225.295 C 211.676 226.810,211.702 226.881,211.256 228.369 C 210.536 230.776,210.675 231.408,212.844 235.572 C 215.378 240.435,215.778 243.281,215.395 253.700 C 215.251 257.605,215.216 260.800,215.317 260.800 C 216.403 260.800,223.589 249.175,223.609 247.386 C 223.614 246.954,223.963 245.839,224.385 244.909 C 226.072 241.193,225.137 234.618,222.578 232.205 L 221.076 230.789 221.322 224.695 C 221.736 214.404,222.007 213.719,226.922 210.510 C 228.419 209.532,229.580 208.613,229.502 208.466 C 227.496 204.712,227.116 203.262,226.810 198.203 C 226.636 195.341,226.370 192.701,226.218 192.336 C 225.180 189.841,231.474 185.729,236.968 185.314 C 240.589 185.040,243.314 185.854,245.163 187.762 C 248.442 191.144,251.385 188.984,252.023 182.728 C 252.232 180.678,252.660 177.470,252.974 175.600 C 254.059 169.139,254.167 161.795,253.225 158.601 C 252.191 155.094,252.192 155.066,253.400 153.762 C 254.391 152.693,254.400 152.615,254.395 145.442 C 254.392 141.459,254.582 131.000,254.817 122.200 C 255.052 113.400,255.370 99.938,255.522 92.285 C 255.828 76.952,255.699 77.612,258.400 77.612 C 261.038 77.612,260.915 76.497,260.438 96.046 C 259.976 115.000,259.400 145.069,259.400 150.248 C 259.400 153.070,259.481 153.401,260.200 153.534 C 262.503 153.961,262.602 154.655,261.358 161.600 C 260.889 164.221,260.806 166.605,260.996 172.000 C 261.196 177.687,261.107 179.863,260.521 183.600 C 259.563 189.714,259.631 216.000,260.606 216.000 C 262.569 216.000,262.873 223.130,260.998 225.202 C 260.373 225.893,260.319 226.868,260.452 235.084 L 260.600 244.200 258.400 244.304 C 255.391 244.446,255.226 244.262,254.932 240.453 C 254.633 236.573,253.899 236.581,253.930 240.465 C 253.943 242.143,254.281 243.879,254.932 245.600 L 255.914 248.200 260.343 248.851 C 272.006 250.566,272.759 251.595,273.630 267.000 C 273.866 271.180,274.278 275.860,274.546 277.400 L 275.034 280.200 277.983 280.076 C 281.914 279.911,285.175 278.282,284.442 276.850 C 283.824 275.643,283.571 258.093,284.057 250.166 C 284.480 243.271,284.461 242.404,283.862 241.205 C 282.881 239.237,282.960 234.813,284.000 233.491 C 286.633 230.144,284.623 225.431,279.931 223.951 C 276.640 222.912,276.727 223.987,279.029 212.791 C 281.138 202.530,281.548 201.652,285.202 199.560 C 287.613 198.179,288.104 197.316,287.000 196.400 C 286.250 195.778,286.241 194.879,286.965 193.145 C 287.433 192.026,287.440 191.669,287.007 191.077 C 286.475 190.350,286.477 190.341,287.881 185.400 C 288.499 183.227,292.230 180.972,295.931 180.534 L 297.813 180.311 297.663 178.655 C 297.581 177.745,297.256 176.708,296.941 176.351 C 295.792 175.048,295.423 168.000,296.504 168.000 C 296.758 168.000,296.807 166.876,296.637 164.900 C 296.491 163.195,296.023 156.940,295.598 151.000 C 294.175 131.105,293.200 118.234,292.797 114.000 C 292.362 109.432,292.479 109.097,294.703 108.539 C 297.308 107.884,297.692 109.015,298.387 119.400 C 298.593 122.480,298.950 127.430,299.180 130.400 C 299.411 133.370,299.879 140.030,300.221 145.200 C 301.772 168.645,301.522 166.459,302.805 167.800 C 303.437 168.460,304.530 170.233,305.233 171.739 C 306.129 173.658,307.534 175.572,309.925 178.134 C 314.123 182.630,315.432 184.650,316.027 187.551 C 316.281 188.788,316.937 191.870,317.486 194.400 C 318.654 199.783,318.583 201.980,317.028 208.535 C 315.828 213.595,315.687 218.896,316.572 225.595 C 316.917 228.206,316.989 230.047,316.763 230.469 C 316.270 231.391,316.304 232.800,316.820 232.800 C 319.407 232.800,318.692 242.001,315.724 246.913 C 314.196 249.442,314.197 249.428,315.161 256.400 C 315.619 259.711,315.905 260.790,317.155 263.915 C 318.328 266.851,318.244 267.851,316.700 269.294 L 315.400 270.510 315.541 274.597 C 315.680 278.605,315.665 278.690,314.741 278.937 C 313.097 279.377,309.438 279.215,308.363 278.654 C 307.792 278.356,306.680 277.992,305.891 277.844 C 303.005 277.302,301.311 274.762,302.604 272.916 C 303.160 272.122,303.129 271.964,302.217 270.927 L 301.225 269.800 301.213 271.696 C 301.196 274.168,300.041 277.143,298.094 279.726 C 296.656 281.634,296.510 282.065,296.278 285.103 C 295.839 290.831,294.093 291.459,285.400 289.012 C 284.300 288.703,281.870 288.183,280.000 287.857 C 278.130 287.531,276.309 287.149,275.953 287.009 C 275.495 286.829,275.064 287.164,274.479 288.156 C 274.024 288.927,272.921 289.930,272.026 290.387 C 270.185 291.326,270.067 291.600,271.200 292.307 C 273.441 293.707,272.224 297.551,268.179 301.851 C 266.582 303.549,260.174 302.914,259.365 300.977 C 258.468 298.832,258.619 295.000,259.636 294.052 C 260.750 293.014,260.480 291.969,258.959 291.435 C 256.038 290.410,255.761 289.982,256.308 287.333 C 256.846 284.730,256.976 278.710,256.505 278.238 C 256.343 278.076,255.821 276.741,255.345 275.272 L 254.479 272.600 252.540 272.545 C 251.473 272.514,248.761 272.263,246.514 271.987 C 239.768 271.159,236.262 272.215,234.023 275.751 C 233.603 276.415,232.195 277.777,230.893 278.779 C 229.592 279.780,225.843 282.763,222.563 285.406 C 219.284 288.049,215.250 291.089,213.600 292.162 C 199.139 301.566,191.305 305.771,186.780 306.557 C 183.087 307.197,181.806 308.118,179.379 311.879 C 176.844 315.807,174.659 316.012,169.910 312.770 C 168.644 311.907,167.363 311.200,167.063 311.200 C 164.933 311.200,163.761 307.814,165.100 305.529 C 165.869 304.217,170.161 301.600,171.544 301.600 C 172.021 301.600,172.755 301.385,173.176 301.122 C 173.765 300.754,174.179 300.753,174.976 301.116 C 176.291 301.716,177.600 300.589,177.600 298.858 C 177.600 297.538,183.943 291.213,186.669 289.815 C 188.378 288.939,189.754 287.745,197.730 280.218 C 200.771 277.348,203.669 274.820,204.169 274.600 C 204.668 274.380,205.856 273.390,206.808 272.400 L 208.538 270.600 207.270 270.475 C 205.233 270.274,203.888 268.186,204.062 265.495 C 204.168 263.864,204.012 263.088,203.400 262.183 C 202.684 261.123,202.612 260.451,202.714 255.744 C 202.838 250.043,201.884 246.380,200.139 245.857 C 197.625 245.104,194.332 245.405,193.564 246.460 C 193.142 247.039,191.545 248.524,190.015 249.760 C 188.485 250.996,186.677 252.816,185.997 253.804 C 185.318 254.792,184.545 255.604,184.281 255.610 C 184.016 255.615,182.360 257.444,180.601 259.674 C 174.721 267.126,169.286 271.600,166.111 271.600 C 165.830 271.600,165.600 272.022,165.600 272.538 C 165.600 273.376,164.526 274.800,163.895 274.800 C 163.761 274.800,163.175 274.981,162.593 275.203 L 161.533 275.605 162.567 276.833 C 165.230 279.998,161.547 283.983,155.949 283.994 C 152.097 284.002,151.870 283.759,151.763 279.514 C 151.718 277.745,151.498 276.184,151.274 276.046 C 150.795 275.750,148.799 268.864,148.803 267.522 C 148.804 267.015,148.452 264.980,148.021 263.000 C 147.589 261.020,147.093 258.513,146.918 257.428 C 146.620 255.582,146.557 255.499,145.929 256.128 C 145.559 256.498,144.673 256.800,143.960 256.800 C 143.247 256.800,142.365 257.070,142.001 257.399 C 140.733 258.547,131.232 257.324,130.428 255.909 C 129.590 254.436,130.057 254.017,124.200 261.495 C 121.340 265.146,118.087 269.138,116.972 270.366 C 115.857 271.595,113.717 274.400,112.218 276.600 C 109.000 281.322,107.997 282.460,106.202 283.427 C 105.467 283.823,104.468 284.853,103.983 285.716 C 101.562 290.023,97.470 292.510,95.707 290.747 C 94.884 289.924,94.163 290.684,93.498 293.078 C 92.796 295.603,91.503 297.600,90.571 297.600 C 89.748 297.600,89.766 315.622,90.593 320.200 C 92.974 333.380,101.354 345.956,111.543 351.641 C 112.345 352.087,113.720 352.888,114.600 353.419 C 115.480 353.950,116.650 354.609,117.200 354.884 C 117.750 355.159,118.290 355.484,118.400 355.605 C 118.898 356.158,125.314 358.777,125.654 358.567 C 125.863 358.437,126.279 358.533,126.577 358.781 C 127.224 359.318,127.767 359.435,133.170 360.206 C 138.257 360.931,277.843 361.109,284.716 360.399 C 299.624 358.859,312.273 350.243,318.481 337.400 C 319.790 334.692,322.204 326.712,322.414 324.400 C 322.787 320.276,322.749 264.216,322.373 263.983 C 322.021 263.766,322.018 263.357,322.362 262.315 C 323.045 260.245,322.840 85.216,322.146 77.200 C 320.161 54.299,308.444 39.141,288.510 33.686 L 284.600 32.616 206.800 32.533 C 130.614 32.453,128.922 32.467,125.239 33.243 M258.286 79.061 C 259.115 79.240,259.181 79.503,259.307 83.126 L 259.442 87.000 259.421 83.000 C 259.400 79.024,259.394 79.000,258.400 78.934 C 257.546 78.878,257.529 78.897,258.286 79.061 M256.960 90.200 C 256.961 93.500,257.022 94.797,257.098 93.082 C 257.173 91.367,257.172 88.667,257.097 87.082 C 257.021 85.497,256.959 86.900,256.960 90.200 M147.709 88.800 C 147.709 89.790,147.787 90.195,147.882 89.700 C 147.978 89.205,147.978 88.395,147.882 87.900 C 147.787 87.405,147.709 87.810,147.709 88.800 M149.701 91.400 C 149.705 92.280,149.787 92.593,149.883 92.095 C 149.979 91.598,149.975 90.878,149.875 90.495 C 149.775 90.113,149.696 90.520,149.701 91.400 M258.960 99.400 C 258.961 102.700,259.022 103.997,259.098 102.282 C 259.173 100.567,259.172 97.867,259.097 96.282 C 259.021 94.697,258.959 96.100,258.960 99.400 M147.309 98.400 C 147.309 99.390,147.387 99.795,147.482 99.300 C 147.578 98.805,147.578 97.995,147.482 97.500 C 147.387 97.005,147.309 97.410,147.309 98.400 M149.324 101.000 C 149.326 102.320,149.401 102.812,149.490 102.093 C 149.579 101.374,149.577 100.294,149.486 99.693 C 149.395 99.092,149.322 99.680,149.324 101.000 M256.542 104.600 C 256.541 106.580,256.608 107.440,256.692 106.512 C 256.776 105.584,256.777 103.964,256.695 102.912 C 256.612 101.860,256.543 102.620,256.542 104.600 M146.940 106.400 C 146.940 108.270,147.009 109.035,147.093 108.100 C 147.177 107.165,147.177 105.635,147.093 104.700 C 147.009 103.765,146.940 104.530,146.940 106.400 M148.934 108.400 C 148.934 110.050,149.005 110.725,149.091 109.900 C 149.178 109.075,149.178 107.725,149.091 106.900 C 149.005 106.075,148.934 106.750,148.934 108.400 M258.540 114.000 C 258.540 115.870,258.609 116.635,258.693 115.700 C 258.777 114.765,258.777 113.235,258.693 112.300 C 258.609 111.365,258.540 112.130,258.540 114.000 M146.534 114.800 C 146.534 116.450,146.605 117.125,146.691 116.300 C 146.778 115.475,146.778 114.125,146.691 113.300 C 146.605 112.475,146.534 113.150,146.534 114.800 M148.509 115.600 C 148.509 116.590,148.587 116.995,148.682 116.500 C 148.778 116.005,148.778 115.195,148.682 114.700 C 148.587 114.205,148.509 114.610,148.509 115.600 M296.493 116.000 C 296.493 116.770,296.575 117.085,296.676 116.700 C 296.776 116.315,296.776 115.685,296.676 115.300 C 296.575 114.915,296.493 115.230,296.493 116.000 M196.901 118.600 C 196.905 119.480,196.987 119.793,197.083 119.295 C 197.179 118.798,197.175 118.078,197.075 117.695 C 196.975 117.313,196.896 117.720,196.901 118.600 M294.501 119.400 C 294.505 120.280,294.587 120.593,294.683 120.095 C 294.779 119.598,294.775 118.878,294.675 118.495 C 294.575 118.113,294.496 118.520,294.501 119.400 M296.914 120.200 C 296.917 121.300,296.995 121.703,297.087 121.095 C 297.179 120.486,297.177 119.586,297.082 119.095 C 296.987 118.603,296.911 119.100,296.914 120.200 M256.140 123.200 C 256.140 125.070,256.209 125.835,256.293 124.900 C 256.377 123.965,256.377 122.435,256.293 121.500 C 256.209 120.565,256.140 121.330,256.140 123.200 M198.909 122.400 C 198.909 123.390,198.987 123.795,199.082 123.300 C 199.178 122.805,199.178 121.995,199.082 121.500 C 198.987 121.005,198.909 121.410,198.909 122.400 M294.920 123.600 C 294.920 124.810,294.995 125.305,295.087 124.700 C 295.178 124.095,295.178 123.105,295.087 122.500 C 294.995 121.895,294.920 122.390,294.920 123.600 M148.120 124.800 C 148.120 126.010,148.195 126.505,148.287 125.900 C 148.378 125.295,148.378 124.305,148.287 123.700 C 148.195 123.095,148.120 123.590,148.120 124.800 M146.101 125.400 C 146.105 126.280,146.187 126.593,146.283 126.095 C 146.379 125.598,146.375 124.878,146.275 124.495 C 146.175 124.113,146.096 124.520,146.101 125.400 M297.301 125.400 C 297.305 126.280,297.387 126.593,297.483 126.095 C 297.579 125.598,297.575 124.878,297.475 124.495 C 297.375 124.113,297.296 124.520,297.301 125.400 M258.144 132.400 C 258.144 134.490,258.212 135.345,258.294 134.300 C 258.376 133.255,258.376 131.545,258.294 130.500 C 258.212 129.455,258.144 130.310,258.144 132.400 M147.701 134.200 C 147.705 135.080,147.787 135.393,147.883 134.895 C 147.979 134.398,147.975 133.678,147.875 133.295 C 147.775 132.913,147.696 133.320,147.701 134.200 M145.709 136.800 C 145.709 137.790,145.787 138.195,145.882 137.700 C 145.978 137.205,145.978 136.395,145.882 135.900 C 145.787 135.405,145.709 135.810,145.709 136.800 M200.093 136.400 C 200.093 137.170,200.175 137.485,200.276 137.100 C 200.376 136.715,200.376 136.085,200.276 135.700 C 200.175 135.315,200.093 135.630,200.093 136.400 M298.101 137.800 C 298.105 138.680,298.187 138.993,298.283 138.495 C 298.379 137.998,298.375 137.278,298.275 136.895 C 298.175 136.513,298.096 136.920,298.101 137.800 M198.893 139.600 C 198.893 140.370,198.975 140.685,199.076 140.300 C 199.176 139.915,199.176 139.285,199.076 138.900 C 198.975 138.515,198.893 138.830,198.893 139.600 M147.331 143.800 C 147.333 145.340,147.405 145.921,147.492 145.091 C 147.579 144.261,147.577 143.001,147.489 142.291 C 147.400 141.581,147.329 142.260,147.331 143.800 M200.909 145.200 C 200.909 146.190,200.987 146.595,201.082 146.100 C 201.178 145.605,201.178 144.795,201.082 144.300 C 200.987 143.805,200.909 144.210,200.909 145.200 M255.737 147.000 C 255.739 148.760,255.809 149.430,255.893 148.489 C 255.978 147.549,255.977 146.109,255.891 145.289 C 255.805 144.470,255.736 145.240,255.737 147.000 M145.309 146.000 C 145.309 146.990,145.387 147.395,145.482 146.900 C 145.578 146.405,145.578 145.595,145.482 145.100 C 145.387 144.605,145.309 145.010,145.309 146.000 M296.493 146.000 C 296.493 146.770,296.575 147.085,296.676 146.700 C 296.776 146.315,296.776 145.685,296.676 145.300 C 296.575 144.915,296.493 145.230,296.493 146.000 M298.914 148.200 C 298.917 149.300,298.995 149.703,299.087 149.095 C 299.179 148.486,299.177 147.586,299.082 147.095 C 298.987 146.603,298.911 147.100,298.914 148.200 M142.826 148.569 C 142.552 148.899,142.417 149.950,142.505 151.069 L 142.656 153.000 142.728 150.980 C 142.768 149.869,143.016 148.744,143.280 148.480 C 143.544 148.216,143.656 148.000,143.529 148.000 C 143.402 148.000,143.085 148.256,142.826 148.569 M201.293 149.200 C 201.293 149.970,201.375 150.285,201.476 149.900 C 201.576 149.515,201.576 148.885,201.476 148.500 C 201.375 148.115,201.293 148.430,201.293 149.200 M296.914 149.800 C 296.917 150.900,296.995 151.303,297.087 150.695 C 297.179 150.086,297.177 149.186,297.082 148.695 C 296.987 148.203,296.911 148.700,296.914 149.800 M175.337 154.200 C 175.339 155.960,175.409 156.630,175.493 155.689 C 175.578 154.749,175.577 153.309,175.491 152.489 C 175.405 151.670,175.336 152.440,175.337 154.200 M257.700 153.300 C 257.780 154.336,257.984 154.611,258.706 154.653 C 259.413 154.695,259.440 154.667,258.830 154.528 C 258.346 154.418,257.962 153.902,257.823 153.175 C 257.611 152.058,257.605 152.064,257.700 153.300 M299.309 153.600 C 299.309 154.590,299.387 154.995,299.482 154.500 C 299.578 154.005,299.578 153.195,299.482 152.700 C 299.387 152.205,299.309 152.610,299.309 153.600 M173.737 157.800 C 173.739 159.560,173.809 160.230,173.893 159.289 C 173.978 158.349,173.977 156.909,173.891 156.089 C 173.805 155.270,173.736 156.040,173.737 157.800 M146.946 160.200 C 146.947 162.400,147.014 163.249,147.095 162.087 C 147.176 160.924,147.176 159.124,147.093 158.087 C 147.011 157.049,146.945 158.000,146.946 160.200 M200.780 161.490 C 200.671 162.419,200.733 163.027,200.920 162.840 C 201.106 162.654,201.196 161.894,201.119 161.151 C 200.983 159.833,200.975 159.842,200.780 161.490 M174.944 164.400 C 174.944 166.490,175.012 167.345,175.094 166.300 C 175.176 165.255,175.176 163.545,175.094 162.500 C 175.012 161.455,174.944 162.310,174.944 164.400 M255.314 162.600 C 255.317 163.700,255.395 164.103,255.487 163.495 C 255.579 162.886,255.577 161.986,255.482 161.495 C 255.387 161.003,255.311 161.500,255.314 162.600 M198.509 169.200 C 198.509 170.190,198.587 170.595,198.682 170.100 C 198.778 169.605,198.778 168.795,198.682 168.300 C 198.587 167.805,198.509 168.210,198.509 169.200 M146.524 170.200 C 146.526 171.520,146.601 172.012,146.690 171.293 C 146.779 170.574,146.777 169.494,146.686 168.893 C 146.595 168.292,146.522 168.880,146.524 170.200 M203.693 169.600 C 203.693 170.370,203.775 170.685,203.876 170.300 C 203.976 169.915,203.976 169.285,203.876 168.900 C 203.775 168.515,203.693 168.830,203.693 169.600 M254.914 170.200 C 254.917 171.300,254.995 171.703,255.087 171.095 C 255.179 170.486,255.177 169.586,255.082 169.095 C 254.987 168.603,254.911 169.100,254.914 170.200 M174.514 173.400 C 174.517 174.500,174.595 174.903,174.687 174.295 C 174.779 173.686,174.777 172.786,174.682 172.295 C 174.587 171.803,174.511 172.300,174.514 173.400 M173.337 176.200 C 173.339 177.960,173.409 178.630,173.493 177.689 C 173.578 176.749,173.577 175.309,173.491 174.489 C 173.405 173.670,173.336 174.440,173.337 176.200 M198.446 176.076 C 198.421 177.108,198.542 178.041,198.716 178.148 C 198.890 178.256,198.970 177.682,198.893 176.872 C 198.659 174.398,198.495 174.107,198.446 176.076 M120.128 182.800 C 120.128 184.230,120.201 184.815,120.289 184.100 C 120.378 183.385,120.378 182.215,120.289 181.500 C 120.201 180.785,120.128 181.370,120.128 182.800 M134.114 182.200 C 134.117 183.300,134.195 183.703,134.287 183.095 C 134.379 182.486,134.377 181.586,134.282 181.095 C 134.187 180.603,134.111 181.100,134.114 182.200 M146.114 182.600 C 146.117 183.700,146.195 184.103,146.287 183.495 C 146.379 182.886,146.377 181.986,146.282 181.495 C 146.187 181.003,146.111 181.500,146.114 182.600 M204.901 183.400 C 204.905 184.280,204.987 184.593,205.083 184.095 C 205.179 183.598,205.175 182.878,205.075 182.495 C 204.975 182.113,204.896 182.520,204.901 183.400 M174.109 184.000 C 174.109 184.990,174.187 185.395,174.282 184.900 C 174.378 184.405,174.378 183.595,174.282 183.100 C 174.187 182.605,174.109 183.010,174.109 184.000 M120.509 187.200 C 120.509 188.190,120.587 188.595,120.682 188.100 C 120.778 187.605,120.778 186.795,120.682 186.300 C 120.587 185.805,120.509 186.210,120.509 187.200 M172.563 197.200 C 172.563 200.830,172.623 202.315,172.698 200.500 C 172.772 198.685,172.772 195.715,172.698 193.900 C 172.623 192.085,172.563 193.570,172.563 197.200 M159.905 195.883 C 160.402 195.979,161.122 195.975,161.505 195.875 C 161.887 195.775,161.480 195.696,160.600 195.701 C 159.720 195.705,159.407 195.787,159.905 195.883 M145.720 198.000 C 145.720 199.210,145.795 199.705,145.887 199.100 C 145.978 198.495,145.978 197.505,145.887 196.900 C 145.795 196.295,145.720 196.790,145.720 198.000 M228.120 198.000 C 228.120 199.210,228.195 199.705,228.287 199.100 C 228.378 198.495,228.378 197.505,228.287 196.900 C 228.195 196.295,228.120 196.790,228.120 198.000 M143.264 197.419 C 142.755 198.537,142.681 203.352,143.154 204.559 C 143.318 204.977,143.395 203.627,143.326 201.559 C 143.241 199.023,143.321 198.060,143.572 198.600 C 143.880 199.262,143.949 199.142,143.972 197.900 C 144.005 196.131,143.888 196.051,143.264 197.419 M207.748 203.200 C 207.748 205.510,207.814 206.455,207.895 205.300 C 207.976 204.145,207.976 202.255,207.895 201.100 C 207.814 199.945,207.748 200.890,207.748 203.200 M187.167 200.545 C 187.700 201.201,189.200 202.193,189.200 201.889 C 189.200 201.813,188.615 201.322,187.900 200.799 C 187.096 200.210,186.816 200.113,187.167 200.545 M258.555 206.600 C 258.556 209.460,258.620 210.578,258.697 209.083 C 258.774 207.589,258.774 205.249,258.696 203.883 C 258.618 202.518,258.555 203.740,258.555 206.600 M156.556 208.278 C 156.582 209.052,156.745 209.413,156.967 209.191 C 157.190 208.970,157.172 208.467,156.923 207.913 C 156.540 207.063,156.514 207.088,156.556 208.278 M145.346 212.200 C 145.347 214.400,145.414 215.249,145.495 214.087 C 145.576 212.924,145.576 211.124,145.493 210.087 C 145.411 209.049,145.345 210.000,145.346 212.200 M207.709 214.400 C 207.709 215.390,207.787 215.795,207.882 215.300 C 207.978 214.805,207.978 213.995,207.882 213.500 C 207.787 213.005,207.709 213.410,207.709 214.400 M113.720 216.000 C 113.720 217.210,113.795 217.705,113.887 217.100 C 113.978 216.495,113.978 215.505,113.887 214.900 C 113.795 214.295,113.720 214.790,113.720 216.000 M152.432 218.676 C 152.414 219.598,152.542 220.441,152.716 220.548 C 152.890 220.656,152.967 220.082,152.887 219.272 C 152.669 217.058,152.467 216.795,152.432 218.676 M253.200 218.576 C 253.200 219.113,253.347 219.644,253.528 219.755 C 253.708 219.867,253.777 219.427,253.682 218.779 C 253.472 217.349,253.200 217.235,253.200 218.576 M314.493 220.400 C 314.493 221.170,314.575 221.485,314.676 221.100 C 314.776 220.715,314.776 220.085,314.676 219.700 C 314.575 219.315,314.493 219.630,314.493 220.400 M183.594 222.081 C 183.487 223.336,183.546 224.216,183.724 224.037 C 183.903 223.858,183.990 222.831,183.918 221.756 L 183.787 219.800 183.594 222.081 M207.293 221.600 C 207.293 222.370,207.375 222.685,207.476 222.300 C 207.576 221.915,207.576 221.285,207.476 220.900 C 207.375 220.515,207.293 220.830,207.293 221.600 M222.501 223.400 C 222.505 224.280,222.587 224.593,222.683 224.095 C 222.779 223.598,222.775 222.878,222.675 222.495 C 222.575 222.113,222.496 222.520,222.501 223.400 M314.901 224.200 C 314.905 225.080,314.987 225.393,315.083 224.895 C 315.179 224.398,315.175 223.678,315.075 223.295 C 314.975 222.913,314.896 223.320,314.901 224.200 M208.400 225.800 C 209.146 226.570,209.847 227.200,209.957 227.200 C 210.067 227.200,209.546 226.570,208.800 225.800 C 208.054 225.030,207.353 224.400,207.243 224.400 C 207.133 224.400,207.654 225.030,208.400 225.800 M258.931 227.400 C 258.933 228.940,259.005 229.521,259.092 228.691 C 259.179 227.861,259.177 226.601,259.089 225.891 C 259.000 225.181,258.929 225.860,258.931 227.400 M118.000 227.552 C 118.000 227.942,119.555 229.398,119.723 229.164 C 119.787 229.074,119.426 228.601,118.920 228.114 C 118.414 227.627,118.000 227.374,118.000 227.552 M253.337 231.000 C 253.339 232.760,253.409 233.430,253.493 232.489 C 253.578 231.549,253.577 230.109,253.491 229.289 C 253.405 228.470,253.336 229.240,253.337 231.000 M259.342 238.600 C 259.341 240.580,259.408 241.440,259.492 240.512 C 259.576 239.584,259.577 237.964,259.495 236.912 C 259.412 235.860,259.343 236.620,259.342 238.600 M284.446 236.876 C 284.421 237.908,284.542 238.841,284.716 238.948 C 284.890 239.056,284.970 238.482,284.893 237.672 C 284.659 235.198,284.495 234.907,284.446 236.876 M316.928 238.000 C 316.928 239.430,317.001 240.015,317.089 239.300 C 317.178 238.585,317.178 237.415,317.089 236.700 C 317.001 235.985,316.928 236.570,316.928 238.000 M256.124 238.200 C 256.126 239.520,256.201 240.012,256.290 239.293 C 256.379 238.574,256.377 237.494,256.286 236.893 C 256.195 236.292,256.122 236.880,256.124 238.200 M168.352 240.487 C 168.537 241.598,168.593 241.655,168.719 240.854 C 168.801 240.333,168.703 239.743,168.501 239.541 C 168.279 239.319,168.221 239.693,168.352 240.487 M161.851 239.918 C 161.716 240.135,161.990 241.180,162.458 242.239 C 163.171 243.851,163.343 245.195,163.512 250.484 C 163.742 257.695,163.659 257.626,166.677 253.127 L 168.519 250.381 167.860 247.379 C 167.497 245.728,167.200 243.579,167.200 242.603 C 167.200 241.322,167.005 240.724,166.500 240.454 C 165.376 239.852,162.123 239.477,161.851 239.918 M257.505 243.083 C 258.002 243.179,258.722 243.175,259.105 243.075 C 259.487 242.975,259.080 242.896,258.200 242.901 C 257.320 242.905,257.007 242.987,257.505 243.083 M129.986 252.300 L 127.800 254.600 130.100 252.414 C 132.237 250.382,132.583 250.000,132.286 250.000 C 132.224 250.000,131.189 251.035,129.986 252.300 M134.500 250.412 C 133.121 250.967,133.408 251.603,134.800 251.078 C 135.460 250.828,136.000 250.484,136.000 250.312 C 136.000 249.925,135.655 249.948,134.500 250.412 M204.120 252.400 C 204.120 253.610,204.195 254.105,204.287 253.500 C 204.378 252.895,204.378 251.905,204.287 251.300 C 204.195 250.695,204.120 251.190,204.120 252.400 M284.928 258.400 C 284.928 259.830,285.001 260.415,285.089 259.700 C 285.178 258.985,285.178 257.815,285.089 257.100 C 285.001 256.385,284.928 256.970,284.928 258.400 M162.046 258.476 C 161.985 259.370,162.749 259.812,163.335 259.221 C 163.689 258.864,163.642 258.813,163.135 259.006 C 162.691 259.175,162.407 259.016,162.281 258.529 C 162.120 257.904,162.086 257.896,162.046 258.476 M174.975 264.100 L 173.800 265.400 175.100 264.225 C 176.312 263.130,176.584 262.800,176.275 262.800 C 176.206 262.800,175.621 263.385,174.975 264.100 M300.000 265.375 C 300.000 265.745,300.165 265.945,300.366 265.821 C 300.567 265.697,300.823 265.821,300.934 266.098 C 301.060 266.411,301.149 266.430,301.168 266.149 C 301.186 265.901,300.930 265.474,300.600 265.200 C 300.107 264.791,300.000 264.822,300.000 265.375 M207.705 269.087 C 208.314 269.179,209.214 269.177,209.705 269.082 C 210.197 268.987,209.700 268.911,208.600 268.914 C 207.500 268.917,207.097 268.995,207.705 269.087 M272.501 273.400 C 272.505 274.280,272.587 274.593,272.683 274.095 C 272.779 273.598,272.775 272.878,272.675 272.495 C 272.575 272.113,272.496 272.520,272.501 273.400 M233.775 273.700 L 232.600 275.000 233.900 273.825 C 234.615 273.179,235.200 272.594,235.200 272.525 C 235.200 272.216,234.870 272.488,233.775 273.700 M285.301 273.800 C 285.305 274.680,285.387 274.993,285.483 274.495 C 285.579 273.998,285.575 273.278,285.475 272.895 C 285.375 272.513,285.296 272.920,285.301 273.800 M314.101 276.200 C 314.105 277.080,314.187 277.393,314.283 276.895 C 314.379 276.398,314.375 275.678,314.275 275.295 C 314.175 274.913,314.096 275.320,314.101 276.200 M89.578 278.300 L 88.200 279.800 89.700 278.422 C 91.096 277.138,91.384 276.800,91.078 276.800 C 91.012 276.800,90.337 277.475,89.578 278.300 M152.909 279.200 C 152.909 280.190,152.987 280.595,153.082 280.100 C 153.178 279.605,153.178 278.795,153.082 278.300 C 152.987 277.805,152.909 278.210,152.909 279.200 M310.500 277.876 C 310.885 277.976,311.515 277.976,311.900 277.876 C 312.285 277.775,311.970 277.693,311.200 277.693 C 310.430 277.693,310.115 277.775,310.500 277.876 M198.581 281.300 L 197.000 283.000 198.700 281.419 C 200.281 279.948,200.584 279.600,200.281 279.600 C 200.216 279.600,199.451 280.365,198.581 281.300 M294.931 283.000 C 294.933 284.540,295.005 285.121,295.092 284.291 C 295.179 283.461,295.177 282.201,295.089 281.491 C 295.000 280.781,294.929 281.460,294.931 283.000 M153.326 281.800 C 153.392 282.455,153.716 282.607,155.106 282.639 L 156.806 282.678 155.228 282.517 C 154.186 282.411,153.582 282.126,153.448 281.678 C 153.301 281.185,153.268 281.218,153.326 281.800 M272.901 283.800 C 272.905 284.680,272.987 284.993,273.083 284.495 C 273.179 283.998,273.175 283.278,273.075 282.895 C 272.975 282.513,272.896 282.920,272.901 283.800 M260.109 297.600 C 260.109 298.590,260.187 298.995,260.282 298.500 C 260.378 298.005,260.378 297.195,260.282 296.700 C 260.187 296.205,260.109 296.610,260.109 297.600 M263.900 301.482 C 264.395 301.578,265.205 301.578,265.700 301.482 C 266.195 301.387,265.790 301.309,264.800 301.309 C 263.810 301.309,263.405 301.387,263.900 301.482 " stroke="none" fill="#aa1a1b" fill-rule="evenodd"></path><path id="path1" d="M256.400 77.991 C 255.894 78.311,255.756 80.561,255.522 92.285 C 255.370 99.938,255.052 113.400,254.817 122.200 C 254.582 131.000,254.392 141.459,254.395 145.442 C 254.400 152.615,254.391 152.693,253.400 153.762 C 252.192 155.066,252.191 155.094,253.225 158.601 C 254.167 161.795,254.059 169.139,252.974 175.600 C 252.660 177.470,252.232 180.678,252.023 182.728 C 251.385 188.984,248.442 191.144,245.163 187.762 C 243.314 185.854,240.589 185.040,236.968 185.314 C 231.474 185.729,225.180 189.841,226.218 192.336 C 226.370 192.701,226.636 195.341,226.810 198.203 C 227.116 203.262,227.496 204.712,229.502 208.466 C 229.580 208.613,228.419 209.532,226.922 210.510 C 222.007 213.719,221.736 214.404,221.322 224.695 L 221.076 230.789 222.578 232.205 C 225.137 234.618,226.072 241.193,224.385 244.909 C 223.963 245.839,223.614 246.954,223.609 247.386 C 223.589 249.175,216.403 260.800,215.317 260.800 C 215.216 260.800,215.251 257.605,215.395 253.700 C 215.778 243.281,215.378 240.435,212.844 235.572 C 210.675 231.408,210.536 230.776,211.256 228.369 C 211.702 226.881,211.676 226.810,210.099 225.295 L 208.486 223.745 208.822 219.373 C 209.008 216.968,209.168 211.259,209.180 206.686 C 209.196 199.835,209.310 198.203,209.827 197.415 C 210.650 196.158,210.121 194.166,208.234 191.417 C 206.913 189.493,206.829 189.160,206.423 184.200 C 206.189 181.340,205.797 176.725,205.553 173.944 C 205.225 170.214,205.226 168.532,205.558 167.528 C 206.113 165.847,205.600 162.705,204.589 161.588 C 203.816 160.733,203.324 156.888,202.210 143.000 C 201.875 138.820,201.331 132.610,201.000 129.200 C 200.669 125.790,200.122 119.583,199.783 115.406 C 198.996 105.697,199.079 106.000,197.237 106.000 C 194.667 106.000,194.296 107.577,195.209 114.636 C 195.628 117.882,196.787 130.139,197.813 142.200 C 198.132 145.940,198.664 151.288,198.996 154.083 C 199.808 160.917,199.772 161.686,198.522 164.325 C 197.350 166.798,196.722 177.309,197.610 179.600 C 198.036 180.698,198.718 186.447,198.500 187.101 C 198.417 187.349,197.548 187.195,196.282 186.707 C 192.369 185.200,187.214 186.130,185.185 188.710 C 183.991 190.227,184.040 197.285,185.261 199.627 C 186.170 201.371,185.929 201.979,184.323 201.994 C 183.315 202.003,182.510 203.404,181.333 207.196 C 179.813 212.095,179.996 219.541,181.659 220.431 C 182.863 221.076,182.562 222.975,180.791 225.911 C 179.907 227.378,179.007 229.303,178.792 230.189 C 178.363 231.953,176.452 236.003,176.051 235.996 C 175.913 235.993,175.308 234.688,174.707 233.096 C 174.106 231.503,173.087 229.642,172.443 228.960 L 171.271 227.720 171.633 223.160 C 172.044 217.980,172.614 214.877,173.318 213.994 C 174.133 212.971,175.919 212.000,176.986 212.000 C 177.940 212.000,178.000 211.879,178.000 209.936 C 178.000 208.164,178.217 207.585,179.535 205.836 C 181.822 202.801,182.121 202.081,181.858 200.240 C 181.464 197.481,177.620 188.436,176.114 186.724 C 175.532 186.062,175.686 176.600,176.600 157.000 C 177.163 144.908,177.021 144.248,174.047 145.139 L 172.460 145.614 172.400 153.707 C 172.281 169.894,171.754 186.198,171.325 186.964 C 171.044 187.466,170.961 190.342,171.084 195.364 L 171.271 203.000 169.197 204.328 C 166.661 205.953,166.596 205.898,167.173 202.585 C 167.995 197.864,165.210 194.400,160.591 194.400 C 158.401 194.400,155.356 195.678,155.020 196.737 C 154.612 198.022,154.692 206.197,155.122 207.262 C 155.518 208.241,155.430 208.409,153.995 209.404 C 150.568 211.779,149.750 220.971,152.862 222.146 C 154.267 222.676,154.297 223.430,153.011 225.900 C 152.466 226.945,151.929 228.272,151.816 228.849 C 151.401 230.965,150.328 231.790,148.928 231.066 C 147.955 230.563,147.743 230.234,147.891 229.459 C 147.993 228.922,147.766 227.827,147.385 227.025 C 146.716 225.614,146.719 225.536,147.497 224.683 C 149.055 222.973,148.948 218.546,147.305 216.705 C 146.604 215.919,146.626 214.151,147.796 177.200 L 148.449 156.600 149.577 155.400 C 152.231 152.574,152.356 148.968,149.845 147.624 C 148.619 146.968,148.515 144.987,149.182 135.000 C 149.387 131.920,149.670 126.070,149.809 122.000 C 149.949 117.930,150.395 108.120,150.800 100.200 C 151.593 84.714,151.642 85.233,149.348 84.938 C 146.404 84.560,146.530 83.980,145.820 101.200 C 145.472 109.670,144.922 122.360,144.600 129.400 C 144.278 136.440,144.011 143.115,144.007 144.232 C 144.001 145.962,143.858 146.341,143.044 146.776 C 141.704 147.494,141.200 148.843,141.198 151.719 C 141.195 156.259,137.329 179.602,136.051 182.800 C 135.712 183.647,135.647 183.450,135.625 181.508 C 135.519 171.899,122.936 169.753,119.373 178.737 C 118.134 181.860,119.038 190.320,120.890 192.924 L 121.689 194.048 118.902 196.924 C 115.009 200.942,114.451 202.181,112.830 210.400 C 112.634 211.390,112.413 213.808,112.337 215.774 L 112.200 219.348 113.495 219.684 C 115.056 220.089,115.797 221.389,116.125 224.300 C 116.468 227.335,117.704 229.910,118.971 230.228 C 119.629 230.394,120.000 230.763,120.000 231.255 C 120.000 232.197,117.718 236.800,117.251 236.800 C 117.065 236.800,116.466 237.655,115.919 238.700 C 113.793 242.758,111.117 247.428,110.572 248.031 C 110.257 248.379,110.000 248.780,110.000 248.924 C 110.000 249.765,107.076 253.600,106.434 253.600 C 106.027 253.600,105.607 253.932,105.500 254.337 C 105.394 254.743,104.530 255.598,103.578 256.237 C 102.348 257.065,101.509 258.092,100.669 259.800 C 100.019 261.120,98.711 263.210,97.763 264.445 C 96.814 265.680,95.393 268.048,94.606 269.707 C 93.818 271.366,92.910 272.943,92.587 273.211 C 92.264 273.479,92.000 273.849,92.000 274.033 C 92.000 274.217,91.105 275.205,90.011 276.228 C 88.918 277.251,86.749 279.776,85.191 281.839 C 82.147 285.872,80.624 287.237,78.365 287.960 C 75.476 288.884,74.619 290.614,75.623 293.494 C 76.130 294.948,77.767 295.492,85.759 296.860 L 90.919 297.743 91.866 296.641 C 92.387 296.035,93.115 294.454,93.484 293.128 C 94.162 290.688,94.880 289.920,95.707 290.747 C 97.470 292.510,101.562 290.023,103.983 285.716 C 104.468 284.853,105.467 283.823,106.202 283.427 C 107.997 282.460,109.000 281.322,112.218 276.600 C 113.717 274.400,115.857 271.595,116.972 270.366 C 118.087 269.138,121.340 265.146,124.200 261.495 C 130.057 254.017,129.590 254.436,130.428 255.909 C 131.232 257.324,140.733 258.547,142.001 257.399 C 142.365 257.070,143.247 256.800,143.960 256.800 C 144.673 256.800,145.559 256.498,145.929 256.128 C 146.557 255.499,146.620 255.582,146.918 257.428 C 147.093 258.513,147.589 261.020,148.021 263.000 C 148.452 264.980,148.804 267.015,148.803 267.522 C 148.799 268.864,150.795 275.750,151.274 276.046 C 151.498 276.184,151.718 277.745,151.763 279.514 C 151.870 283.759,152.097 284.002,155.949 283.994 C 161.547 283.983,165.230 279.998,162.567 276.833 L 161.533 275.605 162.593 275.203 C 163.175 274.981,163.792 274.800,163.964 274.800 C 164.567 274.800,165.600 273.328,165.600 272.469 C 165.600 271.991,165.830 271.600,166.111 271.600 C 169.286 271.600,174.721 267.126,180.601 259.674 C 182.360 257.444,184.016 255.615,184.281 255.610 C 184.545 255.604,185.318 254.792,185.997 253.804 C 186.677 252.816,188.485 250.996,190.015 249.760 C 191.545 248.524,193.142 247.039,193.564 246.460 C 194.332 245.405,197.625 245.104,200.139 245.857 C 201.884 246.380,202.838 250.043,202.714 255.744 C 202.612 260.451,202.684 261.123,203.400 262.183 C 204.012 263.088,204.168 263.864,204.062 265.495 C 203.888 268.186,205.233 270.274,207.270 270.475 L 208.538 270.600 206.808 272.400 C 205.856 273.390,204.668 274.380,204.169 274.600 C 203.669 274.820,200.771 277.348,197.730 280.218 C 189.754 287.745,188.378 288.939,186.669 289.815 C 183.943 291.213,177.600 297.538,177.600 298.858 C 177.600 300.589,176.291 301.716,174.976 301.116 C 174.179 300.753,173.765 300.754,173.176 301.122 C 172.755 301.385,172.021 301.600,171.544 301.600 C 170.161 301.600,165.869 304.217,165.100 305.529 C 163.761 307.814,164.933 311.200,167.063 311.200 C 167.363 311.200,168.644 311.907,169.910 312.770 C 174.659 316.012,176.844 315.807,179.379 311.879 C 181.806 308.118,183.087 307.197,186.780 306.557 C 190.769 305.864,198.183 302.045,209.200 295.007 C 214.947 291.336,217.316 289.634,222.563 285.406 C 225.843 282.763,229.592 279.780,230.893 278.779 C 232.195 277.777,233.603 276.415,234.023 275.751 C 236.262 272.215,239.768 271.159,246.514 271.987 C 248.761 272.263,251.473 272.514,252.540 272.545 L 254.479 272.600 255.345 275.272 C 255.821 276.741,256.343 278.076,256.505 278.238 C 256.976 278.710,256.846 284.730,256.308 287.333 C 255.761 289.982,256.038 290.410,258.959 291.435 C 260.480 291.969,260.750 293.014,259.636 294.052 C 258.619 295.000,258.468 298.832,259.365 300.977 C 260.174 302.914,266.582 303.549,268.179 301.851 C 272.224 297.551,273.441 293.707,271.200 292.307 C 270.067 291.600,270.185 291.326,272.026 290.387 C 272.921 289.930,274.024 288.927,274.479 288.156 C 275.064 287.164,275.495 286.829,275.953 287.009 C 276.309 287.149,278.130 287.531,280.000 287.857 C 281.870 288.183,284.300 288.703,285.400 289.012 C 294.093 291.459,295.839 290.831,296.278 285.103 C 296.510 282.065,296.656 281.634,298.094 279.726 C 300.041 277.143,301.196 274.168,301.213 271.696 L 301.225 269.800 302.217 270.927 C 303.129 271.964,303.160 272.122,302.604 272.916 C 301.311 274.762,303.005 277.302,305.891 277.844 C 306.680 277.992,307.792 278.356,308.363 278.654 C 309.438 279.215,313.097 279.377,314.741 278.937 C 315.665 278.690,315.680 278.605,315.541 274.597 L 315.400 270.510 316.700 269.294 C 318.244 267.851,318.328 266.851,317.155 263.915 C 315.905 260.790,315.619 259.711,315.161 256.400 C 314.197 249.428,314.196 249.442,315.724 246.913 C 318.692 242.001,319.407 232.800,316.820 232.800 C 316.304 232.800,316.270 231.391,316.763 230.469 C 316.989 230.047,316.917 228.206,316.572 225.595 C 315.687 218.896,315.828 213.595,317.028 208.535 C 318.583 201.980,318.654 199.783,317.486 194.400 C 316.937 191.870,316.281 188.788,316.027 187.551 C 315.432 184.650,314.123 182.630,309.925 178.134 C 307.534 175.572,306.129 173.658,305.233 171.739 C 304.530 170.233,303.437 168.460,302.805 167.800 C 301.522 166.459,301.772 168.645,300.221 145.200 C 299.879 140.030,299.411 133.370,299.180 130.400 C 298.950 127.430,298.593 122.480,298.387 119.400 C 297.692 109.015,297.308 107.884,294.703 108.539 C 292.479 109.097,292.362 109.432,292.797 114.000 C 293.200 118.234,294.175 131.105,295.598 151.000 C 296.023 156.940,296.491 163.195,296.637 164.900 C 296.807 166.876,296.758 168.000,296.504 168.000 C 295.423 168.000,295.792 175.048,296.941 176.351 C 297.256 176.708,297.581 177.745,297.663 178.655 L 297.813 180.311 295.931 180.534 C 292.230 180.972,288.499 183.227,287.881 185.400 C 286.477 190.341,286.475 190.350,287.007 191.077 C 287.440 191.669,287.433 192.026,286.965 193.145 C 286.241 194.879,286.250 195.778,287.000 196.400 C 288.104 197.316,287.613 198.179,285.202 199.560 C 281.548 201.652,281.138 202.530,279.029 212.791 C 276.727 223.987,276.640 222.912,279.931 223.951 C 284.623 225.431,286.633 230.144,284.000 233.491 C 282.960 234.813,282.881 239.237,283.862 241.205 C 284.461 242.404,284.480 243.271,284.057 250.166 C 283.571 258.093,283.824 275.643,284.442 276.850 C 285.175 278.282,281.914 279.911,277.983 280.076 L 275.034 280.200 274.546 277.400 C 274.278 275.860,273.866 271.180,273.630 267.000 C 272.759 251.595,272.006 250.566,260.343 248.851 L 255.914 248.200 254.932 245.600 C 254.281 243.879,253.943 242.143,253.930 240.465 C 253.899 236.581,254.633 236.573,254.932 240.453 C 255.226 244.262,255.391 244.446,258.400 244.304 L 260.600 244.200 260.452 235.084 C 260.319 226.868,260.373 225.893,260.998 225.202 C 262.873 223.130,262.569 216.000,260.606 216.000 C 259.631 216.000,259.563 189.714,260.521 183.600 C 261.107 179.863,261.196 177.687,260.996 172.000 C 260.806 166.605,260.889 164.221,261.358 161.600 C 262.602 154.655,262.503 153.961,260.200 153.534 C 259.481 153.401,259.400 153.070,259.400 150.248 C 259.400 145.069,259.976 115.000,260.438 96.046 C 260.798 81.296,260.780 78.234,260.336 77.952 C 259.616 77.495,257.146 77.520,256.400 77.991 M259.279 89.400 C 259.212 95.120,258.993 104.840,258.791 111.000 C 258.589 117.160,258.302 129.420,258.153 138.244 L 257.882 154.289 259.362 154.567 C 261.249 154.921,261.401 155.383,260.571 158.253 C 260.035 160.105,259.834 163.130,259.617 172.600 C 259.429 180.844,259.183 184.976,258.834 185.800 C 258.436 186.740,258.388 190.221,258.612 201.872 L 258.898 216.743 260.053 217.222 C 261.621 217.871,261.165 224.400,259.551 224.400 C 259.199 224.400,259.154 226.727,259.371 233.826 L 259.660 243.252 258.134 243.126 C 256.197 242.966,256.055 242.305,256.023 233.300 C 255.999 226.533,255.869 226.072,254.324 227.300 C 253.851 227.676,253.635 228.893,253.453 232.200 C 253.320 234.620,253.009 237.314,252.763 238.186 C 252.229 240.076,252.477 242.231,253.642 245.839 C 254.846 249.565,255.201 249.829,259.440 250.148 C 264.319 250.516,269.488 252.202,270.420 253.731 C 271.223 255.049,271.838 259.635,272.412 268.600 C 272.638 272.120,273.002 276.131,273.221 277.513 C 273.440 278.895,273.501 281.187,273.355 282.606 C 273.186 284.255,273.247 285.375,273.524 285.709 C 274.336 286.686,273.141 288.131,270.408 289.475 C 267.377 290.966,267.163 291.309,268.675 292.247 C 271.736 294.145,271.592 295.963,268.074 299.817 L 266.348 301.709 263.885 301.451 C 260.290 301.075,258.477 297.523,260.731 295.269 C 261.281 294.719,261.596 293.809,261.678 292.534 L 261.800 290.623 259.883 290.207 C 257.692 289.733,257.111 289.087,257.635 287.707 C 258.344 285.844,258.074 278.639,257.221 276.649 C 256.793 275.650,256.319 274.150,256.169 273.316 C 255.771 271.106,255.456 270.860,253.496 271.223 C 252.431 271.421,250.610 271.333,248.600 270.987 C 239.559 269.432,237.835 269.814,233.466 274.343 C 227.810 280.206,215.922 289.350,206.600 295.006 C 193.767 302.794,189.288 305.010,185.326 305.534 C 182.398 305.920,180.736 307.195,178.200 311.000 C 176.125 314.113,172.163 314.091,169.805 310.954 C 169.582 310.658,168.680 310.170,167.800 309.870 C 163.034 308.245,167.731 302.777,174.003 302.648 C 177.386 302.578,178.800 301.754,178.800 299.850 C 178.800 298.262,184.960 291.962,187.857 290.587 C 188.769 290.154,191.829 287.626,194.657 284.970 C 203.308 276.844,204.762 275.600,205.609 275.600 C 206.058 275.600,206.539 275.285,206.678 274.900 C 206.816 274.515,208.544 272.632,210.516 270.717 C 213.315 267.998,214.055 267.052,213.887 266.410 C 213.642 265.472,215.137 263.131,219.075 258.284 C 220.467 256.570,222.123 254.030,222.754 252.638 C 223.384 251.247,224.103 249.984,224.350 249.831 C 224.598 249.678,224.800 249.038,224.800 248.410 C 224.800 247.781,225.184 246.396,225.654 245.333 C 226.527 243.359,227.026 238.187,226.383 237.790 C 226.203 237.678,225.932 236.595,225.780 235.382 C 225.545 233.494,225.276 232.964,223.907 231.689 L 222.309 230.200 222.537 224.348 C 222.926 214.348,223.213 213.844,231.100 209.366 C 232.576 208.527,232.772 208.000,231.606 208.000 C 229.813 208.000,228.492 204.002,228.022 197.155 L 227.600 191.000 228.900 189.866 C 233.761 185.625,240.864 185.290,244.695 189.122 C 245.881 190.307,246.256 190.463,247.462 190.267 C 248.229 190.143,249.293 190.207,249.827 190.410 C 251.890 191.195,252.910 187.579,254.398 174.200 C 255.351 165.642,255.402 161.694,254.596 159.036 C 253.828 156.506,253.820 154.800,254.576 154.800 C 255.561 154.800,255.569 154.667,255.982 131.555 C 256.947 77.595,256.896 78.643,258.538 78.877 C 259.399 79.000,259.400 79.011,259.279 89.400 M149.821 93.100 C 149.676 96.785,149.383 103.040,149.170 107.000 C 148.667 116.376,147.680 138.263,147.525 143.504 L 147.403 147.609 148.701 148.399 C 150.675 149.599,150.649 152.185,148.641 154.408 L 147.338 155.850 146.826 167.625 C 146.545 174.101,146.098 187.770,145.834 198.000 L 145.354 216.600 146.235 217.600 C 147.951 219.548,147.792 223.647,145.983 224.120 C 145.014 224.374,144.919 226.176,145.827 227.085 C 146.261 227.519,146.416 228.278,146.327 229.546 C 146.203 231.334,146.240 231.400,147.789 232.135 C 148.663 232.550,149.569 233.151,149.802 233.471 C 150.362 234.237,152.523 231.313,153.169 228.916 C 153.415 228.001,154.061 226.475,154.604 225.526 C 156.072 222.957,155.932 221.943,153.996 221.130 L 152.400 220.459 152.400 216.590 C 152.400 212.421,152.829 211.573,155.943 209.581 C 156.817 209.022,156.854 208.860,156.446 207.389 C 155.558 204.193,155.865 197.307,156.926 196.612 C 159.237 195.097,163.177 195.584,165.008 197.610 C 166.251 198.985,166.153 203.960,164.855 205.341 L 163.910 206.347 165.386 206.624 C 166.972 206.921,167.892 206.618,170.713 204.864 L 172.427 203.800 172.375 195.800 C 172.346 191.400,172.503 187.080,172.724 186.200 C 172.945 185.320,173.233 179.650,173.365 173.600 C 173.930 147.768,174.007 146.400,174.907 146.400 C 175.787 146.400,175.745 155.675,174.794 171.600 C 174.071 183.714,174.155 186.047,175.383 187.903 C 176.704 189.899,179.263 195.790,180.159 198.899 C 180.920 201.538,180.836 201.804,177.968 205.888 C 176.740 207.638,176.396 208.459,176.556 209.265 C 176.792 210.460,176.321 211.004,174.697 211.412 C 172.183 212.042,171.202 214.438,170.335 222.058 C 170.013 224.893,169.734 226.000,169.344 226.000 C 168.308 226.000,168.807 227.510,170.191 228.566 C 172.012 229.955,173.257 232.200,174.613 236.538 L 175.718 240.076 177.803 235.938 C 178.950 233.662,180.006 231.154,180.150 230.365 C 180.294 229.576,181.129 227.740,182.006 226.287 C 183.874 223.189,184.282 219.872,182.840 219.495 C 182.242 219.338,182.025 218.793,181.826 216.948 C 181.111 210.332,182.779 203.849,185.400 203.055 C 186.060 202.856,187.101 202.512,187.712 202.292 L 188.825 201.893 187.970 201.294 C 186.135 200.008,184.843 192.128,186.071 189.711 C 187.348 187.200,194.734 186.342,196.980 188.444 C 198.051 189.447,200.000 188.836,199.993 187.500 C 199.980 185.011,199.191 178.671,198.841 178.237 C 197.904 177.076,198.591 167.095,199.780 164.600 L 200.923 162.200 200.231 153.600 C 199.851 148.870,199.368 143.650,199.159 142.000 C 198.949 140.350,198.421 134.950,197.985 130.000 C 197.549 125.050,196.932 118.390,196.613 115.200 C 195.876 107.833,195.876 107.622,196.617 107.338 C 197.817 106.878,197.583 105.150,199.789 130.733 C 200.346 137.186,200.894 143.126,201.008 143.933 C 201.121 144.740,201.485 148.903,201.816 153.184 C 202.359 160.202,202.505 161.060,203.300 161.907 C 204.137 162.797,204.186 163.218,204.242 169.923 C 204.274 173.815,204.592 179.339,204.950 182.198 C 205.307 185.056,205.600 188.043,205.600 188.836 C 205.600 189.749,205.882 190.531,206.369 190.972 C 207.957 192.409,209.287 195.941,208.606 196.913 C 208.113 197.616,207.995 199.353,207.974 206.189 C 207.960 210.815,207.798 216.760,207.614 219.400 L 207.279 224.200 208.642 225.619 C 209.970 227.003,209.998 227.100,209.749 229.486 C 209.498 231.888,209.533 232.006,211.647 235.867 L 213.800 239.800 213.800 250.344 L 213.800 260.887 212.493 261.978 C 211.192 263.065,211.189 263.076,211.793 264.522 C 213.015 267.446,211.808 269.200,208.573 269.200 C 205.865 269.200,204.619 267.065,205.654 264.201 C 206.064 263.067,206.006 262.842,205.054 261.891 C 204.016 260.853,204.000 260.751,204.000 255.267 C 204.000 246.375,203.015 244.646,197.699 244.203 L 194.306 243.920 192.253 245.889 C 191.124 246.972,189.264 248.620,188.120 249.550 C 186.976 250.480,185.656 251.862,185.187 252.621 C 184.718 253.379,184.092 254.000,183.795 254.000 C 183.498 254.000,182.846 254.585,182.347 255.300 C 176.511 263.661,171.266 268.520,166.465 270.012 C 164.498 270.623,164.200 270.849,164.200 271.723 C 164.200 273.026,163.920 273.279,161.675 274.000 C 159.386 274.735,159.136 275.581,160.775 277.041 C 163.292 279.283,161.222 282.156,156.769 282.603 C 153.129 282.969,153.000 282.831,153.000 278.565 C 153.000 276.267,152.837 275.071,152.496 274.860 C 151.712 274.374,150.520 270.493,150.205 267.400 C 150.049 265.860,149.652 263.970,149.324 263.200 C 148.557 261.397,148.108 253.828,148.745 253.434 C 149.439 253.005,149.289 252.517,148.391 252.282 C 147.786 252.124,147.204 252.523,146.091 253.858 C 144.667 255.564,144.513 255.641,142.672 255.545 C 141.473 255.482,140.628 255.631,140.438 255.939 C 139.850 256.890,131.828 255.993,131.680 254.959 C 131.531 253.918,132.838 253.003,135.397 252.359 C 136.466 252.090,137.352 251.612,137.463 251.244 C 137.571 250.890,137.815 250.304,138.006 249.943 C 138.483 249.041,138.126 248.800,136.313 248.800 C 133.269 248.800,131.051 250.856,122.068 262.000 C 118.965 265.850,115.385 270.281,114.113 271.847 C 112.841 273.413,110.926 275.992,109.857 277.578 C 108.737 279.241,107.098 281.049,105.990 281.846 C 104.931 282.606,103.476 284.147,102.755 285.270 C 100.052 289.483,98.498 290.338,95.568 289.225 L 93.557 288.461 93.229 289.330 C 93.048 289.809,92.575 291.280,92.179 292.600 C 90.914 296.806,90.225 296.938,81.000 294.755 C 75.241 293.391,74.495 291.087,79.100 288.888 C 82.270 287.374,86.244 284.548,85.534 284.311 C 84.667 284.022,88.875 278.537,91.333 276.752 C 92.823 275.670,95.577 271.624,96.201 269.600 C 96.532 268.527,98.318 265.751,99.933 263.800 C 100.479 263.140,101.336 261.675,101.838 260.545 C 102.683 258.641,104.518 256.800,105.570 256.800 C 105.816 256.800,106.221 256.353,106.469 255.808 C 106.718 255.262,107.254 254.710,107.659 254.581 C 108.065 254.452,108.874 253.504,109.456 252.473 C 110.037 251.443,111.275 249.430,112.205 248.000 C 113.135 246.570,114.645 243.980,115.560 242.244 C 116.475 240.508,117.692 238.531,118.264 237.851 C 121.260 234.290,122.671 229.200,120.662 229.200 C 118.765 229.200,118.145 228.270,117.595 224.600 C 117.019 220.752,116.390 219.422,114.744 218.571 L 113.502 217.929 113.778 214.264 C 114.446 205.387,115.801 201.810,120.101 197.573 C 123.645 194.081,123.560 194.439,121.583 191.348 C 119.719 188.433,119.607 180.187,121.397 177.605 C 124.247 173.491,131.370 173.434,133.550 177.507 C 134.593 179.455,134.899 186.470,133.995 187.692 C 133.001 189.037,133.184 190.443,134.238 189.568 C 135.735 188.326,137.566 183.677,138.423 178.946 C 138.895 176.336,139.706 171.860,140.224 169.000 C 140.742 166.140,141.372 162.630,141.623 161.200 C 141.875 159.770,142.198 156.350,142.341 153.600 L 142.600 148.600 143.868 148.000 C 145.495 147.230,145.309 149.448,146.414 117.600 C 146.639 111.110,146.996 103.280,147.207 100.200 C 147.419 97.120,147.594 93.040,147.596 91.133 C 147.601 86.976,147.782 86.400,149.085 86.400 L 150.085 86.400 149.821 93.100 M296.464 113.000 C 296.887 117.477,297.542 126.272,298.207 136.400 C 298.546 141.570,298.896 146.070,298.985 146.400 C 299.073 146.730,299.345 150.870,299.589 155.600 C 300.228 167.995,300.141 167.434,301.615 168.674 C 302.336 169.281,303.466 171.018,304.231 172.695 C 305.278 174.993,306.364 176.463,309.132 179.329 C 312.907 183.239,314.013 184.983,314.753 188.200 C 317.630 200.695,317.575 199.564,315.724 208.321 L 314.247 215.303 314.955 222.392 C 315.524 228.088,315.571 229.823,315.193 231.225 C 314.770 232.798,314.800 233.033,315.503 233.602 C 318.163 235.756,317.656 241.084,314.254 246.728 L 312.885 249.000 313.487 254.200 C 313.912 257.860,314.493 260.567,315.451 263.340 L 316.813 267.281 315.182 268.772 L 313.551 270.263 314.037 273.737 C 314.304 275.647,314.410 277.323,314.273 277.461 C 313.666 278.067,309.280 277.793,308.512 277.100 C 308.086 276.715,307.206 276.400,306.558 276.400 C 303.760 276.400,302.796 274.348,304.800 272.661 C 306.251 271.440,306.290 271.200,305.039 271.200 C 304.138 271.200,302.732 269.512,300.873 266.200 C 300.316 265.207,300.392 264.888,299.832 270.600 C 299.346 275.559,297.471 280.000,295.864 280.000 C 295.458 280.000,295.259 280.950,295.091 283.700 C 294.726 289.664,294.944 289.544,287.315 288.003 C 273.867 285.286,274.400 285.477,274.400 283.376 C 274.400 281.915,273.870 282.112,279.750 281.383 C 280.712 281.264,282.287 280.738,283.250 280.216 C 284.212 279.693,285.585 278.947,286.300 278.559 C 287.859 277.711,287.898 277.495,286.619 276.810 C 286.080 276.522,285.547 275.816,285.435 275.243 C 284.980 272.911,285.061 254.628,285.552 248.751 C 286.023 243.106,286.011 242.381,285.421 241.240 C 285.061 240.545,284.868 239.814,284.990 239.616 C 285.113 239.418,285.030 239.142,284.807 239.004 C 283.873 238.427,284.479 234.156,285.543 233.818 C 286.102 233.641,286.182 233.056,286.082 229.905 L 285.963 226.200 284.440 224.800 C 283.602 224.030,282.126 223.168,281.158 222.885 C 278.286 222.045,278.332 222.143,279.163 218.583 C 279.572 216.832,280.024 214.680,280.168 213.800 C 281.785 203.917,282.604 202.320,287.260 199.970 C 289.547 198.815,290.008 198.300,289.200 197.800 C 288.980 197.664,288.800 197.133,288.800 196.619 C 288.800 196.106,288.529 195.582,288.198 195.455 C 287.667 195.251,287.672 195.035,288.244 193.606 C 288.769 192.295,288.803 191.772,288.423 190.855 C 286.726 186.759,291.164 182.000,296.679 182.000 L 299.200 182.000 299.200 179.326 C 299.200 177.233,299.032 176.472,298.426 175.826 C 297.329 174.656,296.856 170.907,297.761 170.560 C 298.368 170.327,298.364 170.258,297.712 169.739 C 297.086 169.241,297.073 169.120,297.604 168.748 C 298.280 168.275,298.163 164.892,297.011 151.600 C 296.678 147.750,296.222 141.720,295.997 138.200 C 295.773 134.680,295.333 128.920,295.019 125.400 C 294.706 121.880,294.328 116.961,294.179 114.469 L 293.909 109.938 295.054 110.069 C 296.164 110.196,296.208 110.288,296.464 113.000 M301.601 180.119 C 301.600 182.466,301.730 182.959,302.547 183.719 C 305.153 186.141,305.913 190.191,304.391 193.544 C 303.405 195.717,303.407 195.856,304.439 196.126 C 305.756 196.470,306.357 196.035,306.639 194.533 C 306.782 193.768,307.343 192.616,307.884 191.973 L 308.869 190.802 307.689 189.301 C 306.252 187.473,305.521 186.072,304.270 182.749 C 303.742 181.347,302.926 179.570,302.457 178.800 L 301.603 177.400 301.601 180.119 M174.243 192.633 C 173.885 193.565,173.947 202.400,174.311 202.400 C 176.046 202.400,176.516 201.126,176.271 197.096 C 176.004 192.715,175.032 190.576,174.243 192.633 M143.337 201.000 C 143.339 202.760,143.409 203.430,143.493 202.489 C 143.578 201.549,143.577 200.109,143.491 199.289 C 143.405 198.470,143.336 199.240,143.337 201.000 M254.473 216.299 C 253.925 217.068,253.598 218.023,253.673 218.640 L 253.800 219.681 254.725 218.423 C 255.289 217.655,255.601 216.743,255.525 216.083 L 255.400 215.000 254.473 216.299 M160.300 238.676 C 159.373 238.918,159.407 239.158,160.700 241.450 C 161.766 243.339,161.808 243.644,162.041 251.200 C 162.173 255.490,162.308 259.045,162.341 259.100 C 162.834 259.932,165.159 257.672,167.781 253.812 L 170.131 250.351 169.393 248.076 C 168.987 246.824,168.553 244.371,168.428 242.625 L 168.200 239.449 166.200 238.932 C 164.237 238.425,161.684 238.314,160.300 238.676 M166.500 240.454 C 167.005 240.724,167.200 241.322,167.200 242.603 C 167.200 243.579,167.497 245.728,167.860 247.379 L 168.519 250.381 166.677 253.127 C 163.659 257.626,163.742 257.695,163.512 250.484 C 163.343 245.195,163.171 243.851,162.458 242.239 C 161.990 241.180,161.716 240.135,161.851 239.918 C 162.123 239.477,165.376 239.852,166.500 240.454 M136.000 250.312 C 136.000 250.484,135.460 250.828,134.800 251.078 C 133.408 251.603,133.121 250.967,134.500 250.412 C 135.655 249.948,136.000 249.925,136.000 250.312 " stroke="none" fill="#190d0d" fill-rule="evenodd"></path></g></svg>