<svg id="ab28cd1e-c08a-4a73-9818-1be7fc7ca7c5" data-name="Layer 1" xmlns="http://www.w3.org/2000/svg" xmlns:xlink="http://www.w3.org/1999/xlink" viewBox="0 0 203.77 240"><defs><style>.b4deb1ec-3f4e-4c19-9f20-9f6155458ca8{fill:url(#f2852c14-a04c-4f82-90cb-d5e69e4e5cd8);}.f6a4a325-9d97-4954-a9cd-da8cc54616ac{fill:url(#e26728e8-2792-4ad7-a786-784555c1abbe);}.ec4e8331-d44a-4d2e-9237-c2351a4e5f28{fill:url(#a46085e4-d7b6-45bd-a2ea-9abd0eb3f002);}.b0047bc6-3549-4572-a96a-74b29ffa6604{fill:url(#bfcebb6d-5a1a-4515-a78e-3bf3bbaaef7f);}.b07f1158-b26f-4f96-adbe-ba120ae1e56c{fill:url(#f24fff46-9381-446b-901d-d5f7702a2c57);}.e291b913-8dba-4044-abc8-1d2c683b86f1{fill:#fff;}</style><linearGradient id="f2852c14-a04c-4f82-90cb-d5e69e4e5cd8" x1="208.67" y1="240.23" x2="121.41" y2="108.14" gradientUnits="userSpaceOnUse"><stop offset="0" stop-color="#7d582d"/><stop offset="1" stop-color="#e9c78b"/></linearGradient><linearGradient id="e26728e8-2792-4ad7-a786-784555c1abbe" x1="239.72" y1="219.72" x2="152.46" y2="87.63" xlink:href="#f2852c14-a04c-4f82-90cb-d5e69e4e5cd8"/><linearGradient id="a46085e4-d7b6-45bd-a2ea-9abd0eb3f002" x1="212.52" y1="237.69" x2="125.26" y2="105.6" xlink:href="#f2852c14-a04c-4f82-90cb-d5e69e4e5cd8"/><linearGradient id="bfcebb6d-5a1a-4515-a78e-3bf3bbaaef7f" x1="113.56" y1="303.06" x2="26.3" y2="170.97" xlink:href="#f2852c14-a04c-4f82-90cb-d5e69e4e5cd8"/><linearGradient id="f24fff46-9381-446b-901d-d5f7702a2c57" x1="160.54" y1="272.02" x2="73.28" y2="139.93" xlink:href="#f2852c14-a04c-4f82-90cb-d5e69e4e5cd8"/></defs><path class="b4deb1ec-3f4e-4c19-9f20-9f6155458ca8" d="M142.73,42.94v2A8,8,0,0,0,139,46a8.51,8.51,0,0,0-2.68,2.9c-.23.43-1.46,3.15-3.67,8.18l-24.78,59h-2.28L86,70l-21.57,46.1H62.27l-26-58.4q-4-8.8-5.54-10.65t-5.3-2.16v-2H59.71v2C57,45,55.11,45.34,54.2,46a3.11,3.11,0,0,0-1.37,2.56c0,1.33,1,4.17,2.86,8.49l15.5,34.71L83.61,64.68l-3.26-7.6a54.9,54.9,0,0,0-4.14-8.31,8.68,8.68,0,0,0-3.35-3,13.5,13.5,0,0,0-5.57-.89v-2h38.3v2a22.64,22.64,0,0,0-5.77.58,3.65,3.65,0,0,0-1.92,1.24,3,3,0,0,0-.7,2q0,1.22,2.62,7.44L114.22,90l12.89-30.65a59,59,0,0,0,2.5-6.49,12.53,12.53,0,0,0,.47-3.22,4,4,0,0,0-1.63-3.4c-1.09-.83-3.17-1.27-6.24-1.34v-2Z"/><path class="f6a4a325-9d97-4954-a9cd-da8cc54616ac" d="M187.88,84.91v38.46q0,5.61,1.18,7t4.76,1.76V134h-22.4v-6.57a27.51,27.51,0,0,1-7.88,6.12,19.89,19.89,0,0,1-8.82,1.92,14,14,0,0,1-8.27-2.55,12.58,12.58,0,0,1-4.85-6q-1.23-3.4-1.23-11.92V95.58q0-5.58-1.15-6.94t-4.79-1.78v-2h22.4v33.57q0,5.25.56,6.78a4.52,4.52,0,0,0,1.77,2.31,5,5,0,0,0,2.79.79,7.39,7.39,0,0,0,3.82-1,22.89,22.89,0,0,0,5.65-5.52V95.58c0-3.72-.39-6-1.15-6.94s-2.36-1.5-4.79-1.78v-2Z"/><path class="ec4e8331-d44a-4d2e-9237-c2351a4e5f28" d="M198.5,166.56v33.9c0,3.3.34,5.36,1,6.18s2.11,1.33,4.23,1.55v1.67H183.86v-5.79a24.41,24.41,0,0,1-7,5.39,17.75,17.75,0,0,1-7.84,1.69,12.47,12.47,0,0,1-7.34-2.24,11.14,11.14,0,0,1-4.31-5.26c-.74-2-1.1-5.51-1.1-10.51V176c0-3.28-.34-5.31-1-6.12s-2.1-1.32-4.26-1.57v-1.71H170.9v29.59a21.74,21.74,0,0,0,.5,6,3.93,3.93,0,0,0,1.57,2,4.47,4.47,0,0,0,2.48.7,6.76,6.76,0,0,0,3.4-.88,20.49,20.49,0,0,0,5-4.87V176c0-3.28-.34-5.31-1-6.12s-2.1-1.32-4.26-1.57v-1.71Z"/><path class="b0047bc6-3549-4572-a96a-74b29ffa6604" d="M68.86,138.79l.82,30.77H66.62A30.74,30.74,0,0,0,56,150.94q-8.48-7-18.31-7.05-7.62,0-12,3.71t-4.44,8.55a9.61,9.61,0,0,0,1.57,5.44,24.27,24.27,0,0,0,6.93,6.34q3.51,2.23,16.19,8,17.76,8,23.95,15.05a24.11,24.11,0,0,1,6.11,16.2q0,11.58-9.88,19.92T41,235.4a45,45,0,0,1-9-.88,73.64,73.64,0,0,1-10.67-3.34,17.31,17.31,0,0,0-5.89-1.36,7.73,7.73,0,0,0-4.1,1.36,9.7,9.7,0,0,0-3.51,4.15H5V200.47H7.76Q11,215.19,20.41,222.91t20.18,7.72q8.34,0,13.31-4.15t5-9.67a11.81,11.81,0,0,0-1.9-6.33,21,21,0,0,0-5.78-5.82q-3.88-2.76-13.73-7.18-13.8-6.19-19.84-10.56a33.38,33.38,0,0,1-9.29-9.73,22.55,22.55,0,0,1-3.24-11.85q0-11,8.87-18.79t22.38-7.76a41.25,41.25,0,0,1,9.55,1.09,49.49,49.49,0,0,1,8.54,3q5,2.21,7,2.21A4.17,4.17,0,0,0,64.53,144c.75-.73,1.44-2.47,2.09-5.24Z"/><path class="b07f1158-b26f-4f96-adbe-ba120ae1e56c" d="M100.8,202.73v21.58q0,5.34.62,6.68a5.49,5.49,0,0,0,2.46,2.34,10.44,10.44,0,0,0,5,1h2.46v1.9H72.55v-1.9H75a10.83,10.83,0,0,0,5.2-1.08,4.78,4.78,0,0,0,2.18-2.47q.6-1.23.6-6.47V178.48c0-3.57-.2-5.79-.6-6.68A5.31,5.31,0,0,0,80,169.46a10.32,10.32,0,0,0-5-1H72.55v-1.9h38.74v1.9h-2.46a10.76,10.76,0,0,0-5.19,1.08A5,5,0,0,0,101.4,172q-.6,1.23-.6,6.48v19.73H127V178.48c0-3.57-.2-5.79-.6-6.68a5.29,5.29,0,0,0-2.46-2.34,10.49,10.49,0,0,0-5-1h-2.41v-1.9h38.69v1.9h-2.4a10.62,10.62,0,0,0-5.2,1.08,5.07,5.07,0,0,0-2.24,2.46q-.6,1.23-.6,6.48v45.83q0,5.34.6,6.68a5.34,5.34,0,0,0,2.46,2.34,10.63,10.63,0,0,0,5,1h2.4v1.9H116.53v-1.9h2.41a10.6,10.6,0,0,0,5.19-1.08,5,5,0,0,0,2.24-2.47q.6-1.23.6-6.47V202.73Z"/><path class="e291b913-8dba-4044-abc8-1d2c683b86f1" d="M131.24,33.09s.19-.25-.4-.54-2.85-.15-6.55-2-14.92-7.95-14.92-7.95-1.77-2.24-2.41-2.29l-2.95-.2S72.25,2.51,72.1,2.51s.05-.93-.49-1.13S70,.89,70,.89a.38.38,0,0,0-.49-.25,1.91,1.91,0,0,1-.84,0l-1-.62-.89.94L68.4,2a20,20,0,0,0,0,4.63c.35,1.38,1.73,2.71,1.93,3.4a7.62,7.62,0,0,0,1.13,2.65c.69.94,2,3.2,2,3.2a16.07,16.07,0,0,1-.25,2.27c-.15.39-.39.79.25,1.18s1.82,1,1.92,1.13.1,1,.54,1.28.39.84.74,1.09a1.63,1.63,0,0,1,.74,1.08c0,.39-.15,3.89.78,4.92S81,31.61,80.91,32a12.63,12.63,0,0,0-1.13,2.11,6.75,6.75,0,0,1-1.18,2.37c-.49.64-2,2.16-2.56,2.85s-1.73,2.37-1.73,2.37S72,42,72.1,42.44a2.89,2.89,0,0,0,2.12,1.73c1.08.1,3.15-.89,3.59-.59a2.44,2.44,0,0,0,1.43.34,2.34,2.34,0,0,1,1.18-.1c.44.15,12.41.21,13.64.36a46.25,46.25,0,0,0,6.79-.31c.35-.14.4-2,0-2.56s-1.77-1.33-2-1a.68.68,0,0,0-.2.54,6,6,0,0,1-2.07-.2c-.84-.29-1.53-1-.64-.88a2.17,2.17,0,0,0,1.23-.1s.25-4.53-.34-5.66-3.6-4.88-4.29-5.22c.79,0,2.56-.25,2.56-.25s1.18-2.51,1.33-3.15a21.49,21.49,0,0,0,4.71-.94,7.11,7.11,0,0,1,2.58-.44l.25-.86s1.28-.28,1.52,0a4.07,4.07,0,0,0,1.92.56,6.64,6.64,0,0,1,1.38.35,11.37,11.37,0,0,0,1.18.15l14.68,7.68s1,.79,1.13.93.15,1.38.34,1.43.3-.84.3-.84l1.28.1a4.31,4.31,0,0,0,1.28.64c.44.05.54.69.54.69v1.78s1.18,0,.94-.74-.59-1.63-.59-1.63.61.3.62,0a1.15,1.15,0,0,1,.21-.54s1.83.25,1.78,0S131.24,33.09,131.24,33.09ZM102.26,21a23.15,23.15,0,0,0-3.6.74c-.8.34-1.5.51-4.09.63s-3.16-.55-3.52-.84a12.1,12.1,0,0,0-2.83-.77,7.7,7.7,0,0,0-1.36.14c-.31,0-.8-.61-.87-.89s.22-.56.31-1a15.63,15.63,0,0,0-.22-4,3.92,3.92,0,0,0-2.43-3.26,3.28,3.28,0,0,0-3.73.89,3.7,3.7,0,0,0-.75,3l-1.07-.29s-1.44-1.09-1.69-1.32-1.86-1.33-2-1.58a8.59,8.59,0,0,1-.39-1.6,12.51,12.51,0,0,0-1.52-2.64C72.08,7.55,71,4.77,71,4.77s.59,0,.94,0,.52-.72.52-.72l30.31,16.56.16.26S102.34,21,102.26,21Z"/><path class="e291b913-8dba-4044-abc8-1d2c683b86f1" d="M146.36,83.54s-3.86,2.36-3.86,2.76.45.66,1.35.56,5.47-1.36,5.47-1.36V84.35l.55,0a61.17,61.17,0,0,0,4.37-7.58c1.1-.55,1.6-1.15,2.2-1.4a16,16,0,0,1,2.76-1c.45,0,7.83-.3,8.58,0a11.21,11.21,0,0,1,2.76,1.56A45.65,45.65,0,0,1,174,80.08s-.5,1.36,0,1.81,2.81,3,2.81,3a17.86,17.86,0,0,0,3-.9c.5.45.3,1.65.55,2s2.91,1.25,3.47.93,0-.93,0-1-.86-.6-.86-.6L183,84l-1.75-.81.35-1.45a11,11,0,0,1-2-4.27c-.3-2.1-1.95-5.77-4.06-6.32s-5.32-1.4-6-1.3-1.56-.65-1.56-.65L167.83,62l1.56-2,10.18.55s.1-3.16.65-3.31,4.67-1.36,4.67-1.36,2.31-1,2.36-1.45,0-3.46,0-3.46l-.86-.46s-.25.2-.3,1.21S186,54,185.54,54.4a13.59,13.59,0,0,1-4.41,1.05c-.81-.05-14.55-.05-14.55-.05s-2.56-.45-2.66-.9a6.78,6.78,0,0,1-.1-1.16s.67-.55,1.06-.35a6.46,6.46,0,0,0,1.65.25l.4-1.65.3-1.11-.45-.7a3.14,3.14,0,0,0,.3-2.51,4.31,4.31,0,0,0-3.51-2.36,4,4,0,0,0-2.81,2.26c-.85.35-2.06,1-2.11,1.61s1.36,1.5,1.36,1.85-.56,1.09-.41,1.65.71.61.66,1-1.11.86-2,.71a18.35,18.35,0,0,0-2.21-.56c-.6,0-1.45-1-2.05-.8a7.67,7.67,0,0,1-3.27-.31c-.75-.24-1.9-1.29-2.55-1s-3,1.95-2.76,2.45a9.08,9.08,0,0,0,4.41,2.91c1.86.36,3.61.2,4.32,1.21a12.47,12.47,0,0,1,1.25,5.37c.05,1.8-.2,5.56-.2,5.56l-.6.56s-1.71-.2-1.91.5-.55,1.4-1.2,1.55-4.09,2.21-4.43,3.16a15,15,0,0,0-.89,3.21,6.11,6.11,0,0,1,0,1.91,5.78,5.78,0,0,0-.05,2.61A4.16,4.16,0,0,1,146.36,83.54Z"/><path class="e291b913-8dba-4044-abc8-1d2c683b86f1" d="M3.47,94.46s2,2.72,12.24,5.37a4.85,4.85,0,0,0,2.18.53S19,99,20.18,99.89c1.24.17,2.83.47,2.83.47H24.3s1.18-2.89,3.53-2.65A3.28,3.28,0,0,1,30.71,100v1.89a1.18,1.18,0,0,1,.77,1c.06.76-.77,1-.77,1v1.53h1.18s2.59-2.89,3.88-3,3.24-.11,3.77-1.06.71-2.12,1.12-2.06.76.59,1.59.12,2.23-.71,2.11,0-2.29,2.64-3.41,2.88-5,2.53-6.18,4.65a31.26,31.26,0,0,1,2.65,3.88,19.35,19.35,0,0,0,2.41,3.3c.65.76,1.77,2,2.12,2.29s1.65,2,2.18,1.89.94-.77,2.47,2a11.28,11.28,0,0,1,3.94,2.53,21.34,21.34,0,0,0,3.94,2.89c.24,0,1.24-.77,2.06,0a9.4,9.4,0,0,0,3.12,1.41,14.53,14.53,0,0,1,3.47,1.41,6.78,6.78,0,0,0,2.71,1.53c.77.06,1.5-.18,2.16.53a5.25,5.25,0,0,1,1,1.47,21.4,21.4,0,0,1,3.53,2c1.53.71,4.18,3,4.12,3.53-.3.88-2.41,1.06-3.3.41s-3.35-1.94-3.7-2.53S68.43,134,67.72,134s-1.11.53-2.06-.17-1.82-1.65-2.41-1.59a7.87,7.87,0,0,1-3.12-.24c-.59-.35-1.17-1.12-1.7-.76a4.65,4.65,0,0,1-2.83.94,5.4,5.4,0,0,1-2.12-1.12c-.47-.29-4-1.44-4.41-1.57s-2.18-.19-2.59-.31-1.59-.77-2.12-.65a12.39,12.39,0,0,0-2.29,1,10.33,10.33,0,0,1-3.35.87,12.17,12.17,0,0,1-1.59,0l-1.24,1.41a10.89,10.89,0,0,1-7.53-1.89c-3.82-2.58-4.12-3.88-3.71-4.7s2.24-2.47,3-2.12a5.57,5.57,0,0,0,1.94.76c.64.06,4.35.24,4.47-.29s-1.59-2.12-2-2.94.53-1.59.12-1.88-3.59-2.59-3.77-3.36.18-1.47-.24-1.88a2.09,2.09,0,0,1-.41-1.65,9.1,9.1,0,0,0,.12-1.65,9.36,9.36,0,0,1-2-2.17,9.4,9.4,0,0,1-.59-1.71A6.76,6.76,0,0,1,23.42,103a4,4,0,0,0-1.71,1s-1.35-.83-1.35-.65a2.54,2.54,0,0,0,.4.7s1.13,1,.95,1.36-2.06.47-2.23,1.35-.18,3.83-1.36,3.94-4.82-.11-5.12-.53.06-1.35.06-1.35,2.12-1.35,2.41-2.12,1-2.7,1.3-2.65a16.53,16.53,0,0,0,1.71.3c.35,0,.82-.94.82-.94s-.77-.65-1.18-.53-1-1.53-1-1.53S2.71,98.2,0,94.46C1.94,94.41,3.47,94.46,3.47,94.46Z"/><path class="e291b913-8dba-4044-abc8-1d2c683b86f1" d="M110.54,126.36s6-3.33,18.87-4.87c0,0,1.39.94,1.64,1.19a3.65,3.65,0,0,1-.7,2.48c-.39.75-2.48,3.48-3.22,5.07s-1.79,4.22-1.79,4.22h-2.48s-.1-.8-.35-.8-.84-3-3.23-2.48-2.33,4-2.33,4a1.69,1.69,0,0,0,0,1.54,7.54,7.54,0,0,1,.64,2.14l-1,.74s-5.11,1.59-5.61,1.89a45.19,45.19,0,0,1-5.81.25s-.69-1.44-1.34-1.49a5.1,5.1,0,0,1-1.84-.4c-.24-.2-.24.5.45,1.09a9.71,9.71,0,0,0,2,1.39,9.47,9.47,0,0,1,2.58.6,4.59,4.59,0,0,0,2.08.59c.3,0,.75-.28,1,0s.49,1.63,1.14,1.68,2.43-1.44,2.43-1.44l1-.1a9.07,9.07,0,0,1-.79,2.24,11.92,11.92,0,0,1-4.17,3.22c-1.39.55-3.18,1.25-3.28,2.09a11,11,0,0,1-.3,1.54,29.83,29.83,0,0,1-3.47,2.48c-1.09.55-4,2.24-4,2.24a5.74,5.74,0,0,0-2.48,0c-.6.34-8.3,4.91-8.84,5.56s-1.19,1.73-1,2,1.84,1.34,2.29,1.24a18,18,0,0,0,2-.84l4.77-.1s-.2-.35.65-.55a41,41,0,0,0,6.8-2.88,19.91,19.91,0,0,0,7-2.13,6.94,6.94,0,0,1,2.38-1s1.49,1.34,1.94,1.34,1.34-2.39,2.08-2.49,1.74,1.64,2.19,1.54,1.59-2,2.18-2.13,2.53-.5,3.08-.2a12.8,12.8,0,0,1,2.73,3.77c0,.45-1.16,2.73-.78,3.63s.88,2.09.88,2.09h.5l.34.54h5.07a.79.79,0,0,0-.25-.8c-.4-.44-1.19-1.19-1.19-1.19s-.94-4.56-1-6.15-.55-5.37-1.24-6.46-1.3-1.69-1.94-1.69-4.47.15-4.47.15a2.52,2.52,0,0,1,.25-1.68,14,14,0,0,0,1.84-5.22,8.34,8.34,0,0,1,.29-2.23,17.47,17.47,0,0,0,1.39-3.28,4.05,4.05,0,0,1,1.24-1.84,5.93,5.93,0,0,1,.45-2.83c.65-1.63,2.53-4.32,3-5.8s1.19-2.93,1.19-3.73v-2.58h.85a3.53,3.53,0,0,0,.64,1,7.39,7.39,0,0,1,.3,1.74s-.7,1.34-.3,1.84a8.73,8.73,0,0,0,2,1.24l.54-.85s-1-1.58-1.34-2.18a5.17,5.17,0,0,1-.29-1.74s.39,0,.39-1-.44-.94-1-1a1.24,1.24,0,0,0-1,.44l-.9.1s-.29-.84-1-.79a3.1,3.1,0,0,0-1.44.59S114.32,122.33,110.54,126.36Z"/><path class="e291b913-8dba-4044-abc8-1d2c683b86f1" d="M152.73,186.89s1.44-1.78,2.27-1.94a9.09,9.09,0,0,0,3.11-1.56c.5-.5-1.11-1.27-1.72-1.16s-1.5.72-2.61,1-2.49,2.72-2.49,2.72a36.26,36.26,0,0,0,1.33,6.54c.78,1.89,4.88,11,4.88,11l-.72,1.5s2.72,3.38,2.88,3.83-.5,1.83,0,2.33a5.43,5.43,0,0,1,.72,3.21c-.11.83,1.06,3.16,1.06,3.16l-.28,1.06h-1.11a2.69,2.69,0,0,0-2.38-1.11,3.29,3.29,0,0,0-2.83,2.16,8.17,8.17,0,0,0,.83,4.61c.55.94,3.72,7.49,3.72,7.49h.66l-.28.83s-2.71.83-2.71,1.33,8.71.33,8.71.33.83-1.16.72-1.61-1.11-2.6-1.11-2.6l.5-1.11.62-.06s1.54.61,2.87,1.11,8.65,4.55,10.26,5.44,5.66,2.55,7.94,2.22,3.71-.61,3.71-.28a2.17,2.17,0,0,1-.66,1.16,10.92,10.92,0,0,0-1.06.78s-.33.61.84.67,6.71,0,6.71,0,2.27-.95,2.22-1.45-4.55-4.82-4.55-4.82l-1.72.16a12,12,0,0,0-2.78-2.1c-1.16-.5-4.6-1.72-4.88-2.17a32.32,32.32,0,0,0-3.88-3.33,2.85,2.85,0,0,0-1.28-.11,60.12,60.12,0,0,0-3.1-5.54,4.65,4.65,0,0,1-1.83-2.56c-.11-1.11.55-2.05,1.16-2a13.64,13.64,0,0,1,1.55.27s1.39.17,1.67-.22l1.55-2.16s2.28-.22,2.89-.78a5.7,5.7,0,0,1,1.44-.89h1.22s1.39-2.38,1.28-2.94a11.27,11.27,0,0,0-1.11-2,2,2,0,0,0-1.67.06,2,2,0,0,0-.94,1,7.82,7.82,0,0,1,1.05,1.72,2.75,2.75,0,0,1-.44,1h-7.88a5.84,5.84,0,0,0-2.16-.92,8.72,8.72,0,0,0-1.55.16s-.78-1.38-1.45-1.33a6,6,0,0,0-1.16.22l.5-1.44c.05-.16,1.55-2.83,1.49-3.38s-.88-1.39-.88-1.39,0-3.05-.45-3.6-1.72-2.28-3.66-2.11-3.49,1.16-3.77,2.77a5.73,5.73,0,0,0-.17,1.72l.17,1.78h-.83a17.93,17.93,0,0,0-2.39-3.11,15.76,15.76,0,0,0-1.49-.67s-2.78-7.37-3.28-7.71a14,14,0,0,1-1.44-1.27Z"/></svg>