<svg id="svg" version="1.1" xmlns="http://www.w3.org/2000/svg" xmlns:xlink="http://www.w3.org/1999/xlink" width="400" height="400" viewBox="0, 0, 400,400"><g id="svgg"><path id="path0" d="M120.800 32.390 C 104.862 35.864,92.090 47.524,87.708 62.600 C 85.763 69.291,85.869 65.715,85.714 129.964 C 85.634 163.054,85.710 190.258,85.884 190.417 C 86.307 190.803,101.049 189.812,107.032 188.995 C 109.655 188.637,116.660 188.188,122.600 187.997 C 129.316 187.781,134.535 187.419,136.400 187.040 C 148.077 184.672,148.087 184.671,164.800 184.549 C 180.694 184.434,188.266 184.079,198.600 182.966 C 206.633 182.101,210.102 182.164,212.112 183.212 C 217.531 186.036,221.044 191.190,221.783 197.400 C 222.520 203.590,224.932 214.631,226.643 219.643 C 228.178 224.139,228.563 225.900,229.038 230.600 C 229.350 233.680,229.785 237.910,230.006 240.000 C 230.817 247.678,230.297 250.040,226.923 253.982 C 224.718 256.557,223.394 256.736,213.800 255.752 L 211.400 255.505 211.535 258.401 C 211.830 264.740,207.787 272.010,202.604 274.462 C 196.932 277.145,190.595 275.828,181.421 270.059 C 174.158 265.492,174.800 265.794,169.326 264.368 C 150.888 259.562,150.803 259.532,141.949 254.666 C 135.613 251.185,133.129 249.553,129.000 246.161 C 126.190 243.853,123.353 241.686,122.695 241.346 C 119.847 239.873,94.622 239.747,87.200 241.168 L 85.800 241.436 85.733 276.418 C 85.660 314.859,85.813 318.718,87.656 324.926 C 90.854 335.698,98.782 345.873,107.989 351.023 C 108.752 351.450,109.831 352.205,110.385 352.700 C 110.939 353.195,111.698 353.600,112.072 353.600 C 112.447 353.600,112.857 353.769,112.984 353.975 C 113.741 355.199,121.923 358.222,126.600 359.006 C 131.512 359.828,269.944 360.355,278.400 359.583 C 296.874 357.896,309.225 349.204,315.605 333.400 C 316.779 330.490,318.064 324.851,317.782 323.841 C 317.589 323.149,317.628 323.106,318.000 323.600 C 318.347 324.061,318.417 323.622,318.300 321.700 C 318.217 320.325,318.273 319.200,318.424 319.200 C 318.575 319.200,318.706 311.300,318.715 301.645 L 318.732 284.089 317.466 283.467 C 316.770 283.125,314.031 282.386,311.380 281.824 C 305.006 280.473,293.149 277.210,284.464 274.416 C 282.613 273.820,280.859 273.600,277.964 273.600 C 274.637 273.600,273.438 273.411,270.500 272.423 C 264.455 270.391,262.785 269.725,255.600 266.485 L 248.600 263.327 245.980 259.467 C 233.540 241.137,227.511 215.388,229.573 189.400 C 229.800 186.540,230.170 180.150,230.395 175.200 C 231.766 145.015,237.183 128.600,245.772 128.600 L 247.870 128.600 248.540 122.800 C 250.423 106.500,253.904 100.573,261.184 101.267 L 262.822 101.423 263.374 99.563 C 266.630 88.598,277.882 89.515,280.579 100.964 C 281.245 103.792,281.383 104.043,282.154 103.817 C 294.441 100.213,298.908 115.854,301.397 171.200 C 301.653 176.897,302.176 182.305,303.386 191.764 C 304.124 197.539,303.469 197.072,308.535 195.430 C 310.877 194.671,313.650 193.937,314.697 193.799 C 315.743 193.661,317.050 193.466,317.600 193.364 L 318.600 193.180 318.533 140.290 C 318.496 111.201,318.464 85.780,318.461 83.800 C 318.456 79.497,318.497 80.295,318.025 75.400 C 315.901 53.380,303.933 38.296,284.155 32.711 L 281.000 31.820 202.600 31.735 C 127.590 31.653,124.053 31.681,120.800 32.390 M259.700 103.076 C 260.085 103.176,260.715 103.176,261.100 103.076 C 261.485 102.975,261.170 102.893,260.400 102.893 C 259.630 102.893,259.315 102.975,259.700 103.076 M255.375 105.300 L 254.200 106.600 255.500 105.425 C 256.215 104.779,256.800 104.194,256.800 104.125 C 256.800 103.816,256.470 104.088,255.375 105.300 M283.852 107.116 C 283.744 107.290,284.273 107.361,285.028 107.273 C 285.783 107.185,286.400 107.042,286.400 106.956 C 286.400 106.655,284.045 106.803,283.852 107.116 M262.924 113.000 C 262.926 114.320,263.001 114.812,263.090 114.093 C 263.179 113.374,263.177 112.294,263.086 111.693 C 262.995 111.092,262.922 111.680,262.924 113.000 M277.334 113.600 C 277.334 115.250,277.405 115.925,277.491 115.100 C 277.578 114.275,277.578 112.925,277.491 112.100 C 277.405 111.275,277.334 111.950,277.334 113.600 M264.928 114.400 C 264.928 115.830,265.001 116.415,265.089 115.700 C 265.178 114.985,265.178 113.815,265.089 113.100 C 265.001 112.385,264.928 112.970,264.928 114.400 M277.340 121.200 C 277.340 123.070,277.409 123.835,277.493 122.900 C 277.577 121.965,277.577 120.435,277.493 119.500 C 277.409 118.565,277.340 119.330,277.340 121.200 M262.968 126.600 C 262.968 131.000,263.026 132.855,263.098 130.721 C 263.170 128.588,263.170 124.988,263.099 122.721 C 263.027 120.455,262.968 122.200,262.968 126.600 M264.934 125.200 C 264.934 126.850,265.005 127.525,265.091 126.700 C 265.178 125.875,265.178 124.525,265.091 123.700 C 265.005 122.875,264.934 123.550,264.934 125.200 M264.514 131.800 C 264.517 132.900,264.595 133.303,264.687 132.695 C 264.779 132.086,264.777 131.186,264.682 130.695 C 264.587 130.203,264.511 130.700,264.514 131.800 M294.893 132.000 C 294.893 132.770,294.975 133.085,295.076 132.700 C 295.176 132.315,295.176 131.685,295.076 131.300 C 294.975 130.915,294.893 131.230,294.893 132.000 M243.375 133.700 L 242.200 135.000 243.500 133.825 C 244.215 133.179,244.800 132.594,244.800 132.525 C 244.800 132.216,244.470 132.488,243.375 133.700 M296.909 135.600 C 296.909 136.590,296.987 136.995,297.082 136.500 C 297.178 136.005,297.178 135.195,297.082 134.700 C 296.987 134.205,296.909 134.610,296.909 135.600 M248.954 140.577 C 248.832 140.894,248.803 141.479,248.889 141.877 C 248.987 142.328,249.124 142.112,249.254 141.300 C 249.471 139.938,249.330 139.596,248.954 140.577 M262.580 154.000 C 262.580 161.810,262.634 165.005,262.699 161.100 C 262.765 157.195,262.765 150.805,262.699 146.900 C 262.634 142.995,262.580 146.190,262.580 154.000 M264.120 142.000 C 264.120 143.210,264.195 143.705,264.287 143.100 C 264.378 142.495,264.378 141.505,264.287 140.900 C 264.195 140.295,264.120 140.790,264.120 142.000 M297.293 141.200 C 297.293 141.970,297.375 142.285,297.476 141.900 C 297.576 141.515,297.576 140.885,297.476 140.500 C 297.375 140.115,297.293 140.430,297.293 141.200 M277.763 146.800 C 277.763 150.430,277.823 151.915,277.898 150.100 C 277.972 148.285,277.972 145.315,277.898 143.500 C 277.823 141.685,277.763 143.170,277.763 146.800 M246.928 144.000 C 246.928 145.430,247.001 146.015,247.089 145.300 C 247.178 144.585,247.178 143.415,247.089 142.700 C 247.001 141.985,246.928 142.570,246.928 144.000 M248.520 147.200 C 248.520 148.410,248.595 148.905,248.687 148.300 C 248.778 147.695,248.778 146.705,248.687 146.100 C 248.595 145.495,248.520 145.990,248.520 147.200 M246.501 150.200 C 246.505 151.080,246.587 151.393,246.683 150.895 C 246.779 150.398,246.775 149.678,246.675 149.295 C 246.575 148.913,246.496 149.320,246.501 150.200 M296.901 152.600 C 296.905 153.480,296.987 153.793,297.083 153.295 C 297.179 152.798,297.175 152.078,297.075 151.695 C 296.975 151.313,296.896 151.720,296.901 152.600 M298.501 155.400 C 298.505 156.280,298.587 156.593,298.683 156.095 C 298.779 155.598,298.775 154.878,298.675 154.495 C 298.575 154.113,298.496 154.520,298.501 155.400 M277.734 157.600 C 277.734 159.250,277.805 159.925,277.891 159.100 C 277.978 158.275,277.978 156.925,277.891 156.100 C 277.805 155.275,277.734 155.950,277.734 157.600 M297.314 157.800 C 297.317 158.900,297.395 159.303,297.487 158.695 C 297.579 158.086,297.577 157.186,297.482 156.695 C 297.387 156.203,297.311 156.700,297.314 157.800 M246.554 161.600 C 246.554 164.350,246.618 165.475,246.696 164.100 C 246.774 162.725,246.774 160.475,246.696 159.100 C 246.618 157.725,246.554 158.850,246.554 161.600 M279.331 161.400 C 279.333 162.940,279.405 163.521,279.492 162.691 C 279.579 161.861,279.577 160.601,279.489 159.891 C 279.400 159.181,279.329 159.860,279.331 161.400 M298.931 161.400 C 298.933 162.940,299.005 163.521,299.092 162.691 C 299.179 161.861,299.177 160.601,299.089 159.891 C 299.000 159.181,298.929 159.860,298.931 161.400 M234.914 161.800 C 234.917 162.900,234.995 163.303,235.087 162.695 C 235.179 162.086,235.177 161.186,235.082 160.695 C 234.987 160.203,234.911 160.700,234.914 161.800 M232.920 164.000 C 232.920 165.210,232.995 165.705,233.087 165.100 C 233.178 164.495,233.178 163.505,233.087 162.900 C 232.995 162.295,232.920 162.790,232.920 164.000 M297.693 165.200 C 297.693 165.970,297.775 166.285,297.876 165.900 C 297.976 165.515,297.976 164.885,297.876 164.500 C 297.775 164.115,297.693 164.430,297.693 165.200 M234.509 168.400 C 234.509 169.390,234.587 169.795,234.682 169.300 C 234.778 168.805,234.778 167.995,234.682 167.500 C 234.587 167.005,234.509 167.410,234.509 168.400 M232.501 169.800 C 232.505 170.680,232.587 170.993,232.683 170.495 C 232.779 169.998,232.775 169.278,232.675 168.895 C 232.575 168.513,232.496 168.920,232.501 169.800 M264.500 168.676 C 264.885 168.776,265.515 168.776,265.900 168.676 C 266.285 168.575,265.970 168.493,265.200 168.493 C 264.430 168.493,264.115 168.575,264.500 168.676 M299.314 170.600 C 299.317 171.700,299.395 172.103,299.487 171.495 C 299.579 170.886,299.577 169.986,299.482 169.495 C 299.387 169.003,299.311 169.500,299.314 170.600 M298.093 174.000 C 298.093 174.770,298.175 175.085,298.276 174.700 C 298.376 174.315,298.376 173.685,298.276 173.300 C 298.175 172.915,298.093 173.230,298.093 174.000 M234.109 176.800 C 234.109 177.790,234.187 178.195,234.282 177.700 C 234.378 177.205,234.378 176.395,234.282 175.900 C 234.187 175.405,234.109 175.810,234.109 176.800 M232.101 177.800 C 232.105 178.680,232.187 178.993,232.283 178.495 C 232.379 177.998,232.375 177.278,232.275 176.895 C 232.175 176.513,232.096 176.920,232.101 177.800 M197.505 185.083 C 198.002 185.179,198.722 185.175,199.105 185.075 C 199.487 184.975,199.080 184.896,198.200 184.901 C 197.320 184.905,197.007 184.987,197.505 185.083 M193.300 185.476 C 193.685 185.576,194.315 185.576,194.700 185.476 C 195.085 185.375,194.770 185.293,194.000 185.293 C 193.230 185.293,192.915 185.375,193.300 185.476 M231.693 186.800 C 231.693 187.570,231.775 187.885,231.876 187.500 C 231.976 187.115,231.976 186.485,231.876 186.100 C 231.775 185.715,231.693 186.030,231.693 186.800 M156.500 186.276 C 156.885 186.376,157.515 186.376,157.900 186.276 C 158.285 186.175,157.970 186.093,157.200 186.093 C 156.430 186.093,156.115 186.175,156.500 186.276 M200.705 187.083 C 201.202 187.179,201.922 187.175,202.305 187.075 C 202.687 186.975,202.280 186.896,201.400 186.901 C 200.520 186.905,200.207 186.987,200.705 187.083 M300.893 188.000 C 300.893 188.770,300.975 189.085,301.076 188.700 C 301.176 188.315,301.176 187.685,301.076 187.300 C 300.975 186.915,300.893 187.230,300.893 188.000 M154.316 188.697 C 155.699 188.775,157.859 188.774,159.116 188.695 C 160.372 188.616,159.240 188.552,156.600 188.553 C 153.960 188.553,152.932 188.618,154.316 188.697 M181.300 188.676 C 181.685 188.776,182.315 188.776,182.700 188.676 C 183.085 188.575,182.770 188.493,182.000 188.493 C 181.230 188.493,180.915 188.575,181.300 188.676 M146.900 189.076 C 147.285 189.176,147.915 189.176,148.300 189.076 C 148.685 188.975,148.370 188.893,147.600 188.893 C 146.830 188.893,146.515 188.975,146.900 189.076 M212.800 188.925 C 212.800 188.994,213.385 189.579,214.100 190.225 L 215.400 191.400 214.225 190.100 C 213.130 188.888,212.800 188.616,212.800 188.925 M122.117 189.897 C 123.611 189.974,125.951 189.974,127.317 189.896 C 128.682 189.818,127.460 189.755,124.600 189.755 C 121.740 189.756,120.622 189.820,122.117 189.897 M133.700 191.076 C 134.085 191.176,134.715 191.176,135.100 191.076 C 135.485 190.975,135.170 190.893,134.400 190.893 C 133.630 190.893,133.315 190.975,133.700 191.076 M117.905 191.883 C 118.402 191.979,119.122 191.975,119.505 191.875 C 119.887 191.775,119.480 191.696,118.600 191.701 C 117.720 191.705,117.407 191.787,117.905 191.883 M91.905 192.283 C 92.402 192.379,93.122 192.375,93.505 192.275 C 93.887 192.175,93.480 192.096,92.600 192.101 C 91.720 192.105,91.407 192.187,91.905 192.283 M80.105 193.087 C 80.714 193.179,81.614 193.177,82.105 193.082 C 82.597 192.987,82.100 192.911,81.000 192.914 C 79.900 192.917,79.497 192.995,80.105 193.087 M75.300 193.476 C 75.685 193.576,76.315 193.576,76.700 193.476 C 77.085 193.375,76.770 193.293,76.000 193.293 C 75.230 193.293,74.915 193.375,75.300 193.476 M232.928 196.000 C 232.928 197.430,233.001 198.015,233.089 197.300 C 233.178 196.585,233.178 195.415,233.089 194.700 C 233.001 193.985,232.928 194.570,232.928 196.000 M83.500 194.289 C 84.215 194.378,85.385 194.378,86.100 194.289 C 86.815 194.201,86.230 194.128,84.800 194.128 C 83.370 194.128,82.785 194.201,83.500 194.289 M230.965 200.800 C 230.965 204.650,231.025 206.225,231.098 204.300 C 231.171 202.375,231.171 199.225,231.098 197.300 C 231.025 195.375,230.965 196.950,230.965 200.800 M196.991 196.557 C 196.202 197.134,195.833 198.400,196.453 198.400 C 196.663 198.400,196.782 198.104,196.718 197.741 C 196.653 197.379,196.850 196.996,197.156 196.890 C 197.464 196.782,197.600 196.877,197.460 197.103 C 197.322 197.326,197.522 197.755,197.904 198.055 C 198.517 198.535,198.541 198.525,198.110 197.970 C 197.763 197.526,197.744 197.216,198.044 196.916 C 198.708 196.252,197.821 195.950,196.991 196.557 M321.600 196.925 C 321.600 196.994,322.185 197.579,322.900 198.225 L 324.200 199.400 323.025 198.100 C 321.930 196.888,321.600 196.616,321.600 196.925 M193.381 199.700 L 191.800 201.400 193.500 199.819 C 195.081 198.348,195.384 198.000,195.081 198.000 C 195.016 198.000,194.251 198.765,193.381 199.700 M206.905 202.277 C 207.293 202.378,207.490 202.655,207.343 202.892 C 207.185 203.149,207.264 203.208,207.538 203.038 C 208.307 202.563,208.057 201.997,207.100 202.046 C 206.415 202.082,206.368 202.137,206.905 202.277 M232.928 204.400 C 232.928 205.830,233.001 206.415,233.089 205.700 C 233.178 204.985,233.178 203.815,233.089 203.100 C 233.001 202.385,232.928 202.970,232.928 204.400 M308.400 204.600 C 309.146 205.370,309.847 206.000,309.957 206.000 C 310.067 206.000,309.546 205.370,308.800 204.600 C 308.054 203.830,307.353 203.200,307.243 203.200 C 307.133 203.200,307.654 203.830,308.400 204.600 M176.650 204.914 C 175.992 205.395,176.000 205.429,176.763 205.429 C 177.213 205.429,177.669 205.197,177.778 204.914 C 177.886 204.631,177.835 204.400,177.664 204.400 C 177.493 204.400,177.036 204.631,176.650 204.914 M281.775 205.700 L 280.600 207.000 281.900 205.825 C 282.615 205.179,283.200 204.594,283.200 204.525 C 283.200 204.216,282.870 204.488,281.775 205.700 M178.575 206.500 L 177.400 207.800 178.700 206.625 C 179.912 205.530,180.184 205.200,179.875 205.200 C 179.806 205.200,179.221 205.785,178.575 206.500 M174.975 207.700 L 173.800 209.000 175.100 207.825 C 176.312 206.730,176.584 206.400,176.275 206.400 C 176.206 206.400,175.621 206.985,174.975 207.700 M279.391 210.100 L 276.200 213.400 279.500 210.209 C 282.565 207.246,282.982 206.800,282.691 206.800 C 282.630 206.800,281.145 208.285,279.391 210.100 M197.178 209.425 C 196.414 210.215,196.112 210.730,196.500 210.582 C 196.885 210.435,197.200 210.132,197.200 209.908 C 197.200 209.663,197.423 209.687,197.764 209.970 C 198.120 210.265,198.419 210.294,198.571 210.047 C 198.704 209.832,198.621 209.537,198.387 209.392 C 198.091 209.209,198.104 208.957,198.430 208.564 C 199.339 207.468,198.539 208.018,197.178 209.425 M324.893 211.600 C 324.893 212.370,324.975 212.685,325.076 212.300 C 325.176 211.915,325.176 211.285,325.076 210.900 C 324.975 210.515,324.893 210.830,324.893 211.600 M318.378 212.700 L 317.000 214.200 318.500 212.822 C 319.896 211.538,320.184 211.200,319.878 211.200 C 319.812 211.200,319.137 211.875,318.378 212.700 M322.909 212.800 C 322.909 213.790,322.987 214.195,323.082 213.700 C 323.178 213.205,323.178 212.395,323.082 211.900 C 322.987 211.405,322.909 211.810,322.909 212.800 M318.575 213.700 L 317.400 215.000 318.700 213.825 C 319.912 212.730,320.184 212.400,319.875 212.400 C 319.806 212.400,319.221 212.985,318.575 213.700 M297.200 212.925 C 297.200 212.994,297.785 213.579,298.500 214.225 L 299.800 215.400 298.625 214.100 C 297.530 212.888,297.200 212.616,297.200 212.925 M253.775 216.100 L 252.600 217.400 253.900 216.225 C 254.615 215.579,255.200 214.994,255.200 214.925 C 255.200 214.616,254.870 214.888,253.775 216.100 M253.578 218.300 L 252.200 219.800 253.700 218.422 C 254.525 217.663,255.200 216.988,255.200 216.922 C 255.200 216.616,254.862 216.904,253.578 218.300 M304.058 217.324 C 304.343 217.629,304.904 217.793,305.304 217.689 C 306.186 217.458,306.119 217.389,304.670 217.041 C 303.718 216.813,303.622 216.857,304.058 217.324 M324.534 219.600 C 324.534 221.250,324.605 221.925,324.691 221.100 C 324.778 220.275,324.778 218.925,324.691 218.100 C 324.605 217.275,324.534 217.950,324.534 219.600 M322.528 220.000 C 322.528 221.430,322.601 222.015,322.689 221.300 C 322.778 220.585,322.778 219.415,322.689 218.700 C 322.601 217.985,322.528 218.570,322.528 220.000 M304.633 219.547 C 304.515 219.737,304.820 220.232,305.309 220.647 L 306.200 221.400 305.476 220.541 C 304.916 219.879,304.871 219.635,305.276 219.473 C 305.627 219.332,305.643 219.253,305.324 219.232 C 305.062 219.214,304.751 219.356,304.633 219.547 M186.893 222.400 C 186.893 223.170,186.975 223.485,187.076 223.100 C 187.176 222.715,187.176 222.085,187.076 221.700 C 186.975 221.315,186.893 221.630,186.893 222.400 M208.200 222.709 C 206.757 223.013,206.750 223.462,208.188 223.430 C 208.963 223.414,209.598 223.276,209.599 223.124 C 209.601 222.685,209.066 222.527,208.200 222.709 M226.901 228.600 C 226.905 229.480,226.987 229.793,227.083 229.295 C 227.179 228.798,227.175 228.078,227.075 227.695 C 226.975 227.313,226.896 227.720,226.901 228.600 M120.460 229.700 L 120.520 231.000 120.693 229.830 C 120.824 228.950,120.956 228.802,121.227 229.230 C 121.521 229.695,121.589 229.671,121.594 229.100 C 121.597 228.715,121.330 228.400,121.000 228.400 C 120.577 228.400,120.418 228.784,120.460 229.700 M224.909 231.200 C 224.909 232.190,224.987 232.595,225.082 232.100 C 225.178 231.605,225.178 230.795,225.082 230.300 C 224.987 229.805,224.909 230.210,224.909 231.200 M200.433 230.100 C 200.525 230.155,201.140 230.650,201.800 231.200 L 203.000 232.200 202.030 231.100 C 201.497 230.495,200.882 230.000,200.664 230.000 C 200.445 230.000,200.342 230.045,200.433 230.100 M225.293 235.600 C 225.293 236.370,225.375 236.685,225.476 236.300 C 225.576 235.915,225.576 235.285,225.476 234.900 C 225.375 234.515,225.293 234.830,225.293 235.600 M197.060 235.103 C 196.749 235.607,197.142 236.800,197.619 236.800 C 198.258 236.800,198.371 236.113,197.848 235.398 C 197.516 234.943,197.226 234.835,197.060 235.103 M331.900 235.089 C 332.615 235.178,333.785 235.178,334.500 235.089 C 335.215 235.001,334.630 234.928,333.200 234.928 C 331.770 234.928,331.185 235.001,331.900 235.089 M324.300 235.489 C 325.015 235.578,326.185 235.578,326.900 235.489 C 327.615 235.401,327.030 235.328,325.600 235.328 C 324.170 235.328,323.585 235.401,324.300 235.489 M104.115 235.896 C 105.388 235.976,107.368 235.975,108.515 235.894 C 109.662 235.814,108.620 235.749,106.200 235.750 C 103.780 235.751,102.842 235.816,104.115 235.896 M320.594 236.410 C 320.455 236.635,320.489 236.787,320.670 236.746 C 320.852 236.706,321.323 236.814,321.717 236.986 C 322.112 237.158,322.547 237.187,322.684 237.049 C 322.821 236.912,322.633 236.800,322.267 236.800 C 321.900 236.800,321.600 236.620,321.600 236.400 C 321.600 235.878,320.919 235.884,320.594 236.410 M328.705 236.683 C 329.202 236.779,329.922 236.775,330.305 236.675 C 330.687 236.575,330.280 236.496,329.400 236.501 C 328.520 236.505,328.207 236.587,328.705 236.683 M87.905 237.083 C 88.402 237.179,89.122 237.175,89.505 237.075 C 89.887 236.975,89.480 236.896,88.600 236.901 C 87.720 236.905,87.407 236.987,87.905 237.083 M99.905 238.283 C 100.402 238.379,101.122 238.375,101.505 238.275 C 101.887 238.175,101.480 238.096,100.600 238.101 C 99.720 238.105,99.407 238.187,99.905 238.283 M109.700 238.287 C 110.305 238.378,111.295 238.378,111.900 238.287 C 112.505 238.195,112.010 238.120,110.800 238.120 C 109.590 238.120,109.095 238.195,109.700 238.287 M93.905 238.683 C 94.402 238.779,95.122 238.775,95.505 238.675 C 95.887 238.575,95.480 238.496,94.600 238.501 C 93.720 238.505,93.407 238.587,93.905 238.683 M66.900 239.076 C 67.285 239.176,67.915 239.176,68.300 239.076 C 68.685 238.975,68.370 238.893,67.600 238.893 C 66.830 238.893,66.515 238.975,66.900 239.076 M88.505 239.087 C 89.114 239.179,90.014 239.177,90.505 239.082 C 90.997 238.987,90.500 238.911,89.400 238.914 C 88.300 238.917,87.897 238.995,88.505 239.087 M191.600 242.600 C 192.346 243.370,193.047 244.000,193.157 244.000 C 193.267 244.000,192.746 243.370,192.000 242.600 C 191.254 241.830,190.553 241.200,190.443 241.200 C 190.333 241.200,190.854 241.830,191.600 242.600 M263.340 244.800 C 263.340 246.670,263.409 247.435,263.493 246.500 C 263.577 245.565,263.577 244.035,263.493 243.100 C 263.409 242.165,263.340 242.930,263.340 244.800 M264.140 245.200 C 264.140 247.070,264.209 247.835,264.293 246.900 C 264.377 245.965,264.377 244.435,264.293 243.500 C 264.209 242.565,264.140 243.330,264.140 245.200 M168.175 244.100 L 167.000 245.400 168.300 244.225 C 169.512 243.130,169.784 242.800,169.475 242.800 C 169.406 242.800,168.821 243.385,168.175 244.100 M191.400 244.400 C 192.259 245.280,193.052 246.000,193.162 246.000 C 193.272 246.000,192.659 245.280,191.800 244.400 C 190.941 243.520,190.148 242.800,190.038 242.800 C 189.928 242.800,190.541 243.520,191.400 244.400 M228.509 245.600 C 228.509 246.590,228.587 246.995,228.682 246.500 C 228.778 246.005,228.778 245.195,228.682 244.700 C 228.587 244.205,228.509 244.610,228.509 245.600 M168.581 246.500 L 167.000 248.200 168.700 246.619 C 170.281 245.148,170.584 244.800,170.281 244.800 C 170.216 244.800,169.451 245.565,168.581 246.500 M308.778 247.900 L 307.400 249.400 308.900 248.022 C 309.725 247.263,310.400 246.588,310.400 246.522 C 310.400 246.216,310.062 246.504,308.778 247.900 M307.992 251.900 L 304.200 255.800 308.100 252.008 C 311.722 248.486,312.182 248.000,311.892 248.000 C 311.833 248.000,310.078 249.755,307.992 251.900 M206.500 251.494 C 207.545 251.576,209.255 251.576,210.300 251.494 C 211.345 251.412,210.490 251.344,208.400 251.344 C 206.310 251.344,205.455 251.412,206.500 251.494 M205.000 254.000 C 205.859 254.880,206.652 255.600,206.762 255.600 C 206.872 255.600,206.259 254.880,205.400 254.000 C 204.541 253.120,203.748 252.400,203.638 252.400 C 203.528 252.400,204.141 253.120,205.000 254.000 M209.300 253.476 C 209.685 253.576,210.315 253.576,210.700 253.476 C 211.085 253.375,210.770 253.293,210.000 253.293 C 209.230 253.293,208.915 253.375,209.300 253.476 M209.693 258.800 C 209.693 259.570,209.775 259.885,209.876 259.500 C 209.976 259.115,209.976 258.485,209.876 258.100 C 209.775 257.715,209.693 258.030,209.693 258.800 M202.975 269.300 L 201.800 270.600 203.100 269.425 C 204.312 268.330,204.584 268.000,204.275 268.000 C 204.206 268.000,203.621 268.585,202.975 269.300 M277.905 271.883 C 278.402 271.979,279.122 271.975,279.505 271.875 C 279.887 271.775,279.480 271.696,278.600 271.701 C 277.720 271.705,277.407 271.787,277.905 271.883 " stroke="none" fill="#a91b1c" fill-rule="evenodd"></path><path id="path1" d="M268.495 94.618 C 267.137 95.570,265.774 98.292,265.000 101.600 C 264.613 103.250,264.231 104.839,264.149 105.131 C 264.053 105.476,263.636 105.229,262.965 104.431 C 260.784 101.839,256.113 103.492,254.010 107.600 C 252.274 110.990,251.026 117.255,249.987 127.789 C 249.478 132.953,249.571 132.783,247.986 131.450 C 243.093 127.333,236.243 138.787,234.022 154.800 C 232.342 166.917,230.771 202.859,231.566 211.002 C 233.271 228.454,241.501 251.573,249.313 260.853 C 250.137 261.832,263.135 268.000,264.374 268.000 C 265.765 268.000,263.911 266.652,257.968 263.340 L 251.400 259.681 248.905 255.940 C 237.634 239.046,230.785 210.308,233.334 190.600 L 233.800 187.000 235.800 186.345 C 239.336 185.187,243.027 182.879,246.600 179.592 C 254.928 171.931,274.982 166.659,280.600 170.653 C 286.439 174.805,298.000 179.022,298.000 177.000 C 298.000 176.616,297.605 176.395,296.900 176.386 C 293.861 176.346,288.460 174.354,283.158 171.317 L 279.800 169.393 279.495 165.597 C 278.838 157.404,279.350 114.415,280.133 112.078 C 281.038 109.377,283.497 106.800,285.169 106.800 C 289.980 106.800,294.311 119.771,295.592 138.011 C 295.831 141.415,296.290 146.090,296.612 148.400 C 297.136 152.152,297.445 156.798,298.210 172.400 C 298.334 174.930,298.603 177.900,298.809 179.000 C 299.015 180.100,299.464 183.340,299.807 186.200 C 300.151 189.060,300.695 192.909,301.016 194.752 C 301.896 199.803,301.917 199.722,299.485 200.729 C 294.841 202.654,293.945 204.327,295.300 208.547 C 297.791 216.307,304.866 219.156,314.556 216.299 C 316.210 215.811,320.800 211.793,320.800 210.833 C 320.800 210.533,320.074 211.113,319.186 212.121 C 313.221 218.898,300.489 217.653,296.634 209.917 C 295.603 207.849,295.138 205.763,296.062 207.354 C 299.257 212.854,306.849 212.749,310.835 207.151 L 311.700 205.936 310.311 204.468 C 306.860 200.822,306.411 199.851,307.900 199.260 C 319.187 194.779,325.088 198.291,323.641 208.629 C 323.376 210.525,322.980 215.254,322.761 219.138 C 322.104 230.813,321.785 231.741,315.610 239.943 C 306.796 251.650,299.492 257.757,288.895 262.277 C 280.761 265.746,280.560 266.625,288.508 263.960 C 298.449 260.628,308.034 253.528,314.914 244.400 C 317.067 241.544,320.215 237.251,320.679 236.537 C 321.069 235.937,321.228 235.901,321.531 236.345 C 322.068 237.132,335.247 236.472,335.520 235.645 C 335.674 235.177,334.583 235.135,328.652 235.381 C 324.773 235.542,321.600 235.563,321.600 235.428 C 321.600 235.294,322.055 234.064,322.611 232.695 C 323.914 229.489,324.301 226.600,324.580 217.985 C 324.705 214.127,324.985 210.348,325.204 209.588 C 325.926 207.067,325.681 203.191,324.659 200.997 C 322.011 195.309,317.577 194.433,308.025 197.711 C 302.174 199.718,302.000 199.725,302.000 197.942 C 302.000 197.277,301.557 193.282,301.017 189.066 C 300.003 181.168,299.531 175.122,298.791 160.600 C 298.556 155.980,298.112 149.590,297.805 146.400 C 297.498 143.210,297.135 139.070,296.998 137.200 C 295.139 111.822,288.002 98.876,280.673 107.586 C 279.284 109.237,279.201 109.165,279.194 106.300 C 279.173 97.576,273.350 91.218,268.495 94.618 M273.787 96.221 C 277.580 98.021,277.525 97.471,277.803 136.148 L 278.039 168.897 276.956 168.625 C 275.525 168.265,269.027 168.264,266.158 168.623 L 263.879 168.907 264.185 149.954 C 264.353 139.529,264.547 127.940,264.615 124.200 C 265.057 99.838,267.259 93.123,273.787 96.221 M261.361 105.418 C 262.944 107.001,263.004 108.292,262.888 138.200 C 262.766 169.720,262.801 169.013,261.360 169.374 C 259.287 169.895,252.964 173.102,249.376 175.453 L 248.316 176.147 248.468 158.573 C 248.578 145.918,248.754 140.776,249.097 140.200 C 249.360 139.760,249.932 136.430,250.370 132.800 C 252.790 112.714,254.235 107.774,258.320 105.617 C 260.136 104.658,260.572 104.629,261.361 105.418 M247.627 133.650 C 247.871 134.107,247.985 135.318,247.879 136.341 C 246.697 147.742,246.530 152.298,246.750 167.126 L 246.900 177.252 245.750 178.467 C 243.174 181.188,236.487 185.200,234.528 185.200 C 233.495 185.200,234.327 164.895,235.775 154.800 C 237.862 140.246,244.662 128.111,247.627 133.650 M202.200 184.585 C 194.889 185.685,186.946 186.110,168.400 186.394 C 147.929 186.708,149.953 186.532,135.400 189.253 C 134.300 189.459,128.540 189.794,122.600 189.997 C 116.660 190.201,109.910 190.630,107.600 190.951 C 105.290 191.271,100.340 191.734,96.600 191.980 C 90.028 192.413,82.743 192.961,77.064 193.452 C 75.289 193.605,74.465 193.825,74.718 194.078 C 75.325 194.685,98.653 193.751,106.800 192.793 C 110.650 192.340,117.940 191.804,123.000 191.600 C 132.696 191.210,134.912 190.980,142.867 189.533 C 147.482 188.694,148.754 188.643,162.600 188.735 C 178.793 188.843,184.126 188.580,203.400 186.723 C 209.181 186.166,209.561 186.247,212.561 188.683 C 215.883 191.380,217.036 193.623,217.767 198.811 C 218.734 205.674,220.660 214.743,222.012 218.800 C 224.833 227.265,224.952 227.977,226.268 244.255 C 226.728 249.941,224.257 252.681,219.085 252.218 C 217.278 252.056,213.010 251.806,209.600 251.662 L 203.400 251.400 200.400 249.444 C 195.272 246.101,191.701 242.842,187.920 238.056 L 184.290 233.460 185.164 230.842 C 185.645 229.402,186.220 226.958,186.442 225.412 C 187.789 216.038,187.837 215.804,188.449 215.686 C 189.999 215.388,191.213 216.469,193.832 220.479 C 195.312 222.745,197.215 225.537,198.062 226.683 C 199.920 229.199,199.963 230.103,198.374 233.251 C 197.700 234.586,197.371 235.542,197.642 235.374 C 197.986 235.161,198.058 235.271,197.881 235.734 C 197.455 236.842,197.871 236.485,198.760 234.977 C 199.222 234.195,199.801 232.755,200.047 231.777 C 200.580 229.664,200.704 229.633,202.225 231.242 C 204.176 233.303,207.637 235.809,210.600 237.303 C 212.140 238.080,214.071 239.370,214.892 240.169 C 216.772 242.001,216.409 240.765,214.443 238.641 C 213.614 237.746,213.298 237.192,213.700 237.341 C 215.581 238.037,215.712 238.022,214.600 237.238 C 213.940 236.773,212.698 236.277,211.841 236.136 C 209.242 235.708,200.382 229.099,200.413 227.611 C 200.451 225.765,203.291 224.017,206.326 223.972 C 207.705 223.951,207.989 223.857,207.400 223.615 C 206.574 223.275,206.580 223.270,208.400 222.663 C 208.730 222.553,208.093 222.449,206.985 222.432 C 205.710 222.412,204.397 222.692,203.412 223.194 C 201.437 224.201,201.292 224.033,202.684 222.350 C 203.787 221.016,203.788 221.008,202.800 221.633 C 202.250 221.981,201.345 223.137,200.788 224.203 C 199.394 226.875,199.294 226.844,196.715 222.921 C 194.250 219.170,194.238 218.878,196.513 217.976 C 197.221 217.696,198.595 216.821,199.567 216.033 C 200.539 215.245,201.709 214.381,202.167 214.114 C 202.840 213.722,202.872 213.626,202.331 213.614 C 201.963 213.606,201.153 214.020,200.531 214.533 C 199.189 215.640,197.572 216.549,195.453 217.387 L 193.905 217.999 192.320 216.365 C 191.448 215.467,190.794 214.690,190.867 214.639 C 190.940 214.588,191.990 214.052,193.200 213.447 C 194.410 212.843,196.120 211.717,197.000 210.946 L 198.600 209.543 197.200 210.189 C 195.833 210.821,195.846 210.793,197.757 209.002 C 200.114 206.792,203.093 204.774,205.800 203.556 C 207.465 202.806,207.647 202.629,206.884 202.498 C 204.859 202.149,199.521 205.401,193.994 210.349 C 190.034 213.895,187.795 214.884,188.221 212.900 C 189.793 205.574,193.621 199.927,198.202 198.178 C 200.492 197.303,200.320 196.981,198.000 197.800 C 195.652 198.628,195.606 198.336,197.851 196.849 C 198.888 196.162,199.587 195.600,199.404 195.600 C 198.611 195.600,195.131 198.196,193.233 200.202 C 189.623 204.020,186.840 211.698,185.623 221.200 C 185.147 224.920,183.531 230.490,182.864 230.712 C 181.898 231.034,180.666 227.494,180.720 224.557 C 180.750 222.874,180.573 221.443,180.285 221.049 C 179.246 219.628,179.663 227.939,180.733 229.975 C 185.124 238.332,196.131 249.356,202.913 252.189 C 206.251 253.584,208.181 257.201,207.523 260.825 C 205.532 271.776,196.622 274.871,186.200 268.231 C 175.809 261.611,176.677 261.996,165.800 259.194 C 153.232 255.957,151.942 255.474,143.735 250.937 C 138.345 247.957,135.200 245.933,133.135 244.115 C 131.521 242.693,128.979 240.600,127.486 239.465 C 124.498 237.192,122.929 234.869,121.737 230.953 C 121.163 229.069,120.993 228.811,120.887 229.661 C 120.772 230.585,121.147 232.338,122.237 235.963 C 122.500 236.839,122.439 236.899,121.563 236.628 C 119.790 236.079,100.436 235.886,95.800 236.372 C 93.380 236.625,86.630 237.275,80.800 237.815 C 66.032 239.185,65.095 239.311,64.881 239.956 C 64.682 240.555,71.153 240.401,81.200 239.568 C 101.587 237.879,106.539 237.717,116.347 238.420 C 123.342 238.921,123.651 239.058,130.286 244.574 C 134.186 247.817,136.646 249.446,142.486 252.649 C 152.330 258.051,151.750 257.844,169.200 262.177 C 173.937 263.353,176.207 264.173,178.000 265.357 C 186.065 270.682,187.890 271.748,190.464 272.633 C 197.731 275.133,203.609 273.374,206.837 267.734 C 209.738 262.666,210.376 257.994,208.583 254.935 L 207.566 253.200 208.667 253.200 C 209.272 253.200,212.115 253.488,214.984 253.839 C 226.629 255.267,229.336 252.388,227.997 240.000 C 227.771 237.910,227.335 233.770,227.028 230.800 C 226.571 226.382,226.138 224.418,224.647 220.000 C 222.774 214.448,221.419 208.395,220.066 199.538 C 218.248 187.630,212.718 183.002,202.200 184.585 M268.200 192.529 C 265.120 194.128,259.771 197.017,256.313 198.949 C 246.856 204.235,242.682 205.867,237.400 206.346 C 233.588 206.692,233.292 207.835,237.040 207.735 C 241.972 207.603,247.846 205.212,260.400 198.225 C 264.250 196.083,269.245 193.423,271.500 192.315 C 273.755 191.208,275.600 190.143,275.600 189.951 C 275.600 189.069,273.371 189.845,268.200 192.529 M288.800 191.482 C 282.381 193.824,270.686 201.709,259.790 211.042 C 252.832 217.000,251.488 218.332,251.748 219.009 C 251.940 219.509,252.996 218.770,256.497 215.688 C 268.218 205.372,278.333 198.047,285.996 194.326 C 290.350 192.212,292.345 190.189,288.800 191.482 M293.563 196.656 C 272.542 211.049,263.776 225.177,263.815 244.600 C 263.826 249.675,263.991 252.532,264.312 253.200 C 264.712 254.030,264.744 253.724,264.497 251.400 C 262.280 230.501,271.368 213.673,292.722 199.136 C 296.489 196.572,297.275 195.692,296.138 195.313 C 295.911 195.237,294.752 195.842,293.563 196.656 M184.400 199.507 C 183.850 199.873,182.261 201.103,180.868 202.241 C 179.196 203.606,178.082 204.242,177.589 204.113 C 176.390 203.800,168.981 208.693,169.637 209.365 C 169.768 209.499,170.668 209.002,171.639 208.261 C 175.582 205.250,179.443 203.342,177.306 205.460 C 174.701 208.041,171.600 211.995,171.600 212.734 C 171.600 214.461,173.004 213.551,175.600 210.143 C 178.312 206.581,183.899 201.011,185.482 200.290 C 186.450 199.849,186.752 198.785,185.900 198.821 C 185.625 198.833,184.950 199.141,184.400 199.507 M118.367 200.167 C 117.820 200.713,99.827 205.481,85.800 208.795 C 75.239 211.291,75.200 211.303,75.200 212.077 C 75.200 213.035,74.528 213.150,86.052 210.219 C 107.322 204.810,120.400 200.993,120.400 200.195 C 120.400 199.958,118.600 199.933,118.367 200.167 M308.155 203.842 C 310.796 206.810,309.342 209.246,303.972 210.856 C 301.463 211.607,296.000 208.391,296.000 206.162 C 296.000 205.827,295.846 205.648,295.658 205.764 C 295.470 205.881,295.396 205.552,295.495 205.035 C 295.726 203.827,296.993 203.238,301.200 202.382 C 306.042 201.397,305.965 201.381,308.155 203.842 M319.197 217.003 C 317.824 218.658,311.820 219.241,306.600 218.227 C 303.469 217.619,303.053 217.706,303.428 218.888 C 303.660 219.618,303.567 219.678,302.587 219.432 L 301.485 219.156 301.734 220.971 C 302.149 223.997,307.492 233.200,308.834 233.200 C 309.435 233.200,309.267 232.789,307.874 230.848 C 305.226 227.157,302.361 221.106,302.973 220.494 C 303.069 220.398,303.924 221.073,304.874 221.994 C 307.636 224.673,315.959 227.800,314.639 225.662 C 314.481 225.408,313.868 225.200,313.276 225.200 C 311.609 225.199,307.567 223.069,305.864 221.293 C 304.031 219.383,304.243 219.160,307.400 219.678 C 311.970 220.428,319.028 219.097,320.155 217.272 C 320.575 216.593,319.734 216.356,319.197 217.003 M172.365 239.269 C 169.990 242.792,163.442 249.213,161.104 250.310 C 158.438 251.562,155.187 251.478,149.368 250.008 C 146.773 249.353,144.560 248.906,144.452 249.015 C 143.299 250.168,153.812 252.635,158.457 252.303 C 163.585 251.936,172.130 244.437,173.988 238.673 C 174.749 236.312,174.231 236.502,172.365 239.269 M269.861 270.021 C 270.700 270.860,274.685 271.591,278.449 271.595 C 281.502 271.599,282.949 271.814,285.449 272.635 C 301.676 277.967,325.234 283.326,326.571 281.989 C 327.185 281.375,326.811 281.267,320.981 280.378 C 311.129 278.876,300.264 276.247,286.800 272.108 C 284.218 271.314,282.101 270.996,278.000 270.786 C 275.030 270.633,272.093 270.304,271.474 270.054 C 270.020 269.468,269.292 269.452,269.861 270.021 " stroke="none" fill="#141414" fill-rule="evenodd"></path></g></svg>