<svg id="svg" version="1.1" xmlns="http://www.w3.org/2000/svg" xmlns:xlink="http://www.w3.org/1999/xlink" width="400" height="400" viewBox="0, 0, 400,400"><g id="svgg"><path id="path0" d="M118.984 35.775 C 101.859 38.458,88.378 51.230,83.492 69.400 L 82.632 72.600 82.505 195.600 C 82.364 332.977,82.174 322.868,85.048 330.869 C 88.430 340.288,95.625 349.247,103.698 354.093 C 104.961 354.851,105.861 355.619,105.698 355.800 C 105.534 355.981,105.645 355.986,105.945 355.813 C 106.244 355.639,106.604 355.660,106.745 355.858 C 107.300 356.643,109.444 357.765,110.200 357.668 C 110.861 357.582,110.896 357.636,110.400 357.976 C 109.917 358.308,109.999 358.389,110.825 358.394 C 111.388 358.397,112.199 358.726,112.627 359.125 C 113.055 359.523,114.394 360.177,115.603 360.577 C 116.811 360.976,118.430 361.554,119.200 361.859 C 119.970 362.165,122.400 362.587,124.600 362.797 C 130.158 363.328,273.669 363.326,279.270 362.794 C 295.521 361.253,311.589 346.675,313.873 331.400 C 313.971 330.740,314.257 329.480,314.508 328.600 C 314.829 327.475,314.979 318.306,315.012 297.703 C 315.039 281.590,315.175 268.291,315.316 268.151 C 315.457 268.010,315.392 267.558,315.172 267.147 C 314.905 266.648,314.906 266.150,315.176 265.645 C 315.434 265.164,315.457 263.896,315.239 262.145 C 315.052 260.635,314.985 248.780,315.091 235.800 C 315.196 222.820,315.273 211.930,315.262 211.600 C 315.114 207.394,315.055 112.000,315.200 112.000 C 315.310 112.000,315.364 110.965,315.320 109.700 C 315.275 108.435,315.255 104.430,315.274 100.800 C 315.361 84.446,315.064 79.254,313.593 71.400 C 310.402 54.370,297.541 40.864,280.000 36.125 C 276.598 35.206,124.724 34.876,118.984 35.775 M181.387 73.972 C 188.076 75.643,193.048 80.947,191.187 84.425 C 190.871 85.015,191.012 85.795,191.787 87.730 C 192.977 90.706,193.027 91.498,192.137 93.363 C 191.519 94.658,191.519 94.873,192.137 96.490 C 193.039 98.853,192.973 99.698,191.800 100.800 C 191.137 101.423,190.800 102.171,190.800 103.021 C 190.800 104.382,189.858 107.002,189.011 108.000 C 188.731 108.330,188.379 109.283,188.229 110.118 C 187.913 111.880,187.297 112.233,183.878 112.608 C 181.203 112.902,180.880 113.348,180.509 117.267 L 180.295 119.533 182.334 120.567 C 183.456 121.135,185.032 121.600,185.838 121.600 C 187.947 121.600,202.759 117.828,207.000 116.211 C 208.980 115.456,212.580 114.179,215.000 113.372 C 220.016 111.701,220.280 111.516,222.537 108.084 C 223.849 106.088,224.632 105.350,226.303 104.532 C 228.388 103.512,230.400 101.603,230.400 100.645 C 230.400 99.663,231.932 98.458,232.884 98.690 C 235.466 99.319,236.121 102.957,234.200 106.000 C 232.931 108.011,232.850 107.851,235.300 108.170 C 240.770 108.882,249.434 111.399,250.900 112.702 C 251.855 113.550,251.804 115.466,250.810 116.087 C 250.177 116.482,250.065 116.866,250.248 118.009 C 250.408 119.012,250.298 119.587,249.878 119.935 C 249.456 120.286,249.342 120.893,249.492 122.006 C 249.745 123.896,248.577 124.598,245.700 124.284 C 244.077 124.107,244.000 124.147,244.000 125.169 C 244.000 127.327,242.404 127.733,239.000 126.440 C 237.739 125.961,235.300 125.571,232.400 125.384 C 229.870 125.222,227.102 124.844,226.250 124.544 C 223.658 123.634,222.439 123.878,217.800 126.236 C 212.251 129.056,212.285 129.019,214.429 129.957 C 218.906 131.916,230.138 132.954,232.716 131.648 C 234.539 130.724,238.323 129.257,242.715 127.772 C 244.538 127.156,247.328 125.914,248.915 125.012 L 251.800 123.374 251.801 121.063 C 251.802 119.152,251.954 118.636,252.685 118.076 C 254.170 116.940,254.358 114.217,253.047 112.849 C 251.465 111.197,251.043 109.357,252.022 108.378 C 253.502 106.898,256.081 107.914,258.449 110.910 C 259.310 111.998,260.595 113.280,261.307 113.757 C 262.195 114.354,262.637 114.997,262.719 115.813 C 262.785 116.466,263.118 117.866,263.460 118.924 C 265.104 124.020,264.005 128.093,260.323 130.548 C 259.291 131.237,256.028 133.645,253.072 135.900 C 250.116 138.155,247.435 140.000,247.115 140.000 C 246.794 140.000,245.017 140.921,243.166 142.047 C 236.137 146.322,235.701 146.418,226.111 145.812 C 221.106 145.495,220.808 145.518,220.571 146.239 C 219.210 150.378,214.632 156.400,212.848 156.400 C 212.387 156.400,210.324 155.860,208.263 155.200 C 202.229 153.267,202.646 152.951,202.070 159.900 C 201.800 163.145,201.304 167.060,200.966 168.600 C 200.289 171.686,198.525 181.230,198.139 183.892 C 197.926 185.356,198.049 185.781,199.047 187.037 C 201.878 190.602,202.000 190.867,202.000 193.474 C 202.000 194.848,202.202 197.749,202.449 199.921 L 202.898 203.870 204.949 205.690 C 206.077 206.691,208.425 208.733,210.167 210.228 C 211.909 211.723,213.909 213.589,214.612 214.373 C 218.522 218.741,227.065 229.142,233.559 237.441 C 238.545 243.812,241.558 249.500,241.890 253.166 C 242.336 258.075,239.121 268.953,235.261 275.600 C 234.048 277.690,232.398 280.570,231.596 282.000 C 225.710 292.494,224.391 294.398,220.145 298.524 L 216.774 301.800 217.287 303.200 C 217.569 303.970,218.069 304.810,218.399 305.067 C 219.070 305.590,226.680 308.000,227.661 308.000 C 230.494 308.000,231.808 313.221,229.269 314.393 C 224.145 316.759,218.986 317.108,207.400 315.874 C 202.120 315.311,196.450 314.744,194.800 314.613 C 191.120 314.323,190.756 313.983,189.855 309.994 C 189.317 307.610,189.269 306.720,189.627 305.694 C 189.955 304.754,189.959 304.059,189.645 303.156 C 188.685 300.402,191.999 291.723,195.208 288.585 C 198.543 285.325,198.910 284.654,198.849 281.944 C 198.792 279.403,199.061 278.623,200.553 277.013 C 201.125 276.396,201.592 275.263,201.750 274.111 C 201.921 272.862,202.436 271.691,203.270 270.653 C 204.798 268.752,204.665 268.193,201.753 264.257 C 199.491 261.199,199.026 260.988,199.398 263.189 C 199.585 264.294,199.340 266.213,198.594 269.489 C 196.458 278.864,195.595 280.877,191.701 285.563 C 187.481 290.641,183.017 298.252,178.984 307.245 C 176.320 313.184,175.657 314.651,174.213 317.800 C 173.507 319.340,172.817 321.303,172.680 322.162 C 172.540 323.035,171.970 324.205,171.389 324.811 L 170.348 325.898 173.124 327.917 C 177.312 330.963,177.654 331.600,177.515 336.083 L 177.400 339.799 174.200 340.331 C 162.752 342.235,158.317 340.745,148.967 331.858 C 146.918 329.909,144.678 327.900,143.990 327.393 C 141.247 325.369,141.105 324.466,142.596 318.551 C 143.868 313.505,147.474 306.111,151.351 300.600 C 152.073 299.572,152.199 298.797,152.225 295.200 C 152.274 288.526,153.128 286.628,159.721 278.526 C 163.408 273.996,163.425 273.950,162.590 271.041 C 160.451 263.593,159.715 261.328,157.900 256.600 C 154.018 246.492,152.874 242.849,152.403 239.105 C 151.703 233.534,147.960 221.630,145.302 216.514 C 144.676 215.310,144.678 214.965,145.326 211.114 C 145.807 208.263,146.033 204.563,146.063 199.060 C 146.103 191.677,146.169 191.002,146.992 189.453 C 147.479 188.537,148.734 185.270,149.781 182.194 L 151.685 176.600 151.445 171.890 C 151.262 168.296,151.014 166.803,150.396 165.591 C 149.950 164.718,149.154 162.428,148.626 160.502 C 148.099 158.576,147.019 155.803,146.228 154.340 C 144.950 151.977,144.795 151.376,144.838 148.940 C 144.865 147.433,144.417 142.999,143.843 139.087 C 142.234 128.118,142.466 125.195,145.159 122.503 C 147.060 120.602,152.167 117.600,153.500 117.600 C 154.156 117.600,155.121 117.271,155.646 116.868 C 156.171 116.466,156.870 116.016,157.200 115.868 C 159.730 114.738,162.314 112.000,160.850 112.000 C 158.832 112.000,156.010 107.867,156.002 104.900 C 156.001 104.405,155.820 104.000,155.600 104.000 C 154.963 104.000,155.137 107.351,155.848 108.776 C 156.467 110.016,156.467 113.266,155.849 113.885 C 153.703 116.030,150.172 103.239,152.098 100.300 C 152.645 99.465,152.616 99.272,151.748 98.005 C 149.551 94.800,151.785 85.048,155.600 81.188 C 156.150 80.632,157.401 78.984,158.380 77.526 C 160.453 74.441,161.791 73.784,165.397 74.083 C 166.644 74.187,168.594 74.045,169.732 73.770 C 172.889 73.004,177.859 73.090,181.387 73.972 M174.905 74.287 C 175.514 74.379,176.414 74.377,176.905 74.282 C 177.397 74.187,176.900 74.111,175.800 74.114 C 174.700 74.117,174.297 74.195,174.905 74.287 M163.505 75.083 C 164.002 75.179,164.722 75.175,165.105 75.075 C 165.487 74.975,165.080 74.896,164.200 74.901 C 163.320 74.905,163.007 74.987,163.505 75.083 M161.489 106.279 C 161.388 106.455,161.519 107.219,161.780 107.977 C 162.272 109.400,162.677 109.045,162.627 107.235 C 162.600 106.285,161.848 105.652,161.489 106.279 M155.254 111.300 C 155.225 111.905,155.020 112.400,154.800 112.400 C 154.580 112.400,154.400 112.619,154.400 112.886 C 154.400 113.204,154.619 113.153,155.035 112.737 C 155.400 112.372,155.593 111.698,155.489 111.151 C 155.323 110.272,155.305 110.283,155.254 111.300 M254.901 115.000 C 254.905 115.880,254.987 116.193,255.083 115.695 C 255.179 115.198,255.175 114.478,255.075 114.095 C 254.975 113.713,254.896 114.120,254.901 115.000 M262.909 122.400 C 262.909 123.390,262.987 123.795,263.082 123.300 C 263.178 122.805,263.178 121.995,263.082 121.500 C 262.987 121.005,262.909 121.410,262.909 122.400 M246.800 123.200 L 245.400 123.495 246.676 123.547 C 247.378 123.576,248.064 123.420,248.200 123.200 C 248.336 122.980,248.392 122.824,248.324 122.853 C 248.256 122.882,247.570 123.038,246.800 123.200 M231.900 124.282 C 232.395 124.378,233.205 124.378,233.700 124.282 C 234.195 124.187,233.790 124.109,232.800 124.109 C 231.810 124.109,231.405 124.187,231.900 124.282 M227.905 133.883 C 228.402 133.979,229.122 133.975,229.505 133.875 C 229.887 133.775,229.480 133.696,228.600 133.701 C 227.720 133.705,227.407 133.787,227.905 133.883 M225.700 144.676 C 226.085 144.776,226.715 144.776,227.100 144.676 C 227.485 144.575,227.170 144.493,226.400 144.493 C 225.630 144.493,225.315 144.575,225.700 144.676 M214.981 153.239 C 214.112 154.140,213.040 155.029,212.600 155.214 C 212.047 155.446,211.990 155.557,212.415 155.575 C 212.753 155.589,213.917 154.700,215.000 153.600 C 216.083 152.500,216.878 151.600,216.766 151.600 C 216.654 151.600,215.851 152.338,214.981 153.239 M200.893 160.400 C 200.893 161.170,200.975 161.485,201.076 161.100 C 201.176 160.715,201.176 160.085,201.076 159.700 C 200.975 159.315,200.893 159.630,200.893 160.400 M152.493 173.200 C 152.493 173.970,152.575 174.285,152.676 173.900 C 152.776 173.515,152.776 172.885,152.676 172.500 C 152.575 172.115,152.493 172.430,152.493 173.200 M196.893 184.800 C 196.893 185.570,196.975 185.885,197.076 185.500 C 197.176 185.115,197.176 184.485,197.076 184.100 C 196.975 183.715,196.893 184.030,196.893 184.800 M146.893 193.200 C 146.893 193.970,146.975 194.285,147.076 193.900 C 147.176 193.515,147.176 192.885,147.076 192.500 C 146.975 192.115,146.893 192.430,146.893 193.200 M200.920 195.200 C 200.920 196.410,200.995 196.905,201.087 196.300 C 201.178 195.695,201.178 194.705,201.087 194.100 C 200.995 193.495,200.920 193.990,200.920 195.200 M146.928 201.200 C 146.928 202.630,147.001 203.215,147.089 202.500 C 147.178 201.785,147.178 200.615,147.089 199.900 C 147.001 199.185,146.928 199.770,146.928 201.200 M198.124 263.800 C 198.126 265.120,198.201 265.612,198.290 264.893 C 198.379 264.174,198.377 263.094,198.286 262.493 C 198.195 261.892,198.122 262.480,198.124 263.800 M191.375 284.100 L 190.200 285.400 191.500 284.225 C 192.712 283.130,192.984 282.800,192.675 282.800 C 192.606 282.800,192.021 283.385,191.375 284.100 M195.578 289.500 L 194.200 291.000 195.700 289.622 C 197.096 288.338,197.384 288.000,197.078 288.000 C 197.012 288.000,196.337 288.675,195.578 289.500 M153.301 295.000 C 153.305 295.880,153.387 296.193,153.483 295.695 C 153.579 295.198,153.575 294.478,153.475 294.095 C 153.375 293.713,153.296 294.120,153.301 295.000 " stroke="none" fill="#aa1a1b" fill-rule="evenodd"></path><path id="path1" d="M169.732 73.770 C 168.594 74.045,166.644 74.187,165.397 74.083 C 161.791 73.784,160.453 74.441,158.380 77.526 C 157.401 78.984,156.150 80.632,155.600 81.188 C 151.785 85.048,149.551 94.800,151.748 98.005 C 152.616 99.272,152.645 99.465,152.098 100.300 C 150.172 103.239,153.703 116.030,155.849 113.885 C 156.467 113.266,156.467 110.016,155.848 108.776 C 155.137 107.351,154.963 104.000,155.600 104.000 C 155.820 104.000,156.001 104.405,156.002 104.900 C 156.010 107.867,158.832 112.000,160.850 112.000 C 162.314 112.000,159.730 114.738,157.200 115.868 C 156.870 116.016,156.171 116.466,155.646 116.868 C 155.121 117.271,154.156 117.600,153.500 117.600 C 152.167 117.600,147.060 120.602,145.159 122.503 C 142.466 125.195,142.234 128.118,143.843 139.087 C 144.417 142.999,144.865 147.433,144.838 148.940 C 144.795 151.376,144.950 151.977,146.228 154.340 C 147.019 155.803,148.099 158.576,148.626 160.502 C 149.154 162.428,149.950 164.718,150.396 165.591 C 151.014 166.803,151.262 168.296,151.445 171.890 L 151.685 176.600 149.781 182.194 C 148.734 185.270,147.479 188.537,146.992 189.453 C 146.169 191.002,146.103 191.677,146.063 199.060 C 146.033 204.563,145.807 208.263,145.326 211.114 C 144.678 214.965,144.676 215.310,145.302 216.514 C 147.960 221.630,151.703 233.534,152.403 239.105 C 152.874 242.849,154.018 246.492,157.900 256.600 C 159.715 261.328,160.451 263.593,162.590 271.041 C 163.425 273.950,163.408 273.996,159.721 278.526 C 153.128 286.628,152.274 288.526,152.225 295.200 C 152.199 298.797,152.073 299.572,151.351 300.600 C 147.474 306.111,143.868 313.505,142.596 318.551 C 141.105 324.466,141.247 325.369,143.990 327.393 C 144.678 327.900,146.918 329.909,148.967 331.858 C 158.317 340.745,162.752 342.235,174.200 340.331 L 177.400 339.799 177.515 336.083 C 177.654 331.600,177.312 330.963,173.124 327.917 L 170.348 325.898 171.389 324.811 C 171.970 324.205,172.540 323.035,172.680 322.162 C 172.817 321.303,173.507 319.340,174.213 317.800 C 175.657 314.651,176.320 313.184,178.984 307.245 C 183.017 298.252,187.481 290.641,191.701 285.563 C 195.595 280.877,196.458 278.864,198.594 269.489 C 199.340 266.213,199.585 264.294,199.398 263.189 C 199.026 260.988,199.491 261.199,201.753 264.257 C 204.665 268.193,204.798 268.752,203.270 270.653 C 202.436 271.691,201.921 272.862,201.750 274.111 C 201.592 275.263,201.125 276.396,200.553 277.013 C 199.061 278.623,198.792 279.403,198.849 281.944 C 198.910 284.654,198.543 285.325,195.208 288.585 C 191.999 291.723,188.685 300.402,189.645 303.156 C 189.959 304.059,189.955 304.754,189.627 305.694 C 189.269 306.720,189.317 307.610,189.855 309.994 C 190.756 313.983,191.120 314.323,194.800 314.613 C 196.450 314.744,202.120 315.311,207.400 315.874 C 218.986 317.108,224.145 316.759,229.269 314.393 C 231.808 313.221,230.494 308.000,227.661 308.000 C 226.680 308.000,219.070 305.590,218.399 305.067 C 218.069 304.810,217.569 303.970,217.287 303.200 L 216.774 301.800 220.145 298.524 C 224.391 294.398,225.710 292.494,231.596 282.000 C 232.398 280.570,234.048 277.690,235.261 275.600 C 239.121 268.953,242.336 258.075,241.890 253.166 C 241.558 249.500,238.545 243.812,233.559 237.441 C 227.065 229.142,218.522 218.741,214.612 214.373 C 213.909 213.589,211.909 211.723,210.167 210.228 C 208.425 208.733,206.077 206.691,204.949 205.690 L 202.898 203.870 202.449 199.921 C 202.202 197.749,202.000 194.848,202.000 193.474 C 202.000 190.867,201.878 190.602,199.047 187.037 C 198.049 185.781,197.926 185.356,198.139 183.892 C 198.525 181.230,200.289 171.686,200.966 168.600 C 201.304 167.060,201.800 163.145,202.070 159.900 C 202.646 152.951,202.229 153.267,208.263 155.200 C 210.324 155.860,212.387 156.400,212.848 156.400 C 214.632 156.400,219.210 150.378,220.571 146.239 C 220.808 145.518,221.106 145.495,226.111 145.812 C 235.701 146.418,236.137 146.322,243.166 142.047 C 245.017 140.921,246.794 140.000,247.115 140.000 C 247.435 140.000,250.116 138.155,253.072 135.900 C 256.028 133.645,259.291 131.237,260.323 130.548 C 264.005 128.093,265.104 124.020,263.460 118.924 C 263.118 117.866,262.785 116.466,262.719 115.813 C 262.637 114.997,262.195 114.354,261.307 113.757 C 260.595 113.280,259.310 111.998,258.449 110.910 C 256.081 107.914,253.502 106.898,252.022 108.378 C 251.043 109.357,251.465 111.197,253.047 112.849 C 254.358 114.217,254.170 116.940,252.685 118.076 C 251.954 118.636,251.802 119.152,251.801 121.063 L 251.800 123.374 248.915 125.012 C 247.328 125.914,244.538 127.156,242.715 127.772 C 238.323 129.257,234.539 130.724,232.716 131.648 C 230.138 132.954,218.906 131.916,214.429 129.957 C 212.285 129.019,212.251 129.056,217.800 126.236 C 222.439 123.878,223.658 123.634,226.250 124.544 C 227.102 124.844,229.870 125.222,232.400 125.384 C 235.300 125.571,237.739 125.961,239.000 126.440 C 242.404 127.733,244.000 127.327,244.000 125.169 C 244.000 124.147,244.077 124.107,245.700 124.284 C 248.577 124.598,249.745 123.896,249.492 122.006 C 249.342 120.893,249.456 120.286,249.878 119.935 C 250.298 119.587,250.408 119.012,250.248 118.009 C 250.065 116.866,250.177 116.482,250.810 116.087 C 254.662 113.681,246.798 109.667,235.300 108.170 C 232.850 107.851,232.931 108.011,234.200 106.000 C 236.121 102.957,235.466 99.319,232.884 98.690 C 231.932 98.458,230.400 99.663,230.400 100.645 C 230.400 101.603,228.388 103.512,226.303 104.532 C 224.632 105.350,223.849 106.088,222.537 108.084 C 220.280 111.516,220.016 111.701,215.000 113.372 C 212.580 114.179,208.980 115.456,207.000 116.211 C 202.759 117.828,187.947 121.600,185.838 121.600 C 185.032 121.600,183.456 121.135,182.334 120.567 L 180.295 119.533 180.509 117.267 C 180.880 113.348,181.203 112.902,183.878 112.608 C 187.297 112.233,187.913 111.880,188.229 110.118 C 188.379 109.283,188.731 108.330,189.011 108.000 C 189.858 107.002,190.800 104.382,190.800 103.021 C 190.800 102.171,191.137 101.423,191.800 100.800 C 192.973 99.698,193.039 98.853,192.137 96.490 C 191.519 94.873,191.519 94.658,192.137 93.363 C 193.027 91.498,192.977 90.706,191.787 87.730 C 191.012 85.795,190.871 85.015,191.187 84.425 C 192.550 81.878,190.988 79.257,186.085 75.859 C 182.762 73.556,174.805 72.539,169.732 73.770 M179.491 74.563 C 182.871 75.288,186.016 76.895,188.433 79.134 C 190.527 81.073,190.620 81.355,190.175 84.440 C 189.970 85.863,190.101 86.713,190.755 88.191 C 191.772 90.490,191.810 91.533,190.943 93.351 C 190.333 94.630,190.333 94.849,190.943 96.373 C 191.820 98.567,191.788 99.887,190.848 100.185 C 190.088 100.426,189.600 101.917,189.600 103.994 C 189.600 104.596,189.169 105.724,188.641 106.501 C 188.114 107.278,187.553 108.518,187.395 109.257 C 186.943 111.368,186.564 111.600,183.565 111.600 C 180.341 111.600,180.232 111.717,179.690 115.763 C 179.103 120.148,180.039 121.478,184.464 122.541 C 187.017 123.155,199.899 119.871,213.054 115.253 C 220.675 112.578,220.937 112.418,223.008 109.187 C 224.424 106.978,225.170 106.230,226.652 105.533 C 228.759 104.543,231.063 102.412,231.625 100.935 C 232.395 98.909,233.782 99.848,233.920 102.488 C 234.034 104.683,233.972 104.848,232.373 106.583 C 230.537 108.575,230.476 108.490,234.200 109.151 C 244.439 110.968,248.307 112.015,249.923 113.404 C 251.562 114.814,250.567 115.753,247.830 115.377 L 245.804 115.098 247.600 116.468 C 250.925 119.004,249.576 120.407,245.291 118.868 C 242.229 117.768,240.217 117.380,240.574 117.957 C 240.724 118.201,241.152 118.400,241.524 118.400 C 243.845 118.401,248.971 121.732,248.373 122.850 C 247.809 123.905,246.534 123.789,242.851 122.347 C 239.351 120.977,236.789 120.997,239.808 122.370 C 244.626 124.562,244.056 127.196,239.133 125.487 C 237.094 124.779,234.677 124.346,231.200 124.067 C 228.450 123.845,225.428 123.431,224.485 123.145 L 222.769 122.627 216.185 125.912 C 209.526 129.234,208.537 130.000,210.906 130.000 C 211.624 130.000,212.928 130.384,213.804 130.853 C 214.749 131.360,217.021 131.933,219.398 132.264 C 221.599 132.571,223.460 132.998,223.533 133.211 C 223.932 134.374,231.037 133.623,234.444 132.058 C 236.290 131.210,239.600 129.925,241.800 129.201 C 246.102 127.786,250.735 125.554,251.887 124.341 C 253.216 122.942,253.399 122.773,254.200 122.216 C 254.979 121.674,254.972 121.649,253.900 121.240 C 252.582 120.737,252.447 119.533,253.620 118.749 C 255.184 117.703,255.173 114.051,253.601 111.861 C 252.840 110.802,252.397 109.786,252.536 109.423 C 253.168 107.776,256.545 109.598,258.388 112.581 C 258.839 113.310,259.745 114.129,260.404 114.401 C 261.335 114.787,261.600 115.149,261.600 116.034 C 261.600 116.659,261.983 118.193,262.450 119.442 C 264.191 124.094,263.198 127.502,259.400 129.910 C 258.520 130.468,255.894 132.422,253.564 134.253 C 251.234 136.083,247.799 138.374,245.930 139.344 C 244.061 140.313,241.737 141.617,240.766 142.241 C 236.845 144.760,233.723 145.692,230.818 145.210 C 226.487 144.491,220.365 144.486,219.995 145.200 C 219.824 145.530,219.045 147.150,218.265 148.800 C 217.360 150.713,216.122 152.510,214.850 153.759 L 212.853 155.717 210.527 154.871 C 206.556 153.427,201.966 152.407,201.816 152.934 C 201.744 153.190,201.479 155.740,201.227 158.600 C 200.976 161.460,200.409 165.780,199.966 168.200 C 196.557 186.834,196.618 185.600,198.964 188.454 L 200.729 190.600 201.371 197.387 C 202.116 205.270,201.694 204.514,208.400 209.992 C 212.750 213.546,213.249 214.070,220.015 222.161 C 228.845 232.721,235.825 241.864,238.365 246.200 C 243.752 255.394,240.335 266.665,224.481 292.000 C 223.724 293.210,221.389 295.852,219.292 297.872 L 215.480 301.544 216.240 303.649 C 217.096 306.021,218.636 306.882,224.678 308.371 C 228.722 309.367,229.678 310.065,229.523 311.909 C 229.273 314.881,218.785 316.495,209.216 315.035 C 206.915 314.683,202.100 314.183,198.515 313.922 L 191.997 313.449 191.120 310.724 C 190.355 308.348,190.299 307.730,190.682 305.900 C 190.944 304.648,190.976 303.646,190.761 303.420 C 189.303 301.885,193.266 291.427,196.322 288.749 C 199.438 286.017,200.000 284.969,200.000 281.898 C 200.000 279.366,200.112 278.978,201.200 277.739 C 201.860 276.987,202.400 275.964,202.400 275.465 C 202.400 274.297,204.336 270.400,205.052 270.125 C 206.557 269.547,204.149 265.128,198.991 259.000 L 197.980 257.800 198.213 261.400 C 198.690 268.764,195.465 279.919,191.641 284.136 C 186.103 290.242,172.735 315.466,171.740 321.685 C 171.508 323.136,170.325 324.800,169.525 324.800 C 168.468 324.800,169.607 326.314,172.409 328.632 C 176.319 331.867,176.400 332.010,176.400 335.731 C 176.400 339.216,176.667 339.003,171.483 339.640 C 161.977 340.807,158.393 339.309,148.667 330.107 C 146.048 327.628,143.752 325.600,143.566 325.600 C 140.424 325.600,145.585 310.947,152.141 301.258 C 153.377 299.431,153.398 299.320,153.399 294.600 C 153.400 288.854,155.719 284.072,161.373 278.153 C 164.171 275.225,164.582 273.892,163.609 270.901 C 163.197 269.636,162.565 267.430,162.203 266.000 C 161.841 264.570,160.724 261.240,159.719 258.600 C 155.400 247.249,154.312 244.019,153.788 241.000 C 152.396 232.977,151.921 230.600,151.580 229.963 C 151.379 229.587,150.204 226.427,148.970 222.940 C 147.735 219.453,146.562 216.429,146.362 216.220 C 145.870 215.704,145.922 212.598,146.460 210.400 C 146.702 209.410,146.890 206.485,146.878 203.900 C 146.866 201.315,147.013 198.653,147.204 197.986 C 147.418 197.238,147.382 195.964,147.110 194.666 C 146.683 192.629,146.722 192.440,148.288 188.980 C 149.178 187.011,150.117 184.518,150.374 183.440 C 150.632 182.361,151.097 180.985,151.410 180.382 C 152.972 177.361,152.856 167.015,151.238 164.957 C 150.828 164.436,150.269 162.827,149.997 161.383 C 149.715 159.887,148.747 157.278,147.751 155.325 C 146.150 152.188,145.998 151.633,145.976 148.847 C 145.963 147.171,145.786 144.900,145.584 143.800 C 144.084 135.662,143.573 127.576,144.417 125.354 C 145.303 123.024,151.345 118.811,154.168 118.554 C 155.031 118.475,156.111 118.080,156.568 117.675 C 157.608 116.755,161.240 114.400,161.619 114.400 C 162.774 114.400,164.551 106.195,163.536 105.552 C 161.213 104.080,159.614 105.732,160.767 108.412 C 161.818 110.855,161.576 111.464,159.936 110.506 C 158.427 109.626,157.808 108.458,157.143 105.237 C 156.572 102.473,155.989 101.924,154.785 103.013 C 153.728 103.970,153.735 106.912,154.800 109.000 C 155.753 110.869,155.819 112.120,155.000 112.800 C 154.501 113.214,154.400 113.165,154.400 112.512 C 154.400 112.079,154.044 110.691,153.609 109.426 C 151.938 104.569,152.046 100.872,153.884 100.035 L 154.954 99.547 153.477 98.194 C 151.669 96.538,151.322 92.104,152.760 89.026 C 153.177 88.132,154.017 86.265,154.624 84.877 C 155.232 83.490,156.105 82.097,156.565 81.783 C 157.024 81.469,157.760 80.610,158.200 79.874 C 160.115 76.673,160.652 76.028,161.903 75.432 C 163.456 74.691,164.615 74.638,166.312 75.229 C 167.207 75.541,167.776 75.534,168.396 75.202 C 170.368 74.147,176.031 73.820,179.491 74.563 M162.627 107.235 C 162.677 109.045,162.272 109.400,161.780 107.977 C 161.519 107.219,161.388 106.455,161.489 106.279 C 161.848 105.652,162.600 106.285,162.627 107.235 " stroke="none" fill="#231111" fill-rule="evenodd"></path></g></svg>