<svg id="svg" version="1.1" xmlns="http://www.w3.org/2000/svg" xmlns:xlink="http://www.w3.org/1999/xlink" width="400" height="400" viewBox="0, 0, 400,400"><g id="svgg"><path id="path0" d="M144.200 32.855 C 133.096 33.117,131.789 33.274,127.000 34.922 C 122.526 36.462,116.045 40.096,113.343 42.580 C 105.736 49.572,101.427 56.279,98.940 65.000 L 97.800 69.000 97.683 93.340 L 97.565 117.680 99.328 119.565 C 101.488 121.873,101.781 122.417,102.369 125.200 C 102.821 127.338,105.056 130.391,106.181 130.406 C 106.412 130.409,107.972 131.624,109.650 133.106 C 112.019 135.198,113.537 136.152,116.450 137.374 C 121.636 139.552,123.230 140.464,127.600 143.753 C 129.690 145.327,132.120 147.088,133.000 147.668 C 133.880 148.248,135.410 149.454,136.400 150.350 C 137.390 151.245,138.320 151.982,138.467 151.989 C 138.614 151.995,139.942 152.990,141.418 154.200 C 143.405 155.829,144.427 156.400,145.357 156.400 C 146.047 156.400,147.300 156.769,148.141 157.219 C 149.325 157.854,150.062 157.980,151.414 157.777 C 152.811 157.567,153.387 157.678,154.309 158.335 C 155.237 158.996,156.478 159.232,160.699 159.548 C 164.585 159.839,166.223 160.128,167.044 160.666 C 167.729 161.115,169.280 161.483,171.114 161.633 C 172.788 161.770,174.209 162.091,174.381 162.370 C 175.413 164.039,176.991 162.634,177.045 160.000 C 177.075 158.527,177.468 156.318,177.952 154.904 C 178.729 152.632,178.766 152.111,178.367 149.104 C 177.064 139.300,177.515 130.898,179.516 127.660 C 182.345 123.084,184.550 121.265,189.052 119.796 C 200.958 115.909,212.581 124.854,213.485 138.600 C 213.616 140.580,214.055 143.173,214.461 144.363 C 215.736 148.093,214.772 153.714,211.790 159.936 C 210.806 161.990,210.000 163.740,210.000 163.824 C 210.000 164.253,214.737 166.085,218.800 167.226 C 223.159 168.450,224.888 169.234,229.976 172.292 C 231.174 173.011,232.413 173.600,232.730 173.600 C 233.048 173.600,234.981 174.393,237.025 175.361 C 239.415 176.493,241.250 177.108,242.162 177.082 C 243.898 177.033,245.273 178.203,246.643 180.893 C 247.719 183.008,248.784 183.863,250.821 184.251 C 252.915 184.649,253.614 185.136,254.239 186.632 C 254.696 187.726,255.034 188.000,255.927 188.000 C 256.540 188.000,258.531 188.720,260.351 189.600 C 262.171 190.480,263.926 191.200,264.252 191.200 C 264.578 191.200,265.330 191.716,265.923 192.346 C 267.123 193.623,269.607 194.621,272.550 195.008 C 273.809 195.173,274.831 195.594,275.432 196.196 C 276.596 197.359,281.517 200.000,282.522 200.000 C 283.324 200.000,288.065 202.522,288.976 203.433 C 289.335 203.792,289.456 204.510,289.323 205.499 C 289.134 206.906,289.229 207.085,290.660 208.009 C 292.025 208.891,292.227 209.231,292.435 211.002 C 292.564 212.101,292.879 213.507,293.135 214.126 C 295.070 218.808,290.334 227.322,285.284 228.239 C 284.468 228.388,282.991 228.934,282.003 229.454 C 279.102 230.981,274.712 230.669,271.938 228.739 C 270.667 227.854,269.915 227.827,267.800 228.588 C 263.350 230.192,260.093 228.101,261.779 224.723 C 262.551 223.175,262.428 223.007,259.937 222.179 C 257.589 221.399,253.581 219.539,251.765 218.386 C 251.086 217.955,249.665 217.484,248.607 217.339 L 246.684 217.075 247.596 218.309 C 248.521 219.560,251.998 222.455,255.102 224.558 C 257.028 225.863,257.894 227.152,259.161 230.600 C 261.956 238.206,262.244 238.476,278.988 249.158 C 281.539 250.786,283.755 252.342,283.913 252.616 C 284.322 253.328,290.573 258.550,291.677 259.102 C 292.185 259.356,293.230 259.843,294.000 260.184 C 294.770 260.524,296.120 261.337,297.000 261.990 C 298.882 263.386,303.944 266.350,309.000 269.017 C 315.683 272.541,316.238 272.868,319.037 274.936 C 320.573 276.071,323.309 278.305,325.118 279.900 C 326.926 281.495,328.497 282.800,328.609 282.800 C 329.007 282.800,328.781 76.941,328.377 72.321 C 327.628 63.751,323.741 54.062,319.020 48.997 C 310.899 40.284,303.895 35.717,296.000 33.987 C 295.230 33.819,293.610 33.447,292.400 33.162 C 290.007 32.597,166.012 32.340,144.200 32.855 M97.711 231.302 C 97.774 279.536,97.963 319.810,98.131 320.800 C 100.805 336.514,112.560 349.994,127.999 355.049 C 134.483 357.172,133.721 357.155,215.200 357.071 C 292.161 356.992,293.985 356.958,295.800 355.576 C 296.020 355.409,296.920 355.142,297.800 354.984 C 311.033 352.604,325.323 336.500,328.046 320.897 C 328.651 317.431,328.597 317.365,324.852 317.053 C 321.278 316.754,314.165 315.237,312.000 314.311 C 307.076 312.204,304.719 310.781,300.040 307.092 C 297.160 304.821,292.319 300.809,292.000 300.428 C 289.221 297.112,268.448 280.718,265.497 279.511 C 264.123 278.949,261.025 277.659,258.611 276.645 C 253.172 274.359,254.197 274.118,249.655 278.744 C 244.874 283.613,244.379 283.818,242.383 281.747 C 237.505 276.683,231.898 271.553,231.437 271.731 C 227.389 273.284,214.277 273.529,208.000 272.169 C 206.350 271.812,203.292 271.461,201.205 271.389 C 197.714 271.270,197.339 271.178,196.533 270.240 C 195.224 268.718,184.911 264.138,182.043 263.805 L 179.713 263.535 179.430 268.131 C 179.274 270.659,178.899 273.666,178.597 274.813 L 178.046 276.899 179.987 280.973 C 183.991 289.379,184.486 297.109,181.185 299.694 C 180.548 300.192,179.778 301.320,179.475 302.200 C 178.797 304.164,178.005 304.325,169.000 304.339 C 153.722 304.363,144.528 303.353,137.700 300.902 C 136.072 300.317,136.000 300.221,136.000 298.635 C 136.000 295.262,138.230 293.726,143.870 293.216 C 149.082 292.744,150.810 292.116,151.697 290.371 C 152.080 289.617,152.697 288.777,153.067 288.505 C 154.622 287.360,154.870 285.226,153.779 282.358 C 152.475 278.930,150.400 270.699,150.400 268.957 C 150.400 268.211,150.201 267.600,149.957 267.600 C 149.713 267.600,149.626 267.309,149.764 266.951 C 149.901 266.594,149.745 265.199,149.419 263.851 C 148.148 258.609,147.600 254.750,147.229 248.441 C 146.017 227.839,154.784 222.649,181.360 228.234 C 184.651 228.926,184.597 228.958,183.794 226.751 C 183.443 225.788,182.368 222.750,181.405 220.000 C 177.642 209.255,175.416 204.289,173.950 203.367 C 168.880 200.177,163.525 197.377,159.400 195.760 C 156.760 194.725,154.228 193.545,153.774 193.139 C 153.320 192.733,152.826 192.400,152.677 192.400 C 152.107 192.400,141.593 187.798,137.200 185.625 C 123.016 178.611,111.560 167.721,106.245 156.200 C 105.940 155.540,104.973 153.470,104.097 151.600 C 103.220 149.730,102.389 147.833,102.251 147.385 C 102.113 146.937,101.009 145.902,99.798 145.087 L 97.596 143.604 97.711 231.302 " stroke="none" fill="#a91b1b" fill-rule="evenodd"></path><path id="path1" d="M81.445 100.997 C 80.915 101.398,80.475 101.454,79.971 101.185 C 77.530 99.878,75.774 100.899,75.382 103.854 C 75.056 106.306,75.137 106.473,79.086 111.518 C 80.758 113.653,82.925 116.645,83.902 118.166 C 84.879 119.687,86.552 121.854,87.618 122.982 C 88.779 124.209,90.467 126.794,91.822 129.416 C 93.067 131.827,94.561 134.307,95.143 134.926 C 96.023 135.864,96.203 136.433,96.218 138.326 C 96.242 141.413,97.299 143.414,99.800 145.106 C 100.900 145.850,101.968 146.850,102.174 147.329 C 102.380 147.808,103.256 149.730,104.120 151.600 C 104.984 153.470,105.940 155.540,106.245 156.200 C 111.560 167.721,123.016 178.611,137.200 185.625 C 141.593 187.798,152.107 192.400,152.677 192.400 C 152.826 192.400,153.320 192.733,153.774 193.139 C 154.228 193.545,156.760 194.725,159.400 195.760 C 163.525 197.377,168.880 200.177,173.950 203.367 C 175.416 204.289,177.642 209.255,181.405 220.000 C 182.368 222.750,183.443 225.788,183.794 226.751 C 184.597 228.958,184.651 228.926,181.360 228.234 C 154.688 222.629,145.997 227.828,147.255 248.635 C 147.480 252.356,148.013 257.110,148.440 259.200 C 148.867 261.290,149.494 264.530,149.834 266.400 C 150.899 272.267,152.739 279.697,153.789 282.374 C 154.893 285.189,154.680 287.089,153.113 288.404 C 152.717 288.737,152.079 289.624,151.696 290.375 C 150.809 292.115,149.077 292.744,143.870 293.216 C 138.230 293.726,136.000 295.262,136.000 298.635 C 136.000 300.221,136.072 300.317,137.700 300.902 C 144.528 303.353,153.722 304.363,169.000 304.339 C 178.005 304.325,178.797 304.164,179.475 302.200 C 179.778 301.320,180.548 300.192,181.185 299.694 C 184.486 297.109,183.991 289.379,179.987 280.973 L 178.046 276.899 178.597 274.813 C 178.899 273.666,179.274 270.659,179.430 268.131 L 179.713 263.535 182.043 263.805 C 184.911 264.138,195.224 268.718,196.533 270.240 C 197.339 271.178,197.714 271.270,201.205 271.389 C 203.292 271.461,206.350 271.812,208.000 272.169 C 214.277 273.529,227.389 273.284,231.437 271.731 C 231.898 271.553,237.505 276.683,242.383 281.747 C 244.379 283.818,244.874 283.613,249.655 278.744 C 254.197 274.118,253.172 274.359,258.611 276.645 C 261.025 277.659,264.123 278.949,265.497 279.511 C 268.448 280.718,289.221 297.112,292.000 300.428 C 292.319 300.809,297.160 304.821,300.040 307.092 C 304.719 310.781,307.076 312.204,312.000 314.311 C 314.121 315.218,321.133 316.726,324.663 317.033 C 328.374 317.357,329.200 317.708,329.200 318.964 C 329.200 321.777,329.581 322.339,331.795 322.799 C 334.108 323.279,339.977 322.758,341.846 321.906 C 342.709 321.513,342.937 321.545,343.247 322.099 C 346.073 327.148,364.000 326.175,364.000 320.973 C 364.000 320.438,364.180 320.000,364.400 320.000 C 364.947 320.000,364.907 316.547,364.347 315.501 C 364.096 315.032,363.926 313.203,363.966 311.392 L 364.038 308.129 362.205 306.090 C 360.626 304.333,360.055 303.983,358.086 303.559 C 355.535 303.010,353.247 301.977,351.301 300.496 C 350.154 299.622,349.696 299.526,347.379 299.674 L 344.756 299.841 342.104 296.820 C 335.958 289.817,324.620 279.061,319.037 274.936 C 316.238 272.868,315.683 272.541,309.000 269.017 C 303.944 266.350,298.882 263.386,297.000 261.990 C 296.120 261.337,294.770 260.524,294.000 260.184 C 293.230 259.843,292.185 259.356,291.677 259.102 C 290.573 258.550,284.322 253.328,283.913 252.616 C 283.755 252.342,281.539 250.786,278.988 249.158 C 262.244 238.476,261.956 238.206,259.161 230.600 C 257.894 227.152,257.028 225.863,255.102 224.558 C 251.998 222.455,248.521 219.560,247.596 218.309 L 246.684 217.075 248.607 217.339 C 249.665 217.484,251.086 217.955,251.765 218.386 C 253.581 219.539,257.589 221.399,259.937 222.179 C 262.428 223.007,262.551 223.175,261.779 224.723 C 260.093 228.101,263.350 230.192,267.800 228.588 C 269.915 227.827,270.667 227.854,271.938 228.739 C 274.712 230.669,279.102 230.981,282.003 229.454 C 282.991 228.934,284.468 228.388,285.284 228.239 C 290.334 227.322,295.070 218.808,293.135 214.126 C 292.879 213.507,292.564 212.101,292.435 211.002 C 292.227 209.231,292.025 208.891,290.660 208.009 C 289.229 207.085,289.134 206.906,289.323 205.499 C 289.456 204.510,289.335 203.792,288.976 203.433 C 288.065 202.522,283.324 200.000,282.522 200.000 C 281.517 200.000,276.596 197.359,275.432 196.196 C 274.831 195.594,273.809 195.173,272.550 195.008 C 269.607 194.621,267.123 193.623,265.923 192.346 C 265.330 191.716,264.578 191.200,264.252 191.200 C 263.926 191.200,262.171 190.480,260.351 189.600 C 258.531 188.720,256.540 188.000,255.927 188.000 C 255.034 188.000,254.696 187.726,254.239 186.632 C 253.614 185.136,252.915 184.649,250.821 184.251 C 248.784 183.863,247.719 183.008,246.643 180.893 C 245.273 178.203,243.898 177.033,242.162 177.082 C 241.250 177.108,239.415 176.493,237.025 175.361 C 234.981 174.393,233.048 173.600,232.730 173.600 C 232.413 173.600,231.174 173.011,229.976 172.292 C 224.888 169.234,223.159 168.450,218.800 167.226 C 214.737 166.085,210.000 164.253,210.000 163.824 C 210.000 163.740,210.806 161.990,211.790 159.936 C 214.772 153.714,215.736 148.093,214.461 144.363 C 214.055 143.173,213.616 140.580,213.485 138.600 C 212.182 118.790,189.513 111.489,179.516 127.660 C 177.515 130.898,177.064 139.300,178.367 149.104 C 178.766 152.111,178.729 152.632,177.952 154.904 C 177.468 156.318,177.075 158.527,177.045 160.000 C 176.991 162.634,175.413 164.039,174.381 162.370 C 174.209 162.091,172.788 161.770,171.114 161.633 C 169.280 161.483,167.729 161.115,167.044 160.666 C 166.223 160.128,164.585 159.839,160.699 159.548 C 156.478 159.232,155.237 158.996,154.309 158.335 C 153.387 157.678,152.811 157.567,151.414 157.777 C 150.062 157.980,149.325 157.854,148.141 157.219 C 147.300 156.769,146.047 156.400,145.357 156.400 C 144.427 156.400,143.405 155.829,141.418 154.200 C 139.942 152.990,138.614 151.995,138.467 151.989 C 138.320 151.982,137.390 151.245,136.400 150.350 C 135.410 149.454,133.880 148.248,133.000 147.668 C 132.120 147.088,129.690 145.327,127.600 143.753 C 123.230 140.464,121.636 139.552,116.450 137.374 C 113.537 136.152,112.019 135.198,109.650 133.106 C 107.972 131.624,106.412 130.409,106.181 130.406 C 105.053 130.391,102.821 127.339,102.373 125.200 C 101.792 122.423,100.859 120.887,98.425 118.698 C 97.363 117.743,95.831 115.925,95.020 114.658 C 94.209 113.391,93.313 112.265,93.028 112.155 C 92.743 112.046,91.994 110.676,91.364 109.111 C 90.494 106.950,89.907 106.082,88.922 105.501 C 88.209 105.080,87.220 104.076,86.724 103.268 C 85.032 100.515,83.151 99.705,81.445 100.997 M79.526 102.633 C 80.023 102.981,81.178 104.451,82.092 105.899 C 84.001 108.921,84.537 108.685,83.024 105.488 C 81.011 101.232,83.495 100.139,85.725 104.300 C 86.436 105.626,87.113 106.400,87.563 106.400 C 88.524 106.400,89.323 107.417,90.175 109.725 C 90.565 110.784,91.586 112.459,92.443 113.449 C 93.299 114.439,94.000 115.410,94.000 115.607 C 94.000 115.805,95.338 117.397,96.973 119.146 C 99.764 122.130,101.200 124.803,101.200 127.015 C 101.200 127.900,103.948 131.084,105.274 131.736 C 106.003 132.094,107.680 133.383,109.000 134.600 C 111.207 136.636,113.121 137.776,116.794 139.243 C 119.086 140.158,123.129 142.284,124.303 143.192 C 124.906 143.658,126.630 145.021,128.133 146.220 C 129.636 147.419,131.085 148.400,131.353 148.400 C 131.621 148.400,132.821 149.265,134.020 150.321 C 135.219 151.378,137.572 153.266,139.248 154.517 C 140.924 155.769,142.521 157.064,142.797 157.396 C 143.088 157.747,143.956 158.000,144.865 158.000 C 145.727 158.000,147.170 158.377,148.072 158.837 C 149.317 159.472,150.116 159.613,151.382 159.424 C 152.745 159.219,153.185 159.320,153.776 159.974 C 154.252 160.500,154.998 160.770,155.950 160.763 C 159.611 160.734,165.062 161.353,165.882 161.891 C 166.372 162.212,168.174 162.642,169.886 162.848 C 171.973 163.099,173.198 163.449,173.600 163.911 C 174.013 164.385,174.886 164.623,176.400 164.672 L 178.600 164.745 178.621 160.672 C 178.639 157.165,178.785 156.295,179.669 154.400 C 180.473 152.679,180.614 151.982,180.317 151.200 C 179.060 147.885,178.497 136.603,179.388 132.595 C 182.186 120.018,196.550 116.240,206.015 125.591 C 210.487 130.009,211.988 133.595,211.997 139.885 C 211.999 141.063,212.367 142.891,212.842 144.085 C 214.498 148.241,212.039 158.873,208.491 162.902 C 207.771 163.719,208.365 165.600,209.342 165.600 C 209.649 165.600,210.872 166.030,212.060 166.555 C 213.248 167.080,216.013 167.987,218.204 168.571 C 221.890 169.552,226.816 171.840,229.152 173.657 C 229.676 174.064,230.846 174.593,231.752 174.833 C 232.658 175.073,234.840 175.994,236.600 176.881 C 238.807 177.992,240.308 178.490,241.436 178.483 C 243.566 178.471,243.814 178.656,245.143 181.231 C 246.390 183.650,249.267 186.160,250.384 185.805 C 251.343 185.501,253.088 186.979,253.389 188.351 C 253.619 189.399,253.820 189.511,255.839 189.719 C 257.094 189.849,258.759 190.368,259.719 190.929 C 260.643 191.470,262.162 192.139,263.092 192.417 C 264.023 192.695,264.880 193.222,264.996 193.588 C 265.277 194.473,268.882 196.020,271.503 196.379 C 272.752 196.550,273.971 197.004,274.503 197.496 C 275.877 198.765,280.637 201.248,282.496 201.666 C 285.821 202.413,287.569 203.933,287.585 206.092 C 287.599 207.895,287.676 208.023,289.219 208.810 C 290.950 209.693,291.564 210.596,290.891 211.269 C 290.605 211.555,290.710 212.197,291.229 213.342 C 293.549 218.450,290.028 225.289,284.207 226.981 C 282.931 227.352,281.464 227.933,280.945 228.273 C 279.284 229.361,274.932 228.850,272.385 227.267 L 270.275 225.955 268.363 226.778 C 263.883 228.705,260.690 226.589,264.354 224.119 L 265.703 223.211 262.211 221.605 C 260.291 220.722,258.553 220.000,258.349 220.000 C 257.855 220.000,253.266 217.685,252.000 216.798 C 251.013 216.106,242.637 214.830,242.167 215.300 C 242.047 215.420,242.806 216.211,243.853 217.059 C 244.900 217.906,246.307 219.200,246.978 219.933 C 247.650 220.666,249.867 222.531,251.904 224.076 C 256.096 227.258,256.795 228.102,257.803 231.200 C 260.076 238.188,264.217 242.322,275.139 248.504 C 278.135 250.201,282.209 253.224,285.800 256.418 C 287.910 258.294,290.476 260.139,292.000 260.875 C 293.430 261.566,295.230 262.619,296.000 263.217 C 297.589 264.450,304.439 268.410,309.811 271.202 C 316.557 274.707,318.926 276.468,328.406 285.025 C 334.059 290.128,341.684 297.967,343.366 300.406 C 343.991 301.313,344.400 301.551,345.000 301.359 C 347.750 300.478,349.168 300.685,351.711 302.342 C 353.176 303.296,355.111 304.156,356.402 304.427 C 361.640 305.524,363.568 308.403,362.411 313.396 C 362.098 314.746,362.161 315.120,362.820 315.822 C 363.735 316.795,363.783 317.618,363.052 319.800 C 361.359 324.858,345.648 325.923,344.173 321.080 C 343.520 318.934,342.723 318.624,341.551 320.060 L 340.476 321.377 335.738 321.388 L 331.000 321.400 330.600 318.931 C 330.094 315.808,330.403 316.014,325.540 315.558 C 312.919 314.375,306.959 311.362,292.800 299.009 C 275.906 284.268,270.157 279.926,264.112 277.340 C 251.889 272.112,253.161 272.448,251.812 274.088 C 249.739 276.608,245.117 281.200,244.653 281.200 C 244.395 281.200,241.517 278.650,238.256 275.532 L 232.327 269.865 229.464 270.632 C 225.350 271.735,211.459 271.736,207.600 270.634 C 206.170 270.226,203.412 269.847,201.471 269.793 C 198.500 269.710,197.856 269.572,197.399 268.919 C 197.100 268.493,195.538 267.544,193.928 266.810 C 192.317 266.076,189.672 264.869,188.049 264.128 C 184.608 262.556,179.924 261.601,178.879 262.257 C 178.327 262.604,178.140 263.652,177.883 267.842 C 177.708 270.679,177.323 273.934,177.027 275.075 L 176.489 277.151 178.886 282.252 C 182.234 289.375,182.791 297.157,180.055 298.571 C 179.335 298.944,178.757 299.718,178.406 300.782 C 178.020 301.950,177.587 302.488,176.892 302.663 C 174.886 303.166,151.534 302.501,147.908 301.838 C 143.224 300.981,137.869 299.407,137.677 298.832 C 136.902 296.506,139.492 294.989,144.729 294.702 C 149.310 294.450,152.913 292.923,153.121 291.144 C 153.191 290.547,153.614 289.938,154.121 289.704 C 155.187 289.213,156.567 285.577,156.178 284.284 C 156.031 283.798,155.668 282.860,155.372 282.200 C 154.447 280.142,153.138 275.198,152.193 270.200 C 151.695 267.560,150.806 263.060,150.220 260.200 C 146.053 239.887,149.692 228.594,160.677 227.748 C 164.618 227.444,175.880 228.563,181.548 229.821 C 187.464 231.134,187.291 231.282,185.418 226.495 C 184.579 224.353,183.574 221.700,183.183 220.600 C 181.249 215.156,178.574 208.226,176.908 204.341 C 176.077 202.404,164.321 195.617,158.600 193.770 C 157.500 193.415,156.150 192.811,155.600 192.427 C 155.050 192.044,153.520 191.263,152.200 190.691 C 150.880 190.120,147.460 188.638,144.600 187.398 C 123.500 178.247,108.846 163.803,103.999 147.379 C 103.606 146.046,103.064 145.450,100.953 144.029 C 97.726 141.856,97.801 141.993,97.792 138.352 C 97.785 135.413,97.739 135.265,96.494 134.218 C 95.784 133.620,94.465 131.662,93.564 129.866 C 91.150 125.057,90.476 124.008,88.379 121.800 C 87.334 120.700,85.801 118.720,84.971 117.400 C 83.591 115.203,79.653 109.879,77.308 107.040 C 76.503 106.065,76.393 105.617,76.621 104.240 C 77.036 101.728,77.706 101.358,79.526 102.633 " stroke="none" fill="#1a0f0f" fill-rule="evenodd"></path></g></svg>