<svg xmlns="http://www.w3.org/2000/svg" viewBox="0 0 133.49 282.1"><defs><style>.cls-1{fill:#fff;}.cls-2{fill:#d80e15;}.cls-3{fill:#c2aa23;}</style></defs><g id="Layer_2" data-name="Layer 2"><g id="a15ed16b-50e2-4dcc-ae1a-d834a8d737ca"><path class="cls-1" d="M13.85,208.56v23.12H10.44V208.56H2v-3.07H22.32v3.07Z"/><path class="cls-1" d="M32.78,205.49v26.19H29.33V205.49Z"/><path class="cls-1" d="M45.7,225.81l-2.36,5.92h-3.6l10.93-26.19h2.92l11,26.19H61l-2.4-5.92Zm6.41-16-5.24,13H57.35Z"/><path class="cls-1" d="M97.38,231.68H94V211.87l-8.31,14.61H83.22l-8.31-14.61v19.81H71.46V205.49h3.45l9.53,17,9.52-17h3.42Z"/><path class="cls-1" d="M105.65,220.48v-3.83q0-5.73,2.88-8.64c1.92-1.94,4.64-2.9,8.16-2.9a11.63,11.63,0,0,1,7.48,2.2,7.45,7.45,0,0,1,2.73,6.15v.19h-3.45v-.15a4.67,4.67,0,0,0-1.77-3.91,8.07,8.07,0,0,0-5-1.37q-3.84,0-5.7,2.09c-1.24,1.4-1.87,3.56-1.88,6.5v3.68c0,2.86.63,5,1.88,6.34s3.16,2,5.71,2a7.94,7.94,0,0,0,5-1.37,4.7,4.7,0,0,0,1.75-4v-.15h3.42v.19a7.49,7.49,0,0,1-2.76,6.17,11.54,11.54,0,0,1-7.49,2.22c-3.49,0-6.2-1-8.1-2.9S105.65,224.3,105.65,220.48Z"/><path class="cls-1" d="M10.2,255.55v26.19H6.75V255.55Z"/><path class="cls-1" d="M18.54,270.54v-3.83q0-5.73,2.88-8.64c1.92-1.94,4.64-2.9,8.16-2.9a11.63,11.63,0,0,1,7.48,2.2,7.45,7.45,0,0,1,2.73,6.15v.19H36.34v-.15a4.67,4.67,0,0,0-1.77-3.91,8.14,8.14,0,0,0-5-1.37q-3.83,0-5.69,2.09c-1.24,1.4-1.86,3.57-1.86,6.53v3.68c0,2.86.63,5,1.88,6.34S27.06,279,29.61,279a7.94,7.94,0,0,0,5-1.37,4.7,4.7,0,0,0,1.75-4v-.15h3.41v.19a7.47,7.47,0,0,1-2.72,6.22,11.54,11.54,0,0,1-7.49,2.22c-3.49,0-6.2-1-8.11-2.91S18.54,274.36,18.54,270.54Z"/><path class="cls-1" d="M73.6,281.74H70.19V261.92l-8.31,14.62H59.45l-8.31-14.62v19.82H47.68V255.55h3.46l9.52,17,9.53-17H73.6Z"/><path class="cls-1" d="M86.48,275.81l-2.35,5.92H80.52l10.93-26.19h2.92l11,26.19h-3.64l-2.42-5.92Zm6.41-16L87.66,272.9H98.13Z"/><path class="cls-1" d="M118.37,258.62v23.12H115V258.62h-8.46v-3.07h20.34v3.07Z"/><rect class="cls-2" y="240.95" width="133.49" height="2.89"/><path class="cls-3" d="M95.12,3.29V9.23a21,21,0,0,1,6.94,4.93c3.12,3.42,2.42,4,2.42,4l.07,1.72s4.86.1,5.87.8,2.31,2.42,11.07,1.51c0,0,2-8.55-6.55-14.39C107.6,3.17,95.12,3.29,95.12,3.29Z"/><path class="cls-3" d="M119.88,71.12a34.12,34.12,0,0,1-1.31-7.45,7.24,7.24,0,0,1-2.82,1.14s.5,2.51-.5,3.92-1.51.2-3.53-3.32S104.08,50,103.37,47.3a8.27,8.27,0,0,1,.61-6.65c1.1-1.91,2.31-7.84,1.1-11.67s-5.13-3.62-7.54-3.42-4.33-3-4.93-4.83A102.54,102.54,0,0,0,86.77,6.14C83.45-.4,74.59,0,74.59,0V2.72C78.52,4.93,81.33,9,84,15.4s2.11,9.46.5,9.56-1.61-2.12-1.51-3.22-2.31-3.63-3.22-4.43a4.53,4.53,0,0,1-1.3-2.72c-.1-.7-2.22-1-2.22-1a15.78,15.78,0,0,1-2.51-2.32,24.53,24.53,0,0,0-5.23-3.62,40.53,40.53,0,0,0-5.83.1c-2.9.3-12.09-1.31-15.31-1.81s-7.85,0-8.75,1.41-.81,3.52-.71,5.56c6.24,3.25,5.94,6.21,6.54,8.32s2.22,3.53,4.83,4.43,4.93,5.44,4.93,5.44a82.52,82.52,0,0,1,8.47.4c2.83.4,1.6,1.51,0,1.41s-3.43.4-6.15,1.51-22.74,8.85-31.8,12.07-13,2.52-17,2.42-5.33,8.15-5.33,8.15,1.31,1.71,5.84,6.44S19.56,66.62,23.78,65a26.74,26.74,0,0,1,9.66-1.71,51.21,51.21,0,0,1-2.51,8.15,58.12,58.12,0,0,0-4.73,15.6c-1.11,7.24,0,13.48,4.43,13.88s10.36-5,15.13-8.75S69,84.63,72,83.42s2.81-2.31,2.71-5.13-3.62-4.43-9.46-5.13-7.85-2.32-8.65-4c2.21,0,5.53-1.51,7.65-2.92.9-5.13,6.44-10.66,9.76-15s2.51-7,2.51-7,6.34-1.61,11.88-.51,6,5.44,6,5.44S109.68,80,112.5,84.89s6.64,6,8.65,2.42S120.88,74.13,119.88,71.12Zm-76.28,11c-7.25,3.12-10.87,6.34-12.38,7.15-.3-4.73,1.61-11,4.33-15.5s6-11,6-11c5.53,3.32,12.57,15.3,12.57,15.3a96.08,96.08,0,0,0-10.52,4ZM61.21,54.81c-6.14,4.23-14,3.63-14,3.63.71-.91,1.71-2.32,5.84-4.53s13.55-6,13.55-6S64.63,52.6,61.21,54.81Z"/><path class="cls-3" d="M98.44,119.62S92,116.7,92,111.57,93.41,104,93.41,104s2.52-2,4.33-1.81,6.64.7,11.07,8.25a25.86,25.86,0,0,1,0,6.34,5.27,5.27,0,0,0-1.41,2.82c-.71.4-1.91-.5-3-.81S100.25,119.81,98.44,119.62Z"/><path class="cls-3" d="M70.67,137.93s-1.41-4.73,1.51-7.44,16.3-8.25,17.61-11.37l.8-.2v-1.11a55.45,55.45,0,0,1-2.82-5.34c-.5-1.4-.8-1.51-.8-1.51s-5.64-3.21-15-2.91c-.41-1.81-4.21-7.85-12.17-8.66a33.71,33.71,0,0,0,2.35,7c.56,1.41,1.9,5,.47,7.75-2.82,2.91-10,8.45-15,9.25-1.51-2-2.11-2.61-2.41-3.72a1.54,1.54,0,0,0-1.51-1.06s-4,4.68-3,9.21S45,138.09,54.18,137.88c0,0,1.61.71,0,1.51s-9.69-.1-11.48,0-4.72,1.21-3.51,3.53a20.17,20.17,0,0,0,1.71,2.91s.61.51-.5,1.41-1.91,2-7.35,2.22c0,0-.1,1.81-3.22,4.73s-5.43,4.73-6.24,7.44a21.1,21.1,0,0,0-1,5.84c1.46,1.16,2.46,2.16,4.46,2.16s4.23.91,6.75-2.21,5.53-9,7.75-11.67a19.93,19.93,0,0,1,5.13-4.33s9,3.82,10.26,5.13c.2,2.42,2.32,13.69,1.71,17.41-1.2-.2-4.73-4-5-5.33s-3.42-1.82-3.42-1.82-1.31,3.73-1.61,5.24.3,5.33,1.51,8.25S52,185.13,52,186.24c1.91.2,4.73.3,6.64,1.1s6.44.51,8.46-2.51,1.4-7.35.3-11-2.32-8.15-1.61-11.27,1.31-4.53,1.81-5c2-.51,18-5.94,23.55-6.54s15.69-1,17.3-.1,4.94,2.41,4.94,2.41l1.71.4s.7-1.41,1.61-1.1,1.3,1.61,2.71,1.51,7.35,1.2,8.56,1.1a11.84,11.84,0,0,0,3.12-1v-.81a126.86,126.86,0,0,0-23.95-9.36,91,91,0,0,0-31.3-3.62C73.89,140,70.84,138.68,70.67,137.93Z"/></g></g></svg>